<svg id="Layer_1" data-name="Layer 1" xmlns="http://www.w3.org/2000/svg" viewBox="0 0 150 150.16"><defs><style>.cls-1{fill:#01562d;}.cls-2{fill:#fff;}.cls-3{fill:#fdfcfb;}</style></defs><title>hand icon</title><path class="cls-1" d="M0,75.09C-1.31,35.61,33.33-3.15,80.33.2c20,1.43,36.72,9.61,50.2,24.3,14.74,16.06,20.64,35.26,19.28,56.83-2.13,33.88-32,71.66-80.75,68.67C33.58,147.81-.78,117,0,75.09Z" transform="translate(0 0)"/><path class="cls-2" d="M93.82,82.35c8.43-1.23,16.36-4.39,24.6-6.34,4.74-1.11,9.52-1.92,14.4-1.05a26.57,26.57,0,0,1,3.51.9,2.42,2.42,0,0,1,1.94,2.38,2.07,2.07,0,0,1-1.84,2.33c-1.35.9-2.92.07-4.33.43a3.36,3.36,0,0,1,3.17.71c1.5.71,3.11,1.53,2.76,3.5s-2,2.39-3.63,2.77c-1.46.34-3.42,0-3,2.71.16,1-1.21,1.52-2.1,2-2.48,1.31-5.22,1.55-7.94,1.79-7.8.67-15.48,1.63-22.65,5.22-4.67,2.34-9.77,1.18-14.68.79-9.67-.77-19.31-1.75-29-1.41a7.39,7.39,0,0,0-6.33,3.2c-.71,1-1.3,2.46-3,1.4a3.51,3.51,0,0,1-2.16-1.53c-3.35-4.11-7.3-7.73-9.92-12.41,0-.1,0-.24,0-.29-3.14-3.46-.12-4.73,2.14-6.54a24.5,24.5,0,0,0,7.17-9c3-6.73,8.85-8,15.17-8.49a21.61,21.61,0,0,1,8.37,1.22c7.56,2.41,15.35,3.64,23.17,4.77a32.05,32.05,0,0,1,6.19,1.47c3.71,1.33,4.16,4,1.2,6.65a26,26,0,0,1-3.24,2.2c-.09.19-.41.23-.38.47S93.64,82.41,93.82,82.35Z" transform="translate(0 0)"/><path class="cls-2" d="M99.61,61.52c-1.21,1.34-1.64,4.36-3.89,3.85C94.07,65,93.61,62.32,92.35,61A52.68,52.68,0,0,0,81.26,52.4c-3.75-2.29-7.32-4.65-9.22-8.95-2.36-5.31-1.44-10.33,1-15.2,4.42-8.8,15.22-8.91,21-2.5l2.24,2.52c3.43-4.54,7.72-7.23,13.39-6.7s10,4.81,11.41,10.71c.26,1.08.51,2.16.76,3.24a6.29,6.29,0,0,1,0,3c-.89,5.9-4.6,9.68-9.39,12.73-3.13,2-6.56,3.59-9,6.52C102,59.42,100.64,60.23,99.61,61.52Z" transform="translate(0 0)"/><path class="cls-2" d="M39.17,129c-8.73-10-17.46-20-26.33-30-1.45-1.63-1.49-2.58.19-3.89,2.86-2.23,5.64-4.57,8.45-6.88,1.14-.94,2.05-1.18,3.23.18Q37.32,103,50.07,117.34c1.29,1.46.79,2.38-.58,3.43C46.06,123.41,42.72,126.17,39.17,129Z" transform="translate(0 0)"/><path class="cls-3" d="M33.61,89.73c4.37,4.35,8,9.31,12.08,13.94.05,1.16,1,1.77,1.72,2.37,1.53,1.22,1.26,2.1,0,3.37-1.54,1.5-2.17.43-3.07-.62-5.38-6.27-10.72-12.56-16.22-18.72-1.22-1.37-1-2.07.17-3.17s2-1,2.86.34A6.5,6.5,0,0,0,33.61,89.73Z" transform="translate(0 0)"/></svg>