<svg id="Layer_1" data-name="Layer 1" xmlns="http://www.w3.org/2000/svg" viewBox="0 0 150.12 150.02"><defs><style>.cls-1{fill:#fbfbfd;}.cls-2{fill:#203d73;}.cls-3{fill:#b89d76;}</style></defs><title>key club svg</title><path class="cls-1" d="M150.11,75.11q0,37.24,0,74.5c0,.42-.09.51-.51.51H.62c-.42,0-.52-.09-.52-.51Q.12,75.1.1.62C.1.2.2.1.62.1h149c.42,0,.51.1.51.52Q150.11,37.86,150.11,75.11ZM89.83,144.23c.38,0,.75,0,1.13,0s.78,0,1.18-.08A22,22,0,0,0,103,140.64a9.66,9.66,0,0,1,3.24-1.37,26.69,26.69,0,0,0,9.87-4.47,11.93,11.93,0,0,0,4.45-5.52c.08-.24.27-.29.46-.37.81-.34,1.63-.67,2.43-1a11,11,0,0,0,3.87-2.66,34.32,34.32,0,0,0,4.08-6,9,9,0,0,1,2.3-2.89,12.16,12.16,0,0,0,3.89-5.21,19,19,0,0,0,1.1-3.24,16.39,16.39,0,0,1,2.89-6.11,16.07,16.07,0,0,0,2.92-7.7c.2-1.64.13-3.3.19-5a6,6,0,0,1,.7-2.85,12.54,12.54,0,0,0,1.44-4.76,23,23,0,0,0-.89-9.4,1.21,1.21,0,0,1-.1-.65,27,27,0,0,0,.48-3.69,17.73,17.73,0,0,0-.73-7,22.27,22.27,0,0,0-2-4.09,6.62,6.62,0,0,1-1.1-3,22.35,22.35,0,0,0-6-14.56,2.1,2.1,0,0,1-.45-.76,31.18,31.18,0,0,0-3.6-6.92,23.79,23.79,0,0,0-7.1-6.78,3.1,3.1,0,0,1-1-.93c-.67-1-1.35-1.94-2.07-2.88a13.84,13.84,0,0,0-8.76-5.68,1.12,1.12,0,0,1-.57-.32l-2.68-2.24A26.08,26.08,0,0,0,103,8.34a10.22,10.22,0,0,0-4-.65,4.22,4.22,0,0,1-2.12-.47c-1.1-.56-2.22-1.08-3.32-1.65a17.15,17.15,0,0,0-8.34-2c-1.26,0-2.5.21-3.76.3a6.71,6.71,0,0,1-2.68-.1,21.16,21.16,0,0,0-6.39-1.22,17.08,17.08,0,0,0-9.17,2,2.66,2.66,0,0,1-1.28.34,45.79,45.79,0,0,0-5.11.29,14.7,14.7,0,0,0-6.34,2.16A17.1,17.1,0,0,1,46,9.51c-.86.26-1.71.56-2.55.87-2,.74-4,1.36-5.57,2.85-1.17,1.11-2.38,2.2-3.45,3.4a14,14,0,0,1-4.53,3.46,22.78,22.78,0,0,0-5.53,3.73,7.36,7.36,0,0,0-1.1,1.2c-1.07,1.52-2,3.13-2.93,4.73a12.94,12.94,0,0,1-2.17,2.93,21.73,21.73,0,0,0-6.66,11.81A2.75,2.75,0,0,1,11,45.64,23.68,23.68,0,0,0,8.22,50a17.08,17.08,0,0,0-1.65,9.74,2.67,2.67,0,0,1-.2,1.4c-.43,1.06-.83,2.13-1.22,3.2a15.05,15.05,0,0,0-.85,7.8c.26,1.42.64,2.81.94,4.23a6.32,6.32,0,0,1,.21,2.83,17.71,17.71,0,0,0,2,13.61,14.2,14.2,0,0,1,1.82,5.9,17.06,17.06,0,0,0,3.13,8.49,30.25,30.25,0,0,0,2.51,3.16,2.56,2.56,0,0,1,.57.83A23.56,23.56,0,0,0,26,123.38a2.22,2.22,0,0,1,.78.71c.75,1.2,1.5,2.42,2.28,3.6a12.94,12.94,0,0,0,7.65,5.84,19.38,19.38,0,0,1,2.91,1,1.62,1.62,0,0,1,.67.49A16.44,16.44,0,0,0,51.31,141a5.45,5.45,0,0,1,2.65.63,17.13,17.13,0,0,0,2.95,1.44,23.65,23.65,0,0,0,7.85,2.24,12.59,12.59,0,0,0,3.92-.21,7.09,7.09,0,0,1,4,.45,13.4,13.4,0,0,0,4.84.9,31.08,31.08,0,0,0,7.16-1.14C86.38,144.86,88,144,89.83,144.23Z" transform="translate(0 -0.1)"/><path class="cls-2" d="M89.83,144.23c-1.84-.25-3.45.63-5.13,1.08a31.08,31.08,0,0,1-7.16,1.14,13.4,13.4,0,0,1-4.84-.9,7.09,7.09,0,0,0-4-.45,12.59,12.59,0,0,1-3.92.21,23.65,23.65,0,0,1-7.85-2.24A17.13,17.13,0,0,1,54,141.63a5.45,5.45,0,0,0-2.65-.63,16.44,16.44,0,0,1-11.07-5.95,1.62,1.62,0,0,0-.67-.49,19.38,19.38,0,0,0-2.91-1A12.94,12.94,0,0,1,29,127.69c-.78-1.18-1.53-2.4-2.28-3.6a2.22,2.22,0,0,0-.78-.71,23.56,23.56,0,0,1-10.48-12.16,2.56,2.56,0,0,0-.57-.83,30.25,30.25,0,0,1-2.51-3.16,17.06,17.06,0,0,1-3.13-8.49,14.2,14.2,0,0,0-1.82-5.9,17.71,17.71,0,0,1-2-13.61,6.32,6.32,0,0,0-.21-2.83c-.3-1.42-.68-2.81-.94-4.23a15.05,15.05,0,0,1,.85-7.8c.39-1.07.79-2.14,1.22-3.2a2.67,2.67,0,0,0,.2-1.4A17.08,17.08,0,0,1,8.22,50,23.68,23.68,0,0,1,11,45.64a2.75,2.75,0,0,0,.53-1.15,21.73,21.73,0,0,1,6.66-11.81,12.94,12.94,0,0,0,2.17-2.93c.94-1.6,1.86-3.21,2.93-4.73a7.36,7.36,0,0,1,1.1-1.2,22.78,22.78,0,0,1,5.53-3.73,14,14,0,0,0,4.53-3.46c1.07-1.2,2.28-2.29,3.45-3.4,1.57-1.49,3.61-2.11,5.57-2.85.84-.31,1.69-.61,2.55-.87a17.1,17.1,0,0,0,4.52-2.16,14.7,14.7,0,0,1,6.34-2.16,45.79,45.79,0,0,1,5.11-.29,2.66,2.66,0,0,0,1.28-.34,17.08,17.08,0,0,1,9.17-2A21.16,21.16,0,0,1,78.78,3.8a6.71,6.71,0,0,0,2.68.1c1.26-.09,2.5-.28,3.76-.3a17.15,17.15,0,0,1,8.34,2c1.1.57,2.22,1.09,3.32,1.65A4.22,4.22,0,0,0,99,7.69a10.22,10.22,0,0,1,4,.65,26.08,26.08,0,0,1,7.28,4.25L113,14.83a1.12,1.12,0,0,0,.57.32,13.84,13.84,0,0,1,8.76,5.68c.72.94,1.4,1.9,2.07,2.88a3.1,3.1,0,0,0,1,.93,23.79,23.79,0,0,1,7.1,6.78,31.18,31.18,0,0,1,3.6,6.92,2.1,2.1,0,0,0,.45.76,22.35,22.35,0,0,1,6,14.56,6.62,6.62,0,0,0,1.1,3,22.27,22.27,0,0,1,2,4.09,17.73,17.73,0,0,1,.73,7,27,27,0,0,1-.48,3.69,1.21,1.21,0,0,0,.1.65,23,23,0,0,1,.89,9.4,12.54,12.54,0,0,1-1.44,4.76,6,6,0,0,0-.7,2.85c-.06,1.65,0,3.31-.19,5a16.07,16.07,0,0,1-2.92,7.7,16.39,16.39,0,0,0-2.89,6.11,19,19,0,0,1-1.1,3.24,12.16,12.16,0,0,1-3.89,5.21,9,9,0,0,0-2.3,2.89,34.32,34.32,0,0,1-4.08,6,11,11,0,0,1-3.87,2.66c-.8.36-1.62.69-2.43,1-.19.08-.38.13-.46.37a11.93,11.93,0,0,1-4.45,5.52,26.69,26.69,0,0,1-9.87,4.47,9.66,9.66,0,0,0-3.24,1.37,22,22,0,0,1-10.87,3.51c-.4,0-.79.07-1.18.08S90.21,144.23,89.83,144.23ZM12.4,74.49a64.75,64.75,0,0,0,.44,7.36,63.47,63.47,0,0,0,2.1,10.4,62.54,62.54,0,0,0,7.66,16.59,64.7,64.7,0,0,0,16,16.78,57.34,57.34,0,0,0,9.42,5.6,63.37,63.37,0,0,0,25.49,6.24,65,65,0,0,0,7-.18,59.6,59.6,0,0,0,9.94-1.56,60.68,60.68,0,0,0,23.13-11,72.54,72.54,0,0,0,6.25-5.35A61.27,61.27,0,0,0,129,108a63.38,63.38,0,0,0,7.41-16.7,65.14,65.14,0,0,0,2.27-14.93,62.72,62.72,0,0,0-.3-8,63.69,63.69,0,0,0-1.9-10.44,62.17,62.17,0,0,0-7.22-16.54,61,61,0,0,0-15.59-17.08A62.06,62.06,0,0,0,74.07,11.58a60,60,0,0,0-10.78,1.16A61.49,61.49,0,0,0,36.05,25.43,63,63,0,0,0,14.39,58.85,64.47,64.47,0,0,0,12.4,74.49ZM75.86,10.6c.9,0,1.9,0,2.89-.14,2.6-.27,5.22-.49,7.82-.87A29.24,29.24,0,0,0,93.07,8c.34-.13.39-.32.24-.6a1.9,1.9,0,0,0-1-.86,23.59,23.59,0,0,0-4.37-1.21,16,16,0,0,0-5.64-.21,33.21,33.21,0,0,0-10.54,4c-.24.14-.46.29-.42.59s.31.35.54.42A15.8,15.8,0,0,0,75.86,10.6ZM57,12.62c.72-.13,1.43-.24,2.12-.39a50.58,50.58,0,0,0,11.72-4c1.64-.79,3.32-1.48,5-2.29.35-.17.71-.34.65-.81s-.44-.55-.81-.65H75.6a20,20,0,0,0-4.7-.39,17.88,17.88,0,0,0-9.29,3A53.49,53.49,0,0,0,57,11.07a3.89,3.89,0,0,0-.6.73c-.35.5-.3.61.28.73ZM107.54,137a1.38,1.38,0,0,0,.72-.17c.74-.32,1.48-.63,2.21-1a18.19,18.19,0,0,0,7.74-6.18,26.87,26.87,0,0,0,3.36-8.11c.06-.22.29-.49,0-.71s-.53,0-.75.17a41.45,41.45,0,0,0-5.26,4.56,47.92,47.92,0,0,0-4.5,5.25,32.26,32.26,0,0,1-2.88,3.81,5.34,5.34,0,0,0-1.08,1.71C106.83,137,106.89,137.05,107.54,137Zm-29.08,7.44a19.17,19.17,0,0,0,3.63-.35c2.63-.56,5.2-1.25,7.33-3,.9-.75,2-1.33,2.92-2A9,9,0,0,0,94.57,137c.28-.38.19-.62-.28-.69a2.42,2.42,0,0,0-.89,0c-.81.14-1.62.31-2.43.49A63.94,63.94,0,0,0,74.45,143c-.23.12-.45.23-.4.54s.24.39.51.44A18.89,18.89,0,0,0,78.46,144.48ZM116.51,23.22c-.25,0-.52-.07-.65.17a.51.51,0,0,0,.1.57c.47.56.91,1.15,1.41,1.68a33.52,33.52,0,0,0,4.69,4c3.09,2.24,6.43,4.08,9.7,6a4.7,4.7,0,0,0,1.23.66c.67.18.81.08.64-.59a9.93,9.93,0,0,0-1.8-3.71,21.7,21.7,0,0,0-10.27-7.26l-2.64-1A9.56,9.56,0,0,0,116.51,23.22ZM29.23,28.07c0,.63.16.74.67.5l.2-.11a21.16,21.16,0,0,0,6.22-5.35c1.63-1.9,3.08-3.93,4.58-5.92a46.11,46.11,0,0,1,3.32-4.05.7.7,0,0,0,.18-.77c-.09-.24-.38-.17-.6-.19a1.57,1.57,0,0,0-.7.17,21.58,21.58,0,0,0-9.31,6.85,30.6,30.6,0,0,0-4.23,7.46A5,5,0,0,0,29.23,28.07Zm109.31,75h-.06c0-.34-.06-.68-.06-1a40.72,40.72,0,0,0-.38-5.84,3.13,3.13,0,0,0-.28-1.13c-.22-.37-.43-.37-.65,0a25.39,25.39,0,0,0-2.44,5.36,67.52,67.52,0,0,0-2.84,14.36c0,.24-.24.54.08.72s.57-.08.81-.25a6.32,6.32,0,0,0,1.42-1.36,18.62,18.62,0,0,0,3.77-7.76C138.1,105.07,138.33,104.05,138.54,103ZM42,18.38c-.05.63.13.72.72.49a36.79,36.79,0,0,0,7.81-4.21A56.9,56.9,0,0,0,58.58,8a3.17,3.17,0,0,0,.74-1c.18-.43,0-.64-.36-.67a4.15,4.15,0,0,0-1.17-.06,18.58,18.58,0,0,0-6.54,2.37A25.69,25.69,0,0,0,45.77,13c-1.26,1.35-2.22,2.93-3.38,4.36A2,2,0,0,0,42,18.38Zm61-3.47c-.52,0-.9,0-1,.44s.31.5.56.64c.94.52,1.88,1,2.83,1.51A78.52,78.52,0,0,0,121.6,24c.31.08.64.24.87-.12s0-.63-.16-.92a16.58,16.58,0,0,0-9-6.54A49.65,49.65,0,0,0,103,14.91Zm-90,34.29a26.28,26.28,0,0,0,.16,3.2,7.87,7.87,0,0,0,.32,1.93c.2.54.41.58.77.16a6,6,0,0,0,1.15-2.05c.46-1.47.92-2.93,1.46-4.37a38.6,38.6,0,0,0,1.93-8q.39-2.68.76-5.39a.82.82,0,0,0-.34-.94c-.4-.22-.57.15-.78.37a18.2,18.2,0,0,0-2.69,3.59A22.85,22.85,0,0,0,12.94,49.2Zm94.63-34.73h1.18c.19,0,.38,0,.48-.22a.54.54,0,0,0,0-.63,4.7,4.7,0,0,0-.59-.59c-.47-.39-1.06-.58-1.53-.94a15.92,15.92,0,0,0-9.68-2.93,32.29,32.29,0,0,0-6.87.69,12.68,12.68,0,0,0-2.19.52c-.27.11-.53.25-.55.57s.31.38.54.47a5.19,5.19,0,0,0,.7.22c1.27.31,2.56.51,3.83.87A60.9,60.9,0,0,0,107.57,14.47ZM66.31,143.94a15.52,15.52,0,0,0,3.16-.31A28.25,28.25,0,0,0,77,140.94c.54-.27,1.09-.51,1.62-.77.23-.12.43-.29.38-.57s-.28-.4-.58-.44a42.57,42.57,0,0,0-10.09,0c-3.21.36-6.38.93-9.54,1.52-.4.08-.78.17-.84.61s.3.61.62.77A16.25,16.25,0,0,0,66.31,143.94ZM145.5,78.67a25.37,25.37,0,0,0-.53-4.4,31.93,31.93,0,0,0-4.86-10.56c-.21-.33-.53-.83-.86-.7s-.32.78-.29,1.21a67.6,67.6,0,0,0,1.86,11.24,79.92,79.92,0,0,0,2.76,8.79c.08.22.07.56.44.55s.46-.28.55-.55A18,18,0,0,0,145.5,78.67Zm-5.08-27.75c0-.07,0-.14,0-.22a18.71,18.71,0,0,0-5.77-11.1,31.68,31.68,0,0,0-5.13-3.55,8.44,8.44,0,0,0-2.63-1.23c-.51-.12-.51.13-.45.47a1.62,1.62,0,0,0,.19.4,44.08,44.08,0,0,0,6.48,8.81c2.1,2.29,4.3,4.46,6.46,6.69.16.16.32.33.58.23A.46.46,0,0,0,140.42,50.92ZM138.92,90c0,1.89,0,3.46.15,5s.32,3.28.58,4.91c.1.62.42.75.94.38a2.87,2.87,0,0,0,.82-1,15.26,15.26,0,0,0,1.91-7.49,29.61,29.61,0,0,0-2.13-11,5,5,0,0,0-.53-1c-.27-.41-.48-.4-.74,0a3.61,3.61,0,0,0-.53,1.64C139.19,84.4,138.87,87.33,138.92,90ZM92.64,142.68l.46-.05a17,17,0,0,0,6.53-2.19,28.42,28.42,0,0,0,9.45-8.6,2.78,2.78,0,0,0,.5-1.17c.08-.41-.1-.46-.41-.43a1.32,1.32,0,0,0-.43.12,57,57,0,0,0-6.6,3.38c-2.86,1.7-5.34,3.94-8.07,5.81a8.78,8.78,0,0,0-2.16,2c-.43.58-.3.88.4,1Zm38.66-33.05c-.06-.27.15-.63-.25-.78s-.58.15-.78.4c-.78,1-1.54,1.94-2.24,3a55,55,0,0,0-6.69,13.93c-.14.41,0,.56.38.63a1.14,1.14,0,0,0,.91-.17,12.81,12.81,0,0,0,2.51-2,19.1,19.1,0,0,0,2.37-2.71C130.05,118.24,130.9,114,131.3,109.63ZM144.66,65a16.06,16.06,0,0,0-1.72-7.13,24.83,24.83,0,0,0-4.34-6c-1-1.13-2.06-2.28-3.12-3.39-.28-.3-.72-.64-1.08-.4s-.12.69,0,1.06a62.94,62.94,0,0,0,4.29,9.77c1.47,2.83,3.19,5.51,4.93,8.18.14.22.3.46.55.41a.64.64,0,0,0,.46-.58,1.46,1.46,0,0,0,.06-.5A4.92,4.92,0,0,1,144.66,65ZM20.05,38.84c0,.44,0,.72,0,1s0,.51.2.61.4-.16.56-.3A17.45,17.45,0,0,0,25,34a95,95,0,0,1,4.91-10.53,8,8,0,0,0,.61-1.51c.18-.51,0-.71-.55-.6a1.08,1.08,0,0,0-.4.2,19.71,19.71,0,0,0-4.42,3.94A22.52,22.52,0,0,0,20.05,38.84Zm35.35,101a29.83,29.83,0,0,0,4.43-.34c1.15-.18,2.28-.44,3.42-.66a.47.47,0,0,0,.2-.89,1.36,1.36,0,0,0-.4-.2,45.22,45.22,0,0,0-11.95-2.51c-1.61-.14-3.22-.24-4.83-.31a21.57,21.57,0,0,0-2.41.09c-.55,0-.6.22-.28.66a6.2,6.2,0,0,0,2.07,1.7A18.8,18.8,0,0,0,55.4,139.83Zm-8.91-6,1.71-.1c.14,0,.33,0,.39-.17s-.08-.32-.19-.44a1.18,1.18,0,0,0-.32-.21l-2.43-1.43A29.53,29.53,0,0,0,41,129l-5.85-2.16a36.89,36.89,0,0,0-4.83-1.48c-.23,0-.5-.16-.68.09s0,.43.1.63a10.49,10.49,0,0,0,1.09,1.57A18.68,18.68,0,0,0,38,132.34,22.73,22.73,0,0,0,46.49,133.84ZM11,99.27a7.72,7.72,0,0,0,.33,1.67,21.38,21.38,0,0,0,4.8,7.79A22.29,22.29,0,0,0,24,114.26c.17.07.36.21.52,0a.52.52,0,0,0,0-.54,3.72,3.72,0,0,0-.19-.34A44.66,44.66,0,0,0,21,108.27a47.49,47.49,0,0,0-9.19-9.38c-.19-.15-.37-.29-.61-.19S11,99.09,11,99.27Zm4.82.36c0-.06,0-.19-.08-.32a38.43,38.43,0,0,0-2.89-7.84c-1.76-3.75-4-7.27-5.95-10.91-.21-.39-.38-.25-.56,0a.72.72,0,0,0-.09.43,35.6,35.6,0,0,0,.49,5.26c.34,1.83,1.36,3.4,1.82,5.18A7.65,7.65,0,0,0,9,92.64,17.71,17.71,0,0,0,12.07,97a31.52,31.52,0,0,0,3,2.87c.17.14.33.26.55.16S15.8,99.83,15.79,99.63Zm18.69,25.7c.25,0,.48,0,.62-.22s0-.42-.16-.6a7.16,7.16,0,0,0-1.15-1.31,60.06,60.06,0,0,0-5.56-4.47,62.75,62.75,0,0,0-8.09-5.08c-.25-.12-.54-.41-.81-.14a.84.84,0,0,0-.06,1,8.25,8.25,0,0,0,.8,1.6,19.6,19.6,0,0,0,10.46,7.94,19.35,19.35,0,0,1,2.6.87A5,5,0,0,0,34.48,125.33ZM11.17,82.72a27.2,27.2,0,0,0-.51-5.09c-.56-3.08-1.52-6.06-2.35-9.07-.32-1.16-.58-2.33-.92-3.47-.1-.31-.18-.81-.61-.78s-.38.52-.46.83a18.56,18.56,0,0,0-.65,4.2,24.87,24.87,0,0,0,.27,5.1,32.15,32.15,0,0,0,1.34,3.87A20.66,20.66,0,0,0,10.19,84a1,1,0,0,0,.48.46c.27.1.53.13.51-.31S11.17,83.19,11.17,82.72ZM12,60.77c0-.52,0-1.05,0-1.58-.1-2.49-.34-5-.58-7.45-.08-.84-.18-1.68-.28-2.52,0-.23-.08-.46-.35-.51s-.33.19-.43.36a15.35,15.35,0,0,0-1.07,2.29,21.31,21.31,0,0,0-.5,12.4,19.66,19.66,0,0,0,1.73,4.56c.07.13.1.32.27.33s.29-.17.36-.31a3.33,3.33,0,0,0,.29-.91A31.65,31.65,0,0,0,12,60.77Z" transform="translate(0 -0.1)"/><path class="cls-3" d="M12.4,74.49a64.47,64.47,0,0,1,2-15.64A63,63,0,0,1,36.05,25.43,61.49,61.49,0,0,1,63.29,12.74a60,60,0,0,1,10.78-1.16,62.06,62.06,0,0,1,39.62,12.73,61,61,0,0,1,15.59,17.08,62.17,62.17,0,0,1,7.22,16.54,63.69,63.69,0,0,1,1.9,10.44,62.72,62.72,0,0,1,.3,8,65.14,65.14,0,0,1-2.27,14.93A63.38,63.38,0,0,1,129,108a61.27,61.27,0,0,1-9.2,11.41,72.54,72.54,0,0,1-6.25,5.35,60.68,60.68,0,0,1-23.13,11,59.6,59.6,0,0,1-9.94,1.56,65,65,0,0,1-7,.18A63.37,63.37,0,0,1,48,131.22a57.34,57.34,0,0,1-9.42-5.6,64.7,64.7,0,0,1-16-16.78,62.54,62.54,0,0,1-7.66-16.59,63.47,63.47,0,0,1-2.1-10.4A64.75,64.75,0,0,1,12.4,74.49Zm63.16,60.85c1.09,0,2.18-.05,3.27-.1a54.33,54.33,0,0,0,7.43-.84,59.3,59.3,0,0,0,23.53-9.62,60.61,60.61,0,0,0,26.59-54.65A62.17,62.17,0,0,0,134.27,58a60.64,60.64,0,0,0-7.87-17.1,62,62,0,0,0-15.62-16.06A56.69,56.69,0,0,0,96.2,17.27a60.8,60.8,0,0,0-22.08-3.54A60.23,60.23,0,0,0,39.55,25.5a67.5,67.5,0,0,0-6,5,58.09,58.09,0,0,0-10,12.34c-1.16,2-2.29,4-3.27,6A60.16,60.16,0,0,0,14.75,70a60.24,60.24,0,0,0,2.46,22.23,61,61,0,0,0,25,33.23A60,60,0,0,0,75.56,135.34Z" transform="translate(0 -0.1)"/><path class="cls-3" d="M75.86,10.6a15.8,15.8,0,0,1-4-.46c-.23-.07-.51-.13-.54-.42s.18-.45.42-.59a33.21,33.21,0,0,1,10.54-4,16,16,0,0,1,5.64.21A23.59,23.59,0,0,1,92.3,6.55a1.9,1.9,0,0,1,1,.86c.15.28.1.47-.24.6a29.24,29.24,0,0,1-6.5,1.58c-2.6.38-5.22.6-7.82.87C77.76,10.56,76.76,10.56,75.86,10.6Z" transform="translate(0 -0.1)"/><path class="cls-3" d="M57,12.62l-.36-.09c-.58-.12-.63-.23-.28-.73a3.89,3.89,0,0,1,.6-.73,53.49,53.49,0,0,1,4.63-3.91,17.88,17.88,0,0,1,9.29-3,20,20,0,0,1,4.7.39h.05c.37.1.76.2.81.65s-.3.64-.65.81c-1.63.81-3.31,1.5-5,2.29a50.58,50.58,0,0,1-11.72,4C58.45,12.38,57.74,12.49,57,12.62Z" transform="translate(0 -0.1)"/><path class="cls-3" d="M107.54,137c-.65,0-.71-.07-.48-.65a5.34,5.34,0,0,1,1.08-1.71,32.26,32.26,0,0,0,2.88-3.81,47.92,47.92,0,0,1,4.5-5.25,41.45,41.45,0,0,1,5.26-4.56c.22-.17.43-.39.75-.17s.1.49,0,.71a26.87,26.87,0,0,1-3.36,8.11,18.19,18.19,0,0,1-7.74,6.18c-.73.35-1.47.66-2.21,1A1.38,1.38,0,0,1,107.54,137Z" transform="translate(0 -0.1)"/><path class="cls-3" d="M78.46,144.48a18.89,18.89,0,0,1-3.9-.46c-.27-.05-.47-.15-.51-.44s.17-.42.4-.54A63.94,63.94,0,0,1,91,136.76c.81-.18,1.62-.35,2.43-.49a2.42,2.42,0,0,1,.89,0c.47.07.56.31.28.69a9,9,0,0,1-2.23,2.13c-1,.68-2,1.26-2.92,2-2.13,1.79-4.7,2.48-7.33,3A19.17,19.17,0,0,1,78.46,144.48Z" transform="translate(0 -0.1)"/><path class="cls-3" d="M116.51,23.22a9.56,9.56,0,0,1,2.41.64l2.64,1a21.7,21.7,0,0,1,10.27,7.26,9.93,9.93,0,0,1,1.8,3.71c.17.67,0,.77-.64.59a4.7,4.7,0,0,1-1.23-.66c-3.27-2-6.61-3.8-9.7-6a33.52,33.52,0,0,1-4.69-4c-.5-.53-.94-1.12-1.41-1.68a.51.51,0,0,1-.1-.57C116,23.15,116.26,23.26,116.51,23.22Z" transform="translate(0 -0.1)"/><path class="cls-3" d="M29.23,28.07a5,5,0,0,1,.33-1.41,30.6,30.6,0,0,1,4.23-7.46,21.58,21.58,0,0,1,9.31-6.85,1.57,1.57,0,0,1,.7-.17c.22,0,.51,0,.6.19a.7.7,0,0,1-.18.77,46.11,46.11,0,0,0-3.32,4.05c-1.5,2-2.95,4-4.58,5.92a21.16,21.16,0,0,1-6.22,5.35l-.2.11C29.39,28.81,29.21,28.7,29.23,28.07Z" transform="translate(0 -0.1)"/><path class="cls-3" d="M138.54,103c-.21,1-.44,2-.63,3.07a18.62,18.62,0,0,1-3.77,7.76,6.32,6.32,0,0,1-1.42,1.36c-.24.17-.49.43-.81.25s-.1-.48-.08-.72a67.52,67.52,0,0,1,2.84-14.36A25.39,25.39,0,0,1,137.11,95c.22-.36.43-.36.65,0a3.13,3.13,0,0,1,.28,1.13,40.72,40.72,0,0,1,.38,5.84c0,.33,0,.67.06,1Z" transform="translate(0 -0.1)"/><path class="cls-3" d="M42,18.38a2,2,0,0,1,.44-1c1.16-1.43,2.12-3,3.38-4.36a25.69,25.69,0,0,1,5.48-4.37,18.58,18.58,0,0,1,6.54-2.37A4.15,4.15,0,0,1,59,6.34c.37,0,.54.24.36.67a3.17,3.17,0,0,1-.74,1,56.9,56.9,0,0,1-8.1,6.69,36.79,36.79,0,0,1-7.81,4.21C42.08,19.1,41.9,19,42,18.38Z" transform="translate(0 -0.1)"/><path class="cls-3" d="M103,14.91a49.65,49.65,0,0,1,10.3,1.46,16.58,16.58,0,0,1,9,6.54c.21.29.38.58.16.92s-.56.2-.87.12a78.52,78.52,0,0,1-16.25-6.45c-.95-.49-1.89-1-2.83-1.51-.25-.14-.69-.2-.56-.64S102.46,14.9,103,14.91Z" transform="translate(0 -0.1)"/><path class="cls-3" d="M12.94,49.2a22.85,22.85,0,0,1,2.74-11.45,18.2,18.2,0,0,1,2.69-3.59c.21-.22.38-.59.78-.37a.82.82,0,0,1,.34.94q-.37,2.7-.76,5.39a38.6,38.6,0,0,1-1.93,8c-.54,1.44-1,2.9-1.46,4.37a6,6,0,0,1-1.15,2.05c-.36.42-.57.38-.77-.16a7.87,7.87,0,0,1-.32-1.93A26.28,26.28,0,0,1,12.94,49.2Z" transform="translate(0 -0.1)"/><path class="cls-3" d="M107.57,14.47a60.9,60.9,0,0,1-14.73-2c-1.27-.36-2.56-.56-3.83-.87a5.19,5.19,0,0,1-.7-.22c-.23-.09-.56-.12-.54-.47s.28-.46.55-.57a12.68,12.68,0,0,1,2.19-.52,32.29,32.29,0,0,1,6.87-.69,15.92,15.92,0,0,1,9.68,2.93c.47.36,1.06.55,1.53.94a4.7,4.7,0,0,1,.59.59.54.54,0,0,1,0,.63c-.1.21-.29.22-.48.22Z" transform="translate(0 -0.1)"/><path class="cls-3" d="M66.31,143.94a16.25,16.25,0,0,1-7.7-1.84c-.32-.16-.67-.36-.62-.77s.44-.53.84-.61c3.16-.59,6.33-1.16,9.54-1.52a42.57,42.57,0,0,1,10.09,0c.3,0,.52.14.58.44s-.15.45-.38.57c-.53.26-1.08.5-1.62.77a28.25,28.25,0,0,1-7.57,2.69A15.52,15.52,0,0,1,66.31,143.94Z" transform="translate(0 -0.1)"/><path class="cls-3" d="M145.5,78.67a18,18,0,0,1-.93,5.58c-.09.27-.2.54-.55.55s-.36-.33-.44-.55a79.92,79.92,0,0,1-2.76-8.79A67.6,67.6,0,0,1,139,64.22c0-.43-.18-1,.29-1.21s.65.37.86.7A31.93,31.93,0,0,1,145,74.27,25.37,25.37,0,0,1,145.5,78.67Z" transform="translate(0 -0.1)"/><path class="cls-3" d="M140.42,50.92a.46.46,0,0,1-.29.5c-.26.1-.42-.07-.58-.23-2.16-2.23-4.36-4.4-6.46-6.69a44.08,44.08,0,0,1-6.48-8.81,1.62,1.62,0,0,1-.19-.4c-.06-.34-.06-.59.45-.47a8.44,8.44,0,0,1,2.63,1.23,31.68,31.68,0,0,1,5.13,3.55,18.71,18.71,0,0,1,5.77,11.1C140.41,50.78,140.41,50.85,140.42,50.92Z" transform="translate(0 -0.1)"/><path class="cls-3" d="M138.92,90c0-2.64.27-5.57.47-8.51a3.61,3.61,0,0,1,.53-1.64c.26-.41.47-.42.74,0a5,5,0,0,1,.53,1,29.61,29.61,0,0,1,2.13,11,15.26,15.26,0,0,1-1.91,7.49,2.87,2.87,0,0,1-.82,1c-.52.37-.84.24-.94-.38-.26-1.63-.45-3.27-.58-4.91S138.91,91.86,138.92,90Z" transform="translate(0 -0.1)"/><path class="cls-3" d="M92.64,142.68l-.33,0c-.7-.16-.83-.46-.4-1a8.78,8.78,0,0,1,2.16-2c2.73-1.87,5.21-4.11,8.07-5.81a57,57,0,0,1,6.6-3.38,1.32,1.32,0,0,1,.43-.12c.31,0,.49,0,.41.43a2.78,2.78,0,0,1-.5,1.17,28.42,28.42,0,0,1-9.45,8.6,17,17,0,0,1-6.53,2.19Z" transform="translate(0 -0.1)"/><path class="cls-3" d="M131.3,109.63c-.4,4.38-1.25,8.61-3.79,12.32a19.1,19.1,0,0,1-2.37,2.71,12.81,12.81,0,0,1-2.51,2,1.14,1.14,0,0,1-.91.17c-.34-.07-.52-.22-.38-.63A55,55,0,0,1,128,112.22c.7-1,1.46-2,2.24-3,.2-.25.41-.54.78-.4S131.24,109.36,131.3,109.63Z" transform="translate(0 -0.1)"/><path class="cls-3" d="M144.66,65a4.92,4.92,0,0,0,0,1.42,1.46,1.46,0,0,1-.06.5.64.64,0,0,1-.46.58c-.25,0-.41-.19-.55-.41-1.74-2.67-3.46-5.35-4.93-8.18a62.94,62.94,0,0,1-4.29-9.77c-.12-.37-.25-.88,0-1.06s.8.1,1.08.4c1.06,1.11,2.08,2.26,3.12,3.39a24.83,24.83,0,0,1,4.34,6A16.06,16.06,0,0,1,144.66,65Z" transform="translate(0 -0.1)"/><path class="cls-3" d="M20.05,38.84a22.52,22.52,0,0,1,5.11-13.38,19.71,19.71,0,0,1,4.42-3.94,1.08,1.08,0,0,1,.4-.2c.54-.11.73.09.55.6a8,8,0,0,1-.61,1.51A95,95,0,0,0,25,34a17.45,17.45,0,0,1-4.2,6.19c-.16.14-.31.42-.56.3s-.18-.39-.2-.61S20.05,39.28,20.05,38.84Z" transform="translate(0 -0.1)"/><path class="cls-3" d="M55.4,139.83a18.8,18.8,0,0,1-9.75-2.46,6.2,6.2,0,0,1-2.07-1.7c-.32-.44-.27-.62.28-.66a21.57,21.57,0,0,1,2.41-.09c1.61.07,3.22.17,4.83.31a45.22,45.22,0,0,1,11.95,2.51,1.36,1.36,0,0,1,.4.2.47.47,0,0,1-.2.89c-1.14.22-2.27.48-3.42.66A29.83,29.83,0,0,1,55.4,139.83Z" transform="translate(0 -0.1)"/><path class="cls-3" d="M46.49,133.84a22.73,22.73,0,0,1-8.46-1.5,18.68,18.68,0,0,1-7.25-4.72,10.49,10.49,0,0,1-1.09-1.57c-.11-.2-.25-.41-.1-.63s.45-.14.68-.09a36.89,36.89,0,0,1,4.83,1.48L41,129a29.53,29.53,0,0,1,4.7,2.52l2.43,1.43a1.18,1.18,0,0,1,.32.21c.11.12.26.26.19.44s-.25.16-.39.17Z" transform="translate(0 -0.1)"/><path class="cls-3" d="M11,99.27c.06-.18,0-.46.25-.57s.42,0,.61.19A47.49,47.49,0,0,1,21,108.27a44.66,44.66,0,0,1,3.34,5.13,3.72,3.72,0,0,1,.19.34.52.52,0,0,1,0,.54c-.16.19-.35,0-.52,0a22.29,22.29,0,0,1-7.92-5.53,21.38,21.38,0,0,1-4.8-7.79A7.72,7.72,0,0,1,11,99.27Z" transform="translate(0 -0.1)"/><path class="cls-3" d="M15.79,99.63c0,.2,0,.34-.15.4s-.38,0-.55-.16a31.52,31.52,0,0,1-3-2.87A17.71,17.71,0,0,1,9,92.64a7.65,7.65,0,0,1-.47-1.2c-.46-1.78-1.48-3.35-1.82-5.18A35.6,35.6,0,0,1,6.22,81a.72.72,0,0,1,.09-.43c.18-.26.35-.4.56,0,2,3.64,4.19,7.16,6,10.91a38.43,38.43,0,0,1,2.89,7.84C15.74,99.44,15.77,99.57,15.79,99.63Z" transform="translate(0 -0.1)"/><path class="cls-3" d="M34.48,125.33a5,5,0,0,1-1.35-.41,19.35,19.35,0,0,0-2.6-.87,19.6,19.6,0,0,1-10.46-7.94,8.25,8.25,0,0,1-.8-1.6.84.84,0,0,1,.06-1c.27-.27.56,0,.81.14a62.75,62.75,0,0,1,8.09,5.08,60.06,60.06,0,0,1,5.56,4.47,7.16,7.16,0,0,1,1.15,1.31c.13.18.32.35.16.6S34.73,125.32,34.48,125.33Z" transform="translate(0 -0.1)"/><path class="cls-3" d="M11.17,82.72c0,.47,0,.94,0,1.4s-.24.41-.51.31a1,1,0,0,1-.48-.46,20.66,20.66,0,0,1-2.91-5.66,32.15,32.15,0,0,1-1.34-3.87,24.87,24.87,0,0,1-.27-5.1,18.56,18.56,0,0,1,.65-4.2c.08-.31.07-.79.46-.83s.51.47.61.78c.34,1.14.6,2.31.92,3.47.83,3,1.79,6,2.35,9.07A27.2,27.2,0,0,1,11.17,82.72Z" transform="translate(0 -0.1)"/><path class="cls-3" d="M12,60.77a31.65,31.65,0,0,1-.56,6.66,3.33,3.33,0,0,1-.29.91c-.07.14-.17.32-.36.31s-.2-.2-.27-.33a19.66,19.66,0,0,1-1.73-4.56,21.31,21.31,0,0,1,.5-12.4,15.35,15.35,0,0,1,1.07-2.29c.1-.17.15-.42.43-.36s.33.28.35.51c.1.84.2,1.68.28,2.52.24,2.48.48,5,.58,7.45C12,59.72,12,60.25,12,60.77Z" transform="translate(0 -0.1)"/><path class="cls-2" d="M75.56,135.34a61,61,0,0,1-50.28-26.43,60.55,60.55,0,0,1-8.07-16.7A60.24,60.24,0,0,1,14.75,70a60.16,60.16,0,0,1,5.54-21.15c1-2.07,2.11-4.06,3.27-6a58.09,58.09,0,0,1,10-12.34,67.5,67.5,0,0,1,6-5A60.23,60.23,0,0,1,74.12,13.73,60.8,60.8,0,0,1,96.2,17.27a56.69,56.69,0,0,1,14.58,7.59A62,62,0,0,1,126.4,40.92,60.64,60.64,0,0,1,134.27,58a62.17,62.17,0,0,1,2.11,12.11,60.78,60.78,0,0,1-26.59,54.65,59.3,59.3,0,0,1-23.53,9.62,54.33,54.33,0,0,1-7.43.84C77.74,135.29,76.65,135.35,75.56,135.34Zm-.53-19a43.37,43.37,0,0,0,39.27-25,41.27,41.27,0,0,0,3.42-15.9,47.21,47.21,0,0,0-.4-7.13,42.09,42.09,0,0,0-2.7-10.48,41.57,41.57,0,0,0-12.56-16.9,39.58,39.58,0,0,0-23.83-9.19,43.47,43.47,0,0,0-14,1.57c-6.17,1.77-11.9,4.35-16.71,8.77A41.26,41.26,0,0,0,36.1,58.85a48,48,0,0,0-2.47,20.56,37.88,37.88,0,0,0,3.62,12.75A42.32,42.32,0,0,0,51.8,109,40.84,40.84,0,0,0,75,116.29ZM51.1,119.2l.86-.11a2.61,2.61,0,0,0,2.22-3.61,4.49,4.49,0,0,0-2-2.23,31.63,31.63,0,0,1-3.86-2.63,3.31,3.31,0,0,0-1-.59,1.14,1.14,0,0,0-.77-.07c-.37.11-.65.37-.47.75a1.89,1.89,0,0,1-.25,2,44.9,44.9,0,0,1-3,4.16,2,2,0,0,1-1.45.77c-.63,0-.88.44-.64,1a2.05,2.05,0,0,0,.51.73,11.69,11.69,0,0,0,3,2.09,2.12,2.12,0,0,0,.69.21c.51,0,1-.37.81-.82-.37-1.21.39-2,1-2.81.22-.29.48-.25.73,0a1.28,1.28,0,0,1,.24,1.37c-.21.72-.46,1.42-.69,2.13a2.44,2.44,0,0,0,.66,2.58,11.58,11.58,0,0,0,1.2.92,2.14,2.14,0,0,0,1.6.5.67.67,0,0,0,.59-1,1.46,1.46,0,0,1,0-1.63A3.43,3.43,0,0,0,51.1,119.2ZM40,38.82v0c-.95,0-1.91,0-2.87,0a.86.86,0,0,1-1-.8,3.07,3.07,0,0,1,.45-2.82,2.22,2.22,0,0,0,.37-.63.74.74,0,0,0-.77-1,1.4,1.4,0,0,0-.95.43c-.6.68-1.19,1.35-1.78,2A2.38,2.38,0,0,0,33,37a.73.73,0,0,0,.49,1,1.24,1.24,0,0,1,1,1.1,2.73,2.73,0,0,1,0,1.55c-.05.16-.12.27-.32.19a2.78,2.78,0,0,1-1.05-1.59c0-.85-.57-1.2-1.36-.87a2.1,2.1,0,0,0-.68.5c-.51.57-1,1.14-1.53,1.73a2.35,2.35,0,0,0-.62,1.52c0,.7.4,1.09,1.07.89a1.07,1.07,0,0,1,1,.22,21.76,21.76,0,0,1,4.41,4,1.12,1.12,0,0,1,.31.91c-.07.63.4.94,1,.76a2.06,2.06,0,0,0,.92-.62l2-2.28a1.55,1.55,0,0,0,.39-.8c.1-.65-.3-1.08-1-.94a1.7,1.7,0,0,1-1.33-.3c-.25-.16-.55-.35-.43-.7s.47-.36.8-.34c1.24.08,2.48.14,3.71.2a.61.61,0,0,0,.56-.16c.84-.91,1.62-1.87,2.37-2.84a.78.78,0,0,0,0-1.12.86.86,0,0,0-1.15-.26,1,1,0,0,1-.54.12Zm82.37,3.38a3.69,3.69,0,0,0-1.08-2.71c-1.34-1.54-2.81-3-4.1-4.56a1.12,1.12,0,0,0-.93-.45c-.45,0-.85.48-.65.84.32.55.07.93-.24,1.31a15.15,15.15,0,0,1-5.21,4.12.92.92,0,0,1-.8.1c-.49-.18-.86.11-.92.65a1.61,1.61,0,0,0,.66,1.3,46.9,46.9,0,0,1,3.48,3.84,5.73,5.73,0,0,0,2.27,1.8c2.33,1,4.85-1,4.27-3-.31-1-.17-1.06.93-1.15A2.41,2.41,0,0,0,122.38,42.2Zm-63.3,84a5.75,5.75,0,0,1,.42-2.06c.33-.77.6-.81,1.14-.18a17.74,17.74,0,0,1,1.51,2.56,32.23,32.23,0,0,0,2.15,3.62c.58.73,1.08.68,1.57-.13a11.19,11.19,0,0,0,.79-1.85c.61-1.63,1-3.33,1.75-4.91A1.78,1.78,0,0,1,69.72,122a.74.74,0,0,0,.32-1.37,5.45,5.45,0,0,0-3.54-1,.68.68,0,0,0-.51,1.15,1.79,1.79,0,0,1,.21,2c-.1.34-.19.75-.59.81s-.5-.34-.71-.57a3.41,3.41,0,0,1-.25-.37c-.7-1.24-1.4-2.48-2.11-3.72a4.57,4.57,0,0,0-4-1.9c-.91.15-1.11.63-.53,1.34.2.25.45.46.4.83s-.07.82-.14,1.23a17.7,17.7,0,0,1-1.47,4.29c-.27.57-.49,1.08-1.18,1.3a.62.62,0,0,0-.2,1.12,4.15,4.15,0,0,0,3.51,1.14c.76-.11,1-.71.49-1.32A1.1,1.1,0,0,1,59.08,126.17Zm58.26-15a5.69,5.69,0,0,0-5.56-5.68,6.4,6.4,0,0,0-6.55,6.17,5.79,5.79,0,0,0,5.67,5.8A6.57,6.57,0,0,0,117.34,111.12Zm6.71-6.66c0-.93-.46-1.29-1.22-1a1.15,1.15,0,0,1-.7.16,5.45,5.45,0,0,1-2.06-1c-.5-.4-.48-.66.09-1a9.91,9.91,0,0,1,2-.74,43.77,43.77,0,0,0,4.77-1.46c1-.43,1.11-.94.27-1.69a13.14,13.14,0,0,0-1.8-1.25c-1.31-.83-2.69-1.57-3.92-2.52-.57-.44-1.15-.84-1-1.72a.74.74,0,0,0-.5-.8.73.73,0,0,0-.83.19,8.14,8.14,0,0,0-1.7,2.93.86.86,0,0,0,.24,1,.84.84,0,0,0,1,0c.21-.11.43-.26.68-.16a4.82,4.82,0,0,1,1.44.75c.46.39.44.65-.09.93a3.66,3.66,0,0,1-.62.25c-1.29.4-2.56.88-3.88,1.15-2,.4-2.62,1.91-3.13,3.56a.8.8,0,0,0,.29.91.66.66,0,0,0,.83,0,1.51,1.51,0,0,1,1.44-.08,16.26,16.26,0,0,1,4.85,2.89,1.42,1.42,0,0,1,.59,1c.08.72.61,1,1.21.54A4.62,4.62,0,0,0,124.05,104.46ZM31.5,86.3a7.36,7.36,0,0,0-.83-2.94.75.75,0,0,0-1.41.06A2.34,2.34,0,0,1,27,84.65c-.41-.05-.57-.27-.42-.66a6.72,6.72,0,0,1,.4-.86q1.11-1.89,2.23-3.78a2.39,2.39,0,0,0,.42-1.7A9.2,9.2,0,0,0,28.86,75a.86.86,0,0,0-.86-.53c-.39,0-.52.33-.58.66a1.32,1.32,0,0,1-.85,1,14.89,14.89,0,0,1-4.72,1.18,2.69,2.69,0,0,1-2.38-.44c-.31-.29-.72-.06-.91.4A4.53,4.53,0,0,0,19.33,81a.79.79,0,0,0,1.37-.25c.09-.18.09-.41.28-.53a4.63,4.63,0,0,1,2.54-.8c.4,0,.56.21.42.64a7.53,7.53,0,0,1-.67,1.47c-.79,1.32-1.59,2.63-2.37,4a7.29,7.29,0,0,0-.58,1.27c-.2.59,0,.88.61,1a4.69,4.69,0,0,0,1.79-.12c1.94-.28,3.84-.85,5.81-1a1.55,1.55,0,0,1,1.46.47.78.78,0,0,0,1.27.06A1.39,1.39,0,0,0,31.5,86.3ZM106.09,39a2.76,2.76,0,0,0,2.41-1c1-1.29,2.07-2.58,3.07-3.89a1.69,1.69,0,0,1,1.62-.87c.49.05.66-.29.65-.73a1.26,1.26,0,0,0-.36-.8A5.49,5.49,0,0,0,110.89,30c-.86-.25-1.2.16-1,1,.11.35.27.71,0,1.07-.85,1.19-1.68,2.4-2.57,3.56a1.86,1.86,0,0,1-2.66.34,1.91,1.91,0,0,1-.79-2.53,19.58,19.58,0,0,1,2.59-3.6.87.87,0,0,1,.85-.31.86.86,0,0,0,1-.47.83.83,0,0,0-.22-1.07,9,9,0,0,0-3.83-2.38c-.88-.23-1.31.21-1.08,1.09A1.37,1.37,0,0,1,103,28c-.88,1.24-1.74,2.49-2.6,3.74a3,3,0,0,0-.28,3.35A7.32,7.32,0,0,0,106.09,39ZM37.67,112.88c-1.76.2-2.7-.9-3.53-2.17a.66.66,0,0,1,.08-.87,20.32,20.32,0,0,1,1.61-1.47.41.41,0,0,1,.61,0,1.12,1.12,0,0,1,.15,1.51,3.87,3.87,0,0,0-.27.43c-.22.43-.06.73.43.79a1.45,1.45,0,0,0,.71-.1,5.82,5.82,0,0,0,2.63-2,1.42,1.42,0,0,0,.26-.68.6.6,0,0,0-.8-.73c-.27.08-.51.23-.77.32-.48.16-.81,0-1.16-.63-.25-.42.07-.59.3-.78.4-.34.82-.66,1.24-1a.65.65,0,0,1,.78-.07,3.67,3.67,0,0,1,1.5,3.57.81.81,0,0,0,1.23,1,2.75,2.75,0,0,0,1.18-1.25c.44-.93.35-1.27-.42-1.94a9.78,9.78,0,0,1-1.12-1.11c-1-1.2-2-2.41-3-3.61a8.42,8.42,0,0,0-1.17-1.29.67.67,0,0,0-.83-.07.61.61,0,0,0-.28.78,1.13,1.13,0,0,1-.32,1.28,23.58,23.58,0,0,1-4.6,3.78,1.73,1.73,0,0,1-1.74.27.56.56,0,0,0-.74.21.66.66,0,0,0,0,.79c.25.37.51.74.78,1.09,1.51,2,3.25,3.75,4.57,5.86a.84.84,0,0,0,.85.42,5.29,5.29,0,0,0,2.52-.87,1.14,1.14,0,0,0,.41-.46c.3-.57.1-.95-.54-1ZM55.09,32.57a4.71,4.71,0,0,0-.69-2.46.9.9,0,0,0-.91-.44c-.43.08-.37.47-.43.76a3,3,0,0,0-.05.67,2.23,2.23,0,0,1-.31,1.13,4.85,4.85,0,0,1-2.3,1.82.69.69,0,0,1-.85-.24,7.76,7.76,0,0,1-1-1.43c-.16-.29-.37-.62,0-.91a.93.93,0,0,1,1.19-.11c.2.13.36.33.56.47a.52.52,0,0,0,.9-.37,1.8,1.8,0,0,0,0-.73,6.22,6.22,0,0,0-1.39-2.48,2,2,0,0,0-.71-.54.66.66,0,0,0-.74,0,.59.59,0,0,0-.2.7,7.16,7.16,0,0,1,.23.75c.12.6-.36.76-.74,1s-.6-.05-.77-.32c-.29-.46-.56-.93-.83-1.4a.63.63,0,0,1,.18-.9c1.09-.75,2.17-1.53,3.61-.86a.73.73,0,0,0,.83-.17.76.76,0,0,0,.2-.83,2.75,2.75,0,0,0-1.53-1.77,1,1,0,0,0-1.28.2,15.49,15.49,0,0,1-2.64,2c-1.35.81-2.72,1.59-4,2.51-.31.22-.54.49-.39.9a.67.67,0,0,0,.86.43,1,1,0,0,1,1,.4,21.35,21.35,0,0,1,3.39,5.4,1.36,1.36,0,0,1,0,1.34.6.6,0,0,0,.07.82.66.66,0,0,0,.83.07,4.91,4.91,0,0,0,.44-.25c2.35-1.36,4.55-3,7-4.12C55.08,33.43,55.1,33,55.09,32.57Zm21.78-9.3a5.88,5.88,0,0,0,4.21,5.62,8.18,8.18,0,0,0,5-.34,1.94,1.94,0,0,0,1.43-1.69c.06-.42.15-.9-.24-1.21s-.78,0-1.12.22a3.35,3.35,0,0,1-2.44.33c-2-.41-3.31-3.62-2.2-5.47a1.59,1.59,0,0,1,2.1-.78,3.08,3.08,0,0,1,1.68,1.33c.23.37.44.75.7,1.09.57.77,1.17.81,1.91.18a1.75,1.75,0,0,0,.62-1.22,4.62,4.62,0,0,0-.37-2.14,1,1,0,0,0-1.09-.69,2,2,0,0,1-1.33-.35A6.78,6.78,0,0,0,83,17.37C80.11,17,76.78,20,76.87,23.27Zm3.58,108.12c.47,0,.94,0,1.41,0A2.62,2.62,0,0,0,83.2,131a.81.81,0,0,0,.38-.82c0-.34-.25-.42-.53-.46a1,1,0,0,1-.66-.58,13.91,13.91,0,0,1-1-1.84,42.83,42.83,0,0,0-2.59-5.53A5,5,0,0,0,77.07,120a1.73,1.73,0,0,0-2.71,1.27,11.33,11.33,0,0,1-.72,2.7,21.52,21.52,0,0,1-2.23,4.76c-.31.47-.61,1-1.27,1-.21,0-.3.19-.33.4-.1.54.08.84.66,1a7.39,7.39,0,0,0,3.34,0c.38-.08.74-.25.81-.69s-.31-.59-.63-.74a.48.48,0,0,1-.35-.51.56.56,0,0,1,.47-.57,9.34,9.34,0,0,1,3.29.13.57.57,0,0,1,.47.51c0,.28-.18.37-.39.48s-.65.34-.58.79.42.57.81.65A12,12,0,0,0,80.45,131.39Zm51.78-50.34a2.54,2.54,0,0,0-.16-1.2.81.81,0,0,0-.69-.42.49.49,0,0,0-.54.4.79.79,0,0,1-.51.47,5.91,5.91,0,0,1-1.39.44c-2,.46-4,.76-6,1.36a5.7,5.7,0,0,0-2.86,1.59,1.69,1.69,0,0,0,.64,2.84,13,13,0,0,1,3,1.56,20.65,20.65,0,0,1,4,3.14,1.47,1.47,0,0,1,.46,1.15.51.51,0,0,0,.41.58.76.76,0,0,0,1-.5,8.62,8.62,0,0,0,.73-3.32.87.87,0,0,0-.5-.93c-.42-.15-.66.13-.87.45a.46.46,0,0,1-.62.21.55.55,0,0,1-.41-.59,8.92,8.92,0,0,1,.79-3.09.58.58,0,0,1,.62-.39c.29,0,.33.28.39.49s.23.71.66.73.67-.32.81-.67A17.53,17.53,0,0,0,132.23,81.05ZM30.69,89.66A3.38,3.38,0,0,0,29.1,90c-.41.22-.81.53-.74,1a1.24,1.24,0,0,0,.9,1c.39.12.8.18,1.19.3s.62.07.66.43-.26.48-.48.65a1.85,1.85,0,0,1-.33.21,33.3,33.3,0,0,1-4.4,2,1.24,1.24,0,0,1-1.21-.16c-.3-.22-.63-.48-1-.21a1,1,0,0,0-.34,1.07,2.65,2.65,0,0,0,.1.55,12.86,12.86,0,0,0,1.84,3.64,2.66,2.66,0,0,0,.56.55.9.9,0,0,0,1,.19c.38-.18.37-.51.36-.86s0-.62.26-.87a17.31,17.31,0,0,1,5.35-2.79c.4-.15.49.06.49.41a2.25,2.25,0,0,1-.52,1.1,1.3,1.3,0,0,0,.08,1.57,1.23,1.23,0,0,0,1.49.27,3.89,3.89,0,0,0,1.92-2,.9.9,0,0,0-.14-1,4.36,4.36,0,0,1-1-1.49c-.79-1.65-1.88-3.16-2.32-5a1.08,1.08,0,0,0-.72-.67A3.87,3.87,0,0,0,30.69,89.66Zm53,32.14a5,5,0,0,0,.1.78c.14.47.33,1,.9,1s.87-.35,1.14-.77a2.26,2.26,0,0,0,.17-.35,10.59,10.59,0,0,1,.46-1c.23-.41.52-.41.77,0a2.7,2.7,0,0,1,.33.71,33.68,33.68,0,0,1,.91,3.59c.17,1,.44,1.93-.54,2.71-.38.3-.06.69.27.92a1.22,1.22,0,0,0,.81.18,11.42,11.42,0,0,0,4.62-1.26A1.89,1.89,0,0,0,94,128a.85.85,0,0,0,.29-.91c-.12-.37-.42-.45-.75-.47a1,1,0,0,1-1-.66,11.49,11.49,0,0,1-.61-1.5,23,23,0,0,1-1-4.09c-.06-.48.16-.56.57-.42a2.16,2.16,0,0,1,.83.64,1.36,1.36,0,0,0,1.7.25,1.32,1.32,0,0,0,.43-1.6,4.19,4.19,0,0,0-1.41-1.93,1.12,1.12,0,0,0-1.49,0,2.18,2.18,0,0,1-.72.31c-1.49.43-3,.88-4.47,1.3a2.9,2.9,0,0,1-1.09.21,1.16,1.16,0,0,0-1.21.66A4.19,4.19,0,0,0,83.64,121.8ZM59.78,31.08c1.14-.21,2.26-.51,3.37-.83a3,3,0,0,0,1.25-.62c.66-.64.53-1.32-.31-1.64a1.38,1.38,0,0,1-1-1c-.21-.85-.49-1.68-.74-2.52a1,1,0,0,1,0-.7c.34-.87.69-1.74,1-2.63a2.17,2.17,0,0,1,1-1.33.8.8,0,0,0,.34-1.11.76.76,0,0,0-1-.51c-.54.12-1.08.3-1.61.47a3.67,3.67,0,0,0-1.4.69.9.9,0,0,0,.08,1.55c.37.26.37.84,0,1.37s-.58.11-.8,0-.77-.46-.4-1.06c.22-.36-.07-.73-.43-.92A1.78,1.78,0,0,0,58.12,20a19.5,19.5,0,0,0-2.38.66,5.22,5.22,0,0,0-1.61.64c-.35.24-.67.51-.58,1s.5.59.89.66A8.59,8.59,0,0,1,58,25.14a2.61,2.61,0,0,1,.83,1.42c.15.6.31,1.2.49,1.79a1.19,1.19,0,0,1-.25,1.29.78.78,0,0,0-.23,1A1,1,0,0,0,59.78,31.08Zm72.87,43.38c-.08-1.65-.16-3.3-.25-4.95a1.94,1.94,0,0,1,.1-.71,1.25,1.25,0,0,0-.71-1.73,3.92,3.92,0,0,0-1.36-.5,2.1,2.1,0,0,0-1.53.18c-.68.42-.69,1,0,1.37l.45.24a2.23,2.23,0,0,1,1.23,2.43.6.6,0,0,1-.61.6c-2,.16-3.94.25-5.91.3a.71.71,0,0,1-.79-.45.93.93,0,0,0-1-.67c-.53.07-.67.51-.76.93a9.62,9.62,0,0,0-.06,3,4.59,4.59,0,0,0,.53,2,.89.89,0,0,0,.89.46.73.73,0,0,0,.7-.63c.07-.41.31-.49.65-.55,1.41-.25,2.84-.23,4.26-.34a3.25,3.25,0,0,1,2.93.87c.5.55,1.18.24,1.26-.52A13.25,13.25,0,0,0,132.65,74.46ZM93.44,20.06c-.67,0-1.08.06-1.32.52a.72.72,0,0,0,.23,1c.39.28.31.59.2.93-.38,1.23-.9,2.41-1.38,3.61s-.91,2.29-2.33,2.64c-.5.13-.55.7-.2,1.11a2.22,2.22,0,0,0,.85.53l4.91,2.08a2.72,2.72,0,0,1,.9.56,1.1,1.1,0,0,0,1.17.35,3.44,3.44,0,0,0,2.07-2.1,1.11,1.11,0,0,0-.31-1.38c-.47-.32-.83.09-1.14.34a2.21,2.21,0,0,1-2.71.17.66.66,0,0,1-.35-1q1.13-2.62,2.21-5.27a.87.87,0,0,1,1-.66.82.82,0,0,0,.89-.55.86.86,0,0,0-.36-1A9.94,9.94,0,0,0,93.44,20.06Zm8.29,104.79a.92.92,0,0,0,.49-.1,13.24,13.24,0,0,0,3.65-2.18,1.8,1.8,0,0,0,.26-.29.71.71,0,0,0-.32-1.21,3,3,0,0,0-.48-.15,1.61,1.61,0,0,1-1-.71,38.49,38.49,0,0,1-2.36-3.95,2.43,2.43,0,0,1-.34-2c.2-.69-.26-1.13-1-1.06a1.72,1.72,0,0,0-.59.16,15.8,15.8,0,0,0-3,1.82,2.34,2.34,0,0,0-.7.8c-.24.53,0,1,.51,1a2.19,2.19,0,0,1,1.67,1.17c.82,1.28,1.5,2.64,2.28,3.94a1.43,1.43,0,0,1,.08,1.48C100.58,124.34,100.9,124.85,101.73,124.85ZM18.61,69.55c0,.48,0,1,0,1.46s.11.87.55,1,.76-.09,1.06-.38a1.9,1.9,0,0,1,1.36-.51,38.91,38.91,0,0,1,4.83.31,1.65,1.65,0,0,1,1.35.64.94.94,0,0,0,1.07.43,1,1,0,0,0,.69-.87,15.14,15.14,0,0,0,.2-3.36,3.32,3.32,0,0,0-.22-1.16c-.3-.66-.82-.78-1.31-.25a2,2,0,0,1-1.6.67c-1.54,0-3.07-.24-4.6-.32a1.66,1.66,0,0,1-1.55-.9.71.71,0,0,0-1.21-.15,1.55,1.55,0,0,0-.41.79A9.61,9.61,0,0,0,18.61,69.55Z" transform="translate(0 -0.1)"/><path class="cls-3" d="M75,116.29A40.84,40.84,0,0,1,51.8,109,42.32,42.32,0,0,1,37.25,92.16a37.88,37.88,0,0,1-3.62-12.75A48,48,0,0,1,36.1,58.85,41.26,41.26,0,0,1,47.48,42.06c4.81-4.42,10.54-7,16.71-8.77a43.47,43.47,0,0,1,14-1.57,39.58,39.58,0,0,1,23.83,9.19,41.57,41.57,0,0,1,12.56,16.9,42.09,42.09,0,0,1,2.7,10.48,47.21,47.21,0,0,1,.4,7.13,41.27,41.27,0,0,1-3.42,15.9,42.83,42.83,0,0,1-39.27,25Zm-8.88-3.35c-.36-.28-.74-.55-1.1-.85a7.83,7.83,0,0,1-2.77-3.26l-.55-1.53a18.82,18.82,0,0,1-.94-3.76,37.07,37.07,0,0,1-.15-6c.1-3,.12-6,.15-9.07,0-4,0-7.89-.12-11.84a1.15,1.15,0,0,1,.24-.84c.5-.5.92-1.07,1.48-1.53,2.42-2,4.93-3.82,7.4-5.71,1.93-1.47,3.84-3,5.76-4.43.59-.45.76-.43,1.16.2.19.32.38.65.54,1,1.63,3.35,3.17,6.75,4.68,10.17C84.38,81.1,87,86.61,89.46,92.2c1.16,2.64,2.32,5.29,3.61,7.88a11.68,11.68,0,0,1,1.09,7.11,12.93,12.93,0,0,1-.72,2.83,44,44,0,0,0,11.47-8.49,2.89,2.89,0,0,1-2.13-1.14,11.64,11.64,0,0,1-1.89-3c-.91-2-1.83-4-2.74-6-2.57-5.72-5.27-11.38-7.8-17.11-2.18-5-4.4-9.92-6.54-14.9A1,1,0,0,1,84.1,58c.77-.66,1.53-1.34,2.31-2,4.42-3.61,9-7,13.33-10.76a3.55,3.55,0,0,1,2-.84,5.91,5.91,0,0,1,1.56.06c-2.25-2.61-9.31-7.23-12-7.88a21.09,21.09,0,0,0,.39,2.27,2.74,2.74,0,0,1-.21,1.59,6.05,6.05,0,0,1-2,2.38c-6.61,5.29-13.35,10.42-19.89,15.8-2.46,2-5,4-7.51,6-.78.62-1.15.47-1.3-.52a3.42,3.42,0,0,1,0-.45c0-2-.1-4.1-.11-6.14q0-8.85.06-17.7a5.89,5.89,0,0,1,1.26-3.54c.11-.15.31-.26.31-.49-.15-.07-.27,0-.39.06a38.09,38.09,0,0,0-11.53,6.55c-.12.11-.38.22,0,.39a2.74,2.74,0,0,1,1.5,2.3,81.84,81.84,0,0,1,.76,10.49c.06,6.15,0,12.29.09,18.44.06,7.12.07,14.24,0,21.36,0,1.63,0,3.27-.13,4.9a4.3,4.3,0,0,1-1.3,3,3.19,3.19,0,0,1-2.25.79A38.49,38.49,0,0,0,66.15,112.94Zm49.92-39.13c0-.69-.08-1.38-.11-2.08a38.73,38.73,0,0,0-3.14-13.62,34.4,34.4,0,0,0-5.88-9.49,8.13,8.13,0,0,0-3.7-2.65,2.49,2.49,0,0,0-2.51.31c-2.3,2-4.69,3.82-7,5.73-2.72,2.2-5.57,4.26-8.14,6.65a.61.61,0,0,0-.16.82c2.27,5.41,4.68,10.76,7.08,16.11,3.22,7.19,6.53,14.33,9.81,21.49a9.49,9.49,0,0,0,1.65,2.54c.32.35.69.65,1.23.41a6.45,6.45,0,0,0,2.59-1.84A39.56,39.56,0,0,0,112,91.36,40.91,40.91,0,0,0,116.07,73.81ZM73.9,67.18l-1.47,1.13c-3.18,2.51-6.54,4.79-9.56,7.5-.55.49-1,.94-.82,1.75a4.3,4.3,0,0,1,.07,1c.06,6.61.11,13.23-.11,19.84a22,22,0,0,0,1.56,9.91,5.3,5.3,0,0,0,1.46,2c.67.56,1.34,1.1,2,1.61A10,10,0,0,0,72.2,114a34.68,34.68,0,0,0,8.87-.32,45.23,45.23,0,0,0,9.19-2.54,3.32,3.32,0,0,0,1.88-1.83,6.37,6.37,0,0,0,.41-1.28,10.11,10.11,0,0,0-.54-6.91c-1.52-3.22-3-6.48-4.41-9.73-3.24-7.26-6.53-14.49-9.81-21.73-.32-.73-.67-1.44-1.05-2.27,0,.19,0,.24,0,.29q0,14.88,0,29.77c0,.4.17.44.5.44h4.29c.31,0,.43.07.42.41,0,.73,0,1.46,0,2.19,0,.31-.12.39-.4.38-.45,0-.9,0-1.35,0-.29,0-.4.09-.4.39,0,.84,0,1.69,0,2.54,0,.29.1.4.39.39s.83,0,1.24,0,.54.08.52.49a18.49,18.49,0,0,0,0,2c0,.43-.12.54-.53.53-1.41,0-2.82,0-4.23,0-.35,0-.46.1-.45.45a2.9,2.9,0,0,1-.12,1.27,1.39,1.39,0,0,1-1.71,1,1.41,1.41,0,0,1-.95-1.69,3.42,3.42,0,0,0,.08-.84q0-19.73,0-39.46A1.26,1.26,0,0,0,73.9,67.18ZM51.17,79.35c0-6.43.07-12.85-.05-19.27-.06-3,.06-6-.15-9-.14-2-.31-3.89-.58-5.83-.07-.5-.2-1.06-.76-1.22a1.71,1.71,0,0,0-1.67.43A39.68,39.68,0,0,0,38.09,58.8a40.19,40.19,0,0,0-2.47,21,40.86,40.86,0,0,0,4.08,12.5,39.2,39.2,0,0,0,5.57,8.09,6.8,6.8,0,0,0,3.42,2.14,1.55,1.55,0,0,0,1.81-.67,3.13,3.13,0,0,0,.48-1.25,16,16,0,0,0,.17-3.09C51.19,91.48,51.17,85.42,51.17,79.35ZM62,62.86l.65-.5c1.74-1.43,3.54-2.77,5.25-4.23,1.86-1.58,3.82-3.05,5.74-4.56A.69.69,0,0,0,74,53c0-1.8,0-3.61,0-5.41,0-.29-.11-.4-.39-.41-.47,0-.94-.07-1.4-.14a10.58,10.58,0,0,1-4.75-1.78c-2.31-1.67-2.38-4.29-.15-6a8.45,8.45,0,0,1,2.86-1.43,16.62,16.62,0,0,1,7.74-.41,10,10,0,0,1,4.64,1.89,3.5,3.5,0,0,1,0,5.81,8.57,8.57,0,0,1-2.31,1.28,14.82,14.82,0,0,1-3.22.77c-.17,0-.37,0-.37.29,0,1.21,0,2.43,0,3.65a1,1,0,0,0,.53-.3c1.49-1.18,3-2.34,4.47-3.53,2.6-2.12,5.36-4,7.81-6.36a2.06,2.06,0,0,0,.71-2.11,7.94,7.94,0,0,1-.31-1.6,1.6,1.6,0,0,0-1.28-1.54,40.18,40.18,0,0,0-11-2.1,44,44,0,0,0-8.26.42,10.23,10.23,0,0,0-5.73,2.49A4.45,4.45,0,0,0,62,39.26,27,27,0,0,0,62,42c0,5.65,0,11.31.06,17ZM74.48,39.79a12.16,12.16,0,0,0-2.88.37,6.31,6.31,0,0,0-2.69,1.2c-.81.71-.56,1.18,0,1.62a4.93,4.93,0,0,0,1.42.78,13.5,13.5,0,0,0,8.72.17,5.26,5.26,0,0,0,1.93-1c.58-.49.58-.92,0-1.46a3.22,3.22,0,0,0-.93-.62A12.27,12.27,0,0,0,74.48,39.79Z" transform="translate(0 -0.1)"/><path class="cls-1" d="M51.1,119.2a3.43,3.43,0,0,1,0,3.66,1.46,1.46,0,0,0,0,1.63.67.67,0,0,1-.59,1,2.14,2.14,0,0,1-1.6-.5,11.58,11.58,0,0,1-1.2-.92,2.44,2.44,0,0,1-.66-2.58c.23-.71.48-1.41.69-2.13a1.28,1.28,0,0,0-.24-1.37c-.25-.24-.51-.28-.73,0-.62.82-1.38,1.6-1,2.81.15.45-.3.87-.81.82a2.12,2.12,0,0,1-.69-.21,11.69,11.69,0,0,1-3-2.09,2.05,2.05,0,0,1-.51-.73c-.24-.6,0-1,.64-1a2,2,0,0,0,1.45-.77,44.9,44.9,0,0,0,3-4.16,1.89,1.89,0,0,0,.25-2c-.18-.38.1-.64.47-.75a1.14,1.14,0,0,1,.77.07,3.31,3.31,0,0,1,1,.59,31.63,31.63,0,0,0,3.86,2.63,4.49,4.49,0,0,1,2,2.23A2.61,2.61,0,0,1,52,119.09Zm-2.05-2.47a2,2,0,0,0,1.61-2.14.94.94,0,0,0-.7-.66c-.3-.07-.46.19-.62.39-.37.48-.72,1-1.09,1.42s-.22.6.17.8A1.19,1.19,0,0,0,49.05,116.73Z" transform="translate(0 -0.1)"/><path class="cls-1" d="M40,38.82h3a1,1,0,0,0,.54-.12.86.86,0,0,1,1.15.26.78.78,0,0,1,0,1.12c-.75,1-1.53,1.93-2.37,2.84a.61.61,0,0,1-.56.16c-1.23-.06-2.47-.12-3.71-.2-.33,0-.68,0-.8.34s.18.54.43.7a1.7,1.7,0,0,0,1.33.3c.65-.14,1.05.29,1,.94a1.55,1.55,0,0,1-.39.8l-2,2.28a2.06,2.06,0,0,1-.92.62c-.63.18-1.1-.13-1-.76a1.12,1.12,0,0,0-.31-.91,21.76,21.76,0,0,0-4.41-4,1.07,1.07,0,0,0-1-.22c-.67.2-1.08-.19-1.07-.89a2.35,2.35,0,0,1,.62-1.52c.5-.59,1-1.16,1.53-1.73a2.1,2.1,0,0,1,.68-.5c.79-.33,1.35,0,1.36.87a2.78,2.78,0,0,0,1.05,1.59c.2.08.27,0,.32-.19a2.73,2.73,0,0,0,0-1.55,1.24,1.24,0,0,0-1-1.1A.73.73,0,0,1,33,37a2.38,2.38,0,0,1,.52-1c.59-.69,1.18-1.36,1.78-2a1.4,1.4,0,0,1,.95-.43.74.74,0,0,1,.77,1,2.22,2.22,0,0,1-.37.63A3.07,3.07,0,0,0,36.18,38a.86.86,0,0,0,1,.8c1,0,1.92,0,2.87,0Z" transform="translate(0 -0.1)"/><path class="cls-1" d="M122.38,42.2a2.41,2.41,0,0,1-2.32,2.12c-1.1.09-1.24.13-.93,1.15.58,2-1.94,4-4.27,3a5.73,5.73,0,0,1-2.27-1.8,46.9,46.9,0,0,0-3.48-3.84,1.61,1.61,0,0,1-.66-1.3c.06-.54.43-.83.92-.65a.92.92,0,0,0,.8-.1,15.15,15.15,0,0,0,5.21-4.12c.31-.38.56-.76.24-1.31-.2-.36.2-.83.65-.84a1.12,1.12,0,0,1,.93.45c1.29,1.59,2.76,3,4.1,4.56A3.69,3.69,0,0,1,122.38,42.2Zm-8.26,3.08a2.29,2.29,0,0,0,1.78-1.86,1.14,1.14,0,0,0-.6-1c-.39-.2-.62.13-.87.35s-.67.65-1,1-.47.52-.3.89A1.16,1.16,0,0,0,114.12,45.28ZM119.23,40a.91.91,0,0,0-.4-.86.65.65,0,0,0-.73.17c-.37.3-.74.62-1.1,1-.73.67-.65.92.24,1.4.3.16.42,0,.56-.11A2.28,2.28,0,0,0,119.23,40Z" transform="translate(0 -0.1)"/><path class="cls-1" d="M59.08,126.17a1.1,1.1,0,0,0,.31.77c.48.61.27,1.21-.49,1.32a4.15,4.15,0,0,1-3.51-1.14.62.62,0,0,1,.2-1.12c.69-.22.91-.73,1.18-1.3a17.7,17.7,0,0,0,1.47-4.29c.07-.41.08-.82.14-1.23s-.2-.58-.4-.83c-.58-.71-.38-1.19.53-1.34a4.57,4.57,0,0,1,4,1.9c.71,1.24,1.41,2.48,2.11,3.72a3.41,3.41,0,0,0,.25.37c.21.23.34.63.71.57s.49-.47.59-.81a1.79,1.79,0,0,0-.21-2,.68.68,0,0,1,.51-1.15,5.45,5.45,0,0,1,3.54,1,.74.74,0,0,1-.32,1.37,1.78,1.78,0,0,0-1.31,1.23c-.74,1.58-1.14,3.28-1.75,4.91a11.19,11.19,0,0,1-.79,1.85c-.49.81-1,.86-1.57.13a32.23,32.23,0,0,1-2.15-3.62,17.74,17.74,0,0,0-1.51-2.56c-.54-.63-.81-.59-1.14.18A5.75,5.75,0,0,0,59.08,126.17Z" transform="translate(0 -0.1)"/><path class="cls-1" d="M117.34,111.12a6.57,6.57,0,0,1-6.44,6.29,5.79,5.79,0,0,1-5.67-5.8,6.4,6.4,0,0,1,6.55-6.17A5.69,5.69,0,0,1,117.34,111.12Zm-9.2-.93a1.52,1.52,0,0,0,.33,1,7.52,7.52,0,0,0,4.17,2.79,1.34,1.34,0,0,0,1.46-.51,1.19,1.19,0,0,0,.05-1.47,7,7,0,0,0-4.43-3.12A1.31,1.31,0,0,0,108.14,110.19Z" transform="translate(0 -0.1)"/><path class="cls-1" d="M124.05,104.46a4.62,4.62,0,0,1-1.81,2.87c-.6.42-1.13.18-1.21-.54a1.42,1.42,0,0,0-.59-1,16.26,16.26,0,0,0-4.85-2.89,1.51,1.51,0,0,0-1.44.08.66.66,0,0,1-.83,0,.8.8,0,0,1-.29-.91c.51-1.65,1.13-3.16,3.13-3.56,1.32-.27,2.59-.75,3.88-1.15a3.66,3.66,0,0,0,.62-.25c.53-.28.55-.54.09-.93a4.82,4.82,0,0,0-1.44-.75c-.25-.1-.47,0-.68.16a.84.84,0,0,1-1,0,.86.86,0,0,1-.24-1,8.14,8.14,0,0,1,1.7-2.93.73.73,0,0,1,.83-.19.74.74,0,0,1,.5.8c-.1.88.48,1.28,1,1.72,1.23,1,2.61,1.69,3.92,2.52a13.14,13.14,0,0,1,1.8,1.25c.84.75.76,1.26-.27,1.69a43.77,43.77,0,0,1-4.77,1.46,9.91,9.91,0,0,0-2,.74c-.57.31-.59.57-.09,1a5.45,5.45,0,0,0,2.06,1,1.15,1.15,0,0,0,.7-.16C123.59,103.17,124.09,103.53,124.05,104.46Z" transform="translate(0 -0.1)"/><path class="cls-1" d="M31.5,86.3a1.39,1.39,0,0,1-.24.91A.78.78,0,0,1,30,87.15a1.55,1.55,0,0,0-1.46-.47c-2,.15-3.87.72-5.81,1a4.69,4.69,0,0,1-1.79.12c-.61-.13-.81-.42-.61-1a7.29,7.29,0,0,1,.58-1.27c.78-1.33,1.58-2.64,2.37-4a7.53,7.53,0,0,0,.67-1.47c.14-.43,0-.64-.42-.64a4.63,4.63,0,0,0-2.54.8c-.19.12-.19.35-.28.53a.79.79,0,0,1-1.37.25,4.53,4.53,0,0,1-.77-3.71c.19-.46.6-.69.91-.4a2.69,2.69,0,0,0,2.38.44,14.89,14.89,0,0,0,4.72-1.18,1.32,1.32,0,0,0,.85-1c.06-.33.19-.62.58-.66a.86.86,0,0,1,.86.53,9.2,9.2,0,0,1,.81,2.61,2.39,2.39,0,0,1-.42,1.7Q28.13,81.24,27,83.13a6.72,6.72,0,0,0-.4.86c-.15.39,0,.61.42.66a2.34,2.34,0,0,0,2.22-1.23.75.75,0,0,1,1.41-.06A7.36,7.36,0,0,1,31.5,86.3Z" transform="translate(0 -0.1)"/><path class="cls-1" d="M106.09,39a7.32,7.32,0,0,1-6-3.88,3,3,0,0,1,.28-3.35c.86-1.25,1.72-2.5,2.6-3.74a1.37,1.37,0,0,0,.25-1.25c-.23-.88.2-1.32,1.08-1.09A9,9,0,0,1,108.14,28a.83.83,0,0,1,.22,1.07.86.86,0,0,1-1,.47.87.87,0,0,0-.85.31,19.58,19.58,0,0,0-2.59,3.6,1.91,1.91,0,0,0,.79,2.53,1.86,1.86,0,0,0,2.66-.34c.89-1.16,1.72-2.37,2.57-3.56.26-.36.1-.72,0-1.07-.25-.86.09-1.27,1-1a5.49,5.49,0,0,1,2.59,1.62,1.26,1.26,0,0,1,.36.8c0,.44-.16.78-.65.73a1.69,1.69,0,0,0-1.62.87c-1,1.31-2,2.6-3.07,3.89A2.76,2.76,0,0,1,106.09,39Z" transform="translate(0 -0.1)"/><path class="cls-1" d="M37.67,112.88h.6c.64,0,.84.4.54,1a1.14,1.14,0,0,1-.41.46,5.29,5.29,0,0,1-2.52.87.84.84,0,0,1-.85-.42c-1.32-2.11-3.06-3.9-4.57-5.86-.27-.35-.53-.72-.78-1.09a.66.66,0,0,1,0-.79.56.56,0,0,1,.74-.21,1.73,1.73,0,0,0,1.74-.27,23.58,23.58,0,0,0,4.6-3.78,1.13,1.13,0,0,0,.32-1.28.61.61,0,0,1,.28-.78.67.67,0,0,1,.83.07,8.42,8.42,0,0,1,1.17,1.29c1,1.2,2,2.41,3,3.61a9.78,9.78,0,0,0,1.12,1.11c.77.67.86,1,.42,1.94A2.75,2.75,0,0,1,42.67,110a.81.81,0,0,1-1.23-1,3.67,3.67,0,0,0-1.5-3.57.65.65,0,0,0-.78.07c-.42.31-.84.63-1.24,1-.23.19-.55.36-.3.78.35.58.68.79,1.16.63.26-.09.5-.24.77-.32a.6.6,0,0,1,.8.73,1.42,1.42,0,0,1-.26.68,5.82,5.82,0,0,1-2.63,2,1.45,1.45,0,0,1-.71.1c-.49-.06-.65-.36-.43-.79a3.87,3.87,0,0,1,.27-.43,1.12,1.12,0,0,0-.15-1.51.41.41,0,0,0-.61,0,20.32,20.32,0,0,0-1.61,1.47.66.66,0,0,0-.08.87C35,112,35.91,113.08,37.67,112.88Z" transform="translate(0 -0.1)"/><path class="cls-1" d="M55.09,32.57c0,.44,0,.86-.5,1.09-2.47,1.15-4.67,2.76-7,4.12a4.91,4.91,0,0,1-.44.25A.66.66,0,0,1,46.3,38a.6.6,0,0,1-.07-.82,1.36,1.36,0,0,0,0-1.34,21.35,21.35,0,0,0-3.39-5.4,1,1,0,0,0-1-.4.67.67,0,0,1-.86-.43c-.15-.41.08-.68.39-.9,1.28-.92,2.65-1.7,4-2.51a15.49,15.49,0,0,0,2.64-2,1,1,0,0,1,1.28-.2,2.75,2.75,0,0,1,1.53,1.77.76.76,0,0,1-.2.83.73.73,0,0,1-.83.17c-1.44-.67-2.52.11-3.61.86a.63.63,0,0,0-.18.9c.27.47.54.94.83,1.4.17.27.37.55.77.32s.86-.38.74-1a7.16,7.16,0,0,0-.23-.75.59.59,0,0,1,.2-.7.66.66,0,0,1,.74,0,2,2,0,0,1,.71.54,6.22,6.22,0,0,1,1.39,2.48,1.8,1.8,0,0,1,0,.73.52.52,0,0,1-.9.37c-.2-.14-.36-.34-.56-.47a.93.93,0,0,0-1.19.11c-.35.29-.14.62,0,.91a7.76,7.76,0,0,0,1,1.43.69.69,0,0,0,.85.24,4.85,4.85,0,0,0,2.3-1.82A2.23,2.23,0,0,0,53,31.1a3,3,0,0,1,.05-.67c.06-.29,0-.68.43-.76a.9.9,0,0,1,.91.44A4.71,4.71,0,0,1,55.09,32.57Z" transform="translate(0 -0.1)"/><path class="cls-1" d="M76.87,23.27C76.78,20,80.11,17,83,17.37a6.78,6.78,0,0,1,2.79.78,2,2,0,0,0,1.33.35,1,1,0,0,1,1.09.69,4.62,4.62,0,0,1,.37,2.14,1.75,1.75,0,0,1-.62,1.22c-.74.63-1.34.59-1.91-.18-.26-.34-.47-.72-.7-1.09A3.08,3.08,0,0,0,83.62,20a1.59,1.59,0,0,0-2.1.78c-1.11,1.85.18,5.06,2.2,5.47a3.35,3.35,0,0,0,2.44-.33c.34-.19.71-.55,1.12-.22s.3.79.24,1.21a1.94,1.94,0,0,1-1.43,1.69,8.18,8.18,0,0,1-5,.34A5.88,5.88,0,0,1,76.87,23.27Z" transform="translate(0 -0.1)"/><path class="cls-1" d="M80.45,131.39a12,12,0,0,1-2.74-.21c-.39-.08-.74-.2-.81-.65s.26-.63.58-.79.42-.2.39-.48a.57.57,0,0,0-.47-.51,9.34,9.34,0,0,0-3.29-.13.56.56,0,0,0-.47.57.48.48,0,0,0,.35.51c.32.15.7.29.63.74s-.43.61-.81.69a7.39,7.39,0,0,1-3.34,0c-.58-.15-.76-.45-.66-1,0-.21.12-.38.33-.4.66,0,1-.53,1.27-1a21.52,21.52,0,0,0,2.23-4.76,11.33,11.33,0,0,0,.72-2.7A1.73,1.73,0,0,1,77.07,120a5,5,0,0,1,1.78,1.85,42.83,42.83,0,0,1,2.59,5.53,13.91,13.91,0,0,0,1,1.84,1,1,0,0,0,.66.58c.28,0,.51.12.53.46a.81.81,0,0,1-.38.82,2.62,2.62,0,0,1-1.34.34C81.39,131.41,80.92,131.39,80.45,131.39ZM76,126.65h.51c.56,0,.65-.16.43-.7-.1-.24-.23-.47-.35-.71-.2-.41-.34-1-.82-1s-.55.64-.72,1C74.49,126.56,74.55,126.65,76,126.65Z" transform="translate(0 -0.1)"/><path class="cls-1" d="M132.23,81.05a17.53,17.53,0,0,1-1.09,4.3c-.14.35-.37.69-.81.67s-.56-.37-.66-.73-.1-.45-.39-.49a.58.58,0,0,0-.62.39,8.92,8.92,0,0,0-.79,3.09.55.55,0,0,0,.41.59.46.46,0,0,0,.62-.21c.21-.32.45-.6.87-.45a.87.87,0,0,1,.5.93,8.62,8.62,0,0,1-.73,3.32.76.76,0,0,1-1,.5.51.51,0,0,1-.41-.58,1.47,1.47,0,0,0-.46-1.15,20.65,20.65,0,0,0-4-3.14,13,13,0,0,0-3-1.56,1.69,1.69,0,0,1-.64-2.84,5.7,5.7,0,0,1,2.86-1.59c2-.6,4-.9,6-1.36a5.91,5.91,0,0,0,1.39-.44.79.79,0,0,0,.51-.47.49.49,0,0,1,.54-.4.81.81,0,0,1,.69.42A2.54,2.54,0,0,1,132.23,81.05ZM126,85a5.54,5.54,0,0,0-1.8.56c-.3.15-.3.35-.09.57a5.74,5.74,0,0,0,1.42,1.08c.27.15.39,0,.48-.2a5,5,0,0,0,.42-1.61C126.46,85.07,126.31,85,126,85Z" transform="translate(0 -0.1)"/><path class="cls-1" d="M30.69,89.66a3.87,3.87,0,0,1,1.41.22,1.08,1.08,0,0,1,.72.67c.44,1.81,1.53,3.32,2.32,5a4.36,4.36,0,0,0,1,1.49.9.9,0,0,1,.14,1,3.89,3.89,0,0,1-1.92,2,1.23,1.23,0,0,1-1.49-.27,1.3,1.3,0,0,1-.08-1.57,2.25,2.25,0,0,0,.52-1.1c0-.35-.09-.56-.49-.41a17.31,17.31,0,0,0-5.35,2.79c-.3.25-.26.55-.26.87s0,.68-.36.86a.9.9,0,0,1-1-.19,2.66,2.66,0,0,1-.56-.55,12.86,12.86,0,0,1-1.84-3.64,2.65,2.65,0,0,1-.1-.55,1,1,0,0,1,.34-1.07c.39-.27.72,0,1,.21a1.24,1.24,0,0,0,1.21.16,33.3,33.3,0,0,0,4.4-2,1.85,1.85,0,0,0,.33-.21c.22-.17.51-.32.48-.65s-.4-.36-.66-.43-.8-.18-1.19-.3a1.24,1.24,0,0,1-.9-1c-.07-.5.33-.81.74-1A3.38,3.38,0,0,1,30.69,89.66Z" transform="translate(0 -0.1)"/><path class="cls-1" d="M83.64,121.8a4.19,4.19,0,0,1,.51-2,1.16,1.16,0,0,1,1.21-.66,2.9,2.9,0,0,0,1.09-.21c1.49-.42,3-.87,4.47-1.3a2.18,2.18,0,0,0,.72-.31,1.12,1.12,0,0,1,1.49,0,4.19,4.19,0,0,1,1.41,1.93,1.32,1.32,0,0,1-.43,1.6,1.36,1.36,0,0,1-1.7-.25,2.16,2.16,0,0,0-.83-.64c-.41-.14-.63-.06-.57.42a23,23,0,0,0,1,4.09,11.49,11.49,0,0,0,.61,1.5,1,1,0,0,0,1,.66c.33,0,.63.1.75.47A.85.85,0,0,1,94,128a1.89,1.89,0,0,1-.44.35A11.42,11.42,0,0,1,89,129.63a1.22,1.22,0,0,1-.81-.18c-.33-.23-.65-.62-.27-.92,1-.78.71-1.74.54-2.71a33.68,33.68,0,0,0-.91-3.59,2.7,2.7,0,0,0-.33-.71c-.25-.4-.54-.4-.77,0a10.59,10.59,0,0,0-.46,1,2.26,2.26,0,0,1-.17.35c-.27.42-.57.84-1.14.77s-.76-.56-.9-1A5,5,0,0,1,83.64,121.8Z" transform="translate(0 -0.1)"/><path class="cls-1" d="M59.78,31.08a1,1,0,0,1-1-.48.78.78,0,0,1,.23-1,1.19,1.19,0,0,0,.25-1.29c-.18-.59-.34-1.19-.49-1.79A2.61,2.61,0,0,0,58,25.14,8.59,8.59,0,0,0,54.44,23c-.39-.07-.79-.18-.89-.66s.23-.76.58-1a5.22,5.22,0,0,1,1.61-.64A19.5,19.5,0,0,1,58.12,20a1.78,1.78,0,0,1,1.09.17c.36.19.65.56.43.92-.37.6,0,.81.4,1.06s.51.47.8,0,.38-1.11,0-1.37a.9.9,0,0,1-.08-1.55,3.67,3.67,0,0,1,1.4-.69c.53-.17,1.07-.35,1.61-.47a.76.76,0,0,1,1,.51.8.8,0,0,1-.34,1.11,2.17,2.17,0,0,0-1,1.33c-.3.89-.65,1.76-1,2.63a1,1,0,0,0,0,.7c.25.84.53,1.67.74,2.52a1.38,1.38,0,0,0,1,1c.84.32,1,1,.31,1.64a3,3,0,0,1-1.25.62C62,30.57,60.92,30.87,59.78,31.08Z" transform="translate(0 -0.1)"/><path class="cls-1" d="M132.65,74.46a13.25,13.25,0,0,1,0,1.41c-.08.76-.76,1.07-1.26.52a3.25,3.25,0,0,0-2.93-.87c-1.42.11-2.85.09-4.26.34-.34.06-.58.14-.65.55a.73.73,0,0,1-.7.63.89.89,0,0,1-.89-.46,4.59,4.59,0,0,1-.53-2,9.62,9.62,0,0,1,.06-3c.09-.42.23-.86.76-.93a.93.93,0,0,1,1,.67.71.71,0,0,0,.79.45c2,0,3.94-.14,5.91-.3a.6.6,0,0,0,.61-.6,2.23,2.23,0,0,0-1.23-2.43l-.45-.24c-.66-.4-.65-1,0-1.37a2.1,2.1,0,0,1,1.53-.18,3.92,3.92,0,0,1,1.36.5,1.25,1.25,0,0,1,.71,1.73,1.94,1.94,0,0,0-.1.71C132.49,71.16,132.57,72.81,132.65,74.46Z" transform="translate(0 -0.1)"/><path class="cls-1" d="M93.44,20.06a9.94,9.94,0,0,1,4.29,1.88.86.86,0,0,1,.36,1,.82.82,0,0,1-.89.55.87.87,0,0,0-1,.66Q95.16,26.78,94,29.41a.66.66,0,0,0,.35,1,2.21,2.21,0,0,0,2.71-.17c.31-.25.67-.66,1.14-.34a1.11,1.11,0,0,1,.31,1.38,3.44,3.44,0,0,1-2.07,2.1A1.1,1.1,0,0,1,95.3,33a2.72,2.72,0,0,0-.9-.56l-4.91-2.08a2.22,2.22,0,0,1-.85-.53c-.35-.41-.3-1,.2-1.11,1.42-.35,1.87-1.48,2.33-2.64s1-2.38,1.38-3.61c.11-.34.19-.65-.2-.93a.72.72,0,0,1-.23-1C92.36,20.12,92.77,20.07,93.44,20.06Z" transform="translate(0 -0.1)"/><path class="cls-1" d="M101.73,124.85c-.83,0-1.15-.51-.8-1.23a1.43,1.43,0,0,0-.08-1.48c-.78-1.3-1.46-2.66-2.28-3.94A2.19,2.19,0,0,0,96.9,117c-.56,0-.75-.52-.51-1a2.34,2.34,0,0,1,.7-.8,15.8,15.8,0,0,1,3-1.82,1.72,1.72,0,0,1,.59-.16c.71-.07,1.17.37,1,1.06a2.43,2.43,0,0,0,.34,2,38.49,38.49,0,0,0,2.36,3.95,1.61,1.61,0,0,0,1,.71,3,3,0,0,1,.48.15.71.71,0,0,1,.32,1.21,1.8,1.8,0,0,1-.26.29,13.24,13.24,0,0,1-3.65,2.18A.92.92,0,0,1,101.73,124.85Z" transform="translate(0 -0.1)"/><path class="cls-1" d="M18.61,69.55A9.61,9.61,0,0,1,18.83,67a1.55,1.55,0,0,1,.41-.79.71.71,0,0,1,1.21.15,1.66,1.66,0,0,0,1.55.9c1.53.08,3.06.29,4.6.32a2,2,0,0,0,1.6-.67c.49-.53,1-.41,1.31.25a3.32,3.32,0,0,1,.22,1.16,15.14,15.14,0,0,1-.2,3.36,1,1,0,0,1-.69.87.94.94,0,0,1-1.07-.43,1.65,1.65,0,0,0-1.35-.64,38.91,38.91,0,0,0-4.83-.31,1.9,1.9,0,0,0-1.36.51c-.3.29-.64.54-1.06.38s-.51-.63-.55-1S18.61,70,18.61,69.55Z" transform="translate(0 -0.1)"/><path class="cls-1" d="M66.15,112.94A38.49,38.49,0,0,1,48.89,104a3.19,3.19,0,0,0,2.25-.79,4.3,4.3,0,0,0,1.3-3c.13-1.63.11-3.27.13-4.9.12-7.12.11-14.24,0-21.36,0-6.15,0-12.29-.09-18.44a81.84,81.84,0,0,0-.76-10.49,2.74,2.74,0,0,0-1.5-2.3c-.36-.17-.1-.28,0-.39a38.09,38.09,0,0,1,11.53-6.55c.12,0,.24-.13.39-.06,0,.23-.2.34-.31.49a5.89,5.89,0,0,0-1.26,3.54q-.07,8.85-.06,17.7c0,2,.07,4.09.11,6.14a3.42,3.42,0,0,0,0,.45c.15,1,.52,1.14,1.3.52,2.51-2,5-3.92,7.51-6,6.54-5.38,13.28-10.51,19.89-15.8a6.05,6.05,0,0,0,2-2.38,2.74,2.74,0,0,0,.21-1.59,21.09,21.09,0,0,1-.39-2.27c2.73.65,9.79,5.27,12,7.88a5.91,5.91,0,0,0-1.56-.06,3.55,3.55,0,0,0-2,.84C95.39,49,90.83,52.44,86.41,56.05c-.78.64-1.54,1.32-2.31,2a1,1,0,0,0-.29,1.32c2.14,5,4.36,9.93,6.54,14.9,2.53,5.73,5.23,11.39,7.8,17.11.91,2,1.83,4,2.74,6a11.64,11.64,0,0,0,1.89,3,2.89,2.89,0,0,0,2.13,1.14A44,44,0,0,1,93.44,110a12.93,12.93,0,0,0,.72-2.83,11.68,11.68,0,0,0-1.09-7.11c-1.29-2.59-2.45-5.24-3.61-7.88C87,86.61,84.38,81.1,81.93,75.52c-1.51-3.42-3.05-6.82-4.68-10.17-.16-.34-.35-.67-.54-1-.4-.63-.57-.65-1.16-.2-1.92,1.47-3.83,3-5.76,4.43-2.47,1.89-5,3.75-7.4,5.71-.56.46-1,1-1.48,1.53a1.15,1.15,0,0,0-.24.84c.08,4,.16,7.89.12,11.84,0,3,0,6-.15,9.07a37.07,37.07,0,0,0,.15,6,18.82,18.82,0,0,0,.94,3.76l.55,1.53a7.83,7.83,0,0,0,2.77,3.26C65.41,112.39,65.79,112.66,66.15,112.94Z" transform="translate(0 -0.1)"/><path class="cls-2" d="M116.07,73.81A40.91,40.91,0,0,1,112,91.36a39.56,39.56,0,0,1-4.21,6.83,6.45,6.45,0,0,1-2.59,1.84c-.54.24-.91-.06-1.23-.41a9.49,9.49,0,0,1-1.65-2.54c-3.28-7.16-6.59-14.3-9.81-21.49-2.4-5.35-4.81-10.7-7.08-16.11a.61.61,0,0,1,.16-.82C88.12,56.27,91,54.21,93.69,52c2.35-1.91,4.74-3.77,7-5.73a2.49,2.49,0,0,1,2.51-.31,8.13,8.13,0,0,1,3.7,2.65,34.4,34.4,0,0,1,5.88,9.49A38.73,38.73,0,0,1,116,71.73C116,72.43,116,73.12,116.07,73.81Z" transform="translate(0 -0.1)"/><path class="cls-2" d="M73.9,67.18a1.26,1.26,0,0,1,.08.67q0,19.73,0,39.46a3.42,3.42,0,0,1-.08.84,1.41,1.41,0,0,0,.95,1.69,1.39,1.39,0,0,0,1.71-1,2.9,2.9,0,0,0,.12-1.27c0-.35.1-.45.45-.45,1.41,0,2.82,0,4.23,0,.41,0,.55-.1.53-.53a18.49,18.49,0,0,1,0-2c0-.41-.14-.51-.52-.49s-.82,0-1.24,0-.39-.1-.39-.39c0-.85,0-1.7,0-2.54,0-.3.11-.4.4-.39.45,0,.9,0,1.35,0,.28,0,.4-.07.4-.38,0-.73,0-1.46,0-2.19,0-.34-.11-.41-.42-.41H77.18c-.33,0-.5,0-.5-.44q0-14.9,0-29.77c0-.05,0-.1,0-.29.38.83.73,1.54,1.05,2.27,3.28,7.24,6.57,14.47,9.81,21.73,1.45,3.25,2.89,6.51,4.41,9.73a10.11,10.11,0,0,1,.54,6.91,6.37,6.37,0,0,1-.41,1.28,3.32,3.32,0,0,1-1.88,1.83,45.23,45.23,0,0,1-9.19,2.54,34.68,34.68,0,0,1-8.87.32,10,10,0,0,1-5.13-2.12c-.7-.51-1.37-1-2-1.61a5.3,5.3,0,0,1-1.46-2A22,22,0,0,1,62,98.35c.22-6.61.17-13.23.11-19.84a4.3,4.3,0,0,0-.07-1c-.18-.81.27-1.26.82-1.75,3-2.71,6.38-5,9.56-7.5Z" transform="translate(0 -0.1)"/><path class="cls-2" d="M51.17,79.35c0,6.07,0,12.13,0,18.2a16,16,0,0,1-.17,3.09,3.13,3.13,0,0,1-.48,1.25,1.55,1.55,0,0,1-1.81.67,6.8,6.8,0,0,1-3.42-2.14,39.2,39.2,0,0,1-5.57-8.09,40.86,40.86,0,0,1-4.08-12.5,40.19,40.19,0,0,1,2.47-21A39.68,39.68,0,0,1,48,44.45,1.71,1.71,0,0,1,49.63,44c.56.16.69.72.76,1.22.27,1.94.44,3.88.58,5.83.21,3,.09,6,.15,9C51.24,66.5,51.17,72.92,51.17,79.35Z" transform="translate(0 -0.1)"/><path class="cls-2" d="M62,62.86V58.93c0-5.66,0-11.32-.06-17a27,27,0,0,1,.09-2.7,4.45,4.45,0,0,1,1.58-2.84,10.23,10.23,0,0,1,5.73-2.49,44,44,0,0,1,8.26-.42,40.18,40.18,0,0,1,11,2.1,1.6,1.6,0,0,1,1.28,1.54,7.94,7.94,0,0,0,.31,1.6,2.06,2.06,0,0,1-.71,2.11c-2.45,2.32-5.21,4.24-7.81,6.36-1.48,1.19-3,2.35-4.47,3.53a1,1,0,0,1-.53.3c0-1.22,0-2.44,0-3.65,0-.29.2-.26.37-.29a14.82,14.82,0,0,0,3.22-.77,8.57,8.57,0,0,0,2.31-1.28,3.5,3.5,0,0,0,0-5.81,10,10,0,0,0-4.64-1.89,16.62,16.62,0,0,0-7.74.41,8.45,8.45,0,0,0-2.86,1.43c-2.23,1.76-2.16,4.38.15,6A10.58,10.58,0,0,0,72.22,47c.46.07.93.11,1.4.14.28,0,.39.12.39.41,0,1.8,0,3.61,0,5.41a.69.69,0,0,1-.36.58c-1.92,1.51-3.88,3-5.74,4.56-1.71,1.46-3.51,2.8-5.25,4.23Z" transform="translate(0 -0.1)"/><path class="cls-2" d="M74.48,39.79a12.27,12.27,0,0,1,5.6,1.05,3.22,3.22,0,0,1,.93.62c.54.54.54,1,0,1.46a5.26,5.26,0,0,1-1.93,1,13.5,13.5,0,0,1-8.72-.17A4.93,4.93,0,0,1,68.9,43c-.55-.44-.8-.91,0-1.62a6.31,6.31,0,0,1,2.69-1.2A12.16,12.16,0,0,1,74.48,39.79Z" transform="translate(0 -0.1)"/><path class="cls-2" d="M49.05,116.73a1.19,1.19,0,0,1-.63-.19c-.39-.2-.46-.44-.17-.8s.72-.94,1.09-1.42c.16-.2.32-.46.62-.39a.94.94,0,0,1,.7.66A2,2,0,0,1,49.05,116.73Z" transform="translate(0 -0.1)"/><path class="cls-2" d="M114.12,45.28a1.16,1.16,0,0,1-1-.65c-.17-.37.05-.64.3-.89s.66-.66,1-1,.48-.55.87-.35a1.14,1.14,0,0,1,.6,1A2.29,2.29,0,0,1,114.12,45.28Z" transform="translate(0 -0.1)"/><path class="cls-2" d="M119.23,40a2.28,2.28,0,0,1-1.43,1.55c-.14.06-.26.27-.56.11-.89-.48-1-.73-.24-1.4.36-.33.73-.65,1.1-1a.65.65,0,0,1,.73-.17A.91.91,0,0,1,119.23,40Z" transform="translate(0 -0.1)"/><path class="cls-2" d="M108.14,110.19a1.31,1.31,0,0,1,1.58-1.32,7,7,0,0,1,4.43,3.12,1.19,1.19,0,0,1-.05,1.47,1.34,1.34,0,0,1-1.46.51,7.52,7.52,0,0,1-4.17-2.79A1.52,1.52,0,0,1,108.14,110.19Z" transform="translate(0 -0.1)"/><path class="cls-2" d="M76,126.65c-1.43,0-1.49-.09-1-1.37.17-.41.28-1,.72-1s.62.6.82,1c.12.24.25.47.35.71.22.54.13.67-.43.7Z" transform="translate(0 -0.1)"/><path class="cls-2" d="M126,85c.31,0,.46.06.43.4A5,5,0,0,1,126,87c-.09.21-.21.35-.48.2a5.74,5.74,0,0,1-1.42-1.08c-.21-.22-.21-.42.09-.57A5.54,5.54,0,0,1,126,85Z" transform="translate(0 -0.1)"/><rect class="cls-1" x="0.1" width="150.02" height="2.47"/><rect class="cls-1" y="146.35" width="150" height="3.54"/></svg>