<svg id="Layer_1" data-name="Layer 1" xmlns="http://www.w3.org/2000/svg" viewBox="0 0 150.07 150"><defs><style>.cls-1{fill:#fff;}.cls-2{fill:#231f20;}.cls-3{fill:#bfbfc0;}.cls-4{fill:#414042;}.cls-5{fill:#86584f;}.cls-6{fill:#58595b;}.cls-7{fill:#6d6e71;}.cls-8{fill:#cebaa9;}.cls-9{fill:#c49a6c;}.cls-10{fill:#424143;}.cls-11{fill:#f3f3f0;}.cls-12{fill:#dcaf6a;}.cls-13{fill:#dcae69;}.cls-14{fill:none;}</style></defs><title>Library</title><path class="cls-1" d="M2.43,105.34H0V51.25H150v27c-.19,0-.24-.15-.32-.26l-6-8.65c-1.47-2.14-3-4.27-4.41-6.42a1,1,0,0,0-.89-.45c-7.92,0-15.85,0-23.77,0a1.88,1.88,0,0,1-1.32-.51c-2.1-1.84-4.22-3.66-6.33-5.48-1.74-1.51-3.48-3-5.21-4.53-.58-.51-.59-.52-1.18,0q-2.91,2.51-5.8,5c-1.72,1.48-3.42,3-5.14,4.44l-.86.75a1.09,1.09,0,0,1-.8.31c-.17,0-.34,0-.51,0H17.24c-.34,0-.51.12-.62.44-.65,1.91-1.34,3.81-2,5.72-1,2.94-2.07,5.86-3.08,8.8-.09.24-.21.48.2.53.12,0,.16.14.18.25a2.3,2.3,0,0,1,0,.37q0,3,0,6.1c0,.18.08.44-.13.53s-.35-.14-.5-.26c-.91-.8-1.83-1.58-2.74-2.39a.36.36,0,0,0-.54,0L5.55,84.7c-1.71,1.47-3.41,3-5.13,4.44.4,0,.78,0,1.16,0s.49.12.51.52V104.5a2.57,2.57,0,0,0,0,.48c0,.18.3.09.35.26A.17.17,0,0,1,2.43,105.34Z"/><path class="cls-2" d="M2,105.12c0-.15,0-.29,0-.44v-15c0-.5,0-.43-.42-.44H.14c.13-.11.19-.18.26-.24l7.67-6.63c.25-.22.19-.23.46,0l2.92,2.52.34.29c.09-.09.05-.19.05-.28,0-2.21,0-4.41,0-6.62v-.11c0-.14,0-.23-.19-.21h-.36c-.07-.1,0-.18,0-.25Q14,70.17,16.61,62.6c.08-.21.18-.3.4-.27a1.38,1.38,0,0,0,.29,0H87.91A1.26,1.26,0,0,0,88.8,62l12-10.44c.33-.29.33-.29.67,0l12.13,10.52a1,1,0,0,0,.69.25h24.28a.7.7,0,0,1,.66.34q5.22,7.6,10.48,15.2l.25.35v.07a.71.71,0,0,1-.49.12h-1.38a.7.7,0,0,0-.43.07c-.15.17-.09.38-.09.57q0,12.65,0,25.31a5,5,0,0,1,0,.55c0,.17-.1.28-.28.27a.26.26,0,0,1-.27-.25,5.47,5.47,0,0,1,0-.7c0-.18,0-.34-.22-.42a.4.4,0,0,1-.2-.37V79c0-.61,0-.61-.62-.61H135.35c-.13,0-.29-.07-.41.07.69.69,1.46,1.28,2.18,1.92,1.07.94,2.15,1.86,3.22,2.79a.52.52,0,0,1,.11.1c.08.08.17.17.13.29s-.18.11-.29.12c-.49,0-1,0-1.47,0h-.4c-.25,0-.37.1-.36.35v12c0,.76,0,.79-.78.79H123.87c-.69,0-.73,0-.73-.72V84.19c0-.46,0-.49-.48-.49h-1.58c-.17,0-.39,0-.45-.14s.13-.27.24-.37c1.24-1.09,2.49-2.15,3.72-3.23.55-.48,1.13-.94,1.66-1.46-.12-.13-.26-.08-.39-.08H115.58c-.6,0-.6,0-.6.59v24.07c0,.23.06.49-.12.7a.34.34,0,0,1-.14,0c-.81.16-1,0-1-.8V66.12c0-.13,0-.27,0-.4,0-.28-.11-.42-.4-.41H89.28a1.29,1.29,0,0,0-.55,0l-.09.1a1.1,1.1,0,0,0,0,.54v37c0,.9-.23,1.06-1.11.81-.17-.16-.13-.36-.13-.55,0-1.11,0-2.21,0-3.31q0-10.38,0-20.76c0-.78.07-.75-.72-.75H70.27a.78.78,0,0,0-.42,0,3.23,3.23,0,0,0,.64.59c1.56,1.35,3.1,2.71,4.67,4,.14.13.37.27.31.47s-.34.14-.53.14c-.42,0-.83,0-1.25,0-.26,0-.39.1-.38.37s0,.24,0,.37V96.07c0,.75,0,.78-.79.78H59c-.59,0-.65-.06-.65-.65V84.62c0-1,.1-.91-.92-.92H56c-.14,0-.33,0-.38-.14s.09-.27.2-.36c.77-.68,1.55-1.35,2.33-2,1-.83,1.9-1.66,2.86-2.48a.59.59,0,0,0,.22-.29H39.11c0,.16.07.2.13.25l5.09,4.4c.15.14.39.28.33.49s-.35.14-.55.15-.71,0-1.06,0c-.51,0-.53,0-.53.54V96c0,.15,0,.3,0,.44,0,.31-.15.45-.45.45H28.39c-.78,0-.8,0-.8-.8V84.47c0-.11,0-.22,0-.33,0-.41,0-.44-.44-.44H25.24c-.16,0-.39,0-.46-.13s.12-.3.25-.41l3.41-3c.66-.57,1.33-1.13,2-1.71-.06-.12-.16-.07-.23-.07H13.42c-.21,0-.46-.06-.55.23a1.43,1.43,0,0,0,0,.58v24.06c0,.46-.11.56-.56.56s-.53-.11-.53-.6V89.87c0-.47-.06-.52-.53-.52H3.49c-.16,0-.33,0-.45.11A1.28,1.28,0,0,0,3,90c0,4.34,0,8.67,0,13a1.42,1.42,0,0,1-.07.65c-.36.15-.41.44-.37.78a1.7,1.7,0,0,1,0,.22C2.52,105.16,2.47,105.19,2,105.12Z"/><path class="cls-1" d="M147.58,78.3H150v27.05h-2.87a.14.14,0,0,1,0-.14c.36,0,.42-.19.42-.53q0-13,0-25.94A.78.78,0,0,1,147.58,78.3Z"/><path class="cls-3" d="M147.12,105.25v.09H2.43v-.08a.5.5,0,0,1,.37-.11H146.3A1.35,1.35,0,0,1,147.12,105.25Z"/><path class="cls-4" d="M147.12,105.25H2.43c-.07-.1-.17-.05-.25-.07s-.17,0-.2-.07c.47,0,.44,0,.44-.43,0-.21,0-.43,0-.65s0-.31.29-.32h.15a.88.88,0,0,1,.63-.12h7.83a.28.28,0,0,0,.31-.32V89.94c0-.48,0-.5-.53-.5H3.51c-.22,0-.45,0-.64-.11.12-.14.27-.08.41-.08h8.19c.35,0,.36,0,.36.34v13.67c0,.51,0,.47.48.47h.11c.29,0,.29,0,.3-.28V79c0-.15-.05-.32.06-.46.18.18.12.42.12.63q0,3.27,0,6.54v17.19c0,.66,0,.66.67.66H86.64a1.29,1.29,0,0,1,.82.12c.26,0,.52,0,.77,0s.27-.07.26-.26a2.81,2.81,0,0,1,0-.29q0-18.72,0-37.43c0-.15-.06-.32.07-.46a.69.69,0,0,1,.12.42v37.12c0,.83,0,.78.77.78.6,0,1.2,0,1.8,0,.39,0,.77,0,1.15,0a5.81,5.81,0,0,1,.59,0H110.1a3.85,3.85,0,0,1,.48,0q.54,0,1.08,0c.52,0,1,0,1.57,0,.3,0,.43-.11.42-.41,0-.12,0-.25,0-.37V66.12c0-.72,0-.72-.73-.72H89.26a1,1,0,0,1-.7-.12.16.16,0,0,1,.16-.07h24.57c.63,0,.56-.06.56.57v37.43c0,.57-.07.51.51.51h.51a.85.85,0,0,1,.6-.12h30.27c.76,0,.76,0,.76-.76V79.22c0-.73,0-.73-.74-.73H135.29a2.94,2.94,0,0,1-.59,0s-.15-.09,0-.14a.69.69,0,0,1,.25,0h11.54c.15,0,.23.06.22.22v24.64c0,.1,0,.2,0,.3s0,.29.24.27.21.09.2.23c0,.32,0,.64,0,1,0,.13.05.21.19.21s.17,0,.18-.15v-.36q0-12.93,0-25.87c0-.15-.07-.32.07-.44v26.84C147.43,105.26,147.25,105.12,147.12,105.25Z"/><path class="cls-5" d="M87.46,103.72H13.36c-.65,0-.57.08-.57-.56V79.06c0-.16,0-.32,0-.48s.05-.31.26-.28a.75.75,0,0,0,.15,0H30.68a1.4,1.4,0,0,1-.47.52L27.58,81.1l-2.45,2.1a1.31,1.31,0,0,0-.35.38h2.63c.29,0,.29,0,.3.28V96.29c0,.49,0,.46.46.46H41.94c.49,0,.45,0,.45-.47V84.05c0-.5,0-.46.46-.46h1.78l0-.07c-1.95-1.73-3.94-3.41-6-5.19H61.48a1.91,1.91,0,0,1-.48.5l-2.6,2.25L55.92,83.2a1.46,1.46,0,0,0-.35.38h2.64c.28,0,.29,0,.29.28,0,.1,0,.2,0,.3V96.29c0,.49,0,.46.46.46H72.74c.48,0,.45,0,.45-.47V84c0-.49,0-.45.45-.45h1.51a.4.4,0,0,0,.32-.06l-5.91-5.14,0-.08H87c.46,0,.44,0,.44.44v25Z"/><path class="cls-6" d="M87.12,63.44l-2,1.78a.75.75,0,0,0,.4.06c.56,0,1.12,0,1.69,0,.25,0,.26,0,.27.27v11.1c0,.4,0,.4-.41.4H75.92c-2.48,0-5,0-7.42,0a1.21,1.21,0,0,1-.86-.32l-1.9-1.67c-.2-.17-.23-.18-.43,0-.63.54-1.26,1.09-1.87,1.65a1.11,1.11,0,0,1-.85.33c-.6,0-1.2,0-1.8,0-7.74-.12-15.48,0-23.22,0a1.12,1.12,0,0,1-.81-.33L34.88,75a.19.19,0,0,0-.31,0c-.42.41-.89.77-1.32,1.16-.26.23-.52.45-.77.69s-.29.1-.44.1c-2,0-4,0-6,0-4.31-.1-8.61,0-12.92-.06h-.11c-.27,0-.29,0-.2-.28.17-.5.35-1,.52-1.52.87-2.47,1.73-4.93,2.59-7.4l1.39-3.94c.13-.38.13-.38.54-.38H86.57A1.27,1.27,0,0,1,87.12,63.44Z"/><path class="cls-5" d="M134.7,78.44c.1-.11.23-.08.35-.08h11.38c.12,0,.19,0,.19.17v24.94c0,.17-.05.26-.23.24H114.87V78.81c0-.57-.06-.51.52-.51h11.13A24.47,24.47,0,0,1,123.6,81c-1,.83-2,1.7-3,2.55l0,.06h2.27c.31,0,.31,0,.32.33V96.3c0,.47,0,.45.43.45h13.85c.4,0,.4,0,.4-.4V84.07c0-.54-.05-.48.5-.48h2.14a4,4,0,0,0-.72-.67c-.6-.54-1.23-1-1.84-1.58l-3.27-2.83Z"/><path class="cls-6" d="M117.23,65.2l-2-1.72c0-.12.12-.09.18-.1H138a.71.71,0,0,1,.67.37c1.3,1.9,2.61,3.78,3.92,5.67l1.72,2.51,3.32,4.8a1.31,1.31,0,0,1,.25.43.72.72,0,0,1-.38,0H133.63a1,1,0,0,1-.72-.28c-.71-.65-1.45-1.27-2.18-1.91-.11-.09-.18-.07-.28,0l-1,.86-1.35,1.19a.31.31,0,0,1-.25.11,5.15,5.15,0,0,1-.88,0,2.22,2.22,0,0,0-.44,0H115.32c-.5,0-.45,0-.45-.47V65.74c0-.49,0-.46.45-.46h1.55A.53.53,0,0,0,117.23,65.2Z"/><path class="cls-4" d="M35.06,83.73h6.31c.16,0,.24.06.23.21a1.77,1.77,0,0,0,0,.23V95.55c0,.49,0,.45-.46.45H28.91c-.49,0-.47,0-.47-.45V84.09c0-.36,0-.36.37-.36Z"/><path class="cls-4" d="M65.84,83.73H72.2c.14,0,.19.07.19.21v11.6c0,.49,0,.46-.45.46H59.56c-.32,0-.32,0-.32-.33V84.06c0-.33,0-.33.36-.33Z"/><path class="cls-4" d="M130.57,96h-6.32c-.14,0-.2-.07-.19-.2V84.19c0-.49,0-.46.45-.46h12.34c.28,0,.28,0,.29.3V95.56c0,.47,0,.44-.44.44Z"/><path class="cls-7" d="M88,64.14a6.68,6.68,0,0,1,.74-.67c.62-.55,1.25-1.08,1.88-1.63,1.08-.92,2.15-1.85,3.22-2.78L96.26,57l3-2.61L101,52.91c.23-.19.24-.19.47,0l1.78,1.54,3.13,2.71,2.38,2.07,3.06,2.64,2.33,2a.7.7,0,0,1,.21.24C114,64.2,88.38,64.2,88,64.14Z"/><path class="cls-5" d="M2.87,89.32h8.67c.15,0,.23.06.22.22a2.09,2.09,0,0,0,0,.25v13.48c0,.51,0,.46-.48.46H2.87Z"/><path class="cls-6" d="M74.3,83.1c-.37.05-17.07.05-17.56,0l8.78-7.61Z"/><path class="cls-6" d="M43.52,83.12H25.94c1.49-1.31,2.94-2.55,4.39-3.81l4.4-3.81Z"/><path class="cls-6" d="M139.36,83.12H121.89a.75.75,0,0,1,.27-.31l3.32-2.88c.92-.8,1.84-1.61,2.77-2.4.74-.64,1.49-1.26,2.21-1.92a.17.17,0,0,1,.28,0l1.85,1.61c.62.55,1.26,1.08,1.89,1.63L135.83,80c.64.56,1.3,1.1,1.94,1.68S138.82,82.58,139.36,83.12Z"/><path class="cls-6" d="M1.83,88.65a8.7,8.7,0,0,1,1-.9c.44-.4.91-.77,1.36-1.16l2.1-1.82,1.85-1.62c.19-.17.19-.16.38,0l2.77,2.4c.16.13.29.29.47.41a.31.31,0,0,1,.11.29c0,.71,0,1.42,0,2.13,0,.25,0,.26-.28.26H1.83Z"/><path class="cls-8" d="M91.28,103.72H88.82c-.25,0-.26,0-.26-.28V65.28h24.73c.55,0,.49-.07.49.48v37.48c0,.55.07.49-.48.49l-1.65,0a.17.17,0,0,1-.06-.16,13.72,13.72,0,0,0-1.24-6.32,10.23,10.23,0,0,0-6.06-5.75,8.57,8.57,0,0,0-8.57,1.67A12,12,0,0,0,91.53,101a12.73,12.73,0,0,0-.16,2.23A.56.56,0,0,1,91.28,103.72Z"/><path class="cls-6" d="M110.61,103.72H92.38a.58.58,0,0,1-.1-.38,12.08,12.08,0,0,1,2.88-8.42,8.27,8.27,0,0,1,5.25-3,7.86,7.86,0,0,1,6.34,1.91,11.35,11.35,0,0,1,3.8,7.05,12.15,12.15,0,0,1,.15,2.41A.52.52,0,0,1,110.61,103.72Z"/><path class="cls-9" d="M110.61,103.72c0-.39,0-.78,0-1.17a12.48,12.48,0,0,0-1.06-4.73,10.77,10.77,0,0,0-2.35-3.42A8.29,8.29,0,0,0,103,92.13a7.58,7.58,0,0,0-5.59,1,10.12,10.12,0,0,0-4.12,5.06,12.53,12.53,0,0,0-.83,3.36c-.08.71,0,1.42-.06,2.13h-1.1c0-.31,0-.61,0-.92a14.36,14.36,0,0,1,1.11-5.29,12.76,12.76,0,0,1,1.72-2.89,9.94,9.94,0,0,1,5.44-3.51,9,9,0,0,1,2.07-.19,8.17,8.17,0,0,1,2.69.45,9.39,9.39,0,0,1,2.81,1.54,11.24,11.24,0,0,1,2.95,3.55,12.88,12.88,0,0,1,1.43,4.28c.07.47.12.93.15,1.41,0,.33.06.65.06,1a2.24,2.24,0,0,1-.06.58A9,9,0,0,1,110.61,103.72Z"/><path class="cls-10" d="M105.89,76.93v5c0,.32,0,.32-.33.32H96.82c-.34,0-.34,0-.34-.35V71.87c0-.34,0-.34.35-.34h8.89c.12,0,.18.06.17.18v5.22Z"/><path class="cls-11" d="M96.93,76.91V72.13c0-.11.06-.15.16-.15H105c.4,0,.4-.06.4.39v9.18c0,.27,0,.28-.29.28H97.27c-.36,0-.34,0-.34-.33Z"/><path class="cls-12" d="M101.15,80.34H98.84c-.28,0-.29,0-.29-.29,0-.58,0-.5.48-.5h4.62a.15.15,0,0,1,.16.12,1.45,1.45,0,0,1,0,.55c0,.14-.17.12-.27.12h-2.39Z"/><path class="cls-12" d="M101.15,76.15H98.84c-.28,0-.29,0-.29-.28,0-.58,0-.5.48-.51h4.58a.21.21,0,0,1,.14,0c.15.18.08.39.06.59s-.15.16-.28.16h-2.38Z"/><path class="cls-13" d="M101.08,74.11H98.76c-.28,0-.28,0-.28-.29,0-.52,0-.45.44-.45,1.45,0,2.89,0,4.33,0h.22c.17,0,.26,0,.24.23v.11c0,.4,0,.4-.4.4Z"/><path class="cls-13" d="M101.09,78.22H98.78c-.3,0-.3,0-.31-.31v-.07c0-.36,0-.36.37-.36h4.73a.14.14,0,0,1,.14.14v.11c0,.49,0,.49-.45.49Z"/><rect class="cls-14" width="150" height="51.25"/><rect class="cls-14" x="0.07" y="105.34" width="150" height="44.66"/></svg>