<svg id="Layer_1" data-name="Layer 1" xmlns="http://www.w3.org/2000/svg" viewBox="0 0 150 150"><defs><style>.cls-1{fill:#fefefe;}.cls-2{fill:#d5d3d2;}.cls-3{fill:#15467a;}.cls-4{fill:#a59061;}.cls-5{fill:#7b7979;}.cls-6{fill:#6e6d6d;}.cls-7{fill:#f7f6f6;}.cls-8{fill:#fdfdfd;}.cls-9{fill:#fdfcfc;}.cls-10{fill:#ecebea;}.cls-11{fill:#ebe9e9;}</style></defs><title>NHS Logo</title><circle class="cls-1" cx="75" cy="75" r="75"/><path class="cls-2" d="M75,136.5v.14H73.91v-.13A.86.86,0,0,1,75,136.5Z"/><path class="cls-3" d="M75,136.5H73.91a4.24,4.24,0,0,1-3.4-2.75,4,4,0,0,1,1-4.39,1.05,1.05,0,0,0,.36-1c-.2-2.06-.39-4.12-.55-6.19,0-.52-.37-.41-.67-.41H46.35c-.5,0-.68-.12-.79-.64q-4-19-8-38.05L30,47q-1.65-7.92-3.34-15.82c-.13-.57,0-.7.55-.7q7.9,0,15.81,0c.79,0,.79,0,.43-.71q-3.33-6.49-6.67-13c-.34-.66-.33-.67.42-.67h76.19c-.47.88-.89,1.67-1.32,2.46-2,3.65-3.92,7.3-5.91,10.93-.29.54-.19.61.38.61,5.24,0,10.48,0,15.73,0,.58,0,.64.15.54.67q-2.44,11.91-4.85,23.81-4,19.75-8,39.52-2.76,13.57-5.49,27.15c-.1.47-.3.59-.77.59q-12.45,0-24.9,0c-1,0-1,0-1.11,1q-.3,2.82-.61,5.64a.89.89,0,0,0,.25.86,4,4,0,0,1,1.16,4.17,4,4,0,0,1-3.31,3A.67.67,0,0,0,75,136.5Z"/><path class="cls-1" d="M49.71,33.88l-4.45-8.35q-1.38-2.59-2.75-5.19c-.36-.67-.35-.68.4-.68h63.48c.86,0,.85,0,.46.77q-3.24,6.32-6.48,12.63c-.28.53-.17.62.4.62,5.65,0,11.31,0,17,0,.63,0,.76.13.63.75Q114.73,52,111.12,69.56q-3.18,15.51-6.38,31-1.69,8.28-3.39,16.58c-.11.52-.29.68-.83.68q-10.84,0-21.69,0c-.61,0-.69-.16-.63-.71Q79,109.54,79.77,102q.86-8.57,1.68-17.13c.21-2,.41-4.08.65-6.11.06-.51-.09-.61-.57-.61q-6.8,0-13.61,0c-.49,0-.66.08-.61.63.34,3.47.65,6.94,1,10.4q.57,6.25,1.13,12.51.66,7.18,1.33,14.35c0,.27,0,.55,0,.82.09,1,.09,1-.91,1-6.73,0-13.46,0-20.18,0-.53,0-.77-.08-.9-.68Q45,99.48,41.11,81.81L32.29,41.15q-.7-3.3-1.45-6.6c-.12-.53,0-.68.56-.68,5.82,0,11.63,0,17.45,0Z"/><path class="cls-4" d="M67.6,60.42a9.63,9.63,0,0,1,4.58-7.09,15.53,15.53,0,0,1,5.13-1.53,14,14,0,0,0,2.87-.56,2.92,2.92,0,0,0,2.06-2.7c-.06-.19-.13-.4,0-.55s.2,0,.28.1a5.37,5.37,0,0,1,0,6.32,8.76,8.76,0,0,1-3.92,3.28,8.77,8.77,0,0,0-3.91,2.88c-.26.37-.48.77-.72,1.16.3.18.42-.07.57-.22A8.67,8.67,0,0,1,79.5,59a7.23,7.23,0,0,0,1.89-.56c1.33-.61,2.4-1.43,2.5-3.07a4.81,4.81,0,0,1,.48,5.5,6.19,6.19,0,0,1-5.14,3A11.13,11.13,0,0,0,74.5,65a4.52,4.52,0,0,0-2.28,4.82c.28-.61.52-1.16.81-1.69a3,3,0,0,1,2.28-1.65c1-.15,2-.27,2.42-1.5a3.28,3.28,0,0,1,0,1.91,4.88,4.88,0,0,1-3.31,3.85,4.59,4.59,0,0,1-4.8-1.09A14.76,14.76,0,0,1,66,65.6a10.28,10.28,0,0,1,1.44-11.82c.91-1.06,2-1.91,3-2.94a5,5,0,0,0,1.48-5.24,5,5,0,0,1,1.72,1.65,5,5,0,0,1,.8,3.9.53.53,0,0,1-.43.51,9,9,0,0,0-6.58,9.58.55.55,0,0,1,.12.44.11.11,0,0,0,0,0V61.6C67.56,61.21,67.51,60.81,67.6,60.42Z"/><path class="cls-3" d="M44.9,82.45l7.25,8.09c.92,1,1.83,2.09,2.78,3.1.32.33.26.53,0,.82-.49.51-1,1-1.42,1.57-.26.31-.4.31-.68,0a20,20,0,0,0-2.46-2.19l1.57,8.44,2.59-4c.74.69,1.45,1.36,2.17,2a.31.31,0,0,1,.07.46c-2.06,3.52-4.13,7-6.28,10.74L44.74,82.88C44.72,82.71,44.56,82.49,44.9,82.45Z"/><path class="cls-3" d="M91.5,97.79l13.88-15.73.14.06c-.25,1.25-.49,2.51-.73,3.76-.45,2.28-.9,4.56-1.33,6.84-.08.39-.19.61-.64.56s-1.37.24-1.71-.13,0-1.07,0-1.63a1,1,0,0,0-.1-.74c-1.32,1.52-2.61,3-4,4.65h4.85c.93,0,.93,0,.75.93q-1.44,7.61-2.9,15.22c0,.19-.1.39-.17.71l-6.2-11.11h2.71c.29,0,.39.21.51.39.55.78,1.09,1.57,1.69,2.43a7.35,7.35,0,0,0,.39-1.7c.24-1.3.45-2.61.72-3.9.1-.49,0-.62-.5-.61C96.49,97.8,94.1,97.79,91.5,97.79Z"/><path class="cls-3" d="M59,110.29l-.78,2.56H63.3c.22,0,.33-.09.33-.32q0-2.06,0-4.11c0-.41-.27-.33-.51-.33-1.89,0-3.78,0-5.67,0-.53,0-.69,0-.41-.61,1.32-2.65,2.6-5.31,3.87-8a.81.81,0,0,1,.88-.55c1.12,0,2.23,0,3.35,0,.28,0,.47,0,.49.38q.09,1.4.21,2.79c0,.34-.08.44-.41.43-.75,0-1.51,0-2.26,0-.43,0-.6.15-.7.54a20.86,20.86,0,0,1-.64,2.08c-.18.48,0,.54.41.55l3.07.06c.57,0,.89.12.94.85.2,2.7.5,5.4.79,8.09,0,.45-.08.54-.5.54q-6.42,0-12.85,0c-.52,0-.51-.15-.31-.54.7-1.42,1.39-2.86,2.08-4.29.11-.24.23-.44.55-.41Z"/><path class="cls-3" d="M90.56,110.13c1,0,2,0,2.86,0a.61.61,0,0,1,.64.38c.72,1.47,1.45,2.94,2.2,4.39.23.44.08.48-.31.48-4.29,0-8.58,0-12.87,0-.58,0-.54-.3-.53-.69q.2-6.61.37-13.25c0-.64,0-1.27,0-1.91,0-.39.1-.58.55-.56a21.11,21.11,0,0,0,2.25,0c.54,0,.57.22.57.65q0,6,0,12c0,.91,0,.91.89.91,1.3,0,2.6,0,3.9,0,.56,0,.55-.18.34-.58C91.13,111.41,90.87,110.81,90.56,110.13Z"/><path class="cls-3" d="M86,72.62c-1,1.36-2,2.61-2.92,3.87a.84.84,0,0,1-.75.36H67.18c-.22,0-.45,0-.62-.19-1-1.32-2-2.63-3.06-4Z"/><path class="cls-3" d="M64,39.49c0-.82,0-1.64,0-2.46,0-.34.1-.48.46-.48.87,0,1.73,0,2.6,0a1.69,1.69,0,0,1,1,3.08.36.36,0,0,0-.14.55c.26.58.48,1.18.74,1.76.16.35.15.48-.31.52-.71.06-1.17-.11-1.32-.87-.07-.33-.27-.63-.35-1-.12-.59-.55-.55-1-.53-.24,0-.31.12-.31.34,0,.39,0,.77,0,1.16,0,.84-.25,1-1.1.85-.3-.07-.28-.25-.28-.45Z"/><path class="cls-3" d="M80.77,30.13c0,1.14,0,2.21,0,3.27,0,.45-.14.53-.55.53s-.56-.07-.55-.52c0-1.6,0-3.19,0-4.79,0-.44.1-.56.56-.59a1.26,1.26,0,0,1,1.42.83c.39.84.92,1.62,1.38,2.42.29-.06.17-.26.17-.39,0-.75,0-1.51,0-2.26,0-.43.08-.6.56-.6s.51.2.51.58c0,1.55,0,3.1,0,4.65,0,.23.19.63-.26.64s-.81.21-1.09-.29c-.54-1-1.12-2-1.7-3C81.11,30.48,81.07,30.26,80.77,30.13Z"/><path class="cls-3" d="M43.78,39.56c0,.82,0,1.64,0,2.45,0,.54-.3.48-.61.44s-.79.26-.77-.41,0-1.1,0-1.64c0-.29-.09-.38-.39-.4-1.53-.11-1.53-.12-1.53,1.43v.27a.8.8,0,0,1-1.2.76c-.2-.09-.16-.25-.16-.4,0-1.71,0-3.41,0-5.12,0-.51.35-.4.6-.37s.76-.26.77.36,0,1,0,1.5c0,.33.12.42.44.44,1.49.09,1.49.1,1.48-1.43,0-.51-.09-1,.72-.91.55,0,.69.19.66.71C43.75,38,43.78,38.78,43.78,39.56Z"/><path class="cls-3" d="M56.62,31.27c0-.9,0-1.81,0-2.71,0-.43.15-.52.55-.53s.5.15.49.52c0,1.58,0,3.15,0,4.72,0,.22.17.6-.19.62s-.86.24-1.15-.28c-.59-1.06-1.2-2.09-1.81-3.14a.66.66,0,0,0-.34-.32c0,1,0,2.06,0,3.09,0,.61-.2.73-.73.69-.32,0-.37-.15-.37-.43,0-1.68,0-3.37,0-5.06,0-.29.11-.38.4-.4a1.31,1.31,0,0,1,1.57.8,25.3,25.3,0,0,0,1.41,2.47Z"/><path class="cls-3" d="M55.06,39.8c0-.91,0-1.82,0-2.72,0-.44.15-.53.55-.53s.56.08.55.52c0,1.57,0,3.14,0,4.71,0,.23.2.63-.23.66s-.84.21-1.13-.33c-.55-1-1.17-2.06-1.76-3.08-.08-.14-.12-.3-.32-.37-.21.17-.1.41-.1.61,0,.94,0,1.87,0,2.8,0,.44-.26.39-.53.39s-.48,0-.48-.37c0-1.73,0-3.46,0-5.19,0-.28.11-.32.36-.35a1.34,1.34,0,0,1,1.61.85,23,23,0,0,0,1.36,2.42Z"/><path class="cls-3" d="M78.33,31c0,1.82-.94,3-2.32,3.07a2.25,2.25,0,0,1-2.43-1.47,3.89,3.89,0,0,1-.16-2.73A2.34,2.34,0,0,1,75.88,28a2.31,2.31,0,0,1,2.28,1.88A3.59,3.59,0,0,1,78.33,31Z"/><path class="cls-3" d="M62.57,39.47a2.93,2.93,0,0,1-1.51,2.84,2.34,2.34,0,0,1-3.17-1.14A3.62,3.62,0,0,1,58,37.53a2.36,2.36,0,0,1,4.13.23A3.53,3.53,0,0,1,62.57,39.47Z"/><path class="cls-3" d="M78.64,39.61a3.39,3.39,0,0,1,.68-2.32,2.41,2.41,0,0,1,4,.54,4,4,0,0,1,.28,2.46,2.47,2.47,0,0,1-4.92,0C78.66,40,78.65,39.72,78.64,39.61Z"/><path class="cls-3" d="M50.16,39.46c0,1.77-.87,2.94-2.29,3a2.33,2.33,0,0,1-2.53-1.66,4.15,4.15,0,0,1-.12-2.29,2.38,2.38,0,0,1,2.68-2.08,2.46,2.46,0,0,1,2.21,2.31A5.19,5.19,0,0,1,50.16,39.46Z"/><path class="cls-3" d="M75.19,42.51a2.45,2.45,0,0,1-2.14-.86c-.16-.21-.49-.58-.17-.73s.81-.52,1.19,0a1.4,1.4,0,0,0,1.59.46.57.57,0,0,0,.49-.58.54.54,0,0,0-.44-.54c-.46-.13-.93-.21-1.38-.36A1.64,1.64,0,0,1,73,38a1.94,1.94,0,0,1,1.82-1.57,2.43,2.43,0,0,1,2.13.67c.17.19.5.5.25.65s-.7.63-1.12.12a1.12,1.12,0,0,0-1.16-.41c-.3.06-.59.18-.59.55s.23.48.52.55.71.14,1.06.24c1.1.29,1.7,1,1.62,1.88a2.05,2.05,0,0,1-2,1.77A3.27,3.27,0,0,1,75.19,42.51Z"/><path class="cls-3" d="M94.34,39.48c0-.82,0-1.64,0-2.45,0-.36.1-.48.46-.48,1.12,0,2.23,0,3.35,0,.42,0,.42.23.4.52s.11.62-.39.6c-.66,0-1.32,0-2,0-.49,0-.5.24-.48.59s-.1.72.48.66a5.79,5.79,0,0,1,1,0c.35,0,.78-.18.79.5s-.38.52-.75.52a3.76,3.76,0,0,1-.75,0c-.68-.12-.84.19-.8.82,0,.47.13.64.61.61s1.23,0,1.85,0c.42,0,.42.22.4.51s.12.61-.39.61c-1.14,0-2.27,0-3.41,0-.36,0-.41-.17-.41-.46C94.35,41.17,94.34,40.33,94.34,39.48Z"/><path class="cls-3" d="M58.84,33.84c.6-1.84,1.2-3.66,1.79-5.5.08-.26.23-.28.45-.29,1.18-.1,1.18-.1,1.55,1,.45,1.43.88,2.86,1.36,4.28.17.49,0,.53-.42.57-.64,0-1-.11-1.12-.8,0-.27-.14-.4-.44-.38s-.86,0-1.29,0c-.27,0-.39.08-.49.35C59.93,34,59.91,34,58.84,33.84Z"/><path class="cls-3" d="M87.94,32.77c-.71-.16-1.1,0-1.24.81s-.69.35-1,.3-.08-.41,0-.61c.5-1.58,1-3.15,1.51-4.74.18-.63.61-.47,1-.48s.74-.1.9.45c.48,1.66,1,3.3,1.55,4.94.15.46,0,.45-.38.49-.65.06-1.06-.06-1.19-.81S88.29,32.93,87.94,32.77Z"/><path class="cls-3" d="M84.82,39.55c0-2.29,1.61-3.58,3.53-3a2,2,0,0,1,1.25,1.09c.42.87.29,1.07-.67,1.12-.33,0-.48-.06-.53-.42a.87.87,0,0,0-.92-.82.93.93,0,0,0-1,.76,4.56,4.56,0,0,0,0,2.29,1,1,0,0,0,1,.82,1,1,0,0,0,1-.65,1.08,1.08,0,0,1,1.29-.39c.25.18.07.42,0,.61a2.12,2.12,0,0,1-1.86,1.5,2.47,2.47,0,0,1-2.55-1.09A3.14,3.14,0,0,1,84.82,39.55Z"/><path class="cls-3" d="M66.39,31.53c0-.62,0-1.23,0-1.85,0-.34-.07-.52-.45-.47-.16,0-.32,0-.48,0-.47.07-.61-.1-.61-.59S65,28,65.48,28c1.1,0,2.19,0,3.28,0,.49,0,.51.23.49.59s0,.6-.46.6c-1,0-1,0-1,1.09s0,2.09,0,3.14c0,.59-.34.46-.65.45s-.77.18-.73-.47S66.39,32.17,66.39,31.53Z"/><path class="cls-3" d="M107.22,38.79a12.82,12.82,0,0,0,.75-1.46c.26-.78.77-.92,1.54-.69-.49.91-.93,1.83-1.47,2.68a4.48,4.48,0,0,0-.29,2.39.8.8,0,0,1-1.2.74.25.25,0,0,1-.16-.2.29.29,0,0,1,0-.13c.39-2-.77-3.56-1.67-5.17a2.88,2.88,0,0,1-.13-.31c1.34-.25,1.41-.21,2,.89Z"/><path class="cls-3" d="M100.92,40.06c0-.64,0-1.27,0-1.91,0-.35-.1-.5-.46-.46-.21,0-.42,0-.62,0-.51.06-.45-.28-.47-.61s.09-.54.49-.53c1.16,0,2.32,0,3.48,0,.51,0,.39.3.4.58s0,.56-.43.57c-1,0-1,.06-1,1.09s0,2.09,0,3.14c0,.65-.37.51-.74.54s-.69,0-.65-.57S100.92,40.67,100.92,40.06Z"/><path class="cls-3" d="M91.89,30.94c0-.77,0-1.55,0-2.32,0-.61.29-.57.71-.58s.71,0,.68.61c0,1.19,0,2.37,0,3.56,0,.49.15.63.62.59s.77,0,1.16,0,.65,0,.65.56-.21.59-.64.58c-.84,0-1.69,0-2.53,0-.55,0-.65-.18-.63-.66C91.92,32.5,91.89,31.72,91.89,30.94Z"/><path class="cls-3" d="M92.65,39.54c0,.8,0,1.6,0,2.39,0,.59-.3.55-.68.53s-.72.15-.71-.49c0-1.63,0-3.28,0-4.91,0-.64.37-.49.71-.5s.73-.08.68.52C92.61,37.9,92.65,38.72,92.65,39.54Z"/><path class="cls-3" d="M71.86,31.08c0,.79,0,1.59,0,2.39,0,.52-.3.48-.61.44s-.78.26-.77-.42c0-1.66,0-3.32,0-5,0-.65.44-.43.75-.46s.67-.05.64.5C71.82,29.39,71.86,30.23,71.86,31.08Z"/><path class="cls-5" d="M82.55,48.09c-.56-.17-.15.34-.31.45L82,47.59A.69.69,0,0,1,82.55,48.09Z"/><path class="cls-6" d="M44.9,82.45c-.19.1-.07.3-.16.43,0-.14-.1-.29-.13-.44s0-.2.08-.2S44.87,82.34,44.9,82.45Z"/><path class="cls-7" d="M66.08,37.57a5,5,0,0,1,.57,0,.66.66,0,0,1,.67.64.68.68,0,0,1-.54.82,8.77,8.77,0,0,1-1.15.06c-.2,0-.28-.11-.28-.3a1.79,1.79,0,0,0,0-.4C65.22,37.71,65.46,37.41,66.08,37.57Z"/><path class="cls-8" d="M76.9,31a3.39,3.39,0,0,1-.21,1.34,1,1,0,0,1-1.72.12,3.48,3.48,0,0,1,0-3c.16-.35.48-.42.86-.42a.82.82,0,0,1,.79.53A3,3,0,0,1,76.9,31Z"/><path class="cls-8" d="M61.18,39.47a4.27,4.27,0,0,1-.23,1.3.88.88,0,0,1-.86.65.87.87,0,0,1-.92-.56,3.79,3.79,0,0,1,0-2.79.84.84,0,0,1,.87-.52.85.85,0,0,1,.85.56A4,4,0,0,1,61.18,39.47Z"/><path class="cls-9" d="M82.26,39.53a2.86,2.86,0,0,1-.16,1.19.93.93,0,0,1-.83.7.9.9,0,0,1-1-.58,3.67,3.67,0,0,1,0-2.78.83.83,0,0,1,.87-.51.86.86,0,0,1,.85.56A3.1,3.1,0,0,1,82.26,39.53Z"/><path class="cls-9" d="M46.56,39.51a2.91,2.91,0,0,1,.18-1.34.92.92,0,0,1,.95-.62.85.85,0,0,1,.87.64,4.06,4.06,0,0,1,0,2.6.87.87,0,0,1-.88.63.94.94,0,0,1-.92-.58A2.64,2.64,0,0,1,46.56,39.51Z"/><path class="cls-10" d="M61.42,29.66c.18.59.31,1.12.5,1.63.12.34,0,.38-.3.4-.94.07-1,0-.7-.82.11-.35.23-.69.35-1C61.28,29.8,61.32,29.77,61.42,29.66Z"/><path class="cls-11" d="M88.06,29.75c.14.45.26.91.43,1.35s0,.59-.47.6-.78-.1-.52-.69c.18-.41.28-.85.42-1.28Z"/></svg>