<svg id="Layer_1" data-name="Layer 1" xmlns="http://www.w3.org/2000/svg" viewBox="0 0 150 150"><defs><style>.cls-1{fill:#03673b;}.cls-2{fill:#fff;}</style></defs><title>Ravenscroft R Logo</title><path class="cls-1" d="M8.29,0h133.5q0,42.54,0,85.07a66.39,66.39,0,0,1-.75,9.86c-1.65,10.54-7,19.13-14.63,26.33-9.53,8.92-21.13,14.54-32.7,20.16-6,2.89-11.91,5.72-17.87,8.58h-1.5c-6.73-3.27-13.48-6.49-20.18-9.82C42.83,134.58,32,128.3,22.94,119.35c-8.59-8.51-14.46-18.59-14.58-30.89C8.08,59,8.28,29.49,8.29,0ZM133.53,4.46H16.81c-.07,1-.18,1.8-.18,2.59q0,40.12,0,80.25a27.24,27.24,0,0,0,.44,5c2.19,11.64,9.18,20.19,18.39,26.86a217,217,0,0,0,21.83,13.4c5.7,3.18,11.79,5.67,17.85,8.53,9.23-4.48,18.49-8.82,27.61-13.46a72.7,72.7,0,0,0,19.68-14.17c7-7.28,11.14-15.91,11.21-26,.18-26.75.06-53.5.06-80.25C133.71,6.35,133.6,5.49,133.53,4.46Z"/><path class="cls-1" d="M27.21,103.08A27.14,27.14,0,0,1,21.76,91.2a67,67,0,0,1-1-11c-.08-22.88,0-45.75,0-68.63,0-.89.16-1.79.25-2.77H129.22a20.93,20.93,0,0,1,.3,2.49c0,23.75.09,47.5,0,71.25,0,6.86-1.28,13.54-5,19.53-.2.32-.44.59-.85,1.13-2.72-.88-5.49-1.76-8.25-2.68C103,96.41,90.51,92.34,78.13,88c-3.11-1.09-5.63.19-8.28,1.07-14,4.61-27.94,9.31-41.91,14A5,5,0,0,1,27.21,103.08ZM81.28,51.93l2.13-.62c13.15-3.74,14.9-17.49,7.25-25.38-5.45-5.62-12.62-7.1-20-6.72-8.11.41-16.18,1.12-24.3.6A6.79,6.79,0,0,0,45,20a2.24,2.24,0,0,0,1.51,1c5.41,1.05,7.16,3.11,7.23,8.68.09,7.19.2,14.37.2,21.56q0,9.93-.27,19.86c-.13,4.63-1.88,6.6-6.38,7.71l-2.23.54.07.53H71.23a1.5,1.5,0,0,0-1.11-.82c-5.87-1.15-7.59-3-7.78-8.9-.18-5.74-.12-11.49-.15-17.24a11.94,11.94,0,0,1,.28-1.72c2.33.39,4.5.63,6.59,1.18a6.51,6.51,0,0,1,3.12,1.73c4.71,5.24,9,10.84,14,15.84,5.53,5.56,11.56,10.64,17.43,15.86,2,1.77,4.39.84,7.27.9C99.38,76.13,89.42,65.06,81.28,51.93Z"/><path class="cls-1" d="M113.81,114a86.21,86.21,0,0,1-7.71,5.08c-9.87,5.08-19.82,10-29.77,14.92a3.25,3.25,0,0,1-2.47.05c-11.61-5.37-23.3-10.61-33.73-18.17-.78-.57-1.51-1.22-2.47-2a13.91,13.91,0,0,1,1.48-1.19Q56.57,103,74,93.38a3.49,3.49,0,0,1,2.9,0c11.68,6.35,23.31,12.8,35,19.24C112.4,112.92,112.86,113.32,113.81,114Z"/><path class="cls-1" d="M62.49,47.92V23.57c.52-.41.74-.69,1-.77,7.81-2.22,18.35-1.32,21.59,8.26C87.77,39,84.9,47.88,74.43,49.21A22.64,22.64,0,0,1,62.49,47.92Z"/><rect class="cls-2" width="8.21" height="150"/><rect class="cls-2" x="141.79" width="8.21" height="150"/></svg>