<svg id="Layer_1" data-name="Layer 1" xmlns="http://www.w3.org/2000/svg" viewBox="0 0 150 150"><defs><style>.cls-1{fill:#fff;}.cls-2{fill:#cba734;}.cls-3{fill:#242020;}.cls-4{fill:#0f4722;}</style></defs><title>Ravens Athletics Logo 2</title><path class="cls-1" d="M150,150H0V0H150ZM9.83,9.85A8.21,8.21,0,0,1,9,9.41C8.34,9,7.69,8.5,7,8.06c-.19-.13-.51-.29-.67-.21s-.19.51-.13.81a2.68,2.68,0,0,0,.07.27,14.23,14.23,0,0,0,1.49,3.36,2.13,2.13,0,0,0,1.69,1.29,1.63,1.63,0,0,1,.31.11c-.18.05-.28.09-.39.11l-.38,0a7.17,7.17,0,0,1-3.44-.68c-.36-.17-.55-.08-.5.32a2.62,2.62,0,0,0,.35,1,5.16,5.16,0,0,0,2.52,2,3.46,3.46,0,0,1,.43.17L6,17.09c-.33.05-.46.2-.33.53a6.86,6.86,0,0,0,.64,1.16,5.12,5.12,0,0,0,2,1.37l.66.29-1.11.34a4.63,4.63,0,0,0,2.51,2l-1,.19a5.71,5.71,0,0,0,3.14,1.73c-.1.16-.16.27-.22.38-.29.55-.26.6.35.79.95.29,1.92.55,2.84.93a14.25,14.25,0,0,1,1.6.94,1.11,1.11,0,0,0,.53.17l4.19-.16a.78.78,0,0,1-.38.23c-.74.27-1.49.53-2.23.81a2.11,2.11,0,0,0-.4.26c.12.1.24.2.37.29s.4.19.58.31c.38.24.78.47.69,1a.24.24,0,0,0,.08.19c.33.21.57.54,1,.63s.92.19,1,.84c0,.14.32.33.5.34.43,0,.59.23.53.65v.28c0,.37.11.5.48.56a13.93,13.93,0,0,1,1.67.5,1.66,1.66,0,0,1-2.06.89h-.22a32.91,32.91,0,0,1-8-1A59.12,59.12,0,0,1,4.69,31a1,1,0,0,0-1.2.16,7.84,7.84,0,0,0-2.3,3.28,3.81,3.81,0,0,0,.28,3.4.55.55,0,0,1,0,.78l-.08.06A2.55,2.55,0,0,0,.48,41.1,11.66,11.66,0,0,0,1,42.34a.49.49,0,0,0,.54.37l2.2.13,4.91.38,1.38.12a2.1,2.1,0,0,1-.66.08c-2.56,0-5.13.07-7.69.12-.55,0-.54,0-.46.57a2.2,2.2,0,0,1,0,.44,2.85,2.85,0,0,0,.41,2.26,6.53,6.53,0,0,1,.92,1.63.54.54,0,0,0,.63.39c1.61-.19,3.23-.34,4.84-.52L10.27,48h0l-1.47.55c-1.7.61-3.4,1.21-5.08,1.84-.56.21-.63.66-.15,1a2.11,2.11,0,0,0,.93.41c.38.08.46.21.46.62-.1,1.75.62,2.65,2.3,2.81a1,1,0,0,1,.93.64,2,2,0,0,0,2.39,1.13c.33-.1.46.07.62.29a3.45,3.45,0,0,0,4.4,1.24c.31-.12.41,0,.54.22a2,2,0,0,0,2.43,1.07,6.49,6.49,0,0,0,.95-.29c.86-.33.85-.34,1.38.47a2.63,2.63,0,0,0,2.84,1.29c.62-.12,1.23-.37,1.84-.53A1.85,1.85,0,0,0,27,59.11a23.84,23.84,0,0,1,2.09-6.48,10.85,10.85,0,0,1,7.59-6,3.56,3.56,0,0,0,1.66-.71c.17-.15.3-.13.46,0s.65.61,1,.9c.08.07.29.16.32.12.25-.26.35,0,.48.12l1.47,1.38.32-.82.38.51V66.52c0,.39.14.47.46.47H50.5v15.5c0,.65,0,.64-.62.74-1.91.3-3.83.58-5.73.94a170.94,170.94,0,0,0-16.73,3.69c-3.75,1-7.45,2.21-11.17,3.34-.74.22-.89.58-.67,1.32,0,.06,0,.11,0,.17l5.79,18.79c.26.85.6,1,1.44.74q5.45-1.8,11-3.18c4.62-1.13,9.24-2,13.94-2.78.9-.14,1.8-.25,2.71-.38v6.44h-7.2c-.46,0-.46,0-.46.47v25.09c0,.47,0,.47.46.47H84.46c.5,0,.5,0,.5-.53V112.88c0-.62,0-.55-.58-.55h-5c-.68,0-.61.06-.61-.59v-7.1c0-.63-.06-.58.57-.57l10.06.26a.64.64,0,0,1,.63.42q1.29,2.7,2.6,5.4c.34.69.67,1.4,1,2.14-.18,0-.28,0-.39,0h-2.6c-.33,0-.44.11-.4.41a1.93,1.93,0,0,1,0,.34v24.65c0,.68,0,.68.67.68h37.5a1.22,1.22,0,0,1,.27,0c.33,0,.42-.12.39-.42V113c0-.79.06-.67-.63-.67h-9.2a.62.62,0,0,1-.67-.42c-.69-1.4-1.42-2.81-2.12-4.25-.09-.17-.16-.35-.27-.59a1,1,0,0,1,.35,0c2.1.34,4.2.63,6.28,1q6.4,1.25,12.79,2.59c2,.43,4,1,6.06,1.49a.85.85,0,0,0,1.13-.44.88.88,0,0,0,0-.15,3,3,0,0,0,.11-.32l5.63-15.16c.34-.91.69-1.81,1-2.73a.88.88,0,0,0-.38-1.17l-.2-.07-.31-.11c-4.78-1.7-9.66-3.09-14.57-4.32s-9.8-2.27-14.77-3.14l-2.34-.42c.17-.18.29-.32.41-.47,1-.94,1.89-1.88,2.84-2.84a.89.89,0,0,0,.31-.68V61.56a.83.83,0,0,0-.27-.64c-.61-.59-1.21-1.2-1.81-1.81l-8-8-9.69-9.8a1.3,1.3,0,0,0-1-.42H53.18a6.44,6.44,0,0,0,.34-.7,2.2,2.2,0,0,1,1.08-1.22,3.76,3.76,0,0,0,.92-.72,3.81,3.81,0,0,0,1.38-2.59,4.44,4.44,0,0,1,0,.63,2.08,2.08,0,0,0,1.56,2.12c.34.11.52.06.66-.31a12.49,12.49,0,0,1,.76-1.56,2.27,2.27,0,0,1,.46-.47l.14.13-.59,1A8.08,8.08,0,0,0,63.84,36c1.38.36,2.79.66,4.15,1.11a15,15,0,0,1,2.41,1.2,1.27,1.27,0,0,1,.62.89,1.57,1.57,0,0,0,.22.38c.11-.11.27-.2.33-.34a5.88,5.88,0,0,0-1.27-6.88,12.39,12.39,0,0,0-2.77-1.82A12.25,12.25,0,0,0,67.8,29c0-.82,0-.83-.74-.63a.38.38,0,0,1-.15,0,1.73,1.73,0,0,0-.08-.35,13.63,13.63,0,0,0-.5-1.65c-.35-.83-.38-.81-1-.23l-.19.09a4.89,4.89,0,0,0-2-1.93c-.28-.16-.12-.35,0-.47a18.84,18.84,0,0,1,2.17-1.82c1.1-.67,2.31-1.2,3.45-1.76a3.9,3.9,0,0,0,2.47-2.94A9.47,9.47,0,0,0,71,13.68c-.11-.44-.17-.47-.53-.14a7,7,0,0,0-1.58,2,5.91,5.91,0,0,1-.46.76,1.4,1.4,0,0,1-.47.24,1.91,1.91,0,0,1-.18-.47,1.4,1.4,0,0,1,.08-.49,2.76,2.76,0,0,0-.66-2.7,9,9,0,0,0-3.39-2.27c-.06,0-.13,0-.29,0a7.48,7.48,0,0,1,1.13,2.7c-1.13-1.05-2.62-1.1-4-1.72a2.75,2.75,0,0,0,.56,1.3c.29.52.6,1,.9,1.54h0a1.12,1.12,0,0,1-.25-.11,5.15,5.15,0,0,0-3.9-.69,1,1,0,0,0-.28.14,1.14,1.14,0,0,0,.18.25,3,3,0,0,0,.35.27,6.33,6.33,0,0,1,1.85,1.9l-.08.08a4.16,4.16,0,0,0-3.12-.16,5,5,0,0,0-.46.25,3.09,3.09,0,0,0,.39.33c.37.23.74.44,1.11.65-.62.09-1.2.16-1.78.27a1.19,1.19,0,0,0-.4.24c.09.1.18.22.28.32a21.26,21.26,0,0,1,1.51,1.63A3.09,3.09,0,0,1,58,21a.58.58,0,0,1-.43.69,5.3,5.3,0,0,0-.9.43,7.37,7.37,0,0,1-2.83.88,28.37,28.37,0,0,0-2.89.43,5.54,5.54,0,0,1-1.51.15,33.14,33.14,0,0,1-7.07-1.09,1.56,1.56,0,0,1-1.15-1.07A3.22,3.22,0,0,1,41,20.6c-.06-.8-.09-1.61-.09-2.41a1,1,0,0,0-.42-.87c-.36-.28-.72-.57-1.06-.89a9.35,9.35,0,0,1-1.89-1.88,2.92,2.92,0,0,0-1.22-1.24,2.09,2.09,0,0,1-.52-.41c-.32-.28-.62-.56-1-.88l-.21.58c-.06-.17-.11-.33-.16-.5-.21-1-.46-2.09-.63-3.13-.06-.32-.16-.41-.46-.34-.73.17-1.46.31-2.22.47a2.25,2.25,0,0,1-.08-.24c-.3-1.54-.61-3.08-.88-4.62A2.51,2.51,0,0,0,29.55,3a.29.29,0,0,0-.38-.12.27.27,0,0,0-.08.07c-.37.29-.76.54-1.13.82a2.71,2.71,0,0,0-1.12,1.62,6,6,0,0,1-.22.72H26.5c-.15-1.36-.29-2.73-.42-4.1,0-.5-.15-.6-.57-.38a6.42,6.42,0,0,0-2.83,2.58c-.26.47-.55.94-.82,1.41l-.13-.06c-.07-.87-.15-1.75-.22-2.62S21.37,1.24,21.3.34a5.24,5.24,0,0,0-2.77,1.79,5.57,5.57,0,0,0-.84,4.52,1.64,1.64,0,0,1-1.05-1.34c0-.32-.14-.62-.19-.94A2.57,2.57,0,0,0,15.84,3a2.44,2.44,0,0,1-.28-.64l-.14-.39a1.65,1.65,0,0,0-.36.22,3.06,3.06,0,0,0-1,1.94c-.1.78-.06,1.56-.12,2.34a1.23,1.23,0,0,0,.36.94c.81,1,1.59,2,2.38,3,.09.14.18.29.26.44l-.15.14c0-.07,0-.16-.08-.21-1.38-1.41-2.81-2.86-4.23-4.28-.54-.54-1.12-1.05-1.66-1.57-.24-.23-.44-.24-.65,0C9.69,5.46,9.23,6,8.82,6.55c-.51.74-.47,1,.07,1.77L10,9.75ZM70.47,149.66v-8H69.24c-.48,0-.49,0-.49.47v2.14c0,.29-.09.39-.38.39-.83,0-1.66,0-2.49,0-.38,0-.46-.14-.46-.47v-2.14c0-.28-.07-.42-.38-.39s-.62,0-.92,0c-.46,0-.46,0-.46.5v7.5H65c.33,0,.41-.11.4-.42v-2.48c0-.61,0-.52.54-.53h2.77v3.4Zm20.16-6.3V142c0-.31-.11-.37-.39-.36H85.63c-.3,0-.37.1-.37.39v7.25c0,.3.1.37.38.36h4c.38,0,.92.1,1.1-.1s.06-.74.09-1.13-.08-.39-.37-.38H88.13c-1.13,0-1.12,0-1.12-1.15,0-.36.1-.46.46-.46h2.6c.17,0,.35,0,.34-.24v-1.41H87.05v-1.45Zm-48.46,6.31h1.58a.43.43,0,0,0,.47-.35c.12-.34.25-.66.37-1a.42.42,0,0,1,.46-.35h2.38a.35.35,0,0,1,.4.27c.15.39.29.77.47,1.14.05.11.18.26.28.26.57,0,1.15,0,1.78,0-.08-.23-.13-.37-.19-.5-.92-2.19-1.86-4.37-2.82-6.56-.4-.94-.4-.91-1.39-.94a.59.59,0,0,0-.65.43c-1,2.35-2,4.69-3,7a3.43,3.43,0,0,1-.17.58Zm82.17-2.07-1.13,1.27a4,4,0,0,0,4.3.68,2.43,2.43,0,0,0,1.38-2.53,2,2,0,0,0-1.53-1.84c-.26-.1-.53-.16-.79-.25s-.52-.18-.77-.29a.7.7,0,0,1-.46-.74.73.73,0,0,1,.59-.66,1.8,1.8,0,0,1,1.81.43l1.17-1.32a3.74,3.74,0,0,0-4.48-.21,2.35,2.35,0,0,0-.92,2.16,2,2,0,0,0,1.38,1.74c.41.17.84.29,1.25.47a4.14,4.14,0,0,1,.61.26.74.74,0,0,1,.46.72.71.71,0,0,1-.58.66,1.6,1.6,0,0,1-.81.08,12.15,12.15,0,0,1-1.5-.62Zm-5.24-4.91c-1-1.28-3-1.5-4.64-.79a4.16,4.16,0,0,0-2.21,4.53,3.89,3.89,0,0,0,3.28,3.39c1.57.31,3.2-.28,3.72-1.36l-1.29-1a6.64,6.64,0,0,1-1.32.69,2.1,2.1,0,0,1-2.53-1.76,2.52,2.52,0,0,1,1.77-3.23,2,2,0,0,1,1.9.61ZM53,143.31h1.56c.77,0,.69-.09.69.67v4.73q0,.36,0,.72c0,.09.13.24.21.24H57v-5.24c0-.36-.1-.83.08-1s.65-.1,1-.1c1.28,0,1.27,0,1.18-1.31,0-.25-.11-.31-.34-.31H53.29c-.22,0-.34,0-.33.31C53,142.42,53,142.82,53,143.31Zm48.3,0v-.71c0-.89,0-.89-.92-.89H95.49c-.37,0-.46.1-.46.46v1.16h1.84c.29,0,.38.09.38.38v5.62c0,.19,0,.39.25.38H99V143.3ZM75.72,149.7h3.77c.38,0,.76,0,1.15-.06,0-.4,0-.81,0-1.22s-.1-.34-.35-.34H77.89c-.34,0-.46-.09-.46-.44,0-1.27,0-2.55,0-3.82V142c0-.24-.08-.34-.32-.33a5.46,5.46,0,0,1-1,0c-.35,0-.46.1-.44.44v4.05Zm31.74,0V142c0-.25-.12-.27-.31-.27a8.18,8.18,0,0,1-1,0c-.4,0-.46.12-.46.5v7.48Z"/><path class="cls-2" d="M42.83,48.15l-.39-.51-.31.82-1.47-1.38c-.13-.12-.23-.38-.48-.12,0,0-.24-.05-.33-.12-.33-.29-.67-.58-1-.9-.17-.16-.29-.18-.47,0a3.56,3.56,0,0,1-1.66.7,10.86,10.86,0,0,0-7.58,6,23.84,23.84,0,0,0-2.09,6.48,1.87,1.87,0,0,1-1.46,1.73c-.62.16-1.22.41-1.85.53a2.62,2.62,0,0,1-2.83-1.29c-.52-.79-.51-.78-1.38-.47a5.46,5.46,0,0,1-.95.29,2,2,0,0,1-2.43-1.06c-.14-.25-.23-.35-.54-.23a3.46,3.46,0,0,1-4.41-1.24c-.16-.22-.29-.39-.61-.29a2,2,0,0,1-2.39-1.13,1,1,0,0,0-.93-.64c-1.65-.14-2.38-1-2.31-2.81,0-.41-.07-.53-.46-.61a2.27,2.27,0,0,1-.92-.42c-.46-.38-.42-.83.15-1,1.69-.63,3.39-1.23,5.07-1.83L10.3,48h.29l0-.09-.25.12L8,48.31c-1.61.18-3.23.33-4.84.52a.54.54,0,0,1-.63-.39,6.26,6.26,0,0,0-.93-1.63,2.93,2.93,0,0,1-.41-2.26,1.32,1.32,0,0,0,.05-.44c-.07-.53-.08-.56.47-.57,2.56,0,5.12-.08,7.69-.12a2.13,2.13,0,0,0,.66-.08l-1.38-.12-4.91-.38-2.21-.13A.51.51,0,0,1,1,42.34,11.59,11.59,0,0,1,.52,41.1a2.56,2.56,0,0,1,.88-2.47.55.55,0,0,0,.17-.76l-.06-.08a3.85,3.85,0,0,1-.29-3.4,7.86,7.86,0,0,1,2.31-3.28A1,1,0,0,1,4.73,31a59.51,59.51,0,0,0,10.63,3.63,32.93,32.93,0,0,0,8,1h.22a1.66,1.66,0,0,0,2.06-.89,13.93,13.93,0,0,0-1.67-.5c-.37-.06-.52-.19-.48-.56v-.28c.06-.42-.1-.61-.53-.65-.18,0-.49-.2-.5-.34-.07-.65-.58-.76-1-.84s-.68-.42-1-.63a.21.21,0,0,1-.08-.19c.09-.57-.31-.8-.69-1-.18-.12-.39-.2-.58-.31s-.25-.19-.37-.29a2.11,2.11,0,0,1,.4-.26c.74-.28,1.49-.54,2.23-.81a.83.83,0,0,0,.38-.23l-4.19.16a1.11,1.11,0,0,1-.53-.17,14.25,14.25,0,0,0-1.6-.94c-.92-.36-1.89-.62-2.84-.93-.61-.19-.64-.24-.35-.79.06-.11.12-.22.22-.38A5.71,5.71,0,0,1,9.33,23l1-.19a4.67,4.67,0,0,1-2.51-2L9,20.44l-.66-.29a5.12,5.12,0,0,1-2-1.37,6.23,6.23,0,0,1-.64-1.16c-.16-.33,0-.47.33-.53l2.4-.38A3.46,3.46,0,0,0,8,16.54a5.06,5.06,0,0,1-2.5-2,2.49,2.49,0,0,1-.36-1c0-.4.14-.47.5-.32A7.19,7.19,0,0,0,9,13.84l.39,0a2,2,0,0,0,.39-.11,1.73,1.73,0,0,0-.32-.11A2.13,2.13,0,0,1,7.8,12.29,14.65,14.65,0,0,1,6.31,8.93a2.68,2.68,0,0,1-.07-.27c-.06-.3-.18-.66.13-.81s.47.08.68.21c.67.44,1.31.91,2,1.35a8.21,8.21,0,0,0,.83.44l.13,0-.05-.12L8.86,8.33c-.54-.73-.59-1-.08-1.77.4-.58.89-1.09,1.33-1.64.21-.26.41-.25.65,0,.55.52,1.12,1,1.66,1.56,1.42,1.41,2.83,2.86,4.24,4.29a.65.65,0,0,1,.07.21l.16-.14a4,4,0,0,0-.27-.44c-.79-1-1.57-2-2.38-3a1.26,1.26,0,0,1-.35-.94c0-.78,0-1.57.11-2.34a3.08,3.08,0,0,1,1-1.94,1.72,1.72,0,0,1,.37-.22c0,.13.09.26.14.39a1.92,1.92,0,0,0,.28.64,2.64,2.64,0,0,1,.61,1.41c0,.31.15.62.18.94a1.66,1.66,0,0,0,1,1.34,5.6,5.6,0,0,1,.84-4.52A5.24,5.24,0,0,1,21.26.35c.07.9.14,1.76.21,2.63s.15,1.75.22,2.62l.13.05c.27-.46.56-.93.82-1.4a6.5,6.5,0,0,1,2.84-2.58c.42-.22.51-.12.56.38.13,1.37.28,2.74.42,4.1h.12a6.18,6.18,0,0,0,.23-.73,2.65,2.65,0,0,1,1.12-1.61c.36-.28.75-.53,1.12-.82a.28.28,0,0,1,.4,0l.06.08a2.51,2.51,0,0,1,.65,1.21c.27,1.54.58,3.08.88,4.62a2.34,2.34,0,0,0,.09.24c.75-.15,1.48-.29,2.21-.47.32-.07.42,0,.46.34.19,1,.42,2.09.64,3.13a3.22,3.22,0,0,0,.16.5l.2-.58,1,.88a2.29,2.29,0,0,0,.52.41,2.92,2.92,0,0,1,1.22,1.24,9.35,9.35,0,0,0,1.89,1.88,12.94,12.94,0,0,0,1.07.89,1,1,0,0,1,.41.87c0,.8,0,1.6.09,2.41a3.24,3.24,0,0,0,.22.81,1.55,1.55,0,0,0,1.14,1.07,33.49,33.49,0,0,0,7,1.08,5.54,5.54,0,0,0,1.51-.15A28.37,28.37,0,0,1,53.77,23a7.37,7.37,0,0,0,2.83-.88,5.3,5.3,0,0,1,.9-.43.58.58,0,0,0,.43-.69,3.09,3.09,0,0,0-.43-1.19A19.42,19.42,0,0,0,56,18.17c-.1-.1-.19-.22-.28-.32a1.19,1.19,0,0,1,.4-.24c.58-.11,1.16-.18,1.78-.27-.37-.21-.74-.42-1.11-.65a3.09,3.09,0,0,1-.39-.33,5,5,0,0,1,.46-.25,4.16,4.16,0,0,1,3.12.16l.13,0-.05-.11a6.21,6.21,0,0,0-1.85-1.9,3,3,0,0,1-.35-.27,1.14,1.14,0,0,1-.18-.25,1,1,0,0,1,.28-.14,5.18,5.18,0,0,1,3.91.69,1,1,0,0,0,.24.11l.09,0-.07-.06c-.3-.51-.61-1-.9-1.54a2.67,2.67,0,0,1-.56-1.3c1.35.62,2.84.67,4,1.72a7.85,7.85,0,0,0-1.13-2.7,1.31,1.31,0,0,1,.29,0,9,9,0,0,1,3.39,2.27,2.76,2.76,0,0,1,.66,2.7,1.4,1.4,0,0,0-.08.49,1.76,1.76,0,0,0,.18.47,1.26,1.26,0,0,0,.46-.24,4.58,4.58,0,0,0,.47-.76,7,7,0,0,1,1.58-2c.36-.32.42-.3.53.14a9.48,9.48,0,0,1,.25,3.67,3.9,3.9,0,0,1-2.47,2.94c-1.16.56-2.35,1.09-3.45,1.76a18.84,18.84,0,0,0-2.17,1.82c-.15.14-.31.33,0,.47a4.89,4.89,0,0,1,2,1.93l.19-.09c.65-.58.68-.6,1,.23a13.75,13.75,0,0,1,.55,1.68,2.58,2.58,0,0,1,.09.35h.14c.75-.2.79-.19.74.63a10.79,10.79,0,0,1-.26,1.47l-.61-.22a2.55,2.55,0,0,0,.28-1.53l-.82.46a3.41,3.41,0,0,0-.81-2.41c-.13.31-.24.56-.36.83l-.36-.59A5.42,5.42,0,0,0,62,24.76a9.15,9.15,0,0,0-3.23-.56c-2.38,0-4.76.09-7.14.13A24.72,24.72,0,0,1,46.5,24c-.73-.14-1.46-.31-2.3-.47.37.29.67.5.95.74A1.74,1.74,0,0,1,45.29,27a3.4,3.4,0,0,0-.29.33h.46c.88-.09,1.76-.22,2.64-.29a8.05,8.05,0,0,1,1.2.07c.1,0,.26.1.26.16a.51.51,0,0,1-.13.33c-.18.15-.36.29-.55.42a6.43,6.43,0,0,1,.65.12,6.75,6.75,0,0,1,1.17.32c.33.15.36.36.09.61a11.92,11.92,0,0,1-1.11.91c-.28.2-.57.37-.85.55a.56.56,0,0,0,.36,0c.92-.17,1.88-.35,2.82-.5a1.38,1.38,0,0,1,.5.14,3.38,3.38,0,0,1-.24.41c-.15.21-.33.4-.54.65.53.07,1,.1,1.39.18a.53.53,0,0,1,.32.25c0,.05-.11.22-.2.3a3.14,3.14,0,0,1-.46.28c-.3.15-.61.28-.93.42a1.15,1.15,0,0,0,.41,0c1.34-.07,2.69-.15,4-.19a3.7,3.7,0,0,1,1.19.23c.49.17.57.47.27.91a2.93,2.93,0,0,1-.46.47c-.13.12-.27.23-.41.34l0,.16,1,.1c0,1-.31,2,.66,2.78.2-.39.35-.73.53-1.05a2.43,2.43,0,0,1,1.58-1.22.62.62,0,0,1,.54.13c.09.1,0,.37,0,.55a2.42,2.42,0,0,1-.21.39A6.34,6.34,0,0,0,62.48,36a1.47,1.47,0,0,1,1.41,0A7.93,7.93,0,0,1,60,37.14l.58-1-.14-.13a2.28,2.28,0,0,0-.46.47,14,14,0,0,0-.75,1.56c-.14.37-.33.41-.67.31A2.09,2.09,0,0,1,57,36.27a3.33,3.33,0,0,0,0-.63,4,4,0,0,1-1.39,2.59,3.49,3.49,0,0,1-.92.71,2.2,2.2,0,0,0-1.07,1.23,6.53,6.53,0,0,1-.35.7.81.81,0,0,0-.31.93c.11.34.25.67.38,1a.46.46,0,0,0,.57.32l.1,0,.92-.28a9.88,9.88,0,0,1,3.93-.41,4.94,4.94,0,0,0,2.23-.07,6.9,6.9,0,0,1,3.82-.18,1.55,1.55,0,0,0,.43,0,6.13,6.13,0,0,1,3.46.42,8.28,8.28,0,0,1,.82.47,9.81,9.81,0,0,1,1.06,1.49.82.82,0,0,0,.88.53q12.87,0,25.74,0a2.39,2.39,0,0,1,2.3.89c.06.09.17.14.25.22l9.1,8.79,7.62,7.35a1.2,1.2,0,0,1,.39.94V77.94a1.16,1.16,0,0,1-.4.91c-1.47,1.46-2.91,2.93-4.36,4.4a.86.86,0,0,0-.14.18h-.27c-1.74-.23-3.47-.47-5.21-.67-3.2-.35-6.4-.69-9.62-1q-3.57-.3-7.16-.43c-2.92-.12-5.83-.18-8.74-.23-1.31,0-2.62,0-3.92,0-2.88.08-5.76.14-8.63.26-2.3.11-4.61.29-6.95.47-1.34.1-2.67.27-4,.4l-3.13.33V62.94c0-.54,0-.55-.54-.55H47.57c-.51,0-.51,0-.51-.52V55.63A1.17,1.17,0,0,0,47,55a6.23,6.23,0,0,1-1.13-3.41,5.28,5.28,0,0,1,.62-3.51.52.52,0,0,0,.06-.42c-.22-.41-.49-.79-.76-1.22-.36.47-.74.81-.68,1.36,0,.08-.2.18-.3.26a1,1,0,0,0-1.28.23c0,.06-.22.06-.31,0A1.65,1.65,0,0,1,42.83,48.15Zm26-2.74c.46.3.93.6,1.39.88a2.16,2.16,0,0,0,.43.14c0-.17.13-.36.08-.5a4.48,4.48,0,0,0-3.3-3.17,13.59,13.59,0,0,0-2.47,0,4.71,4.71,0,0,1-.53,0,6.12,6.12,0,0,0-1.14-.11,20.6,20.6,0,0,0-2.06.35,5.45,5.45,0,0,1-1.8.11,10.4,10.4,0,0,0-2.43,0,11.35,11.35,0,0,0-3.94,1.41,1.29,1.29,0,0,1-.57.16,12.06,12.06,0,0,1-3.93-.83,9,9,0,0,1-5.64-6.18,1.48,1.48,0,0,1,0-.42,1.52,1.52,0,0,1,.42.06c.61.2,1.21.47,1.84.61.29.07.76.09.93-.08s0-.64-.23-.89c-.58-.78-1.19-1.52-1.79-2.28l-.35-.47.1-.09a.72.72,0,0,1,.21.12q1.5,1.72,3,3.48a1.52,1.52,0,0,1,.29.6c.08.27,0,.46-.34.46l-1,0H44.46c1,2.88,5.54,5.42,8.42,4.75-.2-.51-.4-1-.61-1.51a1.08,1.08,0,0,1,.17-1.29A2.11,2.11,0,0,0,52.8,40a1.74,1.74,0,0,1,.85-1,5.24,5.24,0,0,0,1.7-1.58A2.79,2.79,0,0,0,56,35.68a1,1,0,0,1,0-.39c.13-.26,0-.4-.15-.58-.34-.34-.32-.37.12-.63.25-.15.59-.22.69-.68-2.61-.47-5.18,0-7.77,0a21.76,21.76,0,0,0,3-1.48l-.81-.13c-.25,0-.31-.19-.18-.4s.22-.36.38-.61q-.31,0-.63,0c-1.07.16-2.14.33-3.23.47a2,2,0,0,1-.49,0,2.5,2.5,0,0,1,.38-.35c.57-.38,1.16-.73,1.72-1.13.24-.18.61-.47.59-.67,0-.36-.5-.35-.81-.42l-1.19-.23.43-.54a3.71,3.71,0,0,0-.67,0l-4,.42h-.42l0-.15a5.12,5.12,0,0,0,.52-.27,8,8,0,0,0,1.34-1.05,1.64,1.64,0,0,0-1-2.56,3.77,3.77,0,0,1-1.57-.63,4.3,4.3,0,0,1-2-3.84,5.14,5.14,0,0,1,0-.68,1.56,1.56,0,0,0-.72-1.53,8.64,8.64,0,0,1-2.4-2.53,1.23,1.23,0,0,0-.42-.33c-.52-.32-1-.63-1.55-1-.19-.13-.33-.43-.56,0a.54.54,0,0,1-.32-.11,3,3,0,0,1-.32-.7q-.42-1.41-.78-2.82c-.06-.26-.16-.34-.41-.3a2.05,2.05,0,0,0-1.58,1,7.37,7.37,0,0,1-.46.71,54.45,54.45,0,0,1-1.36-7.23c-1.17.91-2.15,1.74-2,3.32.06.64,0,1.29,0,1.93l-.13.05a7.5,7.5,0,0,1-.67-.71,6.7,6.7,0,0,1-1.14-4.52,4.52,4.52,0,0,0-.08-.63,2.16,2.16,0,0,0-.62.15,3.72,3.72,0,0,0-1.6,1.66c-.31.65-.66,1.29-1,2A2.65,2.65,0,0,1,20.88,6a8.08,8.08,0,0,1-.35-3.75,2,2,0,0,0,0-.42A1.66,1.66,0,0,0,20.1,2a3.15,3.15,0,0,0-1.39,2.08,8.23,8.23,0,0,0,0,3c0,.36.11.71.16,1.06,0,.07,0,.21-.09.23a.3.3,0,0,1-.24,0,1,1,0,0,1-.2-.2,2.26,2.26,0,0,0-1.11-.79,1.27,1.27,0,0,1-.61-.51,5.4,5.4,0,0,1-.83-2.65c0-.15,0-.31-.07-.47a.82.82,0,0,0-.74.68,9.44,9.44,0,0,0-.09,1.5,1.05,1.05,0,0,0,.19.57q1.29,1.87,2.61,3.75a15.27,15.27,0,0,0,2.6,3.28c.21.17.19.32-.08.38a1,1,0,0,1-.49,0,4.89,4.89,0,0,1-1.22-.47c-1.28-.94-2.54-1.93-3.79-2.92-.82-.65-1.59-1.4-2.44-2a3.67,3.67,0,0,1-1.64-2c0-.07-.08-.12-.12-.18-.9.47-1.05,1-.55,1.85a3.7,3.7,0,0,1,.25.43,5.28,5.28,0,0,0,2.61,2.58c.46.22.92.52,1.49.84h-.34c-2.11-.46-4.15-1-5.75-2.64-.09-.09-.35-.19-.41-.14a.65.65,0,0,0-.18.47,1.34,1.34,0,0,0,.17.59,5.88,5.88,0,0,0,2.77,3c.32.14.63.3,1,.43l2.38.94a2.06,2.06,0,0,1-.35.12l-.61,0a23.43,23.43,0,0,1-5.6-.53,5.07,5.07,0,0,0-.68,0c0,.13,0,.18,0,.2,1.56,1.22,3.05,2.58,5.24,2.42a2.13,2.13,0,0,1,.71.09,5.86,5.86,0,0,1,.69.28,2.39,2.39,0,0,1-.43.14l-3.23.37c-.73.09-1.46.2-2.19.32a1.46,1.46,0,0,0-.38.18,1.44,1.44,0,0,0,.25.39,3.28,3.28,0,0,0,.83.56c.79.29,1.61.53,2.41.79l.51.16a1.47,1.47,0,0,1-1,.74c-.56.19-.59.28-.18.72a4.42,4.42,0,0,0,2,1.09l.77.23v.09l-1.53.43a7,7,0,0,0,2.91.93c-.22.2-.38.33-.52.47s-.24.35.12.47c1.12.42,2.24.84,3.37,1.24a2.9,2.9,0,0,0,1,.16c.85,0,1.69,0,2.54-.05A20.9,20.9,0,0,0,25,26.33c.43-.1.84-.28,1.34-.44a1.73,1.73,0,0,1-.12.43,3,3,0,0,1-1.12,1.36,20.51,20.51,0,0,1-1.91,1c-.72.32-1.48.58-2.21.89-.11.05-.18.21-.27.32l.46.21s.1-.05.16-.06a6.11,6.11,0,0,1,1-.23c1.1-.08,2.2-.14,3.31-.23a2.5,2.5,0,0,0,1.52-.39.84.84,0,0,1,.33-.08c0,.13,0,.33,0,.39a2.71,2.71,0,0,1-.88.62,4,4,0,0,1-1.42.13,9,9,0,0,0-3.42.36c-.06,0-.15.1-.14.12s.08.18.13.19c.22,0,.44,0,.66.05s.37.2.37.3c0,.47.22.53.58.5a2.8,2.8,0,0,0,.5,0c1.34-.12,2.68-.22,4-.36a9.64,9.64,0,0,0,1.39-.32c.15,0,.27-.37.43-.12s0,.39-.15.52a1.11,1.11,0,0,1-.53.38,3.64,3.64,0,0,1-1.07.22c-.85,0-1.7,0-2.55,0a3.5,3.5,0,0,0-1,.3l0,.12.42.2a.93.93,0,0,1-.15.13c-.32.12-.32.39-.28.65s.33.23.54.27a2.83,2.83,0,0,0,2.22-.3,1.56,1.56,0,0,1,.52-.15c.92-.18,1.85-.34,2.77-.56a3.35,3.35,0,0,0,.78-.39l.37-.22a1.85,1.85,0,0,1,0,.47,1.52,1.52,0,0,1-1.45.94c-.53.06-1.07,0-1.6.13a4.29,4.29,0,0,0-1,.34,7.44,7.44,0,0,0-.78.44l.92.38L26,36.11a2.88,2.88,0,0,1-1.66.53,4.86,4.86,0,0,0-.54,0c-.67,0-1.33.15-2,.13-1.27,0-2.54-.07-3.8-.17A31.24,31.24,0,0,1,5,32.43c-.52-.3-.55-.31-1,.09a4.7,4.7,0,0,0-.72.76,3.87,3.87,0,0,0-.61,3.65.47.47,0,0,0,.46.36,13.43,13.43,0,0,1,2.18.29c1.58.39,3.13.86,4.69,1.29,1.9.52,3.73,1.48,5.8,1,0,0,.12,0,.13.06s0,.18,0,.19a2.73,2.73,0,0,1-.72.37,5.33,5.33,0,0,1-2.57-.18c-1.77-.41-3.53-.89-5.3-1.32a13.73,13.73,0,0,0-3.77-.53,1,1,0,0,0-.58.23A2.59,2.59,0,0,0,2.19,41c0,.32.16.44.46.47,2.05.22,4.1.47,6.15.7a26.06,26.06,0,0,0,6.38.31h.36a5.89,5.89,0,0,1-.24.58,2.67,2.67,0,0,1-1.39,1,13.16,13.16,0,0,1-3.61.78c-2.25.22-4.51.38-6.77.56-.78.06-.82.12-.47.84a3,3,0,0,0,.24.38,1,1,0,0,0,1,.47c.4-.05.81-.08,1.21-.09,1.68-.09,3.35-.15,5-.26.84-.06,1.68-.17,2.52-.3s1.43-.28,2.31-.47a4.68,4.68,0,0,1-.46.82,5.6,5.6,0,0,1-1.1,1c-1.12.69-2.26,1.36-3.42,2S8.11,50.76,7,51.3c-.19.09-.41.13-.43.43-.17,1.85.86,2.7,2.14,2.72a.9.9,0,0,1,.93.6,1.88,1.88,0,0,0,2.3,1.1.5.5,0,0,1,.59.26,3.49,3.49,0,0,0,2.21,1.48A3.65,3.65,0,0,0,17,57.48a5.59,5.59,0,0,0,.28.5,1.88,1.88,0,0,0,2,.94,8.26,8.26,0,0,0,1.39-.42c.6-.24.6-.26.92.28A2.29,2.29,0,0,0,23.36,60a4.83,4.83,0,0,0,2.31-.39.56.56,0,0,0,.4-.47c.08-.51.2-1,.31-1.53a21.73,21.73,0,0,1,2.28-6.3,10.36,10.36,0,0,1,8.47-5.62c.41-.06.82-.14,1.22-.24l-1.73-2.25-.38.94a9.32,9.32,0,0,1-1.33-2.39l-.15.11c-.52.47-.54.47-.83-.16a9.53,9.53,0,0,1-1-3.21l-.41.37A9.21,9.21,0,0,1,32.74,36a10.5,10.5,0,0,1,.84,1.25.69.69,0,0,1,0,.32,5.85,5.85,0,0,0,.65,2.6l.71-.67.78,2.58c.08-.05.14-.11.21-.16.42-.53.42-.53.79,0,.71,1,1.39,2,2.13,2.94a8.28,8.28,0,0,0,1,1c.1.1.29.24.37.21.41-.21.53.15.72.35l1.16,1.21.29-.85,1.07,1,.27-.9a2.07,2.07,0,0,1,.11.22c0,.32.2.38.48.39s.28-.24.37-.44a14.68,14.68,0,0,1,.81-1.64c.07-.11.38-.11.58-.09s.22.26.19.31c-.18.31,0,.5.18.7s.42.52.62.78c.47.61.47.81,0,1.36A2,2,0,0,0,46.52,50c0,.52,0,1,0,1.57a5.33,5.33,0,0,0,1.5,3.59A7.05,7.05,0,0,0,51.92,57a4.55,4.55,0,0,0,1,.12.35.35,0,0,0,.36-.34.39.39,0,0,0-.11-.27,1.39,1.39,0,0,0-.31-.23,6.59,6.59,0,0,1-1.82-1.71,3.38,3.38,0,0,1-.5-3.38,4.11,4.11,0,0,0,.17-.6c.22-.88.46-1.77.66-2.66.06-.25.14-.38.43-.4a37.56,37.56,0,0,1,6,.12,2.84,2.84,0,0,0,.92,0A5.83,5.83,0,0,1,62.6,48a.93.93,0,0,0,.57,0,3.24,3.24,0,0,1,3.47,1.67l-.16,0-4.59.66a1.41,1.41,0,0,1-.54,0,32.26,32.26,0,0,1-5.13-2.09,1.61,1.61,0,0,0-1-.18c-.8.07-1.61.16-2.42.2a.57.57,0,0,0-.62.47c-.25.94-.53,1.87-.8,2.81-.17.59-.09.7.56.72l.08-.6c.44.25.82.47,1.21.67a1,1,0,0,0,.51.17c.07,0,.13-.26.21-.44l1.94,1.1c.13-.65.14-.68.68-.59a5.78,5.78,0,0,1,2.61,1,1,1,0,0,1,.42,1.25c-.41,1.38-.84,2.75-1.26,4.12a1.11,1.11,0,0,0,0,.65,5.65,5.65,0,0,0,3.07,3.15c2.16.86,4.15.23,6.07-.85a.49.49,0,0,0,.19-.46.52.52,0,0,0-.41-.26c-.55-.06-1.11,0-1.65-.11a3.93,3.93,0,0,1-3.1-2c-.14-.26-.28-.5,0-.81a.78.78,0,0,0,0-.58c-.12-.46-.29-.88-.43-1.33a.6.6,0,0,1,.25-.77,3.84,3.84,0,0,0,.8-.76c.39-.46.68-1,1.39-.93,0,0,.06,0,.1,0a2.62,2.62,0,0,1,2-.1c.68.18,1.38.32,2,.5a5.17,5.17,0,0,1,1.57.47,2.1,2.1,0,0,1,.9,2.3c-.09.42-.29.81-.41,1.22a2.17,2.17,0,0,0,0,.51,1.41,1.41,0,0,0,.5-.07,9,9,0,0,0,1.38-1,3.2,3.2,0,0,0,1-3.36A16.39,16.39,0,0,1,73.37,52a2.36,2.36,0,0,1,1.49,1.29c.22.47.34.94.53,1.41a1.35,1.35,0,0,0,.26.32c.11-.1.22-.2.32-.31a.27.27,0,0,0,.06-.21,14.54,14.54,0,0,0,.13-1.73A3.58,3.58,0,0,0,74,49.39c-.43-.21-1-.24-1.35-.47a2.57,2.57,0,0,0-2.08-.2c-.54.13-.79,0-.81-.58a5.07,5.07,0,0,0-.92-2.66.17.17,0,0,0,0-.07ZM85,80.33H95.91c.57,0,.57,0,.57-.58V62.2c0-.61,0-.61-.6-.61H74.12c-.56,0-.56,0-.56.59V79.73c0,.6,0,.6.59.6ZM54.17,23.54v.05h.16a33.51,33.51,0,0,1,6.79.12.54.54,0,0,0,.38-.15,20.67,20.67,0,0,1,4.24-2.63,37,37,0,0,0,3.4-1.82A3.43,3.43,0,0,0,70.71,15c-.11-.38-.17-.4-.46-.16a1.88,1.88,0,0,0-.32.31c-.31.44-.59.91-.93,1.33a3.16,3.16,0,0,1-.82.81.86.86,0,0,1-1,0c-.35-.26-.17-.56-.09-.86a3.62,3.62,0,0,0-1.6-4.27,4.93,4.93,0,0,0-.53-.22,12.2,12.2,0,0,1,.51,1.69,1.6,1.6,0,0,1-.37,1.6c-.54-1.59-1.87-2.14-3.23-2.71A1.34,1.34,0,0,0,62,13c.34.54.71,1,1,1.61a2.66,2.66,0,0,1,.29,2.34l-.22-.35-.2-.33A5,5,0,0,0,59.7,14a3.32,3.32,0,0,0-.63,0c.5.55,1,1,1.38,1.55a2.77,2.77,0,0,1,.46,1.94l-.56-.39A3.68,3.68,0,0,0,58,16.43a1.42,1.42,0,0,0-.36.14,1.18,1.18,0,0,0,.28.22,2.7,2.7,0,0,1,1.28.93,1.22,1.22,0,0,1,.3,1.08,7.22,7.22,0,0,0-.93-.57,5.45,5.45,0,0,0-1.05-.29A1.81,1.81,0,0,0,57,18a2.73,2.73,0,0,0,.26.43c.13.15.29.28.44.43a3.3,3.3,0,0,1,1,1.83,1.47,1.47,0,0,1-.92,1.72c-.66.24-1.33.47-2,.66S54.7,23.39,54.17,23.54ZM64.76,13.4s0,0,0,0v0l0,0A.13.13,0,0,0,64.76,13.4Z"/><path class="cls-3" d="M54.37,82.57l3.13-.32c1.34-.14,2.67-.3,4-.4,2.31-.18,4.61-.37,6.95-.47,2.87-.13,5.75-.18,8.62-.26,1.31,0,2.62-.08,3.92-.06,2.92,0,5.83.11,8.74.23,2.39.1,4.79.24,7.17.44,3.23.28,6.41.62,9.62,1,1.74.19,3.47.44,5.2.67H112c.69.11,1.39.21,2.07.35a.64.64,0,0,0,.58-.23c1.22-1.23,2.44-2.45,3.69-3.66a1.12,1.12,0,0,0,.38-.87V62.37a1.07,1.07,0,0,0-.35-.83L114,57.22,100.18,43.36a1.24,1.24,0,0,0-1-.41H69.54c-.27-.15-.54-.32-.82-.47a6.14,6.14,0,0,0-3.46-.41,1.55,1.55,0,0,1-.43,0,7,7,0,0,0-3.82.17,5.09,5.09,0,0,1-2.23.08,9.68,9.68,0,0,0-3.93.41l-.92.28a.46.46,0,0,1-.63-.19.3.3,0,0,1,0-.1c-.13-.33-.28-.65-.38-1a.82.82,0,0,1,.31-.94H99.88a1.33,1.33,0,0,1,1,.42q4.83,4.92,9.69,9.81l8,8c.6.61,1.2,1.22,1.82,1.82a.8.8,0,0,1,.26.64V80.14a.89.89,0,0,1-.31.68c-1,.94-1.89,1.89-2.83,2.84-.13.13-.25.27-.42.47l2.34.43q7.44,1.29,14.77,3.14c4.92,1.23,9.79,2.61,14.57,4.31l.32.11a.87.87,0,0,1,.64,1,.53.53,0,0,1-.07.2c-.32.91-.67,1.81-1,2.72L143,111.3a3,3,0,0,1-.11.32.87.87,0,0,1-1,.65l-.15-.06c-2-.5-4-1.06-6.06-1.49q-6.39-1.35-12.79-2.59c-2.08-.4-4.18-.69-6.27-1a1.73,1.73,0,0,1-.35,0c.1.24.17.42.26.59.7,1.41,1.43,2.81,2.12,4.25a.62.62,0,0,0,.68.42h9.19c.7,0,.63-.12.63.67v25c0,.3,0,.47-.39.42a1.22,1.22,0,0,0-.27,0H91c-.66,0-.66,0-.66-.68v-25c0-.31.07-.42.39-.42.87,0,1.74,0,2.61,0a2,2,0,0,0,.38,0l-1-2.14c-.86-1.8-1.74-3.59-2.59-5.4a.65.65,0,0,0-.64-.42c-3.35-.08-6.7-.18-10.06-.25-.63,0-.56-.07-.56.56v7.09c0,.65-.08.59.6.59h5c.62,0,.58-.06.58.56v25c0,.53,0,.53-.5.53H43.29c-.46,0-.46,0-.46-.47V112.82c0-.47,0-.47.46-.47h7.2v-6.5c-.92.13-1.81.25-2.71.39-4.69.74-9.33,1.64-13.94,2.77q-5.54,1.38-11,3.19c-.84.27-1.18.1-1.44-.75L15.65,92.6a1,1,0,0,0,0-.17c-.22-.74-.07-1.09.67-1.32C20,90,23.7,88.81,27.45,87.77a170.94,170.94,0,0,1,16.73-3.69c1.9-.34,3.82-.62,5.73-.94.62-.09.62-.08.62-.74V66.94H43.3c-.34,0-.46-.07-.46-.47V48.12a1,1,0,0,0,.33.17.9.9,0,0,0,.31,0A1,1,0,0,1,44.77,48V65h7.31c.28,0,.38.09.35.35V82.83Zm57.3,23.82c-1.48-.18-3-.37-4.44-.54-2-.23-4-.43-5.93-.64-1.06-.11-2.12-.21-3.19-.3l-3.19-.22-2.77-.21c1.63,3.28,3.23,6.51,4.85,9.8H92.94c-.58,0-.58,0-.58.56v21.4H127v-22h-8.77a.74.74,0,0,1-.78-.51c-1.08-2.21-2.19-4.41-3.27-6.62a.75.75,0,0,0-.69-.52C112.91,106.59,112.29,106.48,111.67,106.39Zm-57.3-1-1.39.12c-.57,0-.57,0-.57.66v7.36c0,.8.1.7-.66.7H44.81v22H82.62c.41,0,.42-.18.42-.5v-21c0-.47,0-.47-.48-.47H77V104.11h-2.3c-2,0-3.94.09-5.91.18s-4.2.2-6.29.35c-2.31.17-4.59.38-6.88.59C55.2,105.27,54.79,105.38,54.37,105.43ZM65.21,83.1l-4.46.38c-2,.19-4.06.37-6.09.61-1.85.21-3.65.47-5.47.75-2.41.36-4.83.71-7.23,1.17-3,.59-6.08,1.23-9.1,1.93Q25.53,89.65,18.36,92a.93.93,0,0,0-.76,1.07.77.77,0,0,0,.07.26l1.6,5.2c.53,1.74,1,3.4,1.55,5.1.58,1.95,1.15,3.9,1.74,5.84a.86.86,0,0,0,1,.76.75.75,0,0,0,.29-.09c1-.33,2-.71,3.07-1,2.89-.81,5.78-1.66,8.7-2.37s5.9-1.31,8.86-1.91c1.69-.34,3.39-.61,5.07-.87,1.43-.23,2.87-.41,4.31-.59,1.14-.14,2.3-.24,3.44-.35,1.42-.15,2.84-.31,4.26-.44.71-.07,1.43-.07,2.14-.13,1.26-.09,2.52-.23,3.78-.32.92-.06,1.84-.07,2.76-.1,1.39,0,2.77-.11,4.16-.11,3,0,6,.06,9,.1,1.64,0,3.27.05,4.91.11,1.34,0,2.68.14,4,.21.83,0,1.65.08,2.48.15,1.09.09,2.18.21,3.27.3s2.16.15,3.23.25,2.35.29,3.53.43c1.39.16,2.8.29,4.2.47s3,.42,4.5.65c2,.3,4,.58,6,.93,2.64.47,5.26,1,7.89,1.55,2.2.47,4.39.94,6.57,1.45,2,.47,3.93,1,5.9,1.51a.84.84,0,0,0,1.1-.47v0q.19-.44.36-.87c.68-1.69,1.34-3.38,2-5.06,1.26-3.14,2.53-6.27,3.78-9.38.31-.75.11-1.15-.66-1.4-.93-.32-1.9-.63-2.85-.94q-7.16-2.22-14.49-3.78-5-1.08-10.15-2c-2.22-.42-4.47-.73-6.71-1.06-1.45-.21-2.92-.38-4.38-.57-1.14-.14-2.28-.31-3.43-.43s-2.58-.23-3.88-.35c-1.51-.14-3-.31-4.53-.44-1-.09-2.08-.16-3.12-.22l-4.73-.23c-.92,0-1.79-.08-2.69-.1-1.56,0-3.11-.11-4.65-.09-2.8,0-5.6.12-8.4.19-1,0-2,.07-3,.11Z"/><path class="cls-3" d="M63.84,36a1.47,1.47,0,0,0-1.41,0,6.34,6.34,0,0,1-1.49.35,1.79,1.79,0,0,0,.2-.39c0-.18.12-.46,0-.55a.65.65,0,0,0-.54-.13,2.43,2.43,0,0,0-1.58,1.22c-.18.32-.33.66-.53,1-1-.77-.64-1.82-.66-2.78l-1-.1,0-.16c.14-.11.28-.22.41-.34a2.93,2.93,0,0,0,.46-.47c.3-.42.22-.74-.27-.9a3.23,3.23,0,0,0-1.19-.23c-1.33,0-2.68.11-4,.18a1.12,1.12,0,0,1-.41,0l.93-.42a3.14,3.14,0,0,0,.46-.28c.09-.08.22-.25.2-.3a.53.53,0,0,0-.32-.25c-.42-.08-.84-.11-1.39-.18.21-.25.39-.44.54-.65a3.38,3.38,0,0,0,.24-.41,1.24,1.24,0,0,0-.5-.13l-2.82.49a.55.55,0,0,1-.36,0c.28-.18.57-.34.84-.55a10.85,10.85,0,0,0,1.12-.91c.27-.24.24-.47-.1-.61A10.77,10.77,0,0,0,48.83,28c.19-.13.37-.27.55-.42a.51.51,0,0,0,.13-.33c0-.06-.16-.15-.26-.16a8.05,8.05,0,0,0-1.2-.07c-.89.07-1.76.2-2.64.29H45a3.4,3.4,0,0,1,.29-.33,1.74,1.74,0,0,0-.14-2.77c-.28-.24-.58-.45-1-.74.83.18,1.56.35,2.3.47a24,24,0,0,0,5.08.35c2.38,0,4.75-.11,7.14-.13a9.15,9.15,0,0,1,3.23.56,5.37,5.37,0,0,1,2.9,2.3l.37.59c.12-.27.23-.52.36-.83a3.41,3.41,0,0,1,.81,2.41l.82-.46a2.55,2.55,0,0,1-.28,1.53l.61.22a12.39,12.39,0,0,1,2.77,1.82,5.86,5.86,0,0,1,1.26,6.88c-.06.14-.21.23-.32.34a1.3,1.3,0,0,1-.22-.38,1.33,1.33,0,0,0-.62-.89,15.57,15.57,0,0,0-2.42-1.2C66.63,36.66,65.22,36.36,63.84,36Zm5.54,1c-.06-.08-.08-.14-.12-.17l-.42-.28a12.07,12.07,0,0,0-3.15-1.31c-.42-.12-1-.14-1.2-.43s-.23-.84-.34-1.27a.41.41,0,0,1,.24-.53h0l1.36-.62a.66.66,0,0,1,.46,0,9,9,0,0,1,3.51,2.28,7,7,0,0,1,1.67,3.31,4.77,4.77,0,0,0-.65-4.22,8,8,0,0,0-3.69-2.77.55.55,0,0,0-.4,0c-1,.57-2,1.14-3,1.73a.51.51,0,0,0-.22.39c0,.67.11,1.34.15,2,0,.23.11.3.33.35.73.16,1.48.32,2.2.53,1.1.32,2.16.67,3.3,1ZM61.7,28.45a8.81,8.81,0,0,1,2.38.86,2.82,2.82,0,0,1,1.53,1.41.3.3,0,0,0,.25.12c.1,0,.26-.18.24-.24-.13-.51-.28-1-.46-1.65-.32.5-.6.36-.88.12l-.55-.47A6.87,6.87,0,0,0,61.35,27c-.37-.09-.76-.13-1.14-.2a1.85,1.85,0,0,0,.32.68A7,7,0,0,1,61.68,30,.94.94,0,0,1,61,31.11l-.1,0c-.16,0-.34.05-.56.09a4.25,4.25,0,0,0,2.17,1.29.81.81,0,0,0,.46-.05c.58-.31,1.14-.65,1.77-1a3.51,3.51,0,0,1-3.07-3Zm8.68,8.38.08-.13a.51.51,0,0,0,0-.17,7.46,7.46,0,0,0-4.22-3.66.44.44,0,0,0-.32,0c-.36.15-.7.33-1.16.56a11.81,11.81,0,0,1,5.66,3.4Zm-5.58-3c0,.65,0,.63.54.78.77.22,1.54.47,2.3.71l.33.09a7.81,7.81,0,0,0-3.17-1.57ZM64,30.8c-.4-.54-.4-.58,0-1l-1.44-.6A2.6,2.6,0,0,0,64,30.8Zm5.54,6.31,0,0a0,0,0,0,0,0,0s0,0-.05,0Z"/><path class="cls-3" d="M70.47,149.66H68.76v-3.39H66c-.58,0-.55-.09-.55.53v2.47c0,.31-.07.44-.39.42s-.88,0-1.39,0V142.2c0-.5,0-.5.47-.5h.92c.29,0,.38.1.37.39v2.13c0,.35.08.5.46.47.83,0,1.67,0,2.5,0,.29,0,.38-.1.37-.39v-2.13c0-.47,0-.47.49-.47h1.23Z"/><path class="cls-3" d="M90.63,143.36H87.05v1.44h3.37v1.4c0,.26-.17.24-.33.24H87.48c-.36,0-.46.11-.46.47,0,1.14,0,1.14,1.12,1.14h2.31c.3,0,.39.1.37.39s.11.91-.09,1.13-.72.1-1.09.1h-4c-.27,0-.38-.06-.38-.37v-7.25c0-.28.07-.39.37-.39h4.62c.27,0,.4.06.38.37S90.63,142.89,90.63,143.36Z"/><path class="cls-3" d="M42.15,149.68l.19-.53c1-2.34,2-4.69,3-7a.58.58,0,0,1,.65-.43c1,0,1,0,1.39.93l2.82,6.57c.06.13.1.27.19.5H48.6c-.1,0-.24-.15-.29-.26-.17-.38-.31-.76-.46-1.14a.37.37,0,0,0-.4-.28H45.07a.44.44,0,0,0-.46.36c-.12.34-.26.66-.38,1s-.18.37-.46.36A14.42,14.42,0,0,0,42.15,149.68Zm5-3.18-1-2.39-.92,2.39Z"/><path class="cls-3" d="M124.32,147.61a12.14,12.14,0,0,0,1.39.6,1.6,1.6,0,0,0,.81-.07.72.72,0,0,0,.58-.67.74.74,0,0,0-.46-.71,3.29,3.29,0,0,0-.61-.26c-.41-.16-.84-.28-1.25-.47a2,2,0,0,1-1.38-1.74,2.36,2.36,0,0,1,.92-2.17,3.75,3.75,0,0,1,4.48.21l-1.17,1.32a1.83,1.83,0,0,0-1.81-.43.77.77,0,0,0-.6.66.71.71,0,0,0,.47.74c.25.11.51.2.77.29s.53.15.79.25a2,2,0,0,1,1.53,1.84,2.44,2.44,0,0,1-1.38,2.54,4,4,0,0,1-4.3-.68Z"/><path class="cls-3" d="M119.08,142.7l-1.32,1.13a2,2,0,0,0-1.9-.61,2.51,2.51,0,0,0-1.77,3.23,2.11,2.11,0,0,0,2.53,1.76,7,7,0,0,0,1.33-.69l1.28,1c-.52,1.08-2.15,1.66-3.72,1.36a3.89,3.89,0,0,1-3.28-3.39,4.11,4.11,0,0,1,2.21-4.53C116.09,141.19,118.12,141.42,119.08,142.7Z"/><path class="cls-3" d="M53,143.31V142c0-.26.11-.31.34-.31H58.9c.23,0,.32.06.34.31.1,1.31.1,1.3-1.18,1.31-.34,0-.82-.08-1,.1s-.08.67-.08,1v5.25H55.46c-.08,0-.2-.15-.2-.24a4.33,4.33,0,0,1,0-.72V144c0-.77.07-.67-.69-.67Z"/><path class="cls-3" d="M101.28,143.3H99.06v6.38H97.55c-.3,0-.26-.2-.26-.38v-5.64c0-.29-.09-.38-.37-.38H95.07c0-.42,0-.79,0-1.16s.08-.47.46-.47c1.63,0,3.23,0,4.87,0,.93,0,.93,0,.93.9Z"/><path class="cls-3" d="M75.72,149.68v-7.56c0-.34.09-.47.44-.43a8.34,8.34,0,0,0,1,0c.24,0,.32.08.31.32v5.62c0,.35.1.47.47.45h2.43c.25,0,.38,0,.35.34s0,.81,0,1.22c-.39,0-.76.05-1.15.05Z"/><path class="cls-3" d="M107.45,149.66h-1.76v-7.48c0-.38.08-.54.46-.5a5.57,5.57,0,0,0,1,0c.19,0,.31,0,.31.27C107.45,144.51,107.45,147.07,107.45,149.66Z"/><path class="cls-3" d="M68.79,45.48a5.1,5.1,0,0,1,.93,2.65c0,.55.26.71.81.58a2.54,2.54,0,0,1,2.07.2c.41.24.93.27,1.35.47a3.6,3.6,0,0,1,2.15,3.39A16.78,16.78,0,0,1,76,54.5a.39.39,0,0,1-.06.21,3.26,3.26,0,0,1-.33.31,1.31,1.31,0,0,1-.25-.32c-.19-.47-.32-1-.54-1.41A2.34,2.34,0,0,0,73.31,52a16.19,16.19,0,0,0,.28,2.31,3.21,3.21,0,0,1-1,3.36,8.6,8.6,0,0,1-1.39,1,1.35,1.35,0,0,1-.49.07,2.17,2.17,0,0,1,0-.51c.11-.41.31-.8.4-1.22a2.1,2.1,0,0,0-.89-2.3,5.14,5.14,0,0,0-1.58-.47c-.68-.17-1.38-.32-2.05-.5a2.62,2.62,0,0,0-2,.1s-.07,0-.1,0c-.71,0-1,.5-1.38.93a4.16,4.16,0,0,1-.81.76.59.59,0,0,0-.24.77c.14.45.31.88.42,1.33a.73.73,0,0,1,0,.58c-.25.31-.12.55,0,.81a3.94,3.94,0,0,0,3.1,2c.55.08,1.1,0,1.65.11a.53.53,0,0,1,.42.26.52.52,0,0,1-.19.46c-1.91,1.08-3.92,1.71-6.07.85a5.64,5.64,0,0,1-3.08-3.15,1,1,0,0,1,0-.64c.41-1.38.85-2.75,1.26-4.13a1,1,0,0,0-.42-1.25,5.81,5.81,0,0,0-2.62-1c-.54-.09-.55-.06-.67.59l-1.95-1.1c-.08.18-.13.43-.21.44a1,1,0,0,1-.5-.17c-.39-.2-.77-.42-1.21-.67l-.09.6c-.64,0-.72-.13-.55-.72.27-.94.54-1.87.8-2.81a.56.56,0,0,1,.62-.47c.81,0,1.61-.13,2.42-.2a1.57,1.57,0,0,1,.95.18,32.67,32.67,0,0,0,5.18,2.1,1.24,1.24,0,0,0,.54,0l4.6-.65.15,0A3.28,3.28,0,0,0,63.15,48a.93.93,0,0,1-.57,0,5.7,5.7,0,0,0-3.84-.29,2.84,2.84,0,0,1-.92,0,37.56,37.56,0,0,0-6-.12c-.28,0-.37.15-.43.4-.21.89-.46,1.77-.66,2.66a4,4,0,0,1-.17.59,3.4,3.4,0,0,0,.5,3.39,6.41,6.41,0,0,0,1.82,1.7,1.18,1.18,0,0,1,.31.24.35.35,0,0,1,0,.49.36.36,0,0,1-.27.12,6,6,0,0,1-1-.12A7,7,0,0,1,48,55.14a5.37,5.37,0,0,1-1.5-3.58c0-.52,0-1.05,0-1.57A1.92,1.92,0,0,1,47,48.58c.51-.55.51-.76.06-1.36-.21-.27-.43-.52-.63-.78s-.36-.39-.18-.71c0,0-.11-.3-.19-.3s-.51,0-.58.09a16.48,16.48,0,0,0-.81,1.63c-.08.2,0,.47-.37.44s-.46-.06-.48-.38c0-.05,0-.09-.11-.22l-.27.9-1.06-1-.28.86L41,46.5c-.19-.2-.31-.56-.72-.35-.08,0-.27-.11-.37-.21a8.28,8.28,0,0,1-1-1c-.73-1-1.42-2-2.13-3-.37-.52-.37-.52-.79,0a1.73,1.73,0,0,1-.21.17L35,39.53l-.71.68a5.84,5.84,0,0,1-.65-2.59.75.75,0,0,0,0-.33,10.38,10.38,0,0,0-.84-1.24,9.16,9.16,0,0,0-.22,2.81l.41-.37a9.58,9.58,0,0,0,1,3.22c.29.62.31.63.83.16a1.18,1.18,0,0,1,.15-.11,9.43,9.43,0,0,0,1.33,2.38l.38-.93,1.73,2.24c-.4.1-.81.18-1.22.24a10.31,10.31,0,0,0-8.47,5.63,21.84,21.84,0,0,0-2.28,6.24c-.11.51-.23,1-.31,1.54a.56.56,0,0,1-.4.46,4.83,4.83,0,0,1-2.31.39,2.29,2.29,0,0,1-1.76-1.17c-.34-.54-.34-.52-.92-.28a8.26,8.26,0,0,1-1.39.42,1.88,1.88,0,0,1-2-.91c-.1-.15-.18-.32-.28-.5a3.58,3.58,0,0,1-2.31.4,3.42,3.42,0,0,1-2.21-1.47.52.52,0,0,0-.59-.27,1.89,1.89,0,0,1-2.31-1.1.87.87,0,0,0-.92-.59c-1.28,0-2.31-.87-2.14-2.72,0-.3.24-.34.43-.43,1.16-.54,2.33-1,3.47-1.61s2.31-1.26,3.42-1.95a5.55,5.55,0,0,0,1.09-1,4.46,4.46,0,0,0,.47-.82c-.86.17-1.57.34-2.31.47s-1.68.24-2.52.29c-1.68.12-3.35.18-5,.27a9.85,9.85,0,0,0-1.21.09,1,1,0,0,1-1-.47,3,3,0,0,1-.24-.38c-.36-.72-.32-.78.46-.84,2.27-.18,4.53-.34,6.78-.56A13.54,13.54,0,0,0,13.93,44a2.72,2.72,0,0,0,1.38-1,3.56,3.56,0,0,0,.24-.58,1,1,0,0,0-.35,0,25.74,25.74,0,0,1-6.38-.31l-6.15-.7c-.32,0-.44-.14-.46-.47A2.59,2.59,0,0,1,3,38.75a1,1,0,0,1,.58-.23,13.66,13.66,0,0,1,3.76.53c1.78.42,3.54.91,5.31,1.32a5.21,5.21,0,0,0,2.57.18,2.89,2.89,0,0,0,.72-.37s0-.13,0-.2-.1-.07-.13-.06c-2.08.47-3.9-.5-5.8-1-1.57-.43-3.12-.9-4.69-1.3a13.41,13.41,0,0,0-2.18-.28A.47.47,0,0,1,2.7,37a3.89,3.89,0,0,1,.65-3.66,4.7,4.7,0,0,1,.72-.76c.46-.4.5-.39,1-.09a31.38,31.38,0,0,0,13,4.17c1.26.1,2.53.15,3.8.17.66,0,1.32-.09,2-.13a4.86,4.86,0,0,0,.54,0A2.88,2.88,0,0,0,26,36.13l1.64-1.29-.92-.38a7.44,7.44,0,0,1,.78-.44,4.29,4.29,0,0,1,1-.34c.53-.08,1.07-.07,1.6-.13s1.21-.24,1.45-.94a1.85,1.85,0,0,0,0-.47l-.37.22a3.56,3.56,0,0,1-.78.39c-.92.22-1.85.38-2.77.56a1.56,1.56,0,0,0-.52.15,2.83,2.83,0,0,1-2.22.3c-.21,0-.47,0-.54-.27s0-.53.28-.66a.49.49,0,0,0,.13-.12l-.42-.21,0-.12a4.43,4.43,0,0,1,1-.3c.85,0,1.7,0,2.55,0A3.83,3.83,0,0,0,29,31.87a1.09,1.09,0,0,0,.53-.39c.11-.13.23-.41.16-.51s-.29.07-.44.12a10.61,10.61,0,0,1-1.38.31c-1.34.15-2.67.25-4,.36a2.74,2.74,0,0,0-.5,0c-.36,0-.61,0-.58-.5,0-.09-.23-.25-.38-.29a4.62,4.62,0,0,0-.65-.05c-.06,0-.11-.12-.14-.2s.09-.1.15-.11a9.22,9.22,0,0,1,3.42-.37,4,4,0,0,0,1.42-.12,2.74,2.74,0,0,0,.88-.63c.06-.06,0-.25,0-.38s-.25,0-.32.08a2.58,2.58,0,0,1-1.53.39c-1.1.09-2.2.14-3.3.23a6.48,6.48,0,0,0-1,.22c-.05,0-.11.08-.15.06a3.76,3.76,0,0,1-.46-.2c.09-.11.16-.28.27-.33.73-.3,1.48-.56,2.2-.89a18.27,18.27,0,0,0,1.91-1,2.92,2.92,0,0,0,1.13-1.35,3.6,3.6,0,0,0,.12-.44c-.5.17-.92.35-1.35.45a20.79,20.79,0,0,1-4.45.37c-.85,0-1.7.06-2.54.06a2.91,2.91,0,0,1-1-.17c-1.13-.39-2.25-.82-3.38-1.23-.36-.14-.38-.22-.11-.47s.3-.27.52-.47a7.12,7.12,0,0,1-2.91-.94l1.53-.43V23L12,22.75a4.35,4.35,0,0,1-2-1.09c-.41-.43-.39-.53.18-.71a1.55,1.55,0,0,0,1-.74L10.62,20c-.81-.26-1.62-.49-2.41-.79a3.08,3.08,0,0,1-.83-.55,1.5,1.5,0,0,1-.25-.4,1.33,1.33,0,0,1,.38-.18C8.23,18,9,17.89,9.69,17.8l3.23-.36a3.22,3.22,0,0,0,.44-.14,6.07,6.07,0,0,0-.7-.29,2.13,2.13,0,0,0-.71-.08c-2.18.16-3.69-1.21-5.23-2.43a.55.55,0,0,0,0-.19,3.88,3.88,0,0,1,.68,0,24.5,24.5,0,0,0,5.6.53,2.56,2.56,0,0,0,.61-.05,2.42,2.42,0,0,0,.35-.12l-2.39-.93c-.32-.14-.63-.3-1-.44a5.68,5.68,0,0,1-2.76-3,1.56,1.56,0,0,1-.18-.59.7.7,0,0,1,.18-.47c.06,0,.32,0,.42.14,1.58,1.63,3.64,2.19,5.75,2.64h.34c-.58-.33-1-.62-1.5-.85a5.33,5.33,0,0,1-2.6-2.57A4.6,4.6,0,0,0,10,8.21c-.51-.82-.35-1.37.54-1.84a.52.52,0,0,1,.13.17,3.76,3.76,0,0,0,1.63,2c.86.6,1.62,1.35,2.45,2,1.25,1,2.51,2,3.79,2.91a4.12,4.12,0,0,0,1.22.47,1,1,0,0,0,.49,0c.26-.06.29-.21.08-.38a14.57,14.57,0,0,1-2.6-3.28L15.07,6.46a1.1,1.1,0,0,1-.19-.56A10.84,10.84,0,0,1,15,4.39a.8.8,0,0,1,.74-.67,3.55,3.55,0,0,1,.06.47,5.48,5.48,0,0,0,.84,2.64,1.21,1.21,0,0,0,.6.52,2.23,2.23,0,0,1,1.12.78.64.64,0,0,0,.2.2.3.3,0,0,0,.24.05c.06,0,.09-.15.08-.23,0-.35-.1-.7-.15-1.05a8.29,8.29,0,0,1,0-3A3.2,3.2,0,0,1,20.13,2a1.9,1.9,0,0,1,.4-.14,1.84,1.84,0,0,1,0,.41A8.07,8.07,0,0,0,20.92,6,2.73,2.73,0,0,0,22.15,7.5c.35-.67.7-1.3,1-1.95a3.7,3.7,0,0,1,1.59-1.66,2.23,2.23,0,0,1,.63-.15,4.19,4.19,0,0,1,.07.63A6.68,6.68,0,0,0,26.6,8.88q.31.38.66.72l.14,0c0-.65.05-1.3,0-1.94-.16-1.57.82-2.41,2-3.32.13,2.51.92,4.77,1.36,7.23.18-.29.32-.47.46-.71a2,2,0,0,1,1.58-1c.24-.05.34,0,.41.3.24.94.5,1.87.78,2.81a2.61,2.61,0,0,0,.32.7.42.42,0,0,0,.32.11c.23-.37.36-.07.55,0,.52.33,1,.64,1.55,1a1.13,1.13,0,0,1,.43.32,8.68,8.68,0,0,0,2.4,2.54,1.55,1.55,0,0,1,.72,1.52,5.14,5.14,0,0,0,0,.68,4.31,4.31,0,0,0,2,3.85,4,4,0,0,0,1.51.61,1.63,1.63,0,0,1,1,2.55,7.2,7.2,0,0,1-1.35,1.05,3.15,3.15,0,0,1-.51.28l0,.14h.42l4-.42a5,5,0,0,1,.67,0l-.43.55c.46.08.81.14,1.18.23s.78,0,.81.42c0,.2-.34.47-.59.66-.55.4-1.15.75-1.71,1.13a3.22,3.22,0,0,0-.38.35,2,2,0,0,0,.49,0c1.07-.16,2.14-.33,3.23-.47a3.31,3.31,0,0,1,.63,0c-.16.25-.29.42-.39.61s-.06.35.19.4l.81.12a20.29,20.29,0,0,1-3,1.48c2.6,0,5.17-.52,7.78,0-.1.47-.46.54-.7.69-.43.26-.46.28-.12.63.17.18.29.32.16.58a1.26,1.26,0,0,0,0,.39,2.75,2.75,0,0,1-.61,1.76A5.07,5.07,0,0,1,53.63,39a1.75,1.75,0,0,0-.85,1,2,2,0,0,1-.37.68A1.09,1.09,0,0,0,52.25,42c.21.49.4,1,.61,1.51-2.9.67-7.39-1.88-8.42-4.76h1.47l1.05,0c.34,0,.42-.22.34-.47a1.71,1.71,0,0,0-.29-.59c-1-1.17-2-2.35-3-3.48a.57.57,0,0,0-.21-.13l-.08.07a4.79,4.79,0,0,0,.35.47c.6.76,1.22,1.5,1.8,2.28.18.26.46.63.22.9s-.62.15-.92.07c-.62-.16-1.22-.41-1.85-.61a2.7,2.7,0,0,0-.41-.06,1.48,1.48,0,0,0,0,.42,8.89,8.89,0,0,0,5.64,6.18,11.75,11.75,0,0,0,3.92.83,1.14,1.14,0,0,0,.57-.16A11.38,11.38,0,0,1,57,43a10.39,10.39,0,0,1,2.43,0,5.45,5.45,0,0,0,1.8-.1c.68-.15,1.37-.27,2.06-.36a5.45,5.45,0,0,1,1.14.12,4.7,4.7,0,0,0,.53,0,14.56,14.56,0,0,1,2.47,0,4.45,4.45,0,0,1,3.29,3.17c.06.14,0,.33-.07.5a1.55,1.55,0,0,1-.43-.14l-1.39-.87-.11,0ZM65.94,44l.54.11,1.26.34c.65.18,1.28.38,1.92.57h0a4.12,4.12,0,0,0-4.89-1.66c-.09,0-.18.23-.17.34a.42.42,0,0,0,.24.29C65.21,44,65.58,44,65.94,44ZM39.75,23.51c-.17-.3-.29-.53-.43-.74a18.59,18.59,0,0,0-3.62-3.84c-1.88-1.55-3.82-3-5.72-4.6a9,9,0,0,1-3.06-3.68.17.17,0,0,1-.1,0,1.08,1.08,0,0,0,0,1.15,6.67,6.67,0,0,0,1.12,1.65c1.85,1.74,3.69,3.42,5.59,5.11a22.59,22.59,0,0,1,4.3,4.64c.06.09.15.21.23.22C38.59,23.44,39.14,23.47,39.75,23.51ZM51.23,56l-.39-.44a4.67,4.67,0,0,1-1.15-4.3.39.39,0,0,0,0-.26,2.12,2.12,0,0,0-1.88-1,.54.54,0,0,0-.49.56A4.91,4.91,0,0,0,51.23,56Zm14.38,5.89c-.32-.07-.51-.11-.71-.17A4.48,4.48,0,0,1,61.62,59a.75.75,0,0,0-.21-.32,1.91,1.91,0,0,0-2.19.36.39.39,0,0,0,0,.5A5.15,5.15,0,0,0,61.74,62a5.29,5.29,0,0,0,3.87-.1Zm-43.78-4.6.14,0a1.07,1.07,0,0,0,.14-.16l.79-1.4a.94.94,0,0,0,.11-.32,7.1,7.1,0,0,1,1-2.54c.38-.7.78-1.4,1.11-2.12a4.13,4.13,0,0,0,.39-2.56,1.14,1.14,0,0,0-.16-.31,1.09,1.09,0,0,0-.14.31,7.45,7.45,0,0,1-.31,1.4C24.29,51,23.59,52.27,23,53.6c-.42.94-.75,1.94-1.1,2.92A3.18,3.18,0,0,0,21.83,57.33Zm.46-9.47a9.06,9.06,0,0,1-2,3.47c-.56.78-1.18,1.53-1.7,2.34S17.77,55.19,17.4,56a1.59,1.59,0,0,0-.08.53h.11l.21-.24.92-1.1a.7.7,0,0,0,.15-.23,7.74,7.74,0,0,1,1.72-2.77,10,10,0,0,0,1.68-2.49,2.58,2.58,0,0,0,.17-1.83Zm-9.13,6.88.14.1.19-.1,1.17-1a1.27,1.27,0,0,0,.21-.25,7.28,7.28,0,0,1,1.74-2c.69-.62,1.38-1.24,2-1.9a4,4,0,0,0,1-2.13.9.9,0,0,0-.1-.27c-.06.06-.15.11-.17.18a4,4,0,0,1-1,1.58Q17.26,50,16.07,51.12A15.78,15.78,0,0,0,13.53,54C13.39,54.24,13.27,54.49,13.16,54.74Zm58.56,3A3.8,3.8,0,0,0,73,56.32a2.74,2.74,0,0,0-.33-2.66c-.66-1.1-1.22-1.1-1.92,0l0,.05a.47.47,0,0,0,0,.66l.06,0A2.36,2.36,0,0,1,71.73,56c0,.53,0,1.1,0,1.68Zm-4.94-8.91a3.8,3.8,0,0,0-4.15-3,.47.47,0,0,0-.47.47v0a1.22,1.22,0,0,0,1,1.06,8.17,8.17,0,0,1,1.21.05,4,4,0,0,1,2.38,1.34ZM69,47.36a2.89,2.89,0,0,0-1.51-2.22,4.77,4.77,0,0,0-2.4-.56c-.24,0-.49,0-.55.31s0,.61.27.74a3.64,3.64,0,0,0,1.28.46,3.85,3.85,0,0,1,2.18.68,7.72,7.72,0,0,1,.73.58Zm3.7,4.84.13-.08A9.56,9.56,0,0,0,72.37,51a3.19,3.19,0,0,0-3-1.78.39.39,0,0,0-.46.3,1.1,1.1,0,0,0,.8,1.34l.16,0a3.1,3.1,0,0,1,2.54,1,1.29,1.29,0,0,1,.29.32Zm2.86,1.14A3.28,3.28,0,0,0,73,49.63c-.13,0-.37,0-.41.09a.55.55,0,0,0,0,.47c.35.63.58,1.35,1.46,1.51.31.06.59.42.84.7a9,9,0,0,1,.68.94Zm-8.83-6.45c.29.81.59,1.66.89,2.52l1.53-.88a2.87,2.87,0,0,0-2.4-1.66Z"/><path class="cls-1" d="M85,80.33H74.15c-.59,0-.59,0-.59-.6V62.18c0-.59,0-.59.56-.59H95.88c.6,0,.6,0,.6.61V79.75c0,.58,0,.58-.57.58ZM94,64H76.52c-.48,0-.48,0-.48.54V77.21c0,.63-.07.58.56.58H93.42c.66,0,.6.09.6-.6V64.6Z"/><path class="cls-1" d="M69.55,43H99.22a1.23,1.23,0,0,1,1,.4Q107.1,50.34,114,57.25l4.35,4.32a1.06,1.06,0,0,1,.36.83V79a1.14,1.14,0,0,1-.38.88c-1.24,1.2-2.46,2.43-3.69,3.65a.62.62,0,0,1-.58.23c-.69-.13-1.39-.24-2.07-.35l.13-.18c1.45-1.46,2.9-2.94,4.37-4.39a1.16,1.16,0,0,0,.39-.91V63.19a1.16,1.16,0,0,0-.39-.94q-3.81-3.66-7.62-7.35l-9.09-8.79c-.08-.08-.19-.13-.25-.22A2.4,2.4,0,0,0,97.25,45c-8.58,0-17.16,0-25.73,0a.84.84,0,0,1-.89-.53A10.11,10.11,0,0,0,69.55,43Z"/><path class="cls-1" d="M54.37,82.57l-1.94.28V65.33c0-.27-.07-.36-.34-.35H44.77V48.05c.11-.08.3-.18.3-.26-.06-.56.32-.89.68-1.36.27.42.54.81.76,1.22a.46.46,0,0,1-.06.41,5.32,5.32,0,0,0-.62,3.52A6.17,6.17,0,0,0,47,55a1.1,1.1,0,0,1,.09.59v6.25c0,.52,0,.52.51.52h6.26c.54,0,.54,0,.54.54Z"/><path class="cls-3" d="M54.17,23.54c.53-.15,1.06-.29,1.58-.47s1.34-.42,2-.66a1.47,1.47,0,0,0,.92-1.72,3.3,3.3,0,0,0-1-1.83c-.15-.15-.31-.28-.44-.43A3.87,3.87,0,0,1,57,18a1.88,1.88,0,0,1,.53-.06,5.45,5.45,0,0,1,1.05.29,8.91,8.91,0,0,1,.93.57,1.22,1.22,0,0,0-.3-1.08,2.7,2.7,0,0,0-1.28-.93,1.18,1.18,0,0,1-.28-.22,1.42,1.42,0,0,1,.36-.14,3.65,3.65,0,0,1,2.35.66l.57.39a2.77,2.77,0,0,0-.46-1.94A18.8,18.8,0,0,0,59,14a3.21,3.21,0,0,1,.62,0,4.92,4.92,0,0,1,3.23,2.27c.08.11.14.22.21.33l.21.35A2.65,2.65,0,0,0,63,14.6c-.31-.56-.69-1.07-1-1.61a1.21,1.21,0,0,1-.16-.56c1.35.57,2.69,1.12,3.23,2.71a1.6,1.6,0,0,0,.37-1.6,15.72,15.72,0,0,0-.51-1.69,4.93,4.93,0,0,1,.53.22,3.62,3.62,0,0,1,1.6,4.27c-.08.3-.27.6.09.86a.86.86,0,0,0,1,0,3.32,3.32,0,0,0,.82-.81c.33-.42.61-.89.93-1.33a1.82,1.82,0,0,1,.31-.31c.31-.24.36-.22.47.16a3.44,3.44,0,0,1-1.57,4.16,34.09,34.09,0,0,1-3.36,1.82,21.36,21.36,0,0,0-4.25,2.63.55.55,0,0,1-.38.16,34.25,34.25,0,0,0-6.79-.13h-.15Zm15-5.69A5.52,5.52,0,0,1,67,19c-.83.23-1.66.47-2.49.73a4.07,4.07,0,0,0-1.9,1.2,2.19,2.19,0,0,0-.55,1.17,11,11,0,0,1,3.11-1.72,31.51,31.51,0,0,0,3.07-1.41,5.12,5.12,0,0,0,1-1l0-.2Zm-9.66,1.09v0Z"/><path class="cls-1" d="M10.32,48.05l.25-.11,0,.09h-.29Z"/><path class="cls-1" d="M60.08,16.18l.05.11-.13,0Z"/><path class="cls-1" d="M62.16,14.42l.08.07-.09-.05Z"/><path class="cls-1" d="M64.76,13.4s0,0,0,0l0,0v0A.08.08,0,0,1,64.76,13.4Z"/><path class="cls-1" d="M9.91,9.76l.05.12-.13,0Z"/><path class="cls-2" d="M54.37,105.43c.41-.07.82-.16,1.24-.2,2.3-.21,4.58-.42,6.88-.59q3.13-.23,6.29-.35c2-.09,3.94-.13,5.91-.18v11.81c0,.53,0,.53.55.53h5.21c.69,0,.63-.07.63.63v16.7c0,.61,0,.62-.59.62H47.67c-.6,0-.61,0-.61-.47v-17c0-.36.1-.47.46-.47,1.32,0,2.62,0,3.93,0h2.49c.35,0,.47-.12.47-.47a2.54,2.54,0,0,1,0-.39Q54.37,110.54,54.37,105.43Z"/><path class="cls-2" d="M94.92,104.69c1.07.08,2.13.13,3.19.22s2.13.19,3.19.3c2,.21,4,.41,5.93.64,1.49.17,3,.36,4.44.54a4,4,0,0,0,.23.61c1.63,3,3.27,6,4.89,9.07a.66.66,0,0,0,.69.39h6.71c.57,0,.57,0,.57.56v16.82c0,.56,0,.56-.54.56H94.94c-.52,0-.53,0-.53-.51V117c0-.5,0-.5.53-.5h5.77l-1.36-2.77Z"/><path class="cls-2" d="M65.22,83.1l4.3-.17,3-.11c2.8-.06,5.6-.15,8.4-.18,1.55,0,3.1,0,4.65.09.92,0,1.79,0,2.69.1,1.58.07,3.15.14,4.73.23,1,.06,2.08.13,3.12.22,1.51.13,3,.29,4.53.43,1.3.12,2.59.21,3.88.35s2.31.29,3.44.44c1.45.19,2.92.35,4.37.57,2.24.32,4.49.64,6.71,1.05,3.39.63,6.77,1.28,10.16,2,4.88,1,9.69,2.3,14.48,3.78.95.3,1.9.61,2.85.94.77.26,1,.65.67,1.41q-1.89,4.69-3.79,9.37c-.67,1.69-1.33,3.38-2,5.06-.11.3-.23.59-.36.88a.83.83,0,0,1-1.07.53h0c-2-.51-3.92-1-5.9-1.51q-3.27-.78-6.57-1.45c-2.63-.55-5.25-1.07-7.89-1.55-2-.36-4-.64-6-.94-1.5-.22-3-.47-4.5-.65s-2.8-.31-4.2-.47c-1.17-.13-2.35-.3-3.53-.42s-2.15-.16-3.23-.25-2.18-.22-3.27-.31c-.83-.07-1.65-.1-2.47-.15-1.34-.07-2.68-.16-4-.2-1.63-.07-3.27-.1-4.91-.12-3,0-6-.08-9-.09-1.38,0-2.77.06-4.15.1-.93,0-1.85,0-2.77.11-1.26.08-2.52.22-3.77.32-.72.06-1.43.06-2.15.13-1.42.13-2.83.29-4.26.43-1.14.12-2.3.22-3.44.36-1.44.18-2.87.36-4.3.58-1.71.27-3.42.53-5.08.88-3,.6-5.92,1.19-8.85,1.9s-5.81,1.56-8.71,2.38c-1,.29-2.05.66-3.07,1a.85.85,0,0,1-1.16-.38.75.75,0,0,1-.09-.29c-.59-1.95-1.16-3.9-1.74-5.85-.51-1.69-1-3.4-1.55-5.09s-1.07-3.47-1.6-5.21a1,1,0,0,1,.44-1.25,1.11,1.11,0,0,1,.26-.07q7.15-2.38,14.49-4.09c3-.7,6.06-1.34,9.1-1.92,2.4-.47,4.82-.81,7.23-1.18,1.82-.27,3.64-.54,5.47-.75,2-.23,4.06-.41,6.09-.6C62.11,83.35,63.48,83.25,65.22,83.1ZM24,108.17l.36,0a.81.81,0,0,0,.22,0c2.84-1,5.74-1.79,8.65-2.52,2.18-.55,4.38-1,6.57-1.52,1.42-.32,2.85-.6,4.27-.87.9-.18,1.8-.34,2.69-.47,1.39-.21,2.77-.38,4.16-.58,1.21-.18,2.41-.4,3.62-.54,1.52-.19,3.05-.32,4.58-.47,1.27-.12,2.54-.24,3.82-.33s2.34-.16,3.51-.23c1.61-.08,3.23-.17,4.84-.22,2-.06,4.12-.1,6.18-.11,1.85,0,3.64,0,5.47.1,1.08,0,2.16.06,3.23.1,1.78.07,3.55.14,5.34.23,1.15.06,2.3.14,3.45.22l4.38.34,4,.34,1.15.12,2.43.33c.81.1,1.49.14,2.23.24,1,.13,1.95.29,2.92.43,1.13.16,2.27.3,3.41.47s2.07.36,3.11.54,2.37.36,3.55.59c1.79.34,3.56.73,5.33,1.09,1.57.32,3.14.6,4.7.94,2.22.51,4.42,1.1,6.64,1.63,1.22.3,1,.29,1.38-.78q1.84-4.62,3.66-9.25c.47-1.19.93-2.39,1.39-3.58-.14-.12-.25-.1-.46-.26-3.94-.56-7.39-2.07-11.22-3.14a7.91,7.91,0,0,1-.81-.19l-.53-.13-4.28-1c-1.3-.3-2.6-.63-3.9-.89s-2.4-.39-3.6-.59c-.25,0-.49-.1-.74-.15-.46-.11-.92-.23-1.38-.3s-1.21-.16-1.81-.26c-.84-.13-1.67-.29-2.51-.42-.59-.1-1.18-.14-1.77-.23s-1.14-.24-1.72-.32c-1.28-.16-2.56-.29-3.85-.47l-3.64-.47c-.82-.09-1.66-.14-2.49-.22-1.16-.1-2.3-.24-3.48-.33-.66-.06-1.32-.06-2-.11-1.29-.1-2.58-.24-3.87-.33s-2.86-.16-4.29-.21c-1.65-.06-3.3-.13-5-.12-2.9,0-5.81.06-8.72.1-1.82,0-3.64.06-5.46.12-1,0-2,.15-3.07.21-1.31.09-2.63.16-4,.24-.46,0-.92.06-1.38.11l-3.79.43c-.82.09-1.63.16-2.45.27-1.18.16-2.36.35-3.55.53-1.58.23-3.17.42-4.75.69s-3.46.64-5.18,1c-1.9.39-3.81.79-5.71,1.23-1.52.35-3,.71-4.55,1.13l-9.57,2.82c-.37.1-.46.25-.33.63.34,1,.63,2.08.93,3.11s.7,2.17,1,3.26c.22.7.41,1.41.61,2.11a.31.31,0,0,1,0,.21c.57,1.87,1.11,3.75,1.68,5.62,0,0,.06,0,.12.06Z"/><path class="cls-1" d="M54.37,105.43v10.18a2.54,2.54,0,0,0,0,.39c0,.34-.09.47-.46.47H47.49c-.37,0-.46.12-.46.47v17c0,.47,0,.47.61.47H80.46c.59,0,.59,0,.59-.62v-16.7c0-.7.06-.63-.64-.63H75.25c-.55,0-.56,0-.56-.53V104.11H77v10.18h5.56c.46,0,.48,0,.48.47v21c0,.32,0,.5-.42.5H44.82v-22h7c.76,0,.65.1.66-.7v-7.36c0-.61,0-.61.57-.66Z"/><path class="cls-1" d="M94.92,104.69l4.43,9,1.36,2.77H94.94c-.53,0-.53,0-.53.5v16.93c0,.51,0,.52.53.52h29.28c.53,0,.54,0,.54-.56V117c0-.57,0-.57-.57-.57h-6.71a.65.65,0,0,1-.69-.39c-1.62-3-3.26-6-4.89-9.06a4.49,4.49,0,0,1-.23-.61c.62.08,1.24.2,1.85.24a.75.75,0,0,1,.68.52c1.08,2.21,2.19,4.41,3.27,6.63a.74.74,0,0,0,.79.5c2.71,0,5.42,0,8.13,0H127v22H92.37V114.84c0-.56,0-.56.57-.56H97c-1.63-3.29-3.23-6.5-4.85-9.8Z"/><path class="cls-2" d="M69.39,37c-1.14-.35-2.2-.7-3.27-1-.72-.21-1.47-.37-2.2-.53-.22-.05-.32-.12-.33-.35-.05-.67-.12-1.34-.16-2a.55.55,0,0,1,.23-.39c1-.59,2-1.16,3-1.73a.55.55,0,0,1,.4,0,8.09,8.09,0,0,1,3.69,2.77,4.77,4.77,0,0,1,.65,4.22,7,7,0,0,0-1.67-3.31,9,9,0,0,0-3.51-2.28.66.66,0,0,0-.46,0c-.46.19-.93.42-1.36.62a.43.43,0,0,0-.27.52v0c.1.43.08,1,.33,1.27s.79.31,1.2.43a11.67,11.67,0,0,1,3.16,1.31l.42.28A.64.64,0,0,0,69.39,37ZM68.11,32.1l.17,0-.12-.1-.69-.62c-.42-.34-.43-.34-.75.22Z"/><path class="cls-2" d="M61.71,28.45a3.51,3.51,0,0,0,3.08,3c-.62.36-1.19.7-1.77,1a.8.8,0,0,1-.46,0,4.22,4.22,0,0,1-2.16-1.29c.21,0,.39,0,.55-.09a1,1,0,0,0,.76-1.08.36.36,0,0,0,0-.1,6.85,6.85,0,0,0-1.15-2.53,2,2,0,0,1-.32-.68c.38.07.77.11,1.15.2a7,7,0,0,1,2.85,1.65l.56.47c.28.24.56.38.87-.12.19.63.35,1.14.47,1.65,0,.06-.15.2-.25.24a.27.27,0,0,1-.24-.12,2.87,2.87,0,0,0-1.54-1.41A9.14,9.14,0,0,0,61.71,28.45Z"/><path class="cls-1" d="M70.39,36.83a11.91,11.91,0,0,0-5.65-3.4c.46-.22.8-.4,1.16-.55a.44.44,0,0,1,.32,0,7.46,7.46,0,0,1,4.22,3.66.51.51,0,0,1,0,.17Z"/><path class="cls-1" d="M64.8,33.87A7.83,7.83,0,0,1,68,35.44l-.33-.08-2.31-.72C64.86,34.5,64.85,34.52,64.8,33.87Z"/><path class="cls-1" d="M64,30.8a2.56,2.56,0,0,1-1.47-1.64l1.44.61C63.6,30.22,63.6,30.26,64,30.8Z"/><path class="cls-2" d="M69.52,37.11l0,0,0,0s0,0,0,0Z"/><path class="cls-1" d="M47.13,146.5H45.29l.92-2.39C46.52,145,46.81,145.71,47.13,146.5Z"/><path class="cls-2" d="M39.75,23.51c-.63,0-1.16-.07-1.68-.12-.09,0-.17-.13-.23-.22a23.4,23.4,0,0,0-4.3-4.64c-1.88-1.69-3.76-3.37-5.59-5.11a6.67,6.67,0,0,1-1.12-1.65,1.08,1.08,0,0,1,0-1.15s.09,0,.1,0A9,9,0,0,0,30,14.33c1.9,1.55,3.84,3,5.72,4.6a18.59,18.59,0,0,1,3.62,3.84C39.46,23,39.6,23.21,39.75,23.51Z"/><path class="cls-2" d="M51.23,56a4.9,4.9,0,0,1-3.9-5.48.54.54,0,0,1,.49-.56,2.11,2.11,0,0,1,1.88,1,.39.39,0,0,1,0,.26,4.65,4.65,0,0,0,1.15,4.3Zm-1.48-1.11,0,.07.05,0-.08-.05-.09-.13A3.38,3.38,0,0,1,48.94,52a.39.39,0,0,0-.15-.24c-.29-.22-.59-.42-.92-.65a4.74,4.74,0,0,0,1.74,3.78Z"/><path class="cls-2" d="M65.61,61.93a4.81,4.81,0,0,1-6.43-2.36.39.39,0,0,1,0-.5,1.91,1.91,0,0,1,2.19-.36.75.75,0,0,1,.21.32,4.48,4.48,0,0,0,3.28,2.73C65.1,61.82,65.29,61.86,65.61,61.93ZM60,59.78A4.93,4.93,0,0,0,64.23,62a.37.37,0,0,0-.14-.07,3.46,3.46,0,0,1-2.77-2,.32.32,0,0,0-.25-.14c-.34,0-.7,0-1.12,0Z"/><path class="cls-2" d="M21.83,57.33a3.06,3.06,0,0,1,.08-.8c.35-1,.68-2,1.1-2.92.58-1.34,1.28-2.62,1.87-3.94a7.55,7.55,0,0,0,.31-1.41,1.23,1.23,0,0,1,.14-.31,1.2,1.2,0,0,1,.16.32,4.13,4.13,0,0,1-.39,2.56c-.33.72-.73,1.4-1.11,2.12a7,7,0,0,0-1,2.54.89.89,0,0,1-.11.31c-.26.47-.52.94-.79,1.41a1.07,1.07,0,0,1-.14.16Z"/><path class="cls-2" d="M22.28,47.86a2.57,2.57,0,0,1-.16,1.85,9.65,9.65,0,0,1-1.68,2.49A8,8,0,0,0,18.71,55a.79.79,0,0,1-.14.23l-.93,1.1-.2.24h-.12A1.89,1.89,0,0,1,17.4,56a24.44,24.44,0,0,1,1.23-2.32c.51-.82,1.14-1.56,1.7-2.34A9.67,9.67,0,0,0,22.28,47.86Z"/><path class="cls-2" d="M13.16,54.74a7.54,7.54,0,0,1,.38-.75,16.17,16.17,0,0,1,2.54-2.87q1.17-1.08,2.31-2.19a3.88,3.88,0,0,0,1-1.58c0-.07.12-.12.17-.18,0,.1.12.19.11.27a4.05,4.05,0,0,1-1.05,2.13c-.65.66-1.34,1.28-2,1.9a7.63,7.63,0,0,0-1.74,2,1.27,1.27,0,0,1-.21.25l-1.17,1-.18.1Z"/><path class="cls-2" d="M71.72,57.7c0-.58,0-1.15,0-1.71a2.4,2.4,0,0,0-.92-1.62.47.47,0,0,1-.15-.64l0-.06,0-.05c.69-1.1,1.26-1.1,1.92,0A2.71,2.71,0,0,1,73,56.28,3.8,3.8,0,0,1,71.72,57.7Zm.52-1.15a2.59,2.59,0,0,0-.21-3,.37.37,0,0,0-.52-.13l-.09.08a3.17,3.17,0,0,0-.3.34A2.78,2.78,0,0,1,72.24,56.55Z"/><path class="cls-2" d="M66.78,48.8a4,4,0,0,0-2.37-1.36,8.11,8.11,0,0,0-1.21,0,1.21,1.21,0,0,1-1-1.06.46.46,0,0,1,.44-.49h0A3.8,3.8,0,0,1,66.78,48.8Zm-1.23-1.51.11.16,0-.2a3.69,3.69,0,0,0-2.87-1c.12.54.29.73.73.67a3.66,3.66,0,0,1,2.08.37Z"/><path class="cls-2" d="M69,47.35a7,7,0,0,0-.73-.59,3.72,3.72,0,0,0-2.18-.7,3.87,3.87,0,0,1-1.28-.47c-.31-.12-.31-.44-.27-.73s.31-.31.55-.32a4.68,4.68,0,0,1,2.4.57A2.86,2.86,0,0,1,69,47.35Zm-1.19-1.41.11.14-.05-.2a3.74,3.74,0,0,0-2.39-1A1,1,0,0,0,65,45a1.59,1.59,0,0,0,.19.42.59.59,0,0,0,.47.19,3.33,3.33,0,0,1,2,.32Z"/><path class="cls-2" d="M72.67,52.18c-.09-.12-.18-.24-.28-.35a3.08,3.08,0,0,0-2.54-1,1.11,1.11,0,0,1-1-1.2l0-.17a.4.4,0,0,1,.46-.29,3.2,3.2,0,0,1,3,1.8,11.13,11.13,0,0,1,.43,1.14Zm-.88-1.41.09.06-.06-.09-.22-.23a2.86,2.86,0,0,0-2.36-.87c.13.43.27.8.66.72a2.74,2.74,0,0,1,1.62.24Z"/><path class="cls-2" d="M75.54,53.34a10.44,10.44,0,0,0-.65-.94c-.25-.27-.53-.63-.85-.69-.87-.16-1.1-.88-1.45-1.51a.55.55,0,0,1,0-.47c0-.09.28-.12.41-.09A3.29,3.29,0,0,1,75.54,53.34Zm-2.25-3.2h-.13l.07.07c0,.18.08.36.13.53s.09.23.15.23a2.48,2.48,0,0,1,1.49.94l.1.07,0-.14A2.77,2.77,0,0,0,73.29,50.14Zm1.94,2,0-.07s0,0,0,0a.16.16,0,0,0,0,.09Z"/><path class="cls-2" d="M65.94,44c-.36,0-.73,0-1.1,0a.38.38,0,0,1-.23-.29c0-.11.07-.32.16-.34A4.18,4.18,0,0,1,69.67,45h0c-.64-.2-1.28-.4-1.93-.58l-1.26-.34a3.55,3.55,0,0,1,1.94,0,4,4,0,0,0-3-.59Z"/><path class="cls-2" d="M66.7,46.87a3,3,0,0,1,2.42,1.64l-1.52.88Z"/><path class="cls-1" d="M65.94,44l-.49-.44a4,4,0,0,1,3,.59,3.55,3.55,0,0,0-1.94,0Z"/><path class="cls-2" d="M68.79,45.48l-.05-.1.11,0Z"/><path class="cls-3" d="M94,64V77.18c0,.69.07.6-.59.6H76.58c-.62,0-.56,0-.56-.58V64.54c0-.53,0-.53.49-.53Zm-1.94,2H78v9.85H92.06Z"/><path class="cls-2" d="M69.27,17.91a5.69,5.69,0,0,1-1,1c-1,.52-2,1-3.07,1.4a10.81,10.81,0,0,0-3.11,1.73,2.13,2.13,0,0,1,.55-1.17,4,4,0,0,1,1.9-1.2c.83-.27,1.66-.51,2.49-.73a5.42,5.42,0,0,0,2.2-1.12Z"/><path class="cls-2" d="M69.19,17.85l.12-.15,0,.21Z"/><polygon class="cls-2" points="59.53 18.94 59.56 18.93 59.56 18.97 59.53 18.94"/><path class="cls-4" d="M145.29,94.41c-.46,1.2-.9,2.4-1.38,3.58q-1.84,4.64-3.67,9.25c-.42,1.07-.18,1.08-1.38.79-2.22-.54-4.42-1.13-6.64-1.64-1.55-.37-3.13-.64-4.69-.94-1.78-.36-3.55-.75-5.33-1.09-1.18-.23-2.37-.39-3.55-.59s-2.07-.38-3.12-.54-2.27-.31-3.4-.47c-1-.14-1.95-.3-2.92-.43-.74-.1-1.49-.16-2.23-.25l-2.44-.32c-.38,0-.76-.09-1.15-.12l-4-.34c-1.46-.12-2.93-.24-4.38-.34-1.15-.08-2.31-.16-3.46-.22-1.78-.09-3.56-.16-5.34-.23-1.08,0-2.17-.09-3.23-.11-1.82,0-3.64-.1-5.46-.09-2.06,0-4.12,0-6.19.11-1.61,0-3.23.13-4.83.22-1.17.06-2.34.14-3.51.23s-2.55.2-3.82.32c-1.53.15-3.06.28-4.58.47-1.21.15-2.41.37-3.62.54-1.39.2-2.77.37-4.16.58-.89.14-1.79.29-2.68.47-1.43.28-2.86.56-4.28.88-2.19.49-4.39,1-6.57,1.52-2.92.73-5.81,1.54-8.65,2.52a.81.81,0,0,1-.22,0l-.36,0h0a.09.09,0,0,1-.1,0,2.17,2.17,0,0,1-.12-.36c-.46-1.46-.88-2.92-1.31-4.39-.08-.28-.16-.57-.25-.86a.17.17,0,0,1,0-.1.21.21,0,0,0,0-.12c-.2-.7-.39-1.41-.61-2.11-.34-1.09-.71-2.17-1-3.26s-.61-2.08-.92-3.11c-.12-.39,0-.53.33-.64l9.57-2.81c1.5-.43,3-.79,4.56-1.14Q37,88.6,39.84,88c1.73-.35,3.45-.7,5.18-1,1.58-.27,3.16-.47,4.75-.7,1.18-.17,2.37-.37,3.55-.53.82-.11,1.64-.17,2.45-.27l3.79-.43c.46,0,.92-.08,1.38-.1l4-.24c1-.07,2-.18,3.07-.22,1.82-.06,3.64-.09,5.46-.12,2.9,0,5.81-.09,8.72-.1,1.66,0,3.31.06,5,.12,1.43,0,2.86.13,4.28.22s2.59.22,3.88.32c.66,0,1.32,0,2,.11,1.17.1,2.31.23,3.49.34.83.07,1.66.12,2.49.22,1.22.13,2.43.31,3.64.47s2.57.28,3.85.47c.58.07,1.14.22,1.71.31s1.19.14,1.78.23c.84.13,1.67.3,2.51.43.6.09,1.21.15,1.81.25s.92.2,1.38.3c.25.05.49.12.74.16,1.2.2,2.41.35,3.6.59s2.6.58,3.9.88l4.28,1,.53.12.43.1c1.55.38,2.83.73,4.38,1.17,1.76.51,3.85.81,5.57,1.46C144,93.86,145,94.05,145.29,94.41Zm-97,5.7a1.07,1.07,0,0,0-.07-.19l-6.28-9.85a.54.54,0,0,0-.65-.24l-2.45.45L37,90.63l.4,2.22,2.3-.38-2.25,9.44-3.46-3,.26-.25a3.7,3.7,0,0,0,.93-4.49,3.62,3.62,0,0,0-4-2.09c-1.13.19-2.23.52-3.34.79l-2.55.62c.46,1.81.87,3.56,1.31,5.35l-1.23.35.57,2.29a7.19,7.19,0,0,0,.8-.2c.37-.15.46,0,.55.35.21.93.46,1.87.71,2.86l2.37-.6c-.28-1.13-.55-2.22-.81-3.32.55-.14,1.08-.23,1.58-.4a.62.62,0,0,1,.73.19c.79.76,1.61,1.49,2.4,2.25a.55.55,0,0,0,.54.17c1.6-.37,3.2-.73,4.8-1.07a.43.43,0,0,0,.4-.43c.08-.47.21-.94.3-1.41a.45.45,0,0,1,.41-.43c1.16-.19,2.31-.39,3.49-.61a.39.39,0,0,1,.49.21c.25.44.54.86.79,1.29a.43.43,0,0,0,.53.25C46.76,100.36,47.49,100.25,48.27,100.11Zm10.65-8.06c0-.37-.07-.7-.08-1-.05-.94,0-.94.88-1l4.91-.34c.2,0,.37,0,.35-.3-.06-.68-.11-1.36-.16-2.11l-8.66.62c.08,1.13.16,2.21.24,3.29,0,.31.14.74,0,.91s-.6.12-.93.2c-.1,0-.27.15-.27.23,0,.7.1,1.4.15,2.12h1.27c.1,1.51.21,3,.32,4.55l4.51-.31,3.75-.27c.19,0,.42,0,.38-.32-.06-.68-.1-1.37-.15-2.08l-.58,0c-1.75.14-3.5.25-5.24.39-.31,0-.44,0-.46-.38s0-.89-.08-1.34,0-.47.43-.52c1.14-.08,2.28-.17,3.42-.23.31,0,.46-.09.43-.47-.06-.56-.1-1.12-.11-1.68,0-.29-.16-.29-.36-.28-.59.05-1.18.11-1.77.14s-1.43.12-2.19.17Zm10.68,6.3c-.06-2.1-.13-4.13-.2-6.3L73,95.37l3.56,3.3c-.14-4.06-.28-8-.41-11.83H73.66c.08,2.12.15,4.19.22,6.34l-7.1-6.6v.86L67,94.06c0,1.33.09,2.66.12,4,0,.31.09.42.41.4C68.22,98.42,68.88,98.4,69.6,98.35Zm17.54-9.72a5.76,5.76,0,0,0-4.16-2,5.5,5.5,0,0,0-4,1.14,3,3,0,0,0,.78,5.11,14.3,14.3,0,0,0,1.82.47c.84.19,1.7.3,2.52.57a.83.83,0,0,1,.61,1,.81.81,0,0,1-.39.53,2.65,2.65,0,0,1-1,.47,3.91,3.91,0,0,1-3.69-1.16l-.37-.36-1.84,1.63a1.63,1.63,0,0,0,.11.17,6.47,6.47,0,0,0,6.06,2.12,4.78,4.78,0,0,0,2.81-1.44,3.14,3.14,0,0,0,.08-4.4,3.08,3.08,0,0,0-1.3-.81,16.38,16.38,0,0,0-1.84-.43c-.72-.15-1.45-.26-2.17-.43a.79.79,0,0,1-.69-.7,1,1,0,0,1,.58-1,2,2,0,0,1,.46-.19,3.45,3.45,0,0,1,2.94.49c.33.24.62.52,1,.8Zm11.74,1.13a6,6,0,0,0-6.34-2.67A5.87,5.87,0,0,0,88,94a5.75,5.75,0,0,0,.68,1.84,6,6,0,0,0,6.59,2.78,5.89,5.89,0,0,0,3.32-2.11L96.67,95c-1.88,1.78-3.86,1.88-5.34.28a3.5,3.5,0,0,1,.14-4.88l.06,0A3.25,3.25,0,0,1,94,89.36a3.34,3.34,0,0,1,2.81,1.83Zm27.29,6c.13-.56.23-1.11.37-1.65a.36.36,0,0,1,.3-.18c.37,0,.72.16,1.08.24,1.45.35,2.91.68,4.36,1,.3.07.42,0,.46-.31a14.09,14.09,0,0,1,.36-1.59c.09-.3,0-.38-.29-.44-1.22-.27-2.43-.58-3.65-.86l-4.42-1c0,.14-.09.24-.11.34-.26,1.17-.54,2.35-.79,3.5-.06.29-.17.38-.46.3s-.56-.14-.89-.21c-.17.79-.34,1.54-.51,2.31l1.21.31c0,.17,0,.28-.07.39-.28,1.24-.55,2.47-.85,3.71-.07.3,0,.43.3.47a11.43,11.43,0,0,1,1.61.39c.36.11.44,0,.5-.35.26-1.19.54-2.37.81-3.55.12-.53.12-.53.64-.4,1.13.26,2.27.52,3.39.8.2,0,.32,0,.37-.17l.46-2.09Zm-19.51-.14a4.06,4.06,0,0,0,1.82-1.14,3.75,3.75,0,0,0,.64-3.89,3.59,3.59,0,0,0-3.07-2.42c-1.7-.24-3.41-.38-5.12-.57h-.54l-.57,5.43L98.61,93c-.07.4-.13.81-.19,1.21a1.31,1.31,0,0,0,0,.28c-.07.83-.07.84.75.93.3,0,.46.09.39.47A7,7,0,0,0,99.44,97c-.06.62-.11,1.25-.17,1.87.72.08,1.36.14,2,.24.32,0,.46,0,.46-.39,0-.86.17-1.72.24-2.58,0-.35.16-.44.49-.38a9,9,0,0,0,1.16.13.74.74,0,0,1,.66.47c.47,1,1,1.93,1.48,2.89.07.13.2.32.32.33.92.13,1.88.23,2.91.34ZM45.19,89.22l6.49,11.21L55.29,88c-.8.1-1.51.21-2.22.26a.46.46,0,0,0-.51.42v0c-.23.94-.47,1.85-.72,2.77L51,94.71l-.35-.55L48,89.24c-.1-.17-.15-.37-.43-.33Zm88,15.75c.67.22,1.29.4,1.89.63.33.13.46.09.58-.28.59-1.88,1.2-3.75,1.81-5.66l.78-2.44c.93.3,1.77.6,2.63.87.14,0,.32.17.41-.09.22-.68.43-1.37.66-2.07l-8.31-2.73c-.25.76-.46,1.5-.73,2.26l3,1Zm-17.9-15.75a5.81,5.81,0,0,0-5.91,5.72,6,6,0,0,0,.67,2.9A6.18,6.18,0,0,0,116.3,101a5.88,5.88,0,0,0,5-6.62,5.28,5.28,0,0,0-.23-1A6,6,0,0,0,115.29,89.22Z"/><path class="cls-3" d="M24,108.17l.36,0Z"/><path class="cls-3" d="M68.11,32.1l-1.38-.47c.33-.56.33-.56.75-.21.24.2.46.41.69.61Z"/><path class="cls-3" d="M68.16,32.05l.12.1-.17,0Z"/><path class="cls-1" d="M49.6,54.84a4.68,4.68,0,0,1-1.73-3.78l.92.65c.07,0,.17.17.15.24a3.37,3.37,0,0,0,.73,2.81Z"/><path class="cls-1" d="M49.66,54.78l.1.13h0l-.14-.09Z"/><path class="cls-1" d="M49.75,54.91l.08.05,0,0,0-.07Z"/><path class="cls-1" d="M60,59.78h1.13a.34.34,0,0,1,.26.15,3.4,3.4,0,0,0,2.77,2,.35.35,0,0,1,.14.06A4.91,4.91,0,0,1,60,59.78Z"/><path class="cls-1" d="M72.24,56.55a2.78,2.78,0,0,0-1.12-2.76,3.17,3.17,0,0,1,.3-.34.37.37,0,0,1,.53,0,.34.34,0,0,1,.08.09A2.59,2.59,0,0,1,72.24,56.55Z"/><path class="cls-1" d="M65.55,47.29a3.66,3.66,0,0,0-2.08-.37c-.46.06-.61-.13-.73-.67a3.69,3.69,0,0,1,2.87,1Z"/><path class="cls-1" d="M65.61,47.24l0,.2-.11-.15Z"/><path class="cls-1" d="M67.75,46a3.24,3.24,0,0,0-2.08-.3.56.56,0,0,1-.46-.19A1.4,1.4,0,0,1,65,45a1,1,0,0,1,.39-.11,3.78,3.78,0,0,1,2.4,1Z"/><path class="cls-1" d="M67.82,45.9l.05.2L67.76,46Z"/><path class="cls-1" d="M71.52,50.59a2.67,2.67,0,0,0-1.62-.24c-.39.08-.53-.29-.66-.72a2.8,2.8,0,0,1,2.36.87Z"/><path class="cls-1" d="M71.79,50.76l-.27-.17.08-.09.22.23Z"/><path class="cls-1" d="M71.82,50.73l.06.09-.09-.06Z"/><path class="cls-1" d="M75,51.9A2.48,2.48,0,0,0,73.5,51c-.06,0-.12-.14-.15-.23s-.09-.35-.13-.53l.06-.06a2.82,2.82,0,0,1,1.78,1.69Z"/><path class="cls-1" d="M75.22,52.19l0,.06a.16.16,0,0,1,0-.09,0,0,0,0,1,0,0Z"/><path class="cls-1" d="M73.22,50.2l-.07-.07h.13Z"/><path class="cls-1" d="M75.06,51.83l0,.14L75,51.9Z"/><path class="cls-1" d="M92.06,66v9.85H78V66Z"/><path class="cls-1" d="M48.27,100.11c-.78.13-1.51.25-2.23.4a.43.43,0,0,1-.53-.25c-.25-.43-.53-.85-.79-1.29a.39.39,0,0,0-.49-.22c-1.16.22-2.31.42-3.49.62a.46.46,0,0,0-.41.43c-.08.47-.22.94-.3,1.41a.44.44,0,0,1-.4.43c-1.6.34-3.2.7-4.8,1.07a.53.53,0,0,1-.53-.17c-.8-.76-1.61-1.49-2.41-2.25a.62.62,0,0,0-.72-.2c-.51.17-1,.27-1.59.41l.81,3.32-2.37.62c-.25-1-.5-1.92-.71-2.86-.07-.36-.18-.5-.55-.35a7.19,7.19,0,0,1-.8.2l-.57-2.29,1.24-.35-1.31-5.35,2.47-.63c1.11-.27,2.21-.59,3.34-.79a3.62,3.62,0,0,1,4,2.1,3.68,3.68,0,0,1-.93,4.48l-.27.26,3.47,3,2.25-9.45-2.28.39L37,90.62l1.84-.34,2.45-.45a.52.52,0,0,1,.65.23c2.08,3.29,4.19,6.57,6.28,9.85A1.24,1.24,0,0,1,48.27,100.11Zm-22,.72c.28-.07.53-.11.77-.19s.5,0,.57.34c.18.83.42,1.64.6,2.46.06.32.21.39.5.31l1-.28c-.24-1-.46-2-.7-2.88-.1-.36,0-.47.32-.54.57-.13,1.15-.27,1.71-.44a.88.88,0,0,1,1,.26c.72.72,1.48,1.41,2.23,2.09a.74.74,0,0,0,.53.21c.51-.08,1-.24,1.59-.39l-3.38-3c.2-.13.36-.23.5-.34A3.17,3.17,0,0,0,35,95.38a3.31,3.31,0,0,0-3.65-2.94,2.77,2.77,0,0,0-.5.1c-1.53.35-3,.78-4.56,1.14-.35.09-.38.22-.3.54.35,1.34.66,2.69,1,4,.21.86.22.87-.65,1.11-.27.08-.36.21-.29.47s.17.65.27,1Zm14-9c-.76,3.22-1.51,6.37-2.28,9.59l1.21-.19a.45.45,0,0,0,.42-.42c.09-.47.19-.94.29-1.41a.46.46,0,0,1,.41-.46l4-.71a.57.57,0,0,1,.7.35,13.15,13.15,0,0,0,.74,1.19.45.45,0,0,0,.33.22c.43-.06.85-.16,1.33-.25a4.16,4.16,0,0,0-.24-.47q-2.78-4.32-5.5-8.63a.54.54,0,0,0-.63-.29l-2.72.47c-.91.15-.84.17-.7,1,0,.33.15.41.46.34l2.15-.37Z"/><path class="cls-1" d="M58.92,92.05l2.23-.14,1.76-.14c.2,0,.35,0,.36.27a15.79,15.79,0,0,0,.11,1.68c0,.36-.12.43-.43.47-1.14.06-2.28.15-3.42.23-.46,0-.46,0-.42.52s.06.9.07,1.35.14.4.46.37l5.24-.38.58,0c.06.71.1,1.41.16,2.08,0,.33-.2.31-.39.32l-3.75.27-4.5.31c-.11-1.53-.22-3-.33-4.56H55.38c-.05-.7-.11-1.4-.14-2.11,0-.08.16-.21.26-.23.31-.08.75,0,.93-.2s0-.6,0-.93c-.07-1.09-.15-2.17-.23-3.29l8.65-.61c.06.74.11,1.41.16,2.1,0,.29-.14.29-.34.3L59.76,90c-.92.06-.92,0-.89,1A9.44,9.44,0,0,0,58.92,92.05Zm5.44-4.25c-2.46.18-4.87.36-7.28.51-.33,0-.39.14-.37.44.09,1.06.17,2.13.23,3.19,0,.9.09.75-.7.78-.52,0-.52,0-.5.53,0,.91,0,.94.92.85.32,0,.4.07.42.39.08,1.23.18,2.46.28,3.69,0,.54,0,.53.59.49l6.22-.44c.9-.06.93-.06.86-.94,0-.53,0-.54-.58-.51-1.76.12-3.53.23-5.29.36-.23,0-.4,0-.42-.25l-.15-2.58c0-.22.06-.33.31-.35,1-.06,2-.15,3-.21,1.17-.07,1,.07,1-1.06,0-.37-.14-.44-.46-.41-1.16.1-2.3.15-3.47.27-.36,0-.46-.08-.46-.4,0-.58-.08-1.16-.12-1.74-.05-.79-.05-.77.75-.82l5.12-.35c.25,0,.33-.1.3-.34s-.08-.71-.12-1.1Z"/><path class="cls-1" d="M69.6,98.35c-.73,0-1.38.05-2,.1-.32,0-.41-.09-.41-.4,0-1.33-.08-2.66-.12-4l-.24-6.62v-.85l7.1,6.59c-.07-2.15-.14-4.22-.21-6.34h2.44c.14,3.86.27,7.77.41,11.83L73,95.37,69.4,92.06C69.48,94.24,69.54,96.26,69.6,98.35ZM68.94,91l7,6.48.11-.08c0-.56-.08-1.12-.1-1.68-.08-2.47-.17-4.94-.24-7.41,0-1,0-1-1-.94-.53,0-.54,0-.52.53.06,2,.14,4.08.21,6.09a1.49,1.49,0,0,1-.09.3l-7-6.47a3.13,3.13,0,0,0,0,.81c.08,2.71.16,5.43.26,8.14,0,1.47-.28,1.16,1.25,1.17.21,0,.3-.07.29-.29,0-.38-.06-.75-.07-1.12,0-1-.09-2.06-.11-3.09,0-.76,0-1.54,0-2.43Z"/><path class="cls-1" d="M87.14,88.65l-1.82,1.59c-.33-.28-.63-.56-1-.79a3.4,3.4,0,0,0-2.9-.51,1.54,1.54,0,0,0-.46.19,1,1,0,0,0-.59,1,.79.79,0,0,0,.7.7c.72.17,1.44.28,2.16.44a12,12,0,0,1,1.85.42,3.12,3.12,0,0,1,1.21,5.21,4.78,4.78,0,0,1-2.81,1.44,6.44,6.44,0,0,1-6.07-2.1.91.91,0,0,1-.11-.16l1.85-1.63.37.35A3.9,3.9,0,0,0,83.25,96a2.72,2.72,0,0,0,1-.47.86.86,0,0,0,.3-1.15.89.89,0,0,0-.52-.39c-.82-.26-1.68-.37-2.53-.56a16.6,16.6,0,0,1-1.81-.47A3,3,0,0,1,79,87.81,5.61,5.61,0,0,1,83,86.67,5.82,5.82,0,0,1,87.14,88.65Zm-.68,0-.49-.4a5.51,5.51,0,0,0-3.1-1.06,5.12,5.12,0,0,0-3.58,1A2.49,2.49,0,0,0,80,92.49a14.15,14.15,0,0,0,1.81.47c.79.18,1.6.27,2.37.51a1.26,1.26,0,0,1,1,1.49l0,.16a1.57,1.57,0,0,1-.93,1.06,4,4,0,0,1-2.48.32,4.72,4.72,0,0,1-2.26-1.11c-.1-.09-.33-.17-.4-.12-.35.27-.66.57-1,.89a6.08,6.08,0,0,0,5.46,1.69,4.42,4.42,0,0,0,2.15-1,2.9,2.9,0,0,0,1.09-2.82,2.42,2.42,0,0,0-2.06-2c-.8-.2-1.63-.28-2.43-.47a8.68,8.68,0,0,1-1.73-.54,1.09,1.09,0,0,1-.5-1.41,1.75,1.75,0,0,1,1.31-1.17,4,4,0,0,1,3.23.47c.29.19.59.55.85.52s.54-.41.81-.64Z"/><path class="cls-1" d="M98.88,89.77,96.8,91.18A3.33,3.33,0,0,0,94,89.36a3.29,3.29,0,0,0-2.47.93,3.5,3.5,0,0,0-.24,4.89l0,0c1.49,1.6,3.46,1.5,5.35-.28l1.87,1.54a5.82,5.82,0,0,1-3.32,2.11,6,6,0,0,1-6.59-2.78,5.94,5.94,0,0,1,2.11-8,5.62,5.62,0,0,1,1.8-.68A6,6,0,0,1,98.88,89.77Zm-1.07,6.78c-.3-.25-.58-.47-.83-.7s-.34-.15-.55,0a3.86,3.86,0,0,1-5.52-.3,4,4,0,0,1,.29-5.61,4,4,0,0,1,1-.66,3.62,3.62,0,0,1,4.1.47c.26.21.51.63.75.61s.62-.36.93-.57l.21-.18a5.47,5.47,0,0,0-5.88-2,5.43,5.43,0,0,0-.63,10.24,5.55,5.55,0,0,0,6.16-1.33Z"/><path class="cls-1" d="M126.16,95.83l4.22,1c-.16.71-.31,1.4-.47,2.08,0,.22-.17.22-.37.17l-3.38-.81c-.53-.12-.53-.12-.65.41-.27,1.18-.55,2.37-.81,3.55-.06.31-.14.47-.5.34a13,13,0,0,0-1.61-.38c-.34,0-.37-.18-.3-.47.3-1.23.57-2.47.85-3.71,0-.11,0-.22.07-.39L122,97.31c.17-.77.35-1.52.53-2.31.32.08.6.13.88.21s.39,0,.46-.3c.25-1.16.52-2.34.79-3.49a3.58,3.58,0,0,1,.11-.35l4.41,1c1.22.29,2.44.59,3.66.86.28.06.37.14.29.44-.15.52-.27,1-.37,1.58-.05.34-.18.39-.46.31l-4.36-1c-.36-.08-.71-.19-1.07-.24a.37.37,0,0,0-.31.18C126.4,94.71,126.29,95.26,126.16,95.83Zm6.44-2.4-.25-.11-6.83-1.6c-.36-.09-.46,0-.55.38-.21.94-.43,1.88-.65,2.84s-.2.87-1.07.7c-.28,0-.42,0-.46.3s-.21.67-.11.94.5.21.78.28.34.22.27.47-.18.76-.26,1.14c-.2.84-.4,1.68-.58,2.51,0,.22-.13.47.2.53l1.16.26c.29-1.3.57-2.57.87-3.84.15-.66.15-.65.82-.49l3.55.83c.09-.38.17-.7.24-1s0-.39-.31-.47c-1.13-.24-2.25-.53-3.39-.78-.33-.07-.46-.22-.36-.57.16-.62.29-1.24.43-1.88s.13-.54.65-.41c1.74.4,3.48.79,5.21,1.21.26.07.38,0,.43-.24S132.52,93.79,132.6,93.43Z"/><path class="cls-1" d="M106.66,95.69c.77,1.4,1.52,2.79,2.3,4.25-1-.12-2-.21-2.91-.34-.12,0-.24-.2-.32-.34-.5-.93-1-1.91-1.47-2.88a.73.73,0,0,0-.67-.47,9.15,9.15,0,0,1-1.16-.13c-.32-.06-.46,0-.49.38-.06.86-.18,1.72-.24,2.57,0,.37-.15.44-.46.39-.63-.09-1.28-.15-2-.23L99.41,97a8.39,8.39,0,0,1,.13-1.11c.08-.39-.1-.44-.4-.47-.81-.09-.81-.1-.75-.94a.89.89,0,0,1,0-.28c.06-.4.12-.8.19-1.21l1.21.07.57-5.42a4.86,4.86,0,0,1,.54,0c1.71.18,3.42.32,5.12.57a3.56,3.56,0,0,1,3.07,2.41,3.75,3.75,0,0,1-.64,3.89A4.17,4.17,0,0,1,106.66,95.69Zm-.73-.33c.28-.07.46-.11.67-.18a3.11,3.11,0,0,0,2.2-2.31,3.35,3.35,0,0,0-2.94-4.18c-1.46-.2-2.93-.33-4.4-.47-.65-.06-.65,0-.73.6V89c-.15,1.41-.3,2.81-.43,4.22,0,.31-.12.45-.43.39a1.29,1.29,0,0,1-.39,0c-.5-.08-.5-.08-.54.43,0,.29-.17.67,0,.81s.52.15.8.17a.36.36,0,0,1,.36.47c-.07.64-.11,1.27-.2,1.9-.14,1.07-.07,1.15,1,1.22.33,0,.46-.07.46-.42.06-.85.16-1.71.26-2.57,0-.18,0-.42.33-.37.68.09,1.36.15,2,.21a.75.75,0,0,1,.66.47c.47.94.93,1.88,1.43,2.82.09.17.24.39.39.41.52.11,1.07.15,1.7.22C107.35,98,106.67,96.71,105.93,95.36Z"/><path class="cls-1" d="M45.19,89.21c.86-.11,1.63-.2,2.39-.31.28,0,.34.15.43.33.89,1.64,1.77,3.27,2.67,4.9.08.15.18.3.33.56.31-1.17.59-2.22.86-3.28s.48-1.85.7-2.77a.5.5,0,0,1,.52-.45c.71,0,1.42-.16,2.23-.26-1.22,4.17-2.41,8.27-3.63,12.48C49.5,96.66,47.37,93,45.19,89.21Zm6.26,9.85.14,0c1-3.47,2-6.94,3-10.5a8.84,8.84,0,0,1-1.14.13c-.34,0-.46.12-.55.47-.43,1.73-.89,3.46-1.35,5.19-.14.55-.3,1.09-.46,1.71-.15-.26-.26-.44-.35-.62-1-1.88-2-3.75-3-5.63-.14-.26-.28-.4-.59-.34s-.76.1-1.2.15Z"/><path class="cls-1" d="M133.19,105c.92-2.86,1.81-5.66,2.72-8.51l-3-1c.24-.76.46-1.5.72-2.27L142,95.93c-.23.7-.46,1.4-.67,2.07-.08.26-.26.14-.4.09l-2.63-.88c-.26.83-.52,1.64-.78,2.45-.61,1.87-1.22,3.75-1.81,5.65-.11.37-.25.41-.58.29C134.48,105.38,133.86,105.19,133.19,105Zm8.17-8.71-.53-.18-6-2c-.92-.3-.89-.3-1.19.65-.11.33,0,.47.28.56.71.21,1.39.47,2.1.68.47.16.47.16.32.65-.72,2.26-1.45,4.51-2.17,6.77-.12.41-.22.82-.33,1.23l1.24.47a.26.26,0,0,0,.13,0l.81-2.54c.6-1.85,1.19-3.69,1.77-5.54.09-.27.19-.36.46-.25.47.17.93.32,1.42.47s.8.22,1.21.32c.17-.42.31-.82.48-1.27Z"/><path class="cls-1" d="M115.29,89.22a6,6,0,0,1,5.76,4.09,5.92,5.92,0,0,1-3.73,7.42,6.12,6.12,0,0,1-7.27-2.89,5.91,5.91,0,0,1,2.37-7.93A5.64,5.64,0,0,1,115.29,89.22Zm.14,11.34c.43-.06.88-.1,1.31-.18a5.39,5.39,0,0,0,4-6.46,5.46,5.46,0,0,0-.53-1.41,5.85,5.85,0,0,0-5.86-2.75A5.4,5.4,0,0,0,109.94,96a4.75,4.75,0,0,0,.14.63,5.55,5.55,0,0,0,5.36,4Z"/><path class="cls-2" d="M26.32,100.83c-.1-.35-.18-.67-.27-1s0-.4.29-.47c.87-.24.86-.25.65-1.11-.34-1.35-.65-2.69-1-4-.08-.32,0-.47.3-.54,1.52-.36,3-.79,4.56-1.14a3.3,3.3,0,0,1,4.06,2.33,4.54,4.54,0,0,1,.09.51,3.1,3.1,0,0,1-1.38,3.06c-.14.11-.3.21-.5.34l3.38,3c-.58.15-1.08.31-1.59.39a.74.74,0,0,1-.53-.21c-.75-.69-1.51-1.37-2.23-2.09a.88.88,0,0,0-1-.26c-.56.17-1.14.3-1.71.44-.31.07-.42.18-.32.54.25.93.46,1.87.7,2.88l-1,.28c-.29.08-.44,0-.5-.31-.18-.82-.42-1.64-.6-2.46-.07-.37-.24-.46-.57-.34S26.6,100.76,26.32,100.83Zm7.22-4.78a2,2,0,0,0-2.3-2.1c-1.11.19-2.19.52-3.28.77-.21,0-.28.14-.22.35.28,1.14.58,2.28.85,3.42.06.25.16.29.39.23,1-.27,2-.47,2.94-.75a2.47,2.47,0,0,0,.66-.3,1.84,1.84,0,0,0,1-1.62Z"/><path class="cls-2" d="M40.28,91.84c-.78.14-1.47.25-2.15.39-.31.07-.41,0-.46-.34-.14-.87-.16-.88.7-1s1.81-.33,2.72-.47a.52.52,0,0,1,.63.28q2.73,4.34,5.5,8.64a3.45,3.45,0,0,1,.24.47c-.46.09-.92.19-1.33.24a.44.44,0,0,1-.33-.21c-.26-.39-.51-.78-.74-1.19a.56.56,0,0,0-.7-.35l-4,.7a.47.47,0,0,0-.41.47c-.1.47-.2.94-.29,1.41a.46.46,0,0,1-.42.42l-1.21.19C38.77,98.21,39.52,95.07,40.28,91.84Zm1.09.74c-.36,1.72-.7,3.33-1.07,5L44.07,97Z"/><path class="cls-2" d="M64.36,87.8c0,.39.08.75.12,1.1s0,.33-.3.34l-5.13.34c-.79,0-.8,0-.74.83,0,.58.08,1.16.12,1.73,0,.33.11.44.46.41,1.15-.13,2.31-.18,3.47-.27.32,0,.46,0,.46.41,0,1.13.22,1-1,1.06-1,.06-2,.15-3,.21-.25,0-.32.12-.3.35l.15,2.58c0,.3.18.27.42.25,1.76-.13,3.53-.25,5.29-.36.55,0,.55,0,.58.51,0,.88,0,.88-.86.93l-6.23.45c-.54,0-.54,0-.58-.49-.11-1.24-.21-2.47-.28-3.7,0-.31-.11-.41-.43-.39-.92.08-.92.07-.92-.84,0-.51,0-.51.5-.53.79,0,.74.12.7-.78,0-1.07-.14-2.13-.22-3.2,0-.3,0-.41.37-.43C59.49,88.16,61.9,88,64.36,87.8Z"/><path class="cls-2" d="M69,91v2.45c0,1,.07,2.06.11,3.08,0,.38,0,.75.06,1.12s-.07.3-.28.3c-1.53,0-1.2.3-1.25-1.18-.1-2.71-.18-5.42-.27-8.14a3.14,3.14,0,0,1,0-.81l7,6.48a1.71,1.71,0,0,0,.09-.3c-.07-2-.15-4.08-.21-6.1,0-.52,0-.52.52-.52,1,0,.93,0,1,.93q.11,3.7.24,7.41c0,.56.06,1.12.09,1.68l-.1.08Z"/><path class="cls-2" d="M86.45,88.62l-.26.22c-.27.23-.52.61-.81.64s-.56-.33-.85-.51a3.92,3.92,0,0,0-3.23-.47A1.71,1.71,0,0,0,80,89.67a1.07,1.07,0,0,0,.5,1.4,7.47,7.47,0,0,0,1.72.54c.81.19,1.64.27,2.44.47a2.43,2.43,0,0,1,2,2,2.86,2.86,0,0,1-1.08,2.81,4.46,4.46,0,0,1-2.16,1A6.07,6.07,0,0,1,78,96.16c.35-.32.67-.62,1-.89.07,0,.31,0,.41.12a4.72,4.72,0,0,0,2.26,1.11,4,4,0,0,0,2.48-.32,1.53,1.53,0,0,0,.92-1.06,1.26,1.26,0,0,0-.76-1.61l-.16,0c-.77-.24-1.58-.33-2.37-.51A14.3,14.3,0,0,1,80,92.49a2.49,2.49,0,0,1-.66-4.33,5.12,5.12,0,0,1,3.58-1A5.48,5.48,0,0,1,86,88.22Z"/><path class="cls-2" d="M97.81,96.55a5.51,5.51,0,0,1-6.16,1.31,5.4,5.4,0,0,1,.63-10.2,5.45,5.45,0,0,1,5.88,2l-.21.17c-.31.21-.61.56-.93.58s-.49-.41-.75-.62a3.86,3.86,0,0,0-5.47.61A4,4,0,0,0,90,92.76a3.94,3.94,0,0,0,3.79,4.08,3.87,3.87,0,0,0,2.67-1c.2-.17.33-.23.55,0A9.7,9.7,0,0,0,97.81,96.55Z"/><path class="cls-2" d="M132.6,93.43c-.08.36-.16.69-.22,1s-.16.31-.42.25c-1.74-.42-3.48-.82-5.22-1.22-.51-.12-.52-.13-.64.42s-.27,1.24-.43,1.87c-.1.36,0,.5.36.57,1.13.26,2.25.54,3.39.78.29.06.38.18.31.47s-.15.65-.24,1l-3.55-.83c-.67-.16-.68-.17-.83.49-.29,1.27-.57,2.54-.86,3.84l-1.17-.25c-.33-.07-.24-.32-.2-.53.19-.84.39-1.68.58-2.52.09-.38.17-.76.27-1.14s0-.42-.28-.47-.7-.11-.78-.28.06-.61.11-.94.19-.34.46-.29c.87.16.88.15,1.08-.71s.46-1.87.64-2.83c.07-.34.19-.47.56-.39l6.82,1.61A1.25,1.25,0,0,1,132.6,93.43Z"/><path class="cls-2" d="M105.93,95.36c.74,1.35,1.42,2.62,2.17,4-.64-.08-1.18-.11-1.71-.22-.15,0-.3-.25-.38-.42-.49-.94-1-1.85-1.43-2.81a.74.74,0,0,0-.66-.47c-.68-.06-1.36-.13-2-.22-.33,0-.31.19-.34.38-.09.85-.2,1.71-.26,2.57,0,.34-.13.43-.46.41-1-.06-1.1-.15-1-1.22.08-.62.12-1.26.2-1.89,0-.3,0-.47-.36-.47s-.66,0-.81-.18,0-.52,0-.8c0-.52,0-.51.54-.44a1.23,1.23,0,0,1,.38,0c.32.06.4-.08.43-.39.13-1.4.29-2.81.44-4.22v-.16c.07-.65.08-.67.73-.6,1.47.14,2.94.27,4.4.46a3.34,3.34,0,0,1,2.93,4.19,3.08,3.08,0,0,1-2.2,2.3Zm-4.15-1.56c.28,0,.54.08.79.1.93.09,1.85.23,2.8.26a1.91,1.91,0,0,0,2-1.7,1.94,1.94,0,0,0-1.58-2.32,11.55,11.55,0,0,0-1.2-.18l-2.42-.24-.42,3.93a.77.77,0,0,0,0,.15Z"/><path class="cls-2" d="M51.45,99.06,46,89.6c.44-.06.82-.08,1.2-.15s.46.08.59.34c1,1.88,2,3.75,3,5.63.09.18.2.36.35.62.17-.63.32-1.16.46-1.71.46-1.73.92-3.46,1.33-5.2.09-.34.22-.47.56-.47a10.56,10.56,0,0,0,1.13-.13L51.58,99Z"/><path class="cls-2" d="M141.36,96.26l-.46,1.25-1.21-.33c-.46-.14-.95-.28-1.41-.47-.28-.1-.39,0-.46.26l-1.77,5.54-.81,2.54c-.07,0-.11,0-.14,0l-1.24-.47c.12-.4.21-.82.34-1.22.72-2.26,1.44-4.51,2.17-6.77.15-.47.15-.5-.32-.65-.7-.23-1.39-.47-2.1-.68-.32-.1-.4-.23-.29-.56.31-.94.29-.94,1.2-.65l6,2Z"/><path class="cls-2" d="M115.44,100.56a5.56,5.56,0,0,1-5.35-4,5.42,5.42,0,0,1,3.63-6.7,6.23,6.23,0,0,1,.62-.15,5.84,5.84,0,0,1,5.85,2.75,5.42,5.42,0,0,1-2,7.32,5.31,5.31,0,0,1-1.38.55C116.32,100.46,115.88,100.5,115.44,100.56Zm0-9.43a4,4,0,1,0,3.88,4v-.11A4,4,0,0,0,115.39,91.13Z"/><path class="cls-1" d="M33.54,96.05a1.84,1.84,0,0,1-1,1.62,2.47,2.47,0,0,1-.66.3c-1,.25-2,.46-2.94.75-.23.06-.33,0-.39-.23-.27-1.14-.57-2.28-.85-3.42-.06-.21,0-.3.22-.35,1.09-.25,2.17-.58,3.28-.77A2,2,0,0,1,33.54,96.05Zm-5.28-.91c.18.77.37,1.48.54,2.21s.21.86,1.06.64c.69-.17,1.38-.32,2.07-.55A1.54,1.54,0,0,0,33,95.58a1.5,1.5,0,0,0-.27-.57A1.52,1.52,0,0,0,31,94.46C30.09,94.66,29.21,94.9,28.26,95.14Z"/><path class="cls-1" d="M41.37,92.58,44.07,97l-3.77.67C40.67,95.91,41,94.3,41.37,92.58Zm1.91,4-1.7-2.74L40.91,97Z"/><path class="cls-1" d="M101.77,93.8a.4.4,0,0,1,0-.15l.42-3.93,2.42.24a11.55,11.55,0,0,1,1.2.18,1.94,1.94,0,0,1,1.58,2.32,1.91,1.91,0,0,1-2,1.7c-.92,0-1.84-.17-2.8-.26C102.31,93.88,102.06,93.84,101.77,93.8Zm.46-.42c1.06.11,2,.24,3,.29a1.55,1.55,0,0,0,.35-3.07c-1-.16-2-.24-3-.37-.09,1.09-.2,2.08-.32,3.15Z"/><path class="cls-1" d="M115.39,91.13a4,4,0,1,1-3.77,3.77A4,4,0,0,1,115.39,91.13Zm3.39,4a3.42,3.42,0,1,0-3.46,3.51A3.5,3.5,0,0,0,118.78,95.12Z"/><path class="cls-4" d="M28.26,95.14c.95-.24,1.84-.47,2.73-.68a1.52,1.52,0,0,1,1.77.55,1.55,1.55,0,0,1-.27,2.15,1.73,1.73,0,0,1-.56.28c-.68.23-1.39.38-2.07.55-.85.22-.84.22-1.06-.64S28.44,95.91,28.26,95.14Z"/><path class="cls-4" d="M43.29,96.61,40.92,97l.68-3.15Z"/><path class="cls-4" d="M102.25,93.38c.11-1.07.23-2.08.34-3.15,1,.13,2,.21,3,.37a1.55,1.55,0,0,1-.35,3.07C104.29,93.62,103.29,93.49,102.25,93.38Z"/><path class="cls-4" d="M118.78,95.12a3.42,3.42,0,1,1-3.37-3.52A3.52,3.52,0,0,1,118.78,95.12Z"/></svg>