<svg id="Capa_1" data-name="Capa 1" xmlns="http://www.w3.org/2000/svg" viewBox="0 0 360.42 331.19"><defs><style>.cls-1{fill:#00552c;}</style></defs><title>ravenGreen</title><path class="cls-1" d="M358.84,150.67c2.6-11.58,1.22-22.53-.12-33.12-1.15-9-2.23-17.58-.59-25.51,3.87-18.79-8.13-39.42-19-55.3C327,19,313.83,16.52,296.59,14.91c-.93-.09-1.88-.13-2.83-.13-11.57,0-21.23,6.47-26.42,10a19.88,19.88,0,0,1-3.15,1.91,33.57,33.57,0,0,1-4.07.18,116.79,116.79,0,0,0-24,2.38c-10,2.13-18,7.21-17.82,11.32,0,1.56,1.19,3.56,6.29,4.28,10.7,1.49,20.15,4.39,27.75,6.72,1.5.46,2.91.89,4.22,1.27,8.22,2.43,15.81,5.74,18.41,19.49,1.81,9.56-14.62,20.52-29.12,30.2-6,4-11.69,7.8-16.27,11.52-16,13-46.37,39.24-56.12,48.47-9.24,8.75-86.92,62-107.8,72.2-21.34,10.41-42.13,26.72-47.34,37.14-1.17,2.34-1.42,3.82-.81,4.8a2.07,2.07,0,0,0,1.91.94,12.88,12.88,0,0,0,4.66-1.49,1.54,1.54,0,0,0,.12.58c.46,1.12,2,1.26,3.2,1.26,3.42,0,10.53-1.4,19.2-3.77-3.12,2.3-9.3,6.26-14.92,9.87C9.49,298.26-.38,305.18-.1,308.53c.15,1.86,1.38,4.07,6.34,4.07A51.18,51.18,0,0,0,16,311.19c1.55-.33,2.89-.61,3.82-.72A25.58,25.58,0,0,1,18,313.26c-2,2.81-4,5.7-2.59,7.54a2.76,2.76,0,0,0,2.29.82c3.29,0,10.3-2.44,17.09-4.8A117,117,0,0,1,47,313c4.22-.85,24.69-11.45,44.48-21.7,14.77-7.64,31.5-16.31,33.3-16.51,3.51,0,31.84-2.06,49.71-7.17a46,46,0,0,1,12.65-1.72c10.72,0,21.07,3.34,29.93,6.65-.05,2.15-.11,4.8-.16,8-.15,8.91-.22,18.13-.2,20.57,0,3.4,6.46,9.41,15.53,17.52,3.74,3.34,8.32,7.44,9.16,8.91-1.52,1-3.85,1-6.74,1-5.05.06-12,.15-19.15,5.62-4.18,3.19-6.94,7.74-7.57,10a1.5,1.5,0,0,0,.16,1.34,1.12,1.12,0,0,0,.9.45,1.59,1.59,0,0,0,.93-.34l.74-.53c2.34-1.68,7.82-5.61,10.76-6.73a27.1,27.1,0,0,1,10.1-2.13c4.18,0,9.13,1.08,16.8,3.07a49.57,49.57,0,0,0,12.26,1.8,37.83,37.83,0,0,0,11.52-2,49,49,0,0,1,15.38-2.45c1.3,0,2.67.05,4.07.13,7.65.48,14.5,4.47,17.8,6.38,1.42.82,1.84,1.07,2.31,1.07l.7,0,.27-.59c.35-.77-.09-1.26-2.18-3.61a32.58,32.58,0,0,0-10-7.95c1.95-.38,3.74-.9,5.59-1.44a49.06,49.06,0,0,1,15.38-2.44c1.29,0,2.66,0,4.06.13,7.65.48,14.51,4.46,17.8,6.37,1.42.83,1.85,1.08,2.31,1.08l.71,0,.26-.59c.35-.77-.09-1.26-2.18-3.62-7.44-8.38-13.89-9.93-20.38-10.88-2.55-.37-4.48-1.22-4.69-2.08-.17-.7.78-1.88,2.54-3.16a15.86,15.86,0,0,1,9.33-3.43c5.44,0,8.82,3.57,9.19,4.93a1,1,0,0,0,2,0,9.11,9.11,0,0,0-4.48-8.81c-2.21-1.19-5.64-1.84-9.64-1.84-9.46,0-19.74,3.33-28.22,9a29.27,29.27,0,0,0-5.72-.52c-.59,0-1.17,0-1.76,0-7.24-5.79-20-19.26-20.72-23.84-.48-3-.76-12.57-.76-21.8V269c6-3,12.09-6.5,19.15-10.66C325.61,237.55,354.05,172.06,358.84,150.67ZM250.71,279.05c-.08,6.32-.11,11.82-.1,13.62,0,3.41,6.46,9.41,15.54,17.53,3.53,3.15,7.81,7,9,8.64-.79.34-1.58.69-2.36,1.07a35,35,0,0,1-4.21.21,35.81,35.81,0,0,0-11.72,1.61c-7.35-6.35-18.12-18.12-18.79-22.34-.37-2.29-.5-8.33-.58-15.14C240.39,283.25,244.74,281.66,250.71,279.05Z" transform="translate(0.11 -14.78)"/></svg>