<svg id="Capa_1" data-name="Capa 1" xmlns="http://www.w3.org/2000/svg" viewBox="0 0 360.25 331.45"><defs><style>.cls-1{stroke:#00552c;stroke-miterlimit:10;stroke-width:5px;}</style></defs><title>ravenGreenOutline</title><path class="cls-1" d="M356.43,154.61c2.56-11.42,1.2-22.21-.12-32.64-1.13-8.92-2.19-17.33-.59-25.15,3.82-18.53-8-38.86-18.74-54.51-12-17.45-24.92-19.93-41.91-21.52-.92-.09-1.86-.13-2.79-.13-11.4,0-20.92,6.38-26,9.81a19.89,19.89,0,0,1-3.1,1.89,31.41,31.41,0,0,1-4,.17,115.74,115.74,0,0,0-23.63,2.34C225.66,37,217.78,42,217.93,46c0,1.53,1.17,3.51,6.21,4.21,10.54,1.47,19.86,4.33,27.34,6.62,1.48.46,2.87.88,4.16,1.26,8.1,2.39,15.59,5.66,18.15,19.21,1.78,9.42-14.41,20.23-28.7,29.77-5.93,4-11.53,7.69-16,11.35-15.73,12.78-45.71,38.68-55.31,47.78-9.11,8.62-85.68,61.12-106.26,71.16C46.45,247.66,26,263.74,20.82,274c-1.16,2.31-1.4,3.77-.81,4.73a2.09,2.09,0,0,0,1.89.93,12.68,12.68,0,0,0,4.6-1.47,1.51,1.51,0,0,0,.11.57c.46,1.1,1.93,1.24,3.16,1.24,3.36,0,10.37-1.38,18.92-3.72-3.07,2.27-9.16,6.18-14.7,9.73C12.08,300.08,2.35,306.91,2.63,310.21c.15,1.82,1.36,4,6.25,4a50.51,50.51,0,0,0,9.61-1.39c1.53-.32,2.85-.6,3.77-.7a26,26,0,0,1-1.8,2.75c-2,2.76-4,5.62-2.55,7.43a2.74,2.74,0,0,0,2.26.8c3.24,0,10.15-2.4,16.84-4.72a113.37,113.37,0,0,1,12-3.77c4.16-.83,24.33-11.28,43.84-21.38,14.55-7.54,31.05-16.08,32.83-16.28,3.45,0,31.38-2,49-7.07a45.47,45.47,0,0,1,12.47-1.69c10.57,0,20.76,3.28,29.5,6.55-.05,2.12-.11,4.73-.16,7.93-.15,8.78-.22,17.87-.19,20.27,0,3.35,6.36,9.28,15.31,17.27,3.68,3.29,8.2,7.33,9,8.79-1.49.93-3.79,1-6.64,1-5,.06-11.8.14-18.87,5.54-4.12,3.14-6.85,7.63-7.47,9.82a1.52,1.52,0,0,0,.15,1.32,1.15,1.15,0,0,0,.9.43,1.62,1.62,0,0,0,.91-.33l.73-.52c2.31-1.65,7.71-5.53,10.61-6.63a26.66,26.66,0,0,1,10-2.1c4.13,0,9,1.06,16.56,3a48.49,48.49,0,0,0,12.08,1.78,37.45,37.45,0,0,0,11.36-2,48.11,48.11,0,0,1,15.17-2.42c1.27,0,2.62.05,4,.13,7.54.47,14.3,4.4,17.54,6.29,1.4.81,1.83,1.05,2.28,1.05l.7,0,.26-.58c.34-.76-.09-1.25-2.15-3.57a32.21,32.21,0,0,0-9.84-7.83c1.91-.38,3.68-.89,5.5-1.42a48.42,48.42,0,0,1,15.16-2.41c1.28,0,2.63,0,4,.13,7.54.47,14.3,4.4,17.54,6.28,1.4.81,1.82,1.06,2.28,1.06l.7,0,.26-.58c.34-.76-.09-1.24-2.15-3.57-7.34-8.26-13.69-9.78-20.09-10.72-2.52-.36-4.42-1.21-4.62-2.05-.17-.69.76-1.85,2.49-3.12a15.7,15.7,0,0,1,9.2-3.37c5.37,0,8.7,3.52,9.07,4.85a1,1,0,0,0,1,.83,1.06,1.06,0,0,0,1-.86,9,9,0,0,0-4.43-8.68c-2.18-1.17-5.55-1.81-9.49-1.81-9.32,0-19.46,3.28-27.82,8.88a28.5,28.5,0,0,0-5.64-.52c-.57,0-1.15,0-1.73,0-7.14-5.7-19.7-19-20.42-23.5-.48-3-.76-12.38-.76-21.48v-.1c5.92-2.94,11.92-6.41,18.88-10.51C323.68,240.24,351.71,175.69,356.43,154.61ZM249.85,281.14c-.08,6.24-.11,11.66-.1,13.44,0,3.35,6.37,9.27,15.31,17.27,3.48,3.11,7.7,6.88,8.86,8.52-.78.33-1.56.68-2.33,1.05a36.06,36.06,0,0,1-4.15.21,35,35,0,0,0-11.55,1.58c-7.25-6.26-17.86-17.86-18.53-22-.36-2.25-.49-8.21-.56-14.92C239.67,285.29,244,283.71,249.85,281.14Z" transform="translate(-0.13 -18.16)"/></svg>