<svg id="Layer_1" data-name="Layer 1" xmlns="http://www.w3.org/2000/svg" viewBox="0 0 317.59 312.63"><defs><style>.cls-1{fill:#fefefe;}.cls-2{fill:#caa635;}.cls-3{fill:#242020;}.cls-4{fill:#02471d;}</style></defs><title>Ravens Athletics Logo</title><path class="cls-1" d="M321.28,316.27H3.68V3.65h317.6ZM24.49,24.18a19.61,19.61,0,0,1-1.76-.92c-1.4-.92-2.76-1.91-4.17-2.81-.42-.27-1.09-.6-1.43-.44-.66.32-.4,1.07-.28,1.68,0,.19.09.38.14.56a30,30,0,0,0,3.17,7C21,30.69,22,31.82,23.73,32a3.09,3.09,0,0,1,.67.22c-.38.11-.6.19-.83.23a5.54,5.54,0,0,1-.81.07,15.2,15.2,0,0,1-7.28-1.4c-.77-.36-1.16-.17-1.07.65a5.27,5.27,0,0,0,.76,2.17,10.71,10.71,0,0,0,5.33,4.21c.29.1.56.22.9.35l-5.08.81c-.69.1-1,.42-.68,1.1A13.88,13.88,0,0,0,17,42.79a10.79,10.79,0,0,0,4.25,2.85l1.4.61L20.26,47c1.08,2.28,3.19,3.18,5.32,4.21l-2.17.41a12.19,12.19,0,0,0,6.65,3.59c-.2.34-.33.56-.46.8-.61,1.15-.55,1.25.74,1.64,2,.61,4.07,1.15,6,2a28.44,28.44,0,0,1,3.39,2,2.44,2.44,0,0,0,1.12.34c2.93-.09,5.86-.21,8.87-.32a1.87,1.87,0,0,1-.79.47c-1.57.56-3.16,1.11-4.73,1.7a5.75,5.75,0,0,0-.85.53,7.36,7.36,0,0,0,.78.6c.4.24.85.41,1.24.65.8.5,1.64,1,1.45,2.16a.5.5,0,0,0,.17.4c.71.44,1.21,1.14,2.15,1.31s2,.41,2.14,1.77c0,.29.69.68,1.08.71.91.08,1.24.46,1.11,1.34v.59c-.08.77.24,1,1,1.17A33,33,0,0,1,58,76a3.53,3.53,0,0,1-4.36,1.86,1.85,1.85,0,0,0-.47,0,70.61,70.61,0,0,1-17-2.11,127.65,127.65,0,0,1-22.59-7.59,2.1,2.1,0,0,0-2.53.34A16.43,16.43,0,0,0,6.2,75.32a7.89,7.89,0,0,0,.6,7.09,1.15,1.15,0,0,1,0,1.62,1.09,1.09,0,0,1-.17.13A5.24,5.24,0,0,0,4.71,89.3a21.86,21.86,0,0,0,1,2.59,1.06,1.06,0,0,0,1.14.77c1.56.08,3.12.17,4.67.27l10.39.79c1,.06,1.95.16,2.93.25a4.47,4.47,0,0,1-1.41.17c-5.42.08-10.85.15-16.28.26-1.15,0-1.13.08-1,1.18a4,4,0,0,1-.11.91c-.18,1.66-.26,3.36.87,4.71a13.22,13.22,0,0,1,1.95,3.4,1.15,1.15,0,0,0,1.34.81c3.41-.38,6.84-.71,10.24-1.08,1.67-.18,3.33-.38,5-.57h0l-3.13,1.16c-3.6,1.27-7.2,2.53-10.75,3.83-1.19.44-1.33,1.37-.31,2.17a4.52,4.52,0,0,0,1.95.86c.81.17,1,.42,1,1.28-.21,3.65,1.33,5.54,4.89,5.87A2.06,2.06,0,0,1,21,120.25a4.22,4.22,0,0,0,5.06,2.35c.7-.2,1,.16,1.31.62,2.51,3.18,5.61,4.06,9.33,2.59.66-.27.85,0,1.15.46A4.24,4.24,0,0,0,43,128.49a12.89,12.89,0,0,0,2-.6c1.82-.7,1.81-.71,2.93,1a5.55,5.55,0,0,0,6,2.67c1.33-.24,2.61-.76,3.91-1.09,1.9-.49,2.74-1.62,3.09-3.61a48.73,48.73,0,0,1,4.43-13.5,22.89,22.89,0,0,1,16-12.49,7.69,7.69,0,0,0,3.52-1.47c.37-.31.63-.27,1,.08.66.66,1.37,1.27,2.09,1.87.18.15.61.33.68.25.53-.54.74,0,1,.26l3.11,2.86.66-1.7.82,1v38.23c0,.82.29,1,1,1H110.6v32.32c0,1.35,0,1.33-1.31,1.53-4,.63-8.1,1.21-12.14,1.95-11.92,2.06-23.75,4.49-35.42,7.69-7.92,2.18-15.77,4.63-23.65,7-1.55.46-1.88,1.19-1.41,2.75a3.38,3.38,0,0,1,.08.34L49,236c.54,1.77,1.26,2.13,3,1.55q11.52-3.75,23.27-6.64c9.78-2.36,19.55-4.24,29.5-5.78,1.91-.29,3.83-.54,5.75-.8v13.43H95.35c-1,0-1,0-1,1V291c0,1,0,1,1,1h87.16c1.05,0,1.06,0,1.06-1.1v-52c0-1.3.08-1.17-1.23-1.17H171.79c-1.44,0-1.28.13-1.28-1.23V221.74c0-1.31-.13-1.22,1.19-1.18,7.11.16,14.21.36,21.31.52a1.39,1.39,0,0,1,1.34.89c1.81,3.76,3.66,7.49,5.5,11.24.71,1.46,1.42,2.93,2.18,4.47-.37,0-.6.07-.82.07h-5.52c-.68,0-.91.21-.84.86a4.09,4.09,0,0,1,0,.7v51.36c0,1.43,0,1.43,1.42,1.43h79.39a2.91,2.91,0,0,1,.59,0c.7.1.88-.26.82-.88V239.15c0-1.63.13-1.39-1.34-1.39H256.26a1.33,1.33,0,0,1-1.42-.86c-1.47-2.94-3-5.87-4.5-8.87-.19-.36-.33-.73-.56-1.24a2.14,2.14,0,0,1,.75.07c4.42.71,8.88,1.32,13.28,2.16q13.56,2.58,27.07,5.38c4.31.9,8.56,2.07,12.84,3.12a1.82,1.82,0,0,0,2.39-.92,3,3,0,0,0,.11-.32l.24-.66L318.38,204c.72-1.89,1.45-3.78,2.13-5.69a1.83,1.83,0,0,0-.8-2.44,2.07,2.07,0,0,0-.42-.14l-.66-.24c-10.13-3.54-20.45-6.43-30.85-9S267,181.78,256.51,180l-5-.88.88-1q3-2.94,6-5.94a1.84,1.84,0,0,0,.66-1.41V132a1.73,1.73,0,0,0-.56-1.33c-1.3-1.24-2.57-2.51-3.85-3.78l-16.89-16.77q-10.26-10.2-20.52-20.43a2.78,2.78,0,0,0-2.14-.88H116.28a14,14,0,0,0,.73-1.45,4.57,4.57,0,0,1,2.27-2.56,8,8,0,0,0,2-1.48c1.48-1.52,2.88-3.1,2.93-5.4a8.16,8.16,0,0,1,.07,1.31,4.35,4.35,0,0,0,3.31,4.41c.72.23,1.11.13,1.41-.64a26.46,26.46,0,0,1,1.6-3.25,4.46,4.46,0,0,1,1-1l.3.27-1.25,2a17.2,17.2,0,0,0,8.27-2.38c2.93.75,5.91,1.38,8.8,2.31a31.84,31.84,0,0,1,5.11,2.51,2.67,2.67,0,0,1,1.31,1.85,2.71,2.71,0,0,0,.47.78c.23-.22.55-.42.68-.7,2.13-4.83,1.69-10.29-2.68-14.34a26.06,26.06,0,0,0-5.86-3.8,22.57,22.57,0,0,0,.56-3.06c.09-1.71,0-1.72-1.57-1.3a1.5,1.5,0,0,1-.3,0,2.85,2.85,0,0,0-.19-.75,27.78,27.78,0,0,0-1-3.44c-.74-1.72-.81-1.68-2.18-.48a2.17,2.17,0,0,1-.41.19,10.31,10.31,0,0,0-4.13-4c-.59-.32-.26-.72.07-1a37.94,37.94,0,0,1,4.59-3.8c2.32-1.4,4.88-2.5,7.31-3.67,2.64-1.28,4.74-3,5.23-6.12a19.55,19.55,0,0,0-.53-7.65c-.23-.92-.37-1-1.12-.3A15,15,0,0,0,149.6,36a9.48,9.48,0,0,1-1,1.58,2.66,2.66,0,0,1-1,.51,3.4,3.4,0,0,1-.39-1,3,3,0,0,1,.16-1A5.7,5.7,0,0,0,146,30.48a19.17,19.17,0,0,0-7.17-4.72c-.13-.06-.29,0-.61,0,1,1.9,2.19,3.54,2.38,5.63-2.38-2.2-5.55-2.3-8.4-3.6a5.48,5.48,0,0,0,1.19,2.72c.6,1.09,1.26,2.14,1.89,3.21h0a2.91,2.91,0,0,1-.51-.22A11.26,11.26,0,0,0,126.52,32a2.49,2.49,0,0,0-.58.31,2.8,2.8,0,0,0,.37.53c.24.19.5.37.76.54a13.42,13.42,0,0,1,3.91,4l-.17.18a9,9,0,0,0-6.62-.33,6.94,6.94,0,0,0-1,.52,7,7,0,0,0,.84.69c.77.47,1.56.9,2.33,1.34-1.31.19-2.54.35-3.75.56a3,3,0,0,0-.85.5c.19.22.38.46.59.67a44.54,44.54,0,0,1,3.19,3.4,6.52,6.52,0,0,1,.91,2.48,1.19,1.19,0,0,1-.91,1.43,13.09,13.09,0,0,0-1.89.9,15.43,15.43,0,0,1-6,1.84,60,60,0,0,0-6.13.91,11.93,11.93,0,0,1-3.21.29,70.09,70.09,0,0,1-15-2.26A3.24,3.24,0,0,1,91,48.27a6.62,6.62,0,0,1-.46-1.69c-.12-1.68-.19-3.35-.2-5a2.09,2.09,0,0,0-.87-1.81c-.77-.59-1.54-1.2-2.25-1.86-1.36-1.27-3-2.26-4-3.91a6.11,6.11,0,0,0-2.59-2.59,4.6,4.6,0,0,1-1.1-.86c-.67-.58-1.31-1.17-2-1.84L77,29.9a9.71,9.71,0,0,1-.34-1c-.46-2.17-1-4.34-1.34-6.52-.12-.66-.34-.85-1-.7-1.55.35-3.1.63-4.69,1a2.88,2.88,0,0,1-.18-.49c-.64-3.22-1.29-6.42-1.87-9.64A5.25,5.25,0,0,0,66.25,10a.6.6,0,0,0-.81-.24.55.55,0,0,0-.17.13c-.77.61-1.6,1.14-2.38,1.72a5.57,5.57,0,0,0-2.37,3.36A13.4,13.4,0,0,1,60,16.45h-.25c-.31-2.85-.62-5.7-.89-8.54-.1-1-.31-1.26-1.2-.8a13.59,13.59,0,0,0-6,5.37c-.53,1-1.15,2-1.72,2.93l-.28-.1c-.15-1.82-.32-3.65-.47-5.48s-.29-3.59-.44-5.48a11.13,11.13,0,0,0-5.86,3.74c-2.19,2.78-2.33,6-1.79,9.41a3.43,3.43,0,0,1-2.22-2.79c-.07-.66-.29-1.29-.39-2a5.38,5.38,0,0,0-1.29-2.93,4.4,4.4,0,0,1-.59-1.35c-.11-.26-.2-.53-.3-.8a6.06,6.06,0,0,0-.78.45,6.46,6.46,0,0,0-2.16,4.05c-.2,1.62-.12,3.26-.23,4.88a2.52,2.52,0,0,0,.74,2c1.72,2.06,3.37,4.19,5,6.3a8.64,8.64,0,0,1,.57.91l-.33.28c0-.14-.06-.33-.16-.43-2.93-2.93-6-6-9-8.93C28.92,16,27.7,15,26.54,13.88c-.5-.48-.92-.51-1.37,0-1,1.14-2,2.21-2.82,3.42-1.08,1.54-1,2.17.17,3.68l2.22,3ZM152.88,315.57V299h-2.6c-1,0-1,0-1,1v4.46c0,.61-.19.82-.8.81-1.76,0-3.52-.06-5.28,0-.81,0-1-.28-1-1v-4.45c0-.59-.13-.87-.79-.81s-1.32,0-2,0c-1,0-1,0-1,1v15.62h2.93c.69,0,.85-.23.83-.87v-5.16c0-1.28-.07-1.1,1.16-1.11h5.86v7.08Zm42.69-13.13v-2.75c0-.65-.24-.77-.81-.76H185c-.63,0-.78.21-.78.81v15.11c0,.63.22.77.8.76h8.44c.8,0,1.95.21,2.32-.21s.12-1.54.19-2.35c0-.61-.16-.82-.78-.8h-4.89c-2.4,0-2.37,0-2.37-2.39,0-.76.2-1,1-1h5.52c.35,0,.72,0,.71-.5v-2.93H188v-3ZM93,315.59h3.36a.89.89,0,0,0,1-.74c.25-.7.55-1.37.79-2.08a.92.92,0,0,1,1-.74h5a.79.79,0,0,1,.86.58c.31.8.62,1.59,1,2.37.11.24.39.54.6.55,1.22.06,2.44,0,3.78,0-.19-.48-.29-.77-.41-1q-2.94-6.84-6-13.68c-.84-1.95-.84-1.89-2.94-1.95a1.24,1.24,0,0,0-1.38.9c-2.08,4.88-4.21,9.77-6.33,14.66a7.37,7.37,0,0,1-.37,1.2Zm174-4.31-2.4,2.64c2.35,2.43,6.58,2.62,9.11,1.41a5.06,5.06,0,0,0,2.93-5.27c-.11-2.1-1.46-3.17-3.26-3.84-.53-.21-1.11-.33-1.67-.52s-1.1-.37-1.63-.61a1.47,1.47,0,0,1-1-1.54,1.59,1.59,0,0,1,1.26-1.37,3.89,3.89,0,0,1,3.84.89l2.48-2.74a8,8,0,0,0-9.49-.44,4.87,4.87,0,0,0-2,4.51,4.11,4.11,0,0,0,2.94,3.63c.86.34,1.76.6,2.64,1a8.2,8.2,0,0,1,1.29.55,1.54,1.54,0,0,1,1,1.49,1.51,1.51,0,0,1-1.24,1.38,3.44,3.44,0,0,1-1.71.16,26.26,26.26,0,0,1-3.17-1.28ZM255.85,301c-2-2.67-6.45-3.14-9.82-1.64s-5.21,5.05-4.69,9.44a8.18,8.18,0,0,0,7,7.06c3.31.64,6.76-.58,7.87-2.84l-2.72-2a14.14,14.14,0,0,1-2.82,1.44c-2.48.6-4.67-1-5.34-3.67-.8-3.17.85-6.15,3.75-6.74a4.27,4.27,0,0,1,4,1.28Zm-140,1.29h3.3c1.62,0,1.46-.2,1.46,1.41v9.84a9.52,9.52,0,0,0,0,1.51.65.65,0,0,0,.43.5h3.22V304.65c0-.73-.21-1.73.18-2.13s1.37-.2,2.11-.21c2.71,0,2.69,0,2.49-2.73,0-.52-.23-.65-.71-.65H116.52c-.48,0-.72.12-.7.65C115.87,300.48,115.87,301.31,115.87,302.33Zm102.25,0v-1.48c0-1.86,0-1.86-2-1.86H205.86c-.78,0-1,.22-1,1v2.42h3.91c.61,0,.8.17.79.79v11.72c0,.38-.09.81.54.79h3.19V302.3ZM164,315.64h8c.81,0,1.61-.07,2.42-.11a21.74,21.74,0,0,1,.1-2.55c0-.61-.22-.71-.74-.7h-5.16c-.73,0-1-.2-1-.93.05-2.65,0-5.31,0-8v-3.75c0-.5-.17-.69-.67-.67a15,15,0,0,1-2.12,0c-.73-.07-1,.19-.91.91v8.44Zm67.21-.05V299.53c0-.5-.27-.56-.67-.55a14.72,14.72,0,0,1-2.1,0c-.85-.08-1,.25-1,1V315.6Z" transform="translate(-3.68 -3.65)"/><path class="cls-2" d="M94.37,104l-.82-1.06-.67,1.7-3.1-2.86c-.29-.26-.5-.79-1-.26-.07.08-.5-.09-.68-.25-.72-.6-1.43-1.21-2.1-1.87-.35-.35-.61-.39-1-.08a7.69,7.69,0,0,1-3.52,1.47,22.92,22.92,0,0,0-16.06,12.49A49,49,0,0,0,61,126.78c-.35,2-1.19,3.12-3.09,3.61-1.31.33-2.59.85-3.91,1.09a5.55,5.55,0,0,1-6-2.67c-1.09-1.65-1.08-1.64-2.93-1a14.11,14.11,0,0,1-2,.61,4.24,4.24,0,0,1-5.13-2.23c-.3-.51-.49-.73-1.15-.46-3.72,1.47-6.84.59-9.33-2.59-.35-.46-.62-.82-1.31-.62a4.2,4.2,0,0,1-5.06-2.35,2.06,2.06,0,0,0-2-1.32c-3.5-.29-5-2.18-4.88-5.86,0-.86-.16-1.12-1-1.28a4.76,4.76,0,0,1-1.95-.86c-1-.81-.88-1.73.31-2.17,3.58-1.31,7.18-2.56,10.75-3.83l3.13-1.17h.61l-.07-.18-.52.24-5,.57c-3.41.37-6.84.7-10.24,1.08A1.15,1.15,0,0,1,9,104.6,13.52,13.52,0,0,0,7,101.2c-1.14-1.35-1-3-.87-4.71a4,4,0,0,0,.11-.91c-.17-1.1-.19-1.16,1-1.18,5.43-.11,10.86-.18,16.28-.26A4.47,4.47,0,0,0,24.9,94c-1-.09-1.95-.19-2.93-.25l-10.39-.79c-1.55-.1-3.12-.19-4.67-.27a1.06,1.06,0,0,1-1.14-.77,21.86,21.86,0,0,1-1-2.59,5.24,5.24,0,0,1,1.87-5.14A1.15,1.15,0,0,0,7,82.58a1.09,1.09,0,0,0-.13-.17,7.9,7.9,0,0,1-.61-7.09,16.54,16.54,0,0,1,4.89-6.84,2.1,2.1,0,0,1,2.53-.34A126.57,126.57,0,0,0,36.2,75.73a70.71,70.71,0,0,0,17,2.11,1.85,1.85,0,0,1,.47,0A3.53,3.53,0,0,0,58.05,76a33,33,0,0,0-3.52-1c-.79-.13-1.11-.4-1-1.17v-.59c.13-.88-.2-1.26-1.11-1.34-.39,0-1-.42-1.08-.71-.13-1.36-1.21-1.6-2.14-1.77S47.73,68.5,47,68.06a.5.5,0,0,1-.17-.4C47,66.48,46.2,66,45.4,65.5c-.39-.24-.84-.41-1.24-.65a7.36,7.36,0,0,1-.78-.6,5.75,5.75,0,0,1,.85-.53c1.57-.59,3.16-1.14,4.73-1.7a1.87,1.87,0,0,0,.79-.47c-2.93.11-5.91.23-8.87.32a2.44,2.44,0,0,1-1.12-.34,28.44,28.44,0,0,0-3.39-2c-1.95-.76-4-1.3-6-2-1.29-.39-1.35-.49-.74-1.64.13-.24.26-.46.46-.8a12.19,12.19,0,0,1-6.65-3.59l2.17-.41c-2.13-1-4.24-2-5.32-4.21l2.36-.72-1.4-.61A10.79,10.79,0,0,1,17,42.79a13.88,13.88,0,0,1-1.33-2.42c-.35-.68,0-1,.68-1.1l5.08-.81c-.34-.13-.61-.25-.9-.35a10.69,10.69,0,0,1-5.3-4.21,5.27,5.27,0,0,1-.76-2.17c-.09-.82.3-1,1.07-.65a15.2,15.2,0,0,0,7.28,1.4,5.54,5.54,0,0,0,.81-.07,3.82,3.82,0,0,0,.83-.23,3.09,3.09,0,0,0-.67-.22c-1.77-.14-2.73-1.27-3.57-2.69a30,30,0,0,1-3.17-7,5.09,5.09,0,0,1-.14-.56c-.12-.61-.38-1.36.28-1.68.34-.16,1,.17,1.43.44,1.41.9,2.77,1.89,4.17,2.81a19.61,19.61,0,0,0,1.76.92l.27.06-.1-.26-2.27-3c-1.15-1.51-1.24-2.14-.17-3.68.84-1.21,1.89-2.28,2.83-3.42.44-.55.87-.52,1.36,0C27.63,15,28.84,16,30,17.16c3,2.93,6,5.95,9,8.93.1.1.11.29.16.43l.33-.28a8.64,8.64,0,0,0-.57-.91c-1.67-2.11-3.32-4.24-5-6.3a2.6,2.6,0,0,1-.74-2c.12-1.63,0-3.27.23-4.88a6.46,6.46,0,0,1,2.16-4,6.06,6.06,0,0,1,.78-.45c.1.27.19.54.3.8a4.4,4.4,0,0,0,.59,1.35,5.38,5.38,0,0,1,1.29,2.93c.1.66.33,1.29.39,2a3.45,3.45,0,0,0,2.22,2.79c-.53-3.41-.4-6.63,1.79-9.41A11.13,11.13,0,0,1,48.7,4.37c.15,1.89.29,3.68.44,5.48s.32,3.66.47,5.47l.28.11c.57-1,1.19-1.95,1.73-2.93a13.49,13.49,0,0,1,6-5.37c.89-.46,1.09-.25,1.19.8.27,2.84.59,5.69.89,8.54H60A10.31,10.31,0,0,0,60.44,15a5.59,5.59,0,0,1,2.38-3.36c.77-.58,1.6-1.11,2.37-1.72A.59.59,0,0,1,66,9.81a.58.58,0,0,1,.14.17,5.31,5.31,0,0,1,1.38,2.52c.57,3.22,1.23,6.42,1.86,9.64a4.09,4.09,0,0,0,.18.49c1.59-.31,3.14-.59,4.69-1,.66-.15.88,0,1,.7.4,2.18.87,4.35,1.33,6.52a9.77,9.77,0,0,0,.35,1l.44-1.21c.73.67,1.37,1.26,2,1.84a4.6,4.6,0,0,0,1.1.86A6.05,6.05,0,0,1,83.11,34c1,1.65,2.64,2.64,4,3.91a29,29,0,0,0,2.26,1.86,2.14,2.14,0,0,1,.87,1.81c0,1.67.07,3.34.19,5a6.62,6.62,0,0,0,.46,1.69,3.26,3.26,0,0,0,2.42,2.23,70.15,70.15,0,0,0,14.9,2.24,11.9,11.9,0,0,0,3.2-.29,60.39,60.39,0,0,1,6.13-.91,15.43,15.43,0,0,0,6-1.84,13.09,13.09,0,0,1,1.89-.9,1.19,1.19,0,0,0,.91-1.43,6.2,6.2,0,0,0-.91-2.48,42.63,42.63,0,0,0-3.19-3.4c-.21-.21-.39-.45-.59-.67a3.17,3.17,0,0,1,.85-.5c1.21-.21,2.45-.37,3.76-.56-.78-.44-1.57-.87-2.34-1.34a7,7,0,0,1-.84-.69,7.06,7.06,0,0,1,1-.52,9,9,0,0,1,6.61.33l.27.06-.1-.24a13.3,13.3,0,0,0-3.91-4q-.39-.26-.75-.54a2.4,2.4,0,0,1-.37-.53,2.42,2.42,0,0,1,.57-.31,11.25,11.25,0,0,1,8.28,1.46,3.38,3.38,0,0,0,.52.22l.19.09-.15-.13c-.64-1.07-1.29-2.12-1.9-3.21a5.48,5.48,0,0,1-1.19-2.72c2.85,1.3,6,1.4,8.4,3.6-.18-2.09-1.44-3.73-2.38-5.63a2.34,2.34,0,0,1,.61,0,19.41,19.41,0,0,1,7.18,4.72,5.72,5.72,0,0,1,1.38,5.64,3,3,0,0,0-.16,1,4.1,4.1,0,0,0,.39,1,2.85,2.85,0,0,0,1-.5,9.94,9.94,0,0,0,1-1.59,15.23,15.23,0,0,1,3.36-4.17c.76-.65.89-.62,1.12.3a19.74,19.74,0,0,1,.54,7.65c-.5,3.12-2.59,4.84-5.24,6.12A80.56,80.56,0,0,0,142,49.57a37,37,0,0,0-4.58,3.79c-.34.29-.67.69-.07,1a10.28,10.28,0,0,1,4.12,4,3,3,0,0,0,.41-.18c1.37-1.21,1.44-1.25,2.18.47a27.07,27.07,0,0,1,1.16,3.5c.08.26.14.52.19.74a.76.76,0,0,0,.3,0c1.59-.42,1.66-.41,1.57,1.3a22.71,22.71,0,0,1-.56,3.07l-1.28-.46A5.26,5.26,0,0,0,146,63.6l-1.72,1a7.1,7.1,0,0,0-1.71-5l-.77,1.72L141,60a11.41,11.41,0,0,0-6.16-4.8A19.9,19.9,0,0,0,128,54.09c-5,0-10.07.19-15.1.26a52.31,52.31,0,0,1-10.75-.72c-1.56-.29-3.1-.64-4.89-1,.79.6,1.43,1,2,1.53,2,1.72,2.14,3.91.29,5.77-.2.2-.37.42-.61.71h1c1.87-.2,3.71-.46,5.58-.61a15.59,15.59,0,0,1,2.55.15c.2,0,.55.2.55.32a1,1,0,0,1-.29.69,9,9,0,0,1-1.16.87c.57.1,1,.14,1.39.25A16,16,0,0,1,111,63c.71.31.77.75.21,1.27a27,27,0,0,1-2.37,1.9c-.58.42-1.19.76-1.79,1.14a1.23,1.23,0,0,0,.76,0c2-.35,4-.72,6-1a2.81,2.81,0,0,1,1.06.27,6.45,6.45,0,0,1-.52.87c-.32.43-.69.83-1.13,1.35,1.12.13,2,.2,2.93.37a1.06,1.06,0,0,1,.68.53c0,.1-.23.46-.43.61a5.35,5.35,0,0,1-1,.59c-.64.31-1.28.58-2,.88a2.27,2.27,0,0,0,.86.08c2.85-.14,5.69-.32,8.52-.38a7.5,7.5,0,0,1,2.52.47c1,.35,1.21,1,.56,1.9a6.91,6.91,0,0,1-1,1c-.28.24-.57.47-.86.7l.06.33,2.14.21c0,2-.66,4.18,1.4,5.79.41-.8.73-1.51,1.13-2.18a5,5,0,0,1,3.34-2.54,1.34,1.34,0,0,1,1.14.26c.19.22,0,.77-.06,1.16a3.68,3.68,0,0,1-.44.8,13.19,13.19,0,0,0,3.16-.73,3.14,3.14,0,0,1,3,.07,17.2,17.2,0,0,1-8.27,2.38l1.24-2-.29-.28a5.05,5.05,0,0,0-1,1A27.15,27.15,0,0,0,129.07,83c-.3.77-.69.87-1.42.64a4.36,4.36,0,0,1-3.3-4.42,8.28,8.28,0,0,0-.07-1.31c-.09,2.31-1.48,3.91-2.93,5.41a8,8,0,0,1-1.95,1.48,4.59,4.59,0,0,0-2.27,2.55,15.29,15.29,0,0,1-.73,1.46,1.68,1.68,0,0,0-.66,2c.22.71.53,1.38.8,2.08a1,1,0,0,0,1.21.67.84.84,0,0,0,.2-.08l2-.58a20.57,20.57,0,0,1,8.32-.85,10.9,10.9,0,0,0,4.72-.17,15,15,0,0,1,8.09-.36,3.47,3.47,0,0,0,.91,0c2.5-.21,5-.32,7.34.87.59.29,1.15.63,1.73,1a22.93,22.93,0,0,1,2.24,3.11,1.73,1.73,0,0,0,1.86,1.11q27.24,0,54.49-.06c2,0,3.7.1,4.89,1.85.12.19.36.3.52.46l19.26,18.33,16.14,15.32a2.42,2.42,0,0,1,.82,1.95V166.1a2.41,2.41,0,0,1-.84,1.89c-3.11,3-6.17,6.1-9.24,9.16a2.57,2.57,0,0,0-.28.37h-.59c-3.67-.47-7.33-1-11-1.4-6.78-.72-13.56-1.43-20.36-2-5.05-.42-10.12-.71-15.18-.91-6.17-.25-12.33-.37-18.5-.48-2.76-.05-5.54,0-8.3.12-6.09.17-12.18.27-18.26.54-4.88.21-9.77.6-14.71,1-2.84.22-5.66.56-8.5.84l-6.62.68v-41c0-1.13,0-1.14-1.15-1.14H104.4c-1.07,0-1.07,0-1.07-1.08v-13a2.27,2.27,0,0,0-.21-1.23,12.94,12.94,0,0,1-2.39-7.1c-.1-2.53-.28-5.09,1.33-7.32a1,1,0,0,0,.12-.86c-.47-.85-1-1.66-1.61-2.55-.77,1-1.56,1.68-1.44,2.84,0,.16-.41.36-.63.54a2.2,2.2,0,0,0-2.72.48c-.1.12-.45.12-.66.08A3.59,3.59,0,0,1,94.37,104Zm55.07-5.71c1,.61,2,1.24,2.94,1.83a4.19,4.19,0,0,0,.91.29c.06-.35.27-.75.16-1-1.26-3.32-3.34-5.86-7-6.6a29.36,29.36,0,0,0-5.22-.1,10.55,10.55,0,0,1-1.13-.06,12.92,12.92,0,0,0-2.4-.23,43.52,43.52,0,0,0-4.38.74,11.62,11.62,0,0,1-3.81.21,23.15,23.15,0,0,0-5.13.05A24.2,24.2,0,0,0,116,96.31a2.63,2.63,0,0,1-1.2.33,25.69,25.69,0,0,1-8.31-1.73c-6.06-2.37-10.16-6.56-12-12.88a3.24,3.24,0,0,1,0-.88,3.67,3.67,0,0,1,.88.13c1.29.42,2.56,1,3.91,1.27a2.56,2.56,0,0,0,2-.16c.53-.56-.09-1.34-.48-1.87-1.22-1.62-2.53-3.16-3.8-4.75-.26-.32-.49-.67-.74-1l.22-.19a1.46,1.46,0,0,1,.45.26c2.1,2.4,4.21,4.81,6.28,7.25a3.37,3.37,0,0,1,.62,1.24c.17.57,0,1-.72,1l-2.21,0H97.82c2.15,6,11.73,11.31,17.82,9.91-.43-1.06-.84-2.11-1.28-3.14a2.25,2.25,0,0,1,.34-2.69,4.31,4.31,0,0,0,.79-1.42A3.6,3.6,0,0,1,117.27,85a10.88,10.88,0,0,0,3.6-3.28A5.79,5.79,0,0,0,122.16,78a2.22,2.22,0,0,1,.06-.81c.27-.54,0-.83-.33-1.2-.72-.72-.67-.77.25-1.32.54-.31,1.25-.47,1.48-1.43-5.53-1-11,.07-16.47.09,2-1.08,4.26-1.54,6.33-3.09L111.77,70c-.52-.09-.65-.39-.39-.83s.48-.75.82-1.27a10,10,0,0,0-1.34,0c-2.27.32-4.54.67-6.84,1a5.1,5.1,0,0,1-1-.07,5.62,5.62,0,0,1,.8-.74c1.2-.79,2.45-1.52,3.63-2.35.52-.37,1.3-1,1.26-1.39-.08-.76-1.05-.73-1.72-.88s-1.57-.3-2.52-.48l.92-1.13a9.53,9.53,0,0,0-1.41-.08l-8.49.87h-.89l0-.3a8.09,8.09,0,0,0,1.09-.57,16,16,0,0,0,2.85-2.19c1.59-1.82.26-4.88-2.09-5.32a8.32,8.32,0,0,1-3.32-1.31c-2.66-2-4.41-4.51-4.18-8a10.9,10.9,0,0,1,0-1.4,3.25,3.25,0,0,0-1.53-3.19A18.14,18.14,0,0,1,82.26,35a2.53,2.53,0,0,0-.9-.68c-1.09-.67-2.2-1.32-3.28-2-.4-.26-.69-.88-1.17-.1a1,1,0,0,1-.68-.23,6.07,6.07,0,0,1-.68-1.46C75,28.6,74.4,26.64,73.9,24.69c-.14-.55-.36-.73-.87-.63a4.35,4.35,0,0,0-3.35,2.09,14.52,14.52,0,0,1-1,1.48c-1-5.12-2.6-9.84-2.88-15.07-2.48,1.89-4.55,3.64-4.22,6.93.13,1.33,0,2.68,0,4l-.28.11c-.49-.47-1-1-1.41-1.49-2.14-2.79-2.57-6-2.42-9.41a8.24,8.24,0,0,0-.17-1.31,4.7,4.7,0,0,0-1.32.31,7.9,7.9,0,0,0-3.38,3.46c-.65,1.36-1.39,2.68-2.12,4.06a5.57,5.57,0,0,1-2.61-3.07,16.56,16.56,0,0,1-.75-7.81,4.21,4.21,0,0,0-.08-.87,4.21,4.21,0,0,0-.84.3,6.62,6.62,0,0,0-2.93,4.34,17,17,0,0,0-.09,6.28c.11.74.25,1.47.33,2.2,0,.16,0,.43-.17.48a.68.68,0,0,1-.52-.11,1.49,1.49,0,0,1-.41-.42,4.93,4.93,0,0,0-2.36-1.63,2.64,2.64,0,0,1-1.28-1.07A11.06,11.06,0,0,1,37,12.34c0-.32-.08-.65-.14-1a1.66,1.66,0,0,0-1.56,1.4,18.35,18.35,0,0,0-.21,3.14,2.22,2.22,0,0,0,.4,1.17Q38.27,21,41.06,24.9c1.71,2.38,3.16,5,5.5,6.84.45.35.4.67-.17.79a2,2,0,0,1-1,.06,9.67,9.67,0,0,1-2.59-1c-2.71-1.95-5.37-4-8-6.07-1.75-1.37-3.36-2.94-5.18-4.2-1.54-1.08-2.93-2.2-3.46-4.09,0-.14-.17-.24-.26-.36-1.9,1-2.23,2.13-1.17,3.84a7.52,7.52,0,0,1,.54.91A11.14,11.14,0,0,0,30.73,27c1,.47,2,1.09,3.17,1.77q-.36,0-.72,0c-4.46-1-8.8-2.1-12.17-5.5-.2-.21-.75-.4-.88-.29a1.35,1.35,0,0,0-.38,1,3.12,3.12,0,0,0,.36,1.23c1.35,2.66,3,5,5.86,6.24.69.29,1.35.62,2,.91,1.62.64,3.25,1.27,5,2a5,5,0,0,1-.74.25c-.43,0-.86.07-1.29.09a50.84,50.84,0,0,1-11.86-1.1,11.32,11.32,0,0,0-1.43-.09c.07.27.06.37.1.41,3.31,2.54,6.46,5.39,11.09,5a4.78,4.78,0,0,1,1.5.18,13.33,13.33,0,0,1,1.47.6A6.13,6.13,0,0,1,31,40c-2.29.26-4.58.49-6.84.76-1.55.19-3.09.42-4.62.67a3.18,3.18,0,0,0-.82.37,3.48,3.48,0,0,0,.54.83A6.8,6.8,0,0,0,21,43.74c1.68.62,3.4,1.11,5.11,1.65l1.08.35A3.25,3.25,0,0,1,25,47.28c-1.2.38-1.25.58-.38,1.48A9.37,9.37,0,0,0,28.94,51l1.64.47v.2l-3.25.89a15.29,15.29,0,0,0,6.17,1.95c-.47.41-.8.67-1.11,1-.56.55-.51.72.25,1,2.38.87,4.76,1.76,7.15,2.58a6.48,6.48,0,0,0,2,.35c1.8,0,3.59-.08,5.39-.12a45.21,45.21,0,0,0,9.43-.78c.92-.21,1.8-.58,2.85-.93a4.92,4.92,0,0,1-.25.91,6.19,6.19,0,0,1-2.39,2.82,37.7,37.7,0,0,1-4,2.1c-1.53.69-3.12,1.22-4.67,1.87-.24.1-.37.44-.57.67.33.15.66.32,1,.43.08,0,.2-.09.32-.12a13.1,13.1,0,0,1,2-.47c2.33-.19,4.66-.3,7-.48a5.45,5.45,0,0,0,3.22-.82c.17-.14.46-.12.7-.17,0,.27.09.69-.06.8a5.52,5.52,0,0,1-1.86,1.31,9,9,0,0,1-3,.27,19.23,19.23,0,0,0-7.23.75c-.13,0-.33.19-.31.24s.16.38.28.4a12.81,12.81,0,0,1,1.39.11c.31.09.8.42.79.62-.06,1,.47,1.11,1.23,1a6.28,6.28,0,0,0,1.06-.06c2.83-.23,5.67-.45,8.49-.74a22.56,22.56,0,0,0,2.93-.66c.32-.09.58-.78.93-.25.14.21-.1.8-.33,1.08A2.4,2.4,0,0,1,65,70a8.31,8.31,0,0,1-2.26.44c-1.8,0-3.6-.06-5.4,0a9.21,9.21,0,0,0-2.12.62l.05.26.9.43a2,2,0,0,1-.33.25c-.68.27-.68.83-.58,1.37s.68.48,1.12.57a6.21,6.21,0,0,0,4.71-.64,3.51,3.51,0,0,1,1.11-.3c1.95-.38,3.91-.73,5.86-1.17A6.66,6.66,0,0,0,69.71,71c.27-.13.52-.29.79-.44a3.16,3.16,0,0,1,0,1c-.49,1.45-1.74,1.79-3.06,2-1.13.13-2.27.1-3.38.27a9.67,9.67,0,0,0-2.19.71,18.77,18.77,0,0,0-1.65.91l2,.8C61,77.15,59.84,78,58.7,78.9A6.31,6.31,0,0,1,55.18,80,8.83,8.83,0,0,0,54,80c-1.41.08-2.8.3-4.2.27-2.69-.05-5.39-.16-8.06-.36a67.14,67.14,0,0,1-27.43-8.69c-1.1-.64-1.17-.65-2.16.19A9.66,9.66,0,0,0,10.64,73a8,8,0,0,0-1.29,7.59,1,1,0,0,0,1,.75A30,30,0,0,1,15,82c3.33.82,6.62,1.8,9.93,2.7,4,1.09,7.89,3.08,12.27,2.14.08,0,.27.07.28.12s0,.38-.07.41a6.9,6.9,0,0,1-1.53.78c-1.84.49-3.66,0-5.44-.38-3.75-.86-7.48-1.87-11.24-2.76a29,29,0,0,0-8-1.09,1.91,1.91,0,0,0-1.23.46A5.38,5.38,0,0,0,8.32,89a.93.93,0,0,0,1,1c4.35.46,8.69,1,13,1.46s9,1.25,13.51.63a4.69,4.69,0,0,1,.75,0,9.25,9.25,0,0,1-.51,1.22,5.64,5.64,0,0,1-2.93,2A28.53,28.53,0,0,1,25.5,97c-4.77.46-9.56.8-14.35,1.17-1.64.13-1.72.25-1,1.75a7.18,7.18,0,0,0,.5.8,2.12,2.12,0,0,0,2.19,1,21.88,21.88,0,0,1,2.56-.19c3.55-.18,7.1-.32,10.64-.55,1.79-.12,3.57-.35,5.34-.62,1.52-.23,3-.57,4.88-1a9.38,9.38,0,0,1-1,1.72A12,12,0,0,1,33,103.15c-2.36,1.43-4.77,2.82-7.23,4.07s-4.89,2.23-7.35,3.34c-.41.19-.86.29-.92.91-.36,3.84,1.83,5.62,4.55,5.66A1.89,1.89,0,0,1,24,118.37a4,4,0,0,0,4.89,2.3,1.07,1.07,0,0,1,1.24.54,7.32,7.32,0,0,0,4.68,3.08,7.83,7.83,0,0,0,4.89-.84c.21.38.39.72.59,1a4,4,0,0,0,4.26,1.94,17.64,17.64,0,0,0,2.93-.88c1.28-.5,1.27-.53,2,.59a4.88,4.88,0,0,0,3.73,2.51,10.66,10.66,0,0,0,4.89-.81,1.18,1.18,0,0,0,.84-1c.17-1.07.43-2.14.66-3.2a44.56,44.56,0,0,1,4.83-13.12c4-6.89,9.82-11.07,17.93-11.72a25.18,25.18,0,0,0,2.59-.5l-3.67-4.68-.81,1.95a19.83,19.83,0,0,1-2.81-5c-.16.11-.24.15-.32.22-1.11,1-1.15,1-1.76-.33a20.27,20.27,0,0,1-2.12-6.69l-.86.76A18.61,18.61,0,0,1,73,78.73a20.13,20.13,0,0,1,1.78,2.59,1.43,1.43,0,0,1,.07.68,12.1,12.1,0,0,0,1.39,5.4L77.75,86l1.66,5.38a4.58,4.58,0,0,0,.43-.34c.89-1.11.89-1.11,1.68,0,1.49,2,2.93,4.13,4.5,6.14a18.91,18.91,0,0,0,2.11,2.18c.22.21.63.51.79.44.88-.44,1.12.31,1.54.74l2.44,2.52.63-1.77,2.26,2.17.56-1.89c.14.28.23.36.24.46,0,.68.42.79,1,.81s.6-.51.78-.92a29.42,29.42,0,0,1,1.72-3.41c.14-.24.81-.23,1.23-.18.16,0,.47.53.4.63-.38.66.06,1,.37,1.47s.9,1.07,1.33,1.63c1,1.26,1,1.68-.12,2.83a4,4,0,0,0-1.14,2.94c0,1.08,0,2.19.06,3.27a11.17,11.17,0,0,0,3.17,7.48,15,15,0,0,0,8.2,3.9,10.83,10.83,0,0,0,2.2.25.74.74,0,0,0,.53-1.27,2.83,2.83,0,0,0-.66-.49,13.9,13.9,0,0,1-3.85-3.56c-1.44-2.18-2.21-4.46-1-7a7.5,7.5,0,0,0,.35-1.23c.48-1.85,1-3.7,1.41-5.55.12-.52.3-.8.9-.84a81.71,81.71,0,0,1,12.71.25,5.8,5.8,0,0,0,1.95,0,12.41,12.41,0,0,1,8.13.6,1.9,1.9,0,0,0,1.2.1c2.5-.74,6.23,1,7.34,3.49a1.68,1.68,0,0,1-.32.09c-3.24.46-6.48.92-9.72,1.36a3,3,0,0,1-1.16-.07,68.79,68.79,0,0,1-10.86-4.36,3.45,3.45,0,0,0-2-.38c-1.71.16-3.41.33-5.13.42a1.18,1.18,0,0,0-1.3,1c-.54,2-1.13,3.91-1.71,5.86-.35,1.22-.18,1.45,1.19,1.51l.17-1.26c.93.51,1.74,1,2.56,1.4a2.32,2.32,0,0,0,1.08.34c.15,0,.27-.54.44-.91l4.12,2.3c.27-1.37.29-1.43,1.43-1.23a12.45,12.45,0,0,1,5.53,2.09A2,2,0,0,1,130,118c-.87,2.86-1.8,5.72-2.67,8.59a2.19,2.19,0,0,0-.06,1.34,11.94,11.94,0,0,0,6.51,6.58c4.56,1.77,8.8.47,12.86-1.77a1.07,1.07,0,0,0,.4-1,1.17,1.17,0,0,0-.88-.54c-1.16-.12-2.34-.06-3.5-.21a8.33,8.33,0,0,1-6.55-4.18c-.31-.53-.6-1,0-1.7a1.49,1.49,0,0,0,.07-1.19c-.24-1-.6-1.85-.89-2.77a1.23,1.23,0,0,1,.51-1.61,8.84,8.84,0,0,0,1.71-1.58c.81-1,1.44-2.09,2.93-2a.53.53,0,0,0,.21-.09,5.62,5.62,0,0,1,4.28-.23c1.44.39,2.93.69,4.34,1a11.1,11.1,0,0,1,3.33,1,4.34,4.34,0,0,1,1.9,4.8c-.19.86-.61,1.68-.85,2.54a3.83,3.83,0,0,0,0,1.07,2.83,2.83,0,0,0,1-.16,17.68,17.68,0,0,0,2.93-2.08,6.59,6.59,0,0,0,2-7A34.29,34.29,0,0,1,159,112a5,5,0,0,1,3.15,2.7c.47,1,.73,2,1.13,2.93a2.89,2.89,0,0,0,.54.67c.24-.2.47-.42.69-.64a.81.81,0,0,0,.13-.45,31.15,31.15,0,0,0,.27-3.61,7.46,7.46,0,0,0-4.54-7.06c-.91-.42-2-.49-2.85-1a5.59,5.59,0,0,0-4.4-.42c-1.16.28-1.67-.06-1.72-1.2a10.57,10.57,0,0,0-2-5.53.42.42,0,0,0,0-.16Zm34.21,72.78h23.1c1.2,0,1.21,0,1.21-1.2V133.29c0-1.28,0-1.28-1.28-1.28H160.61c-1.19,0-1.19,0-1.19,1.22v36.58c0,1.26,0,1.26,1.26,1.26ZM118.38,52.7v.11h.33c4.79-.2,9.59-.49,14.38.25a1.17,1.17,0,0,0,.81-.32,44.28,44.28,0,0,1,9-5.47,78.2,78.2,0,0,0,7.19-3.79c3.35-2.14,4.39-5.12,3.32-8.67-.23-.79-.35-.84-1-.33a3.69,3.69,0,0,0-.67.64c-.65.92-1.24,1.9-2,2.78a7.46,7.46,0,0,1-1.74,1.67,1.82,1.82,0,0,1-2.1-.08c-.76-.53-.37-1.17-.19-1.79a7.52,7.52,0,0,0-3.39-8.89,9.08,9.08,0,0,0-1.12-.46,30.91,30.91,0,0,1,1.08,3.51,3.31,3.31,0,0,1-.79,3.35c-1.13-3.32-4-4.47-6.84-5.65a2.57,2.57,0,0,0,.35,1.17c.7,1.12,1.5,2.18,2.16,3.34a5.48,5.48,0,0,1,.6,4.88l-.45-.72-.44-.7a10.49,10.49,0,0,0-6.84-4.72,5.91,5.91,0,0,0-1.33,0c1.05,1.15,2.08,2.12,2.93,3.22a5.81,5.81,0,0,1,1,4l-1.21-.81a7.8,7.8,0,0,0-5-1.38,3,3,0,0,0-.77.29,2.62,2.62,0,0,0,.6.45,5.7,5.7,0,0,1,2.7,2,2.49,2.49,0,0,1,.64,2.24,15,15,0,0,0-2-1.18,10.76,10.76,0,0,0-2.24-.61,4.07,4.07,0,0,0-1.1.11,6.86,6.86,0,0,0,.57.9,11.37,11.37,0,0,0,.93.9A7,7,0,0,1,128,46.76a3.07,3.07,0,0,1-2,3.59c-1.4.5-2.81,1-4.23,1.38C120.62,52.1,119.49,52.39,118.38,52.7Zm22.43-21.11a.06.06,0,0,0-.06.07v.08l.07-.07S140.83,31.61,140.81,31.59Z" transform="translate(-3.68 -3.65)"/><path class="cls-3" d="M118.8,175.74l6.62-.67c2.84-.29,5.66-.63,8.5-.84,4.88-.37,9.77-.77,14.71-1,6.08-.26,12.17-.37,18.26-.54,2.76-.07,5.54-.16,8.3-.11,6.17.1,12.34.22,18.5.47,5.06.2,10.14.49,15.18.91,6.84.59,13.58,1.3,20.36,2,3.69.39,7.35.92,11,1.39h.58c1.46.24,2.93.45,4.38.73a1.31,1.31,0,0,0,1.23-.48c2.58-2.55,5.17-5.1,7.82-7.62a2.35,2.35,0,0,0,.79-1.82V133.63a2.21,2.21,0,0,0-.74-1.73c-3.09-3-6.15-6-9.22-9L215.79,94a2.64,2.64,0,0,0-2-.84H150.92c-.58-.32-1.13-.67-1.73-1-2.34-1.19-4.89-1.07-7.34-.87a3.47,3.47,0,0,1-.91,0,15.13,15.13,0,0,0-8.09.36,10.74,10.74,0,0,1-4.72.17,20.86,20.86,0,0,0-8.31.85l-2,.59a1,1,0,0,1-1.32-.4.72.72,0,0,1-.09-.2c-.27-.69-.58-1.37-.8-2.07a1.69,1.69,0,0,1,.66-2h98.85a2.78,2.78,0,0,1,2.14.88Q227.53,99.8,237.82,110l16.89,16.77c1.28,1.27,2.55,2.54,3.85,3.78a1.7,1.7,0,0,1,.56,1.33v38.81a1.84,1.84,0,0,1-.66,1.42q-3,2.92-6,5.93a12.1,12.1,0,0,0-.88,1l5,.88q15.73,2.7,31.27,6.54c10.4,2.56,20.72,5.46,30.85,9l.66.24a1.81,1.81,0,0,1,1.37,2.17,1.5,1.5,0,0,1-.15.42c-.68,1.9-1.41,3.79-2.13,5.68l-12,31.7c-.08.22-.15.44-.24.66a1.81,1.81,0,0,1-2.18,1.35,1.92,1.92,0,0,1-.31-.11c-4.28-1.05-8.54-2.22-12.85-3.12q-13.5-2.81-27.07-5.38c-4.4-.84-8.86-1.45-13.28-2.16a3.51,3.51,0,0,1-.75-.07c.23.51.38.88.56,1.24,1.5,2.93,3,5.86,4.5,8.86a1.31,1.31,0,0,0,1.42.86h19.47c1.47,0,1.34-.23,1.34,1.4v52.07c.07.62-.12,1-.82.88a2.91,2.91,0,0,0-.59,0H196.28c-1.42,0-1.42,0-1.42-1.43V239.29a4.09,4.09,0,0,0,0-.7c-.07-.65.16-.87.84-.86,1.83,0,3.68,0,5.52,0a3.89,3.89,0,0,0,.82-.07c-.77-1.55-1.47-3-2.18-4.47-1.84-3.75-3.69-7.48-5.5-11.24a1.39,1.39,0,0,0-1.34-.89c-7.1-.16-14.2-.36-21.31-.52-1.32,0-1.19-.13-1.19,1.18v14.77c0,1.36-.16,1.24,1.28,1.24h10.52c1.31,0,1.23-.14,1.23,1.16V291c0,1.1,0,1.11-1.06,1.11H95.35c-1,0-1,0-1-1v-52.3c0-1,0-1,1-1h15.24V224.26c-2,.26-3.84.51-5.75.8-9.91,1.55-19.75,3.42-29.5,5.79q-11.72,2.86-23.27,6.63c-1.79.58-2.51.23-3-1.55l-12.2-39.3a2.14,2.14,0,0,0-.09-.34c-.47-1.55-.13-2.28,1.42-2.74,7.88-2.36,15.72-4.8,23.65-7,11.67-3.21,23.5-5.64,35.42-7.69,4-.7,8.09-1.29,12.14-2,1.31-.19,1.31-.17,1.31-1.53V143.15H95.36c-.72,0-1-.12-1-1V104a3.13,3.13,0,0,0,.71.35,1.59,1.59,0,0,0,.66-.08,2.2,2.2,0,0,1,2.72-.48V139H114c.58,0,.79.18.73.74v36.51Zm121.32,49.64c-3.13-.38-6.26-.78-9.39-1.13-4.18-.47-8.38-.9-12.56-1.33-2.25-.23-4.5-.44-6.75-.61s-4.51-.31-6.76-.46l-5.87-.44c3.46,6.84,6.84,13.57,10.27,20.41h-8.61c-1.22,0-1.22,0-1.22,1.18v44.59h73.42V241.85H254.08a1.61,1.61,0,0,1-1.67-1.06c-2.28-4.61-4.62-9.19-6.92-13.79a1.59,1.59,0,0,0-1.44-1.1C242.75,225.8,241.44,225.56,240.12,225.38Zm-121.32-2-2.93.24c-1.22.11-1.22.11-1.22,1.38v15.35c0,1.67.22,1.46-1.4,1.46H98.56v45.85h80c.87,0,.9-.37.9-1V242.79c0-1,0-1-1-1h-11.8V220.62H161.8c-4.18.12-8.35.2-12.51.38-4.45.18-8.88.42-13.32.73-4.89.35-9.71.8-14.57,1.23C120.56,223,119.69,223.28,118.8,223.38Zm22.94-46.54c-3.68.31-6.56.53-9.44.8-4.3.4-8.6.77-12.89,1.26-3.9.44-7.72,1-11.58,1.56-5.11.76-10.23,1.5-15.3,2.45q-9.68,1.83-19.27,4-15.54,3.57-30.69,8.51a2,2,0,0,0-1.63,2.23,2,2,0,0,0,.16.54c1.12,3.61,2.26,7.23,3.38,10.84s2.21,7.09,3.29,10.63c1.23,4.06,2.43,8.13,3.67,12.18a1.82,1.82,0,0,0,2.65,1.39c2.17-.69,4.31-1.48,6.5-2.08,6.13-1.7,12.25-3.46,18.44-4.95s12.48-2.72,18.74-4c3.58-.72,7.19-1.27,10.75-1.82,3-.47,6.07-.85,9.11-1.22,2.43-.3,4.88-.5,7.3-.74,3-.31,6-.64,9-.91,1.5-.14,3-.15,4.53-.27,2.66-.2,5.33-.49,8-.66,2-.14,3.91-.17,5.87-.23,2.93-.08,5.86-.22,8.79-.21,6.36,0,12.71.11,19.08.19,3.47,0,6.93.11,10.4.24,2.84.1,5.66.28,8.5.43,1.75.1,3.48.16,5.23.31,2.32.19,4.63.44,6.93.64s4.58.3,6.84.52c2.49.25,5,.6,7.48.88,2.93.34,5.93.61,8.88,1,3.18.41,6.35.89,9.53,1.36,4.25.63,8.51,1.21,12.7,2,5.59,1,11.15,2.09,16.71,3.23,4.65,1,9.3,2,13.92,3,4.18,1,8.32,2.09,12.48,3.14a1.78,1.78,0,0,0,2.33-1l0-.09c.27-.61.52-1.21.76-1.83,1.43-3.51,2.83-7,4.25-10.54,2.67-6.54,5.36-13.07,8-19.55.64-1.57.22-2.39-1.42-2.93-1.95-.65-4-1.31-6-2-10.1-3.09-20.33-5.69-30.67-7.88-7.13-1.5-14.29-2.87-21.5-4.17-4.71-.86-9.47-1.52-14.21-2.2-3.08-.45-6.18-.79-9.26-1.18-2.43-.31-4.84-.66-7.27-.91-2.73-.29-5.48-.48-8.22-.73-3.2-.3-6.39-.64-9.59-.91-2.2-.19-4.41-.33-6.61-.45-3.34-.19-6.67-.34-10-.49-2-.09-3.8-.17-5.71-.21-3.28-.08-6.56-.22-9.84-.18-5.93.07-11.85.24-17.78.38-2.1.06-4.2.16-6.3.23Z" transform="translate(-3.68 -3.65)"/><path class="cls-3" d="M138.85,78.66a3.17,3.17,0,0,0-3-.07,13.19,13.19,0,0,1-3.16.73,3.68,3.68,0,0,0,.44-.8c.07-.39.25-1,.06-1.16a1.34,1.34,0,0,0-1.14-.26,5,5,0,0,0-3.34,2.54c-.39.67-.72,1.38-1.13,2.18-2.06-1.61-1.35-3.79-1.39-5.79l-2.14-.21-.07-.33c.29-.23.58-.46.86-.7a7,7,0,0,0,1-1c.64-.88.46-1.55-.57-1.9a7.4,7.4,0,0,0-2.51-.47c-2.84.06-5.68.24-8.52.38a2.25,2.25,0,0,1-.86-.08c.64-.29,1.29-.57,1.95-.88a5.43,5.43,0,0,0,1-.59c.19-.15.48-.51.42-.61a1.07,1.07,0,0,0-.68-.53c-.88-.17-1.77-.24-2.93-.37.44-.52.81-.92,1.14-1.35a7.61,7.61,0,0,0,.51-.87,2.77,2.77,0,0,0-1.06-.27c-2,.31-4,.68-6,1a1.23,1.23,0,0,1-.76,0c.59-.38,1.21-.72,1.78-1.14a25.6,25.6,0,0,0,2.37-1.9c.57-.52.51-1-.21-1.27a16,16,0,0,0-2.46-.68c-.4-.11-.82-.15-1.39-.25a9.85,9.85,0,0,0,1.17-.87,1,1,0,0,0,.28-.69c0-.12-.34-.3-.55-.32a15.52,15.52,0,0,0-2.55-.15c-1.86.15-3.71.41-5.58.61h-1c.24-.29.41-.51.61-.71,1.86-1.9,1.76-4-.28-5.77-.6-.49-1.23-.93-2-1.53,1.77.37,3.32.72,4.89,1a52.31,52.31,0,0,0,10.75.72c5-.07,10.06-.22,15.11-.26a19.94,19.94,0,0,1,6.84,1.15,11.43,11.43,0,0,1,6.15,4.8c.25.4.5.79.79,1.23.24-.56.47-1.07.76-1.72a7.05,7.05,0,0,1,1.71,5l1.73-1a5.34,5.34,0,0,1-.59,3.19l1.28.46a26.06,26.06,0,0,1,5.86,3.8c4.37,4,4.81,9.51,2.68,14.34-.13.28-.45.48-.68.7a3,3,0,0,1-.47-.78,2.67,2.67,0,0,0-1.31-1.85,31.84,31.84,0,0,0-5.11-2.51C144.76,80,141.78,79.42,138.85,78.66Zm11.73,2.08a1.38,1.38,0,0,0-.26-.34c-.28-.21-.58-.4-.88-.59a25.15,25.15,0,0,0-6.68-2.74c-.88-.24-2-.3-2.54-.89s-.49-1.74-.7-2.65a.85.85,0,0,1,.5-1.11l0,0c1-.41,2-.9,2.88-1.3a1.47,1.47,0,0,1,1-.07,19.14,19.14,0,0,1,7.43,4.75,14.52,14.52,0,0,1,3.55,6.89,9.81,9.81,0,0,0-1.38-8.79c-2-2.83-4.75-4.46-7.82-5.77a1.14,1.14,0,0,0-.85.07c-2.16,1.17-4.31,2.37-6.43,3.6a1.1,1.1,0,0,0-.48.81c.07,1.4.24,2.79.34,4.19,0,.49.22.64.69.73,1.55.33,3.13.67,4.65,1.1,2.34.66,4.58,1.4,7,2.14ZM134.33,62.93a19.65,19.65,0,0,1,5,1.81,6,6,0,0,1,3.24,2.93.6.6,0,0,0,.52.25c.22-.08.55-.37.52-.49-.27-1.08-.61-2.14-1-3.44-.67,1-1.26.74-1.85.23-.39-.32-.8-.63-1.18-1a14.67,14.67,0,0,0-6-3.43c-.79-.2-1.62-.28-2.42-.41a4.33,4.33,0,0,0,.68,1.4,14.56,14.56,0,0,1,2.43,5.27,2,2,0,0,1-1.35,2.41l-.22.05c-.34.09-.71.12-1.17.19a8.87,8.87,0,0,0,4.59,2.69,1.62,1.62,0,0,0,1-.1c1.23-.65,2.43-1.36,3.75-2.1a7.38,7.38,0,0,1-6.49-6.28Zm18.38,17.48c.13-.21.16-.25.15-.28a.8.8,0,0,0-.05-.34c-1.88-3.84-5.1-6.11-8.94-7.64a1,1,0,0,0-.67,0c-.76.32-1.5.69-2.46,1.16a25.27,25.27,0,0,1,12,7.11Zm-11.84-6.19c.1,1.36.11,1.32,1.15,1.62,1.64.46,3.27,1,4.88,1.49.23.07.46.12.7.17a17.09,17.09,0,0,0-6.71-3.27Zm-1.7-6.39c-.86-1.12-.86-1.2-.06-2.15l-3-1.26a5.38,5.38,0,0,0,3.12,3.42ZM150.9,81l.08-.06a.06.06,0,0,0-.07-.06c-.07,0-.06,0-.09,0Z" transform="translate(-3.68 -3.65)"/><path class="cls-3" d="M152.88,315.57h-3.6v-7.08h-5.87c-1.22,0-1.15-.17-1.15,1.11v5.16c0,.64-.14.91-.83.87-1-.06-1.87,0-2.93,0V300c0-1,0-1,1-1h2c.63,0,.8.22.79.81v4.45c0,.73.16,1,1,1,1.76-.06,3.52,0,5.28,0,.61,0,.81-.2.8-.81v-4.46c0-1,0-1,1-1h2.6Z" transform="translate(-3.68 -3.65)"/><path class="cls-3" d="M195.57,302.44H188v3h7.16v2.93c0,.54-.36.5-.72.5h-5.51c-.77,0-1,.22-1,1,0,2.39,0,2.39,2.37,2.39h4.89c.62,0,.83.19.78.8-.07.81.23,1.9-.19,2.35s-1.52.21-2.32.21H185c-.58,0-.81-.13-.8-.76V299.71c0-.6.15-.81.78-.81h9.78c.57,0,.85.11.81.76C195.53,300.56,195.57,301.46,195.57,302.44Z" transform="translate(-3.68 -3.65)"/><path class="cls-3" d="M92.92,315.61c.18-.46.28-.78.41-1.11,2.11-4.88,4.24-9.77,6.33-14.65A1.24,1.24,0,0,1,101,299c2.06,0,2.06,0,2.93,1.95q3,6.84,6,13.68c.12.28.22.57.41,1.05h-3.79c-.2,0-.48-.31-.59-.55-.37-.78-.68-1.57-1-2.37a.78.78,0,0,0-.86-.58h-5a.92.92,0,0,0-1,.74c-.24.71-.54,1.38-.79,2.07-.17.49-.38.78-1,.75A32.6,32.6,0,0,0,92.92,315.61ZM103.48,309l-2-5-1.95,5Z" transform="translate(-3.68 -3.65)"/><path class="cls-3" d="M266.91,311.3a24.33,24.33,0,0,0,2.93,1.25,3.47,3.47,0,0,0,1.72-.16A1.51,1.51,0,0,0,272.8,311a1.57,1.57,0,0,0-1-1.49,8.62,8.62,0,0,0-1.29-.55c-.88-.32-1.78-.58-2.65-1a4.09,4.09,0,0,1-2.93-3.63,4.88,4.88,0,0,1,1.95-4.51,8,8,0,0,1,9.49.44L273.92,303a3.9,3.9,0,0,0-3.84-.89,1.59,1.59,0,0,0-1.26,1.37,1.46,1.46,0,0,0,1,1.54c.52.24,1.08.42,1.63.61s1.13.31,1.67.52c1.8.67,3.15,1.74,3.25,3.84a5,5,0,0,1-2.93,5.28c-2.52,1.2-6.75,1-9.11-1.42Z" transform="translate(-3.68 -3.65)"/><path class="cls-3" d="M255.81,301.06l-2.8,2.35a4.27,4.27,0,0,0-4-1.28c-2.93.59-4.55,3.57-3.75,6.74.67,2.69,2.86,4.27,5.34,3.67a13.67,13.67,0,0,0,2.82-1.45l2.72,2c-1.11,2.25-4.56,3.48-7.87,2.84a8.19,8.19,0,0,1-7-7.06c-.52-4.39,1.2-7.89,4.69-9.44S253.78,298.39,255.81,301.06Z" transform="translate(-3.68 -3.65)"/><path class="cls-3" d="M115.87,302.33V299.6c0-.54.22-.65.7-.65H128.4c.48,0,.67.13.71.65.2,2.73.22,2.72-2.49,2.73-.74,0-1.74-.17-2.11.21s-.18,1.4-.18,2.13v10.94h-3.22c-.16,0-.42-.31-.43-.5a9.52,9.52,0,0,1,0-1.51v-9.85c0-1.6.16-1.39-1.46-1.4Z" transform="translate(-3.68 -3.65)"/><path class="cls-3" d="M218.12,302.3h-4.71v13.31h-3.19c-.63,0-.54-.41-.54-.79V303.06c0-.61-.19-.8-.79-.79H205c0-.87.05-1.64,0-2.41s.16-1,1-1c3.44.05,6.84,0,10.31,0,1.95,0,1.95,0,1.95,1.87Z" transform="translate(-3.68 -3.65)"/><path class="cls-3" d="M164,315.61V299.86c0-.72.19-1,.92-.91a14.86,14.86,0,0,0,2.11,0c.51,0,.69.17.68.67v11.72c0,.73.2,1,1,.93h5.16c.53,0,.8.09.75.7-.07.85-.07,1.7-.1,2.55-.81,0-1.61.11-2.42.11Z" transform="translate(-3.68 -3.65)"/><path class="cls-3" d="M231.18,315.56h-3.72V300c0-.79.17-1.12,1-1a14.72,14.72,0,0,0,2.1,0c.4,0,.67.05.67.55C231.18,304.84,231.18,310.17,231.18,315.56Z" transform="translate(-3.68 -3.65)"/><path class="cls-3" d="M149.34,98.43a10.5,10.5,0,0,1,1.95,5.53c.05,1.14.57,1.48,1.72,1.2a5.59,5.59,0,0,1,4.4.42,29.89,29.89,0,0,0,2.85,1,7.49,7.49,0,0,1,4.55,7.06,33.54,33.54,0,0,1-.28,3.61.8.8,0,0,1-.12.45c-.22.22-.46.44-.7.64a2.94,2.94,0,0,1-.54-.67c-.4-1-.66-2-1.13-2.93a4.91,4.91,0,0,0-3.15-2.7,34.29,34.29,0,0,0,.61,4.83,6.6,6.6,0,0,1-2,7,18.1,18.1,0,0,1-2.93,2.08,2.88,2.88,0,0,1-1.05.16,3.83,3.83,0,0,1,0-1.07c.24-.85.66-1.68.85-2.54a4.34,4.34,0,0,0-1.9-4.8,11,11,0,0,0-3.33-1c-1.43-.36-2.93-.66-4.34-1a5.62,5.62,0,0,0-4.28.23c-.07,0-.14.1-.2.09-1.52-.11-2.14,1-2.93,2a9.14,9.14,0,0,1-1.71,1.58,1.24,1.24,0,0,0-.52,1.61c.29.93.65,1.83.9,2.77a1.5,1.5,0,0,1-.08,1.19c-.55.65-.25,1.17,0,1.7a8.36,8.36,0,0,0,6.56,4.18c1.15.15,2.33.09,3.49.21a1.2,1.2,0,0,1,.88.54,1.07,1.07,0,0,1-.4,1c-4,2.24-8.29,3.54-12.86,1.77a11.92,11.92,0,0,1-6.5-6.58,2.12,2.12,0,0,1,0-1.34c.87-2.87,1.8-5.73,2.67-8.59a2,2,0,0,0-.9-2.62,12.41,12.41,0,0,0-5.53-2.09c-1.14-.19-1.16-.14-1.42,1.23l-4.13-2.29c-.16.36-.28.88-.44.9a2.25,2.25,0,0,1-1.07-.34c-.82-.43-1.64-.89-2.56-1.4l-.18,1.26c-1.37-.06-1.53-.29-1.18-1.51.57-1.95,1.16-3.91,1.7-5.86a1.19,1.19,0,0,1,1.31-1c1.72-.09,3.42-.26,5.13-.42a3.42,3.42,0,0,1,2,.38,68.7,68.7,0,0,0,11,4.37,3,3,0,0,0,1.15.07c3.24-.44,6.48-.9,9.72-1.36a1.68,1.68,0,0,0,.32-.09c-1.11-2.49-4.88-4.23-7.33-3.49a2,2,0,0,1-1.21-.09,12.35,12.35,0,0,0-8.13-.61,5.8,5.8,0,0,1-2,0,81.61,81.61,0,0,0-12.7-.25c-.61,0-.79.32-.91.84-.44,1.85-1,3.7-1.41,5.55a7.5,7.5,0,0,1-.35,1.23c-1.16,2.59-.39,4.88,1.05,7a14,14,0,0,0,3.85,3.56,2.63,2.63,0,0,1,.66.49.74.74,0,0,1-.53,1.27,10.83,10.83,0,0,1-2.2-.25,15,15,0,0,1-8.2-3.9,11.17,11.17,0,0,1-3.17-7.48c-.07-1.08,0-2.19-.06-3.27a4,4,0,0,1,1.14-2.94c1.09-1.15,1.09-1.57.12-2.83-.43-.56-.91-1.07-1.33-1.63s-.75-.81-.37-1.47c.07-.1-.24-.62-.4-.63-.42,0-1.09-.06-1.23.18a29.42,29.42,0,0,0-1.72,3.41c-.18.41,0,1-.78.92s-1-.13-1-.81c0-.1-.1-.18-.24-.46l-.56,1.89-2.26-2.17-.59,1.8-2.44-2.52c-.42-.43-.66-1.18-1.54-.74-.16.07-.57-.23-.79-.44A19.75,19.75,0,0,1,86,97.21c-1.54-2-3-4.09-4.5-6.14-.79-1.09-.79-1.09-1.68,0a4.58,4.58,0,0,1-.43.34L77.75,86l-1.5,1.42a12.13,12.13,0,0,1-1.39-5.4,1.43,1.43,0,0,0-.07-.68A21,21,0,0,0,73,78.77a18.7,18.7,0,0,0-.47,5.87l.86-.76a20.27,20.27,0,0,0,2.12,6.69c.61,1.31.65,1.33,1.76.33a2.38,2.38,0,0,1,.32-.22,19.83,19.83,0,0,0,2.81,5l.81-2,3.67,4.68a25.18,25.18,0,0,1-2.59.5c-8.11.62-13.9,4.8-17.93,11.72a44.58,44.58,0,0,0-4.83,13c-.23,1.06-.49,2.13-.66,3.2a1.18,1.18,0,0,1-.84,1,10.66,10.66,0,0,1-4.89.81,4.87,4.87,0,0,1-3.73-2.45c-.73-1.12-.72-1.09-2-.59a17.64,17.64,0,0,1-2.93.88,4,4,0,0,1-4.22-1.88c-.2-.33-.38-.67-.6-1a7.79,7.79,0,0,1-4.88.84,7.32,7.32,0,0,1-4.68-3.08,1.07,1.07,0,0,0-1.24-.54,4,4,0,0,1-4.89-2.3,1.89,1.89,0,0,0-1.95-1.24c-2.72,0-4.89-1.82-4.55-5.66.06-.63.51-.72.92-.91,2.45-1.11,4.95-2.13,7.35-3.34s4.89-2.64,7.23-4.08a11.44,11.44,0,0,0,2.33-2.12,9,9,0,0,0,1-1.71c-1.81.37-3.31.71-4.88,1-1.77.26-3.55.5-5.34.62-3.55.23-7.09.37-10.64.54a21.89,21.89,0,0,0-2.56.2,2.12,2.12,0,0,1-2.19-1,6,6,0,0,1-.5-.8c-.76-1.5-.68-1.62,1-1.75,4.79-.37,9.58-.71,14.35-1.17a28.62,28.62,0,0,0,7.64-1.62,5.6,5.6,0,0,0,2.93-2,8.6,8.6,0,0,0,.51-1.21,4.69,4.69,0,0,0-.75,0c-4.54.62-9-.13-13.51-.63l-13-1.46c-.67-.07-.93-.3-1-1A5.37,5.37,0,0,1,10,84.4a2,2,0,0,1,1.23-.47,29.35,29.35,0,0,1,8,1.1c3.76.89,7.49,1.89,11.24,2.75a11.37,11.37,0,0,0,5.43.39,7.19,7.19,0,0,0,1.54-.78c.08,0,.09-.27.07-.41s-.2-.14-.28-.12c-4.38,1-8.25-1-12.27-2.14-3.31-.9-6.6-1.88-9.93-2.7a30,30,0,0,0-4.62-.6,1,1,0,0,1-1-.75,8,8,0,0,1,1.38-7.61,10.53,10.53,0,0,1,1.53-1.6c1-.84,1.07-.82,2.16-.18A67.24,67.24,0,0,0,41.89,80c2.68.2,5.38.31,8.07.36,1.39,0,2.79-.19,4.2-.28a8.83,8.83,0,0,0,1.15,0,6.25,6.25,0,0,0,3.52-1.11c1.14-.87,2.27-1.75,3.47-2.68l-2-.8c.54-.33,1.09-.64,1.65-.91a9.5,9.5,0,0,1,2.19-.71c1.12-.17,2.26-.14,3.38-.27,1.32-.16,2.57-.5,3.06-2a2.69,2.69,0,0,0,0-1,8.73,8.73,0,0,1-.78.45,6.8,6.8,0,0,1-1.64.82c-2,.45-3.91.8-5.86,1.18a3.32,3.32,0,0,0-1.12.3,6.18,6.18,0,0,1-4.7.64c-.44-.09-1,0-1.12-.57s-.1-1.11.57-1.37a2.43,2.43,0,0,0,.29-.26l-.9-.43,0-.26a9.21,9.21,0,0,1,2.12-.62c1.8-.08,3.6,0,5.4,0a8.31,8.31,0,0,0,2.26-.44,2.47,2.47,0,0,0,1.13-.8c.23-.28.47-.87.33-1.08-.35-.53-.61.16-.93.25a22.56,22.56,0,0,1-2.93.66c-2.83.29-5.66.51-8.49.74a6.22,6.22,0,0,0-1.06.06c-.76.08-1.29-.05-1.23-1,0-.2-.48-.53-.79-.62a13,13,0,0,0-1.39-.11c-.12,0-.23-.24-.28-.4s.18-.2.31-.24A19.44,19.44,0,0,1,57,66.74a8.73,8.73,0,0,0,3-.26,5.52,5.52,0,0,0,1.86-1.31c.14-.12,0-.53.06-.8-.24,0-.53,0-.7.17a5.45,5.45,0,0,1-3.22.82c-2.34.18-4.67.29-7,.48a13.1,13.1,0,0,0-2,.47c-.12,0-.25.15-.32.12-.34-.12-.66-.28-1-.43.19-.23.33-.57.57-.67,1.55-.65,3.14-1.18,4.67-1.87a38.67,38.67,0,0,0,4-2.1,6.25,6.25,0,0,0,2.39-2.82,5.85,5.85,0,0,0,.25-.91c-1,.35-1.95.72-2.85.93a45.21,45.21,0,0,1-9.43.78c-1.8,0-3.59.12-5.39.11a6.19,6.19,0,0,1-2-.34c-2.39-.82-4.77-1.71-7.15-2.58-.76-.28-.81-.45-.25-1,.31-.3.64-.56,1.11-1a15.15,15.15,0,0,1-6.17-2l3.25-.88v-.2L29,51.07a9.47,9.47,0,0,1-4.29-2.28c-.87-.91-.81-1.1.39-1.48a3.26,3.26,0,0,0,2.14-1.55l-1.08-.34c-1.71-.54-3.43-1-5.11-1.65a6.8,6.8,0,0,1-1.75-1.15,3.48,3.48,0,0,1-.54-.83,3.27,3.27,0,0,1,.81-.37c1.54-.25,3.08-.48,4.63-.67,2.28-.27,4.57-.5,6.84-.76A6.13,6.13,0,0,0,32,39.7a13.33,13.33,0,0,0-1.47-.6A4.81,4.81,0,0,0,29,38.92c-4.62.34-7.81-2.51-11.08-5.05a1.34,1.34,0,0,0-.1-.41,11.32,11.32,0,0,1,1.43.09,50.84,50.84,0,0,0,11.86,1.1,6.23,6.23,0,0,0,1.29-.09,5,5,0,0,0,.74-.25l-5-2c-.69-.29-1.35-.62-2-.91-2.86-1.23-4.55-3.58-5.86-6.24A3,3,0,0,1,19.83,24a1.35,1.35,0,0,1,.38-1c.13-.11.67.08.88.29,3.35,3.4,7.71,4.56,12.17,5.5H34c-1.22-.68-2.16-1.3-3.17-1.77a11.14,11.14,0,0,1-5.51-5.36,7.52,7.52,0,0,0-.54-.91c-1.06-1.71-.73-2.86,1.17-3.84.08.11.22.22.26.36.54,1.89,1.95,3,3.46,4.09,1.82,1.27,3.43,2.83,5.18,4.2,2.65,2.06,5.3,4.11,8,6.07a9.55,9.55,0,0,0,2.59,1,2,2,0,0,0,1-.06c.56-.12.62-.44.17-.79-2.34-1.86-3.79-4.44-5.5-6.84Q38.34,21,35.6,17.11a2.22,2.22,0,0,1-.4-1.17,18.35,18.35,0,0,1,.21-3.14A1.66,1.66,0,0,1,37,11.4c.06.32.11.65.14,1a11.11,11.11,0,0,0,1.76,5.51A2.65,2.65,0,0,0,40.15,19a4.84,4.84,0,0,1,2.37,1.63,1.49,1.49,0,0,0,.41.42.73.73,0,0,0,.52.11c.11,0,.19-.32.17-.48-.08-.73-.22-1.47-.33-2.2a17,17,0,0,1,.09-6.28,6.62,6.62,0,0,1,2.93-4.34,4.21,4.21,0,0,1,.84-.3,4.14,4.14,0,0,1,.08.87A16.45,16.45,0,0,0,48,16.2a5.57,5.57,0,0,0,2.61,3.07c.72-1.39,1.47-2.7,2.12-4.06a7.9,7.9,0,0,1,3.38-3.46,4.7,4.7,0,0,1,1.32-.31,8.12,8.12,0,0,1,.17,1.3c-.15,3.39.28,6.63,2.42,9.42a18,18,0,0,0,1.41,1.49l.28-.11c0-1.35.11-2.69,0-4-.33-3.29,1.74-5,4.22-6.93.28,5.23,2,10,2.88,15.07.38-.61.68-1,1-1.48a4.35,4.35,0,0,1,3.35-2.09c.51-.1.73.08.87.63.5,2,1.06,3.9,1.65,5.86A5.33,5.33,0,0,0,76.31,32a1,1,0,0,0,.68.24c.47-.78.77-.16,1.17.1,1.08.69,2.19,1.34,3.28,2a2.62,2.62,0,0,1,.9.68,18.14,18.14,0,0,0,5.08,5.28A3.25,3.25,0,0,1,89,43.53a9.34,9.34,0,0,0,0,1.4c-.23,3.52,1.52,6.07,4.18,8a8.36,8.36,0,0,0,3.19,1.27c2.35.45,3.68,3.51,2.09,5.32a15.54,15.54,0,0,1-2.85,2.19,7.53,7.53,0,0,1-1.09.57l.06.3h.88l8.49-.87a9.53,9.53,0,0,1,1.41.08L104.4,63c1,.18,1.72.31,2.51.48s1.64.12,1.72.88c0,.42-.74,1-1.25,1.39-1.19.83-2.44,1.56-3.64,2.35a6.26,6.26,0,0,0-.8.74,5.15,5.15,0,0,0,1,.07c2.27-.33,4.54-.68,6.84-1a9.84,9.84,0,0,1,1.33,0c-.34.52-.6.88-.82,1.27s-.13.74.39.83l1.71.26c-2.07,1.55-4.33,2-6.33,3.09,5.49,0,10.94-1.08,16.47-.09-.23,1-1,1.12-1.48,1.43-.92.55-1,.6-.25,1.32.35.37.6.66.33,1.2a2.22,2.22,0,0,0-.06.81,5.74,5.74,0,0,1-1.29,3.68A10.85,10.85,0,0,1,117.23,85,3.59,3.59,0,0,0,115.44,87a4.47,4.47,0,0,1-.78,1.42,2.24,2.24,0,0,0-.35,2.69c.44,1,.85,2.08,1.28,3.14-6.13,1.4-15.63-3.91-17.82-9.91h3.13l2.22-.05c.72,0,.88-.44.71-1a3.37,3.37,0,0,0-.62-1.24c-2.07-2.44-4.18-4.89-6.28-7.25a1.36,1.36,0,0,0-.45-.26l-.16.15c.25.34.48.69.74,1,1.27,1.58,2.58,3.12,3.8,4.74.39.53,1,1.31.48,1.87-.35.35-1.32.31-2,.16-1.32-.33-2.59-.85-3.91-1.27a4.25,4.25,0,0,0-.88-.13,3.24,3.24,0,0,0,0,.88c1.79,6.32,5.87,10.51,12,12.88a25.69,25.69,0,0,0,8.31,1.73,2.63,2.63,0,0,0,1.2-.33,24.2,24.2,0,0,1,8.36-2.94,22.65,22.65,0,0,1,5.14,0,11.62,11.62,0,0,0,3.81-.21,43.52,43.52,0,0,1,4.38-.74,12.92,12.92,0,0,1,2.4.23,10.55,10.55,0,0,0,1.13.06,29.36,29.36,0,0,1,5.22.1c3.64.71,5.72,3.28,7,6.6.11.3-.1.7-.16,1.05a4.19,4.19,0,0,1-.91-.29c-1-.59-2-1.22-2.94-1.83l-.24-.07Zm-6-3.06,1.13.22c.89.24,1.79.46,2.67.72,1.37.38,2.72.8,4.07,1.2h0C148.89,93.6,144.34,93,140.82,94c-.19,0-.39.48-.36.71a.82.82,0,0,0,.5.6C141.74,95.39,142.54,95.36,143.31,95.37ZM87.84,52.65c-.36-.63-.6-1.1-.9-1.54a38.28,38.28,0,0,0-7.67-8c-4-3.25-8.08-6.37-12.11-9.6-2.64-2.12-5.2-4.36-6.48-7.66a.39.39,0,0,1-.21-.06,2.2,2.2,0,0,0,0,2.39,14.06,14.06,0,0,0,2.37,3.44c3.91,3.62,7.82,7.13,11.83,10.65,3.32,2.93,6.68,5.86,9.12,9.67.11.19.3.43.48.45C85.4,52.51,86.55,52.57,87.84,52.65Zm24.3,67.8-.81-.93c-2.21-2.6-3.31-5.51-2.43-9a1,1,0,0,0,0-.55,4.55,4.55,0,0,0-4-2.16,1.15,1.15,0,0,0-1,1.17c-.6,5.49,2.56,10,8.27,11.42Zm30.46,12.28-1.51-.36a9.51,9.51,0,0,1-7-5.69,1.49,1.49,0,0,0-.43-.67c-1.16-.83-3.72-.37-4.64.75a.83.83,0,0,0-.09,1,10.89,10.89,0,0,0,5.42,5.12c2.69,1.1,5.33.73,8.2-.2Zm-92.7-9.6.3.07a2.35,2.35,0,0,0,.3-.33c.57-1,1.13-2,1.67-2.94a1.87,1.87,0,0,0,.23-.65A14.91,14.91,0,0,1,54.47,114c.82-1.46,1.65-2.93,2.36-4.42a8.66,8.66,0,0,0,.83-5.34,3.09,3.09,0,0,0-.34-.65,3.78,3.78,0,0,0-.31.64,15.33,15.33,0,0,1-.65,2.93c-1.25,2.77-2.72,5.44-4,8.21-.89,2-1.59,4-2.32,6.09A6.76,6.76,0,0,0,49.9,123.13Zm1-19.73c-.57,2.93-2.53,5-4.16,7.22-1.18,1.64-2.5,3.2-3.6,4.89a51.83,51.83,0,0,0-2.58,4.82,3.49,3.49,0,0,0-.18,1.11h.24l.44-.5,2-2.29a1.39,1.39,0,0,0,.3-.48A16.34,16.34,0,0,1,47,112.39a20.69,20.69,0,0,0,3.55-5.19,5.32,5.32,0,0,0,.36-3.8ZM31.54,117.74l.31.2a2.42,2.42,0,0,0,.39-.21c.83-.69,1.66-1.39,2.48-2.1a2.43,2.43,0,0,0,.44-.52,15.73,15.73,0,0,1,3.68-4.2c1.47-1.28,2.94-2.58,4.3-4a8.25,8.25,0,0,0,2.22-4.43,2,2,0,0,0-.22-.57c-.12.13-.31.23-.36.37a8.22,8.22,0,0,1-2.18,3.29c-1.6,1.55-3.22,3.07-4.89,4.57a34,34,0,0,0-5.38,6C32,116.68,31.78,117.21,31.54,117.74Zm124,6.21a7.89,7.89,0,0,0,2.69-2.93c.92-2,.37-3.79-.69-5.53-1.4-2.3-2.59-2.3-4.07,0a.86.86,0,0,0-.07.1,1,1,0,0,0,.1,1.37.47.47,0,0,0,.12.09,4.88,4.88,0,0,1,1.95,3.36c.05,1.11,0,2.29,0,3.5Zm-10.45-18.57a8.05,8.05,0,0,0-8.8-6.15,1,1,0,0,0-1,1v0a2.54,2.54,0,0,0,2.17,2.2,18.21,18.21,0,0,1,2.56.11,8.69,8.69,0,0,1,5.05,2.78Zm4.6-3a6,6,0,0,0-3.22-4.63,10.12,10.12,0,0,0-5.06-1.18c-.53,0-1.05,0-1.17.66s-.08,1.27.57,1.53a7.87,7.87,0,0,0,2.71,1,8.06,8.06,0,0,1,4.61,1.41,17,17,0,0,1,1.56,1.19Zm7.82,10.08.29-.16a21.37,21.37,0,0,0-.88-2.35,6.78,6.78,0,0,0-6.42-3.72.85.85,0,0,0-1,.62,2.32,2.32,0,0,0,1.7,2.79l.34,0a6.58,6.58,0,0,1,5.38,2.06,3.08,3.08,0,0,1,.62.67Zm6.06,2.37a6.83,6.83,0,0,0-5.37-7.72c-.27-.06-.78,0-.88.19a1.2,1.2,0,0,0,0,1c.74,1.31,1.23,2.81,3.09,3.14.66.13,1.26.88,1.79,1.45a19.55,19.55,0,0,1,1.42,2Zm-18.7-13.43c.62,1.69,1.25,3.45,1.9,5.24l3.22-1.83c-1.23-1.87-2.68-3.47-5.07-3.45Z" transform="translate(-3.68 -3.65)"/><path class="cls-1" d="M183.67,171.07h-23c-1.26,0-1.26,0-1.26-1.26V133.23c0-1.22,0-1.22,1.19-1.22h46.08c1.27,0,1.28,0,1.28,1.28v36.58c0,1.19,0,1.2-1.21,1.2Zm19-34h-37c-1,0-1,0-1,1.13v26.38c0,1.31-.15,1.2,1.18,1.2h35.63c1.39,0,1.25.2,1.25-1.24V138.28Z" transform="translate(-3.68 -3.65)"/><path class="cls-1" d="M150.94,93.24h62.82a2.62,2.62,0,0,1,2.05.84q14.66,14.46,29.31,28.88c3.07,3,6.13,6,9.22,9a2.2,2.2,0,0,1,.74,1.73v34.58a2.35,2.35,0,0,1-.79,1.82c-2.62,2.51-5.21,5.07-7.82,7.62a1.28,1.28,0,0,1-1.23.47c-1.46-.27-2.93-.48-4.38-.72a3.27,3.27,0,0,1,.28-.37c3.07-3.06,6.13-6.13,9.24-9.16a2.41,2.41,0,0,0,.84-1.89V135.34a2.42,2.42,0,0,0-.82-2q-8.1-7.63-16.13-15.32L215,99.74c-.16-.16-.4-.27-.52-.45-1.22-1.76-2.93-1.86-4.89-1.86-18.17.06-36.33,0-54.49.06a1.73,1.73,0,0,1-1.86-1.11A22,22,0,0,0,150.94,93.24Z" transform="translate(-3.68 -3.65)"/><path class="cls-1" d="M118.8,175.74l-4.11.58V139.81c.07-.56-.14-.75-.72-.74H98.48V103.79c.22-.18.64-.38.63-.54-.12-1.16.67-1.85,1.44-2.84.57.89,1.14,1.7,1.61,2.55a1,1,0,0,1-.12.86c-1.61,2.23-1.43,4.79-1.33,7.32a12.88,12.88,0,0,0,2.4,7.1,2.28,2.28,0,0,1,.2,1.23v13c0,1.08,0,1.09,1.08,1.09h13.24c1.14,0,1.15,0,1.15,1.13Z" transform="translate(-3.68 -3.65)"/><path class="cls-3" d="M118.38,52.7c1.11-.31,2.24-.6,3.34-1,1.42-.44,2.83-.88,4.23-1.38a3.07,3.07,0,0,0,2-3.59A7,7,0,0,0,125.77,43a11.37,11.37,0,0,1-.93-.9,6.86,6.86,0,0,1-.57-.9,4.11,4.11,0,0,1,1.11-.11,10.84,10.84,0,0,1,2.23.61,15,15,0,0,1,2,1.18,2.49,2.49,0,0,0-.64-2.24,5.67,5.67,0,0,0-2.69-2,2.47,2.47,0,0,1-.61-.45,3,3,0,0,1,.77-.29,7.84,7.84,0,0,1,5,1.38l1.2.81a5.76,5.76,0,0,0-1-4,39.8,39.8,0,0,0-2.93-3.22,5.92,5.92,0,0,1,1.33,0,10.47,10.47,0,0,1,6.84,4.72l.44.7.45.72a5.48,5.48,0,0,0-.6-4.88c-.66-1.16-1.45-2.22-2.16-3.34a2.57,2.57,0,0,1-.35-1.17c2.86,1.18,5.7,2.33,6.84,5.65a3.31,3.31,0,0,0,.79-3.35,30.91,30.91,0,0,0-1.08-3.51,9.08,9.08,0,0,1,1.12.46,7.49,7.49,0,0,1,3.39,8.89c-.17.62-.57,1.26.19,1.79a1.82,1.82,0,0,0,2.1.08,7.27,7.27,0,0,0,1.74-1.67c.7-.88,1.29-1.86,1.95-2.78a3.44,3.44,0,0,1,.68-.64c.64-.51.76-.46,1,.33,1.07,3.55,0,6.53-3.32,8.67a76.94,76.94,0,0,1-7.11,3.8,44.28,44.28,0,0,0-9,5.47,1.17,1.17,0,0,1-.81.32c-4.79-.74-9.59-.45-14.38-.25h-.33Zm31.81-11.86a11.71,11.71,0,0,1-4.66,2.33q-2.66.69-5.28,1.52a8.56,8.56,0,0,0-4,2.5,4.41,4.41,0,0,0-1.15,2.44A22.89,22.89,0,0,1,141.65,46a70,70,0,0,0,6.49-2.93,10.53,10.53,0,0,0,2.2-2.17l.1-.43Zm-20.46,2.29v0Z" transform="translate(-3.68 -3.65)"/><path class="cls-1" d="M25.54,103.8l.53-.24.07.18h-.61Z" transform="translate(-3.68 -3.65)"/><path class="cls-1" d="M130.9,37.36l.09.24-.26-.06Z" transform="translate(-3.68 -3.65)"/><path class="cls-1" d="M135.3,33.71l.16.13-.2-.1Z" transform="translate(-3.68 -3.65)"/><path class="cls-1" d="M140.81,31.59a.19.19,0,0,1,0,.08l-.06.07v-.08A.1.1,0,0,1,140.81,31.59Z" transform="translate(-3.68 -3.65)"/><path class="cls-1" d="M24.67,24l.09.26-.27-.06Z" transform="translate(-3.68 -3.65)"/><path class="cls-2" d="M118.8,223.38c.87-.14,1.74-.34,2.62-.42,4.88-.43,9.71-.88,14.57-1.23q6.64-.47,13.32-.73c4.16-.18,8.33-.26,12.51-.38v24.62c0,1.1,0,1.11,1.18,1.11h11c1.48,0,1.35-.14,1.35,1.3v34.81c0,1.28,0,1.29-1.25,1.29H104.62c-1.28,0-1.29,0-1.29-1v-35.4c0-.75.2-1,1-1,2.77.05,5.54,0,8.31,0h5.28c.73,0,1-.25,1-1a5.61,5.61,0,0,1,0-.82Q118.81,234,118.8,223.38Z" transform="translate(-3.68 -3.65)"/><path class="cls-2" d="M204.66,221.85c2.25.15,4.5.27,6.76.46s4.5.38,6.75.61c4.18.43,8.38.86,12.56,1.33,3.13.35,6.26.75,9.39,1.13a8.28,8.28,0,0,0,.5,1.28c3.44,6.31,6.91,12.59,10.34,18.89a1.38,1.38,0,0,0,1.47.81h14.19c1.21,0,1.21,0,1.21,1.19V282.6c0,1.15,0,1.16-1.13,1.16h-62c-1.11,0-1.13,0-1.13-1.07V247.41c0-1,0-1,1.13-1h12.21L214,240.59Z" transform="translate(-3.68 -3.65)"/><path class="cls-2" d="M141.76,176.84l9.11-.35c2.1-.07,4.19-.17,6.29-.23,5.94-.14,11.86-.31,17.79-.38,3.27,0,6.56.1,9.84.18,2,0,3.8.12,5.71.21,3.34.15,6.67.3,10,.49,2.2.12,4.41.26,6.61.45,3.19.27,6.39.61,9.58.91,2.75.25,5.5.44,8.22.73,2.44.25,4.89.61,7.27.91,3.09.39,6.19.73,9.27,1.18,4.74.68,9.5,1.34,14.21,2.2,7.16,1.3,14.32,2.67,21.49,4.17,10.34,2.19,20.53,4.79,30.68,7.88,2,.61,4,1.27,6,1.95,1.64.54,2.06,1.36,1.41,2.93-2.65,6.53-5.34,13.06-8,19.55-1.42,3.51-2.82,7-4.25,10.54-.24.62-.5,1.22-.76,1.83A1.79,1.79,0,0,1,300,233.1l-.1,0c-4.15-1.05-8.29-2.17-12.47-3.14-4.63-1.09-9.27-2.08-13.92-3-5.56-1.14-11.12-2.23-16.71-3.23-4.22-.75-8.48-1.33-12.7-1.95-3.18-.47-6.36-1-9.53-1.36-2.93-.37-5.92-.64-8.88-1-2.5-.28-5-.63-7.48-.88-2.28-.22-4.56-.33-6.84-.52s-4.61-.45-6.93-.64c-1.75-.15-3.49-.21-5.24-.31-2.83-.15-5.65-.33-8.49-.43-3.47-.13-6.94-.2-10.41-.24-6.35-.08-12.7-.17-19.07-.19-2.93,0-5.86.13-8.8.21-1.95.06-3.9.09-5.86.23-2.66.17-5.32.46-8,.66-1.52.12-3,.13-4.54.27-3,.27-6,.6-9,.91-2.43.24-4.88.44-7.3.74-3,.37-6.07.75-9.1,1.22-3.61.55-7.22,1.1-10.75,1.82-6.27,1.25-12.54,2.49-18.75,4s-12.3,3.25-18.43,5c-2.19.6-4.33,1.39-6.5,2.08a1.83,1.83,0,0,1-2.65-1.39c-1.24-4.05-2.44-8.12-3.68-12.18q-1.6-5.31-3.28-10.63c-1.1-3.53-2.27-7.23-3.38-10.84a2,2,0,0,1,.93-2.6,2,2,0,0,1,.54-.17q15.15-4.93,30.69-8.51,9.59-2.19,19.27-4c5.07-1,10.19-1.69,15.3-2.45,3.85-.57,7.71-1.12,11.58-1.56,4.29-.49,8.59-.86,12.89-1.26C135.2,177.35,138.08,177.15,141.76,176.84ZM54.59,229.09l.75-.05a1.85,1.85,0,0,0,.47,0c6-2,12.15-3.73,18.31-5.26,4.62-1.14,9.28-2.15,13.92-3.17,3-.66,6-1.25,9-1.82,1.89-.37,3.79-.69,5.69-1,2.93-.43,5.87-.79,8.8-1.21,2.56-.36,5.1-.82,7.66-1.13,3.22-.38,6.47-.65,9.69-1q4-.39,8.09-.69c2.49-.18,5-.34,7.44-.47,3.41-.17,6.84-.37,10.24-.46,4.36-.13,8.73-.22,13.1-.23,3.9,0,7.71.11,11.57.2,2.29,0,4.59.13,6.84.22,3.77.15,7.53.29,11.3.48,2.45.12,4.89.28,7.32.46l9.28.7,8.44.72c.81.06,1.61.15,2.42.25,1.72.21,3.44.46,5.16.67s3.16.31,4.72.51c2.06.28,4.13.61,6.18.9,2.4.33,4.81.62,7.22,1,2.2.33,4.39.75,6.59,1.12,2.51.41,5,.75,7.52,1.22,3.77.73,7.52,1.53,11.29,2.28,3.31.67,6.64,1.24,9.93,2,4.7,1.07,9.37,2.29,14.06,3.41,2.59.62,2.06.58,2.93-1.65q3.9-9.62,7.76-19.27c1-2.47,1.95-5,2.93-7.45-.29-.27-.54-.23-1-.55-8.34-1.16-15.63-4.31-23.74-6.54-.43-.06-1.29-.3-1.72-.41l-1.13-.25-9.07-2.1c-2.74-.63-5.49-1.31-8.24-1.85-2.54-.49-5.1-.81-7.64-1.22-.51-.08-1-.22-1.55-.33-1-.22-1.95-.47-2.93-.63-1.27-.21-2.55-.32-3.83-.53-1.77-.27-3.53-.61-5.31-.89-1.25-.19-2.51-.28-3.76-.47s-2.41-.5-3.63-.66c-2.71-.34-5.43-.61-8.15-1s-5.14-.66-7.71-1c-1.74-.2-3.51-.3-5.26-.46-2.47-.23-4.89-.5-7.39-.71-1.39-.11-2.8-.11-4.18-.22-2.74-.21-5.47-.49-8.2-.68-3-.19-6.05-.34-9.07-.45-3.5-.12-7-.26-10.51-.25-6.15,0-12.31.13-18.47.22-3.85,0-7.7.11-11.55.24-2.17.08-4.33.31-6.5.45-2.79.19-5.57.33-8.36.5-1,.07-1.95.13-2.93.22l-8,.89c-1.73.2-3.46.33-5.18.57-2.51.33-5,.74-7.53,1.1-3.35.49-6.72.89-10,1.45-3.67.61-7.32,1.34-11,2.08-4,.81-8.07,1.65-12.08,2.56-3.23.72-6.45,1.48-9.64,2.37l-20.27,5.86c-.78.22-1,.52-.69,1.31.71,2.15,1.32,4.34,1.95,6.5s1.5,4.52,2.21,6.79c.47,1.45.87,2.93,1.3,4.4a.65.65,0,0,1,.09.43c1.19,3.9,2.35,7.81,3.56,11.72,0,.07.13.08.23.12Z" transform="translate(-3.68 -3.65)"/><path class="cls-1" d="M118.8,223.38V244.6a5.61,5.61,0,0,0,0,.82c.07.69-.2,1-1,1H104.23c-.78,0-1,.25-1,1v35.4c0,1,0,1,1.29,1H174c1.24,0,1.25,0,1.25-1.29V247.65c0-1.44.13-1.3-1.35-1.3H163c-1.17,0-1.18,0-1.18-1.11V220.62h4.88v21.23h11.78c1,0,1,0,1,1v43.83c0,.67,0,1-.9,1h-80V241.85h14.74c1.62,0,1.38.2,1.39-1.46V225c0-1.27,0-1.27,1.23-1.38Z" transform="translate(-3.68 -3.65)"/><path class="cls-1" d="M204.66,221.85,214,240.58l2.88,5.77H204.7c-1.12,0-1.13,0-1.13,1.05v35.28c0,1.06,0,1.07,1.13,1.07h62c1.12,0,1.13,0,1.13-1.16v-35c0-1.19,0-1.19-1.21-1.19H252.43a1.38,1.38,0,0,1-1.47-.81c-3.43-6.3-6.9-12.58-10.34-18.89a8.28,8.28,0,0,1-.5-1.28c1.32.18,2.63.42,3.91.51a1.59,1.59,0,0,1,1.44,1.1c2.3,4.6,4.65,9.18,6.92,13.79a1.61,1.61,0,0,0,1.67,1.06c5.75-.05,11.49,0,17.23,0h1.34v45.81H199.25V243c0-1.18,0-1.18,1.22-1.18h8.61c-3.45-6.84-6.84-13.53-10.27-20.41Z" transform="translate(-3.68 -3.65)"/><path class="cls-2" d="M150.6,80.75c-2.41-.74-4.65-1.48-6.93-2.12-1.53-.43-3.1-.77-4.65-1.1-.47-.09-.67-.24-.7-.73-.09-1.4-.26-2.79-.33-4.19a1.1,1.1,0,0,1,.48-.81c2.12-1.23,4.27-2.43,6.43-3.6a1.14,1.14,0,0,1,.85-.07c3.05,1.31,5.86,2.93,7.82,5.77A9.84,9.84,0,0,1,155,82.69a14.52,14.52,0,0,0-3.55-6.89A19.21,19.21,0,0,0,144,71.05a1.5,1.5,0,0,0-1,.07c-1,.4-2,.89-2.87,1.3a.87.87,0,0,0-.56,1.08s0,0,0,0c.22.91.16,2,.71,2.65s1.66.65,2.54.89a25.15,25.15,0,0,1,6.68,2.74c.3.19.6.38.88.59C150.43,80.46,150.48,80.61,150.6,80.75Zm-2.7-10.19.36.1-.26-.22-1.47-1.28c-.89-.72-.9-.72-1.59.45Z" transform="translate(-3.68 -3.65)"/><path class="cls-2" d="M134.35,62.94a7.38,7.38,0,0,0,6.51,6.26c-1.31.74-2.51,1.45-3.74,2.1a1.65,1.65,0,0,1-1,.1,8.88,8.88,0,0,1-4.58-2.69c.46-.07.83-.1,1.17-.19a2,2,0,0,0,1.62-2.24c0-.08,0-.15,0-.22a14.58,14.58,0,0,0-2.44-5.27,4.52,4.52,0,0,1-.67-1.4c.8.13,1.63.21,2.42.41a14.67,14.67,0,0,1,6,3.43c.38.33.79.64,1.17,1,.6.51,1.19.81,1.86-.23.39,1.3.72,2.36,1,3.44,0,.12-.3.41-.52.49a.6.6,0,0,1-.52-.25,6,6,0,0,0-3.24-2.93A19.65,19.65,0,0,0,134.35,62.94Z" transform="translate(-3.68 -3.65)"/><path class="cls-1" d="M152.73,80.42a25.22,25.22,0,0,0-12-7.09c1-.47,1.7-.84,2.46-1.16a1,1,0,0,1,.67,0c3.84,1.53,7.06,3.8,8.94,7.64a1,1,0,0,1,0,.34Z" transform="translate(-3.68 -3.65)"/><path class="cls-1" d="M140.89,74.23a17.07,17.07,0,0,1,6.75,3.28c-.24-.06-.47-.1-.7-.17-1.63-.5-3.26-1-4.88-1.49C141,75.55,141,75.59,140.89,74.23Z" transform="translate(-3.68 -3.65)"/><path class="cls-1" d="M139.19,67.84a5.36,5.36,0,0,1-3.1-3.41l3,1.26C138.34,66.64,138.34,66.72,139.19,67.84Z" transform="translate(-3.68 -3.65)"/><path class="cls-2" d="M150.87,81l-.08-.07s.06-.06.09,0,0,0,.07.06Z" transform="translate(-3.68 -3.65)"/><path class="cls-1" d="M103.48,309H99.57l2-5C102.19,305.77,102.8,307.32,103.48,309Z" transform="translate(-3.68 -3.65)"/><path class="cls-2" d="M87.84,52.65c-1.33-.08-2.44-.14-3.55-.26-.18,0-.37-.26-.48-.45-2.44-3.79-5.8-6.71-9.12-9.67-4-3.52-8-7-11.83-10.65a13.79,13.79,0,0,1-2.37-3.44,2.2,2.2,0,0,1,0-2.39c.07,0,.19,0,.2.06,1.28,3.3,3.85,5.54,6.49,7.66,4,3.23,8.12,6.35,12.11,9.6a38.28,38.28,0,0,1,7.67,8A15.3,15.3,0,0,1,87.84,52.65Z" transform="translate(-3.68 -3.65)"/><path class="cls-2" d="M112.14,120.45c-5.71-1.43-8.87-5.93-8.25-11.42a1.14,1.14,0,0,1,1-1.17c1.22-.25,3.58,1,4,2.16a1,1,0,0,1,0,.55c-.88,3.44.21,6.35,2.43,9ZM109,118.13l.09.15.1-.09-.15-.1-.21-.27c-1.19-1.79-2.14-3.63-1.55-5.86a.85.85,0,0,0-.32-.5c-.61-.46-1.25-.88-1.95-1.35a9.78,9.78,0,0,0,3.67,7.87Z" transform="translate(-3.68 -3.65)"/><path class="cls-2" d="M142.6,132.73c-2.87,1-5.51,1.3-8.2.2a10.89,10.89,0,0,1-5.42-5.12.83.83,0,0,1,.09-1c.92-1.12,3.48-1.58,4.64-.75a1.49,1.49,0,0,1,.43.67,9.51,9.51,0,0,0,7,5.69Zm-12-4.49c2.23,3.27,5.39,4.46,9.07,4.55a.79.79,0,0,0-.3-.12c-2.52-.55-4.75-1.51-5.86-4.12a.78.78,0,0,0-.54-.3c-.72,0-1.48,0-2.37,0Z" transform="translate(-3.68 -3.65)"/><path class="cls-2" d="M49.9,123.13a6.73,6.73,0,0,1,.18-1.67c.73-2,1.43-4.12,2.32-6.09,1.24-2.77,2.71-5.44,4-8.21a15.33,15.33,0,0,0,.65-2.93,3.78,3.78,0,0,1,.31-.64,3.09,3.09,0,0,1,.34.65,8.66,8.66,0,0,1-.83,5.34c-.71,1.5-1.54,2.93-2.36,4.42a14.91,14.91,0,0,0-2.07,5.29,1.87,1.87,0,0,1-.23.65c-.54,1-1.1,2-1.67,2.94a2.35,2.35,0,0,1-.3.33Z" transform="translate(-3.68 -3.65)"/><path class="cls-2" d="M50.86,103.4a5.32,5.32,0,0,1-.35,3.86A20.69,20.69,0,0,1,47,112.45a16.34,16.34,0,0,0-3.66,5.78,1.5,1.5,0,0,1-.3.48L41,121l-.44.5h-.24a3.49,3.49,0,0,1,.18-1.11,51.83,51.83,0,0,1,2.58-4.82c1.1-1.7,2.42-3.26,3.6-4.89C48.33,108.36,50.29,106.29,50.86,103.4Z" transform="translate(-3.68 -3.65)"/><path class="cls-2" d="M31.54,117.74c.25-.53.52-1.06.82-1.57a34,34,0,0,1,5.38-6c1.64-1.5,3.26-3,4.89-4.57a8.22,8.22,0,0,0,2.18-3.29c0-.14.24-.24.36-.37.08.2.25.4.22.57A8.25,8.25,0,0,1,43.17,107c-1.37,1.37-2.83,2.67-4.3,4a15.73,15.73,0,0,0-3.68,4.2,2.43,2.43,0,0,1-.44.52c-.82.71-1.65,1.41-2.48,2.1a2.93,2.93,0,0,1-.39.21Z" transform="translate(-3.68 -3.65)"/><path class="cls-2" d="M155.53,123.91c0-1.21.08-2.39,0-3.58a4.88,4.88,0,0,0-1.95-3.36,1,1,0,0,1-.3-1.35.44.44,0,0,1,.08-.11.86.86,0,0,1,.07-.1c1.48-2.3,2.67-2.3,4.07,0,1.06,1.74,1.61,3.55.69,5.53A7.92,7.92,0,0,1,155.53,123.91Zm1.1-2.39a5.31,5.31,0,0,0-.43-6.36.8.8,0,0,0-1.1-.28.55.55,0,0,0-.2.17,6,6,0,0,0-.63.71C156.3,117.17,156.85,119.14,156.63,121.52Z" transform="translate(-3.68 -3.65)"/><path class="cls-2" d="M145.08,105.34a8.67,8.67,0,0,0-5-2.82,19.86,19.86,0,0,0-2.56-.11,2.53,2.53,0,0,1-2.17-2.2,1,1,0,0,1,.93-1h.05A8,8,0,0,1,145.08,105.34Zm-2.61-3.12.23.32-.11-.42a7.89,7.89,0,0,0-6.07-2.08c.25,1.12.62,1.52,1.55,1.41a7.62,7.62,0,0,1,4.4.77Z" transform="translate(-3.68 -3.65)"/><path class="cls-2" d="M149.68,102.32a19.2,19.2,0,0,0-1.56-1.23,8.07,8.07,0,0,0-4.61-1.45,7.67,7.67,0,0,1-2.71-1c-.65-.25-.66-.92-.57-1.52s.64-.65,1.17-.67a10.22,10.22,0,0,1,5.06,1.18A6,6,0,0,1,149.68,102.32Zm-2.53-2.93.24.31-.11-.42a8.05,8.05,0,0,0-5.07-2,2.39,2.39,0,0,0-.83.23,2.91,2.91,0,0,0,.42.89,1.28,1.28,0,0,0,1,.4c1.53-.42,2.94.14,4.36.66Z" transform="translate(-3.68 -3.65)"/><path class="cls-2" d="M157.55,112.4c-.2-.24-.38-.5-.59-.72a6.62,6.62,0,0,0-5.39-2.06,2.29,2.29,0,0,1-2.08-2.5,2,2,0,0,1,0-.34.84.84,0,0,1,1-.61,6.75,6.75,0,0,1,6.39,3.76,22.52,22.52,0,0,1,.91,2.36Zm-1.87-2.93.19.13-.12-.2-.46-.48a6.08,6.08,0,0,0-5-1.81c.28.89.58,1.66,1.41,1.5a5.65,5.65,0,0,1,3.41.51Z" transform="translate(-3.68 -3.65)"/><path class="cls-2" d="M163.61,114.81a18.87,18.87,0,0,0-1.36-2c-.53-.57-1.13-1.32-1.79-1.45-1.86-.33-2.35-1.83-3.09-3.14a1.2,1.2,0,0,1,0-1c.1-.18.61-.26.88-.19A6.84,6.84,0,0,1,163.61,114.81Zm-4.75-6.66h-.27l.15.15c.09.37.15.74.27,1.1.06.19.2.47.32.48a5.23,5.23,0,0,1,3.14,2l.22.15-.07-.29A5.88,5.88,0,0,0,158.86,108.15Zm4.1,4.28-.1-.15a.07.07,0,0,0-.07.07l.06.2Z" transform="translate(-3.68 -3.65)"/><path class="cls-2" d="M143.31,95.37c-.77,0-1.57,0-2.34-.06a.82.82,0,0,1-.5-.6c0-.23.17-.66.36-.71,3.47-1,8.07-.43,10.36,3.47h0c-1.36-.4-2.7-.82-4.07-1.2-.88-.26-1.78-.48-2.67-.72,1.38-.59,2.74,0,4.1.1a8.48,8.48,0,0,0-6.28-1.24Z" transform="translate(-3.68 -3.65)"/><path class="cls-2" d="M144.91,101.34c2.39,0,3.84,1.58,5.12,3.41l-3.22,1.84C146.16,104.79,145.53,103,144.91,101.34Z" transform="translate(-3.68 -3.65)"/><path class="cls-1" d="M143.31,95.37l-1.05-.92a8.51,8.51,0,0,1,6.29,1.24c-1.37-.15-2.73-.69-4.11-.1Z" transform="translate(-3.68 -3.65)"/><path class="cls-2" d="M149.34,98.43l-.12-.21.24.07A1.49,1.49,0,0,1,149.34,98.43Z" transform="translate(-3.68 -3.65)"/><path class="cls-3" d="M202.71,137.05v27.46c0,1.44.14,1.24-1.25,1.24H165.83c-1.33,0-1.18.11-1.18-1.2V138.17c0-1.12,0-1.13,1-1.13h37Zm-4.1,4.09H168.77v20.52h29.84Z" transform="translate(-3.68 -3.65)"/><path class="cls-2" d="M150.34,41a10.53,10.53,0,0,1-2.2,2.17c-2.09,1.09-4.3,2-6.49,2.93a22.89,22.89,0,0,0-6.58,3.59,4.41,4.41,0,0,1,1.15-2.44,8.56,8.56,0,0,1,4-2.5c1.75-.56,3.51-1.06,5.28-1.53a11.56,11.56,0,0,0,4.66-2.32Z" transform="translate(-3.68 -3.65)"/><path class="cls-2" d="M150.19,40.84l.25-.3-.1.43Z" transform="translate(-3.68 -3.65)"/><polygon class="cls-2" points="126.05 39.48 126.11 39.45 126.1 39.53 126.05 39.48"/><path class="cls-4" d="M311.31,200.42c-1,2.49-1.91,5-2.93,7.46q-3.92,9.65-7.76,19.27c-.9,2.23-.38,2.26-2.93,1.64-4.7-1.11-9.36-2.34-14.06-3.42-3.29-.75-6.62-1.32-9.93-2-3.77-.75-7.52-1.56-11.29-2.28-2.49-.47-5-.81-7.52-1.23-2.19-.36-4.38-.78-6.59-1.12-2.4-.36-4.81-.65-7.21-1-2.07-.28-4.12-.62-6.18-.89-1.57-.2-3.16-.33-4.73-.52s-3.44-.45-5.16-.66c-.8-.1-1.61-.19-2.42-.27l-8.45-.7c-3.08-.24-6.18-.49-9.27-.7-2.43-.18-4.89-.34-7.32-.47-3.76-.18-7.53-.32-11.29-.47-2.3-.09-4.6-.19-6.85-.24-3.85-.08-7.71-.19-11.57-.18-4.35,0-8.72.1-13.09.22-3.41.1-6.84.29-10.24.46-2.47.14-5,.3-7.43.48-2.7.2-5.39.43-8.09.68-3.23.3-6.47.57-9.69,1-2.57.31-5.11.77-7.67,1.13-2.94.42-5.87.78-8.8,1.21-1.89.28-3.8.6-5.69,1-3,.58-6,1.17-9,1.82-4.66,1-9.31,2-13.92,3.17C68,225.35,61.9,227,55.87,229.09a1.77,1.77,0,0,1-.46,0l-.76,0h0a.23.23,0,0,1-.22-.1,3.53,3.53,0,0,1-.24-.76c-1-3.05-1.87-6.08-2.78-9.14q-.25-.9-.54-1.8v-.21a.5.5,0,0,0,0-.25c-.43-1.46-.84-2.93-1.29-4.41-.73-2.26-1.5-4.51-2.22-6.78s-1.29-4.35-2-6.5c-.26-.8-.09-1.09.7-1.31L66.31,192c3.19-.9,6.41-1.64,9.65-2.36,4-.91,8-1.75,12.09-2.57,3.64-.74,7.29-1.46,11-2.07,3.34-.57,6.7-1,10.06-1.45,2.51-.36,5-.77,7.52-1.11,1.73-.23,3.46-.37,5.18-.56,2.68-.29,5.35-.61,8-.89,1-.11,2-.17,2.93-.23l8.37-.49c2.16-.14,4.32-.38,6.49-.45,3.85-.13,7.71-.19,11.56-.25,6.15-.09,12.31-.2,18.47-.22,3.51,0,7,.13,10.5.26q4.54.16,9.07.45c2.74.18,5.47.46,8.2.67,1.4.11,2.79.11,4.18.23,2.46.2,4.89.47,7.39.7,1.76.16,3.52.27,5.28.46,2.57.29,5.13.65,7.7,1s5.44.6,8.15,1c1.22.15,2.41.47,3.62.65s2.52.29,3.77.47c1.77.27,3.53.63,5.31.9,1.27.2,2.56.31,3.83.52,1,.16,2,.42,2.93.63.52.11,1,.25,1.57.34,2.54.41,5.09.73,7.62,1.22,2.76.53,5.5,1.21,8.25,1.84l9.06,2.09,1.13.26c.23.08.79.17.9.2,3.29.82,6,1.53,9.27,2.46,3.73,1.06,8.15,1.68,11.8,3C308.65,199.26,310.7,199.66,311.31,200.42ZM105.88,212.3a2,2,0,0,0-.15-.41L92.44,191.37a1.1,1.1,0,0,0-1.37-.49l-5.19.92-3.91.73.83,4.64,4.89-.81-4.77,19.69-7.34-6.37.56-.52a7.61,7.61,0,0,0,2-9.35,7.7,7.7,0,0,0-8.41-4.36c-2.38.4-4.71,1.08-7.06,1.64l-5.39,1.29c1,3.79,1.84,7.44,2.77,11.16l-2.62.74L58.61,215a13.91,13.91,0,0,0,1.69-.42c.78-.3,1,0,1.17.73.44,2,1,3.91,1.49,6l5-1.24-1.72-6.93c1.18-.28,2.3-.49,3.37-.84a1.34,1.34,0,0,1,1.54.41c1.67,1.57,3.4,3.1,5.08,4.68a1.13,1.13,0,0,0,1.14.35c3.39-.76,6.77-1.52,10.17-2.23a.91.91,0,0,0,.84-.9c.16-1,.45-2,.62-2.93a1,1,0,0,1,.88-.9c2.47-.4,4.89-.82,7.38-1.28a.85.85,0,0,1,1,.45c.53.91,1.13,1.78,1.67,2.69a.92.92,0,0,0,1.13.52C102.69,212.82,104.24,212.58,105.88,212.3Zm22.54-16.81c0-.76-.13-1.46-.16-2.15-.1-2-.09-2,1.87-2.06,3.47-.22,6.93-.47,10.39-.7.43,0,.79,0,.75-.63-.13-1.42-.23-2.84-.35-4.39l-18.32,1.29c.17,2.36.33,4.61.49,6.84,0,.66.3,1.56,0,1.91s-1.27.24-2,.41c-.22.05-.57.32-.56.48.06,1.47.19,2.93.3,4.41h2.69c.22,3.17.46,6.31.69,9.5l9.54-.65c2.65-.19,5.3-.36,7.93-.56.4,0,.89,0,.83-.66-.14-1.43-.23-2.86-.34-4.35l-1.23.08c-3.69.27-7.4.51-11.09.81-.64.05-.92-.12-1-.79,0-.93-.08-1.87-.15-2.81s-.09-1,.91-1.08c2.41-.16,4.82-.35,7.24-.48.64,0,1-.19.91-1-.14-1.16-.21-2.33-.25-3.51,0-.58-.33-.59-.76-.56-1.24.1-2.48.21-3.73.29-1.48.16-3,.24-4.66.34Zm22.63,13.13c-.14-4.37-.28-8.59-.42-13.12l7.52,6.91,7.55,6.89c-.3-8.47-.59-16.61-.87-24.66h-5.18c.15,4.42.31,8.72.47,13.21l-15-13.75v1.79q.25,6.9.48,13.8c.1,2.77.2,5.54.26,8.31,0,.64.19.88.88.83C148.12,208.76,149.52,208.73,151.05,208.62Zm37.13-20.25a12.3,12.3,0,0,0-8.79-4.12,11.85,11.85,0,0,0-8.58,2.38c-3.28,2.61-3.42,8.79,1.65,10.66a33.75,33.75,0,0,0,3.84,1c1.78.4,3.61.62,5.34,1.18a1.74,1.74,0,0,1,1.29,2.1,1.71,1.71,0,0,1-.82,1.09,5.44,5.44,0,0,1-2.21,1,8.35,8.35,0,0,1-7.81-2.42l-.78-.74-3.9,3.39a1.92,1.92,0,0,0,.23.35,13.81,13.81,0,0,0,12.83,4.42,10.16,10.16,0,0,0,6-3,6.47,6.47,0,0,0,.17-9.16,6.39,6.39,0,0,0-2.75-1.69,30.73,30.73,0,0,0-3.91-.89c-1.52-.31-3.07-.55-4.58-.91a1.66,1.66,0,0,1-1.48-1.46,2.13,2.13,0,0,1,1.24-2.08,4.39,4.39,0,0,1,1-.4,7.42,7.42,0,0,1,6.22,1c.69.49,1.32,1.07,2,1.66Zm24.87,2.35a12.79,12.79,0,0,0-13.43-5.57,12.26,12.26,0,0,0-9.7,14.36,12,12,0,0,0,1.45,3.85,12.85,12.85,0,0,0,13.94,5.79,12.42,12.42,0,0,0,7-4.4l-4-3.2c-4,3.7-8.18,3.91-11.31.58a7.2,7.2,0,0,1,.29-10.17l.12-.11a7,7,0,0,1,5.22-2,7.09,7.09,0,0,1,5.95,3.8Zm57.77,12.62c.27-1.18.49-2.33.79-3.45a.78.78,0,0,1,.64-.38c.77.11,1.52.34,2.28.52,3.07.71,6.15,1.4,9.22,2.15.64.14.9,0,1-.65a31,31,0,0,1,.77-3.3c.18-.63,0-.79-.62-.92-2.58-.57-5.16-1.2-7.74-1.79-3.1-.72-6.2-1.42-9.35-2.14-.09.29-.18.51-.23.72-.56,2.44-1.14,4.89-1.66,7.3-.13.59-.37.78-1,.62s-1.2-.28-1.89-.44c-.37,1.65-.73,3.21-1.09,4.81l2.58.66c-.07.34-.1.57-.15.8-.59,2.58-1.18,5.16-1.81,7.74-.14.63-.08.89.63,1a23.58,23.58,0,0,1,3.42.8c.76.24.92-.08,1.06-.71.54-2.48,1.13-4.95,1.71-7.41.25-1.1.25-1.1,1.36-.84,2.4.56,4.79,1.09,7.18,1.68.41.1.67.11.78-.36l1-4.35Zm-41.3-.3a8.44,8.44,0,0,0,3.84-2.38,7.7,7.7,0,0,0,1.36-8.11,7.56,7.56,0,0,0-6.5-5c-3.6-.51-7.22-.8-10.83-1.19a10.84,10.84,0,0,0-1.14,0L215,197.64l-2.57-.14c-.13.83-.26,1.68-.4,2.52a5.42,5.42,0,0,0,0,.57c-.13,1.74-.13,1.76,1.59,2,.63.06,1,.18.83,1a18.25,18.25,0,0,0-.26,2.33c-.12,1.3-.23,2.6-.35,3.91,1.52.16,2.87.29,4.22.49.7.09,1-.06,1-.81.12-1.8.37-3.58.52-5.37,0-.73.33-.92,1-.8a20.17,20.17,0,0,0,2.45.27,1.55,1.55,0,0,1,1.41,1c1,2,2.07,4,3.13,6,.15.27.41.66.66.69,2,.28,4,.47,6.18.72ZM99.36,189.59,113.1,213l7.65-26c-1.7.21-3.19.43-4.71.54a1,1,0,0,0-1.08.86v.07c-.48,1.95-1,3.85-1.51,5.77-.57,2.2-1.16,4.4-1.79,6.84-.34-.53-.54-.83-.73-1.15q-2.81-5.13-5.62-10.24c-.2-.37-.32-.78-.91-.7Zm186.32,32.83c1.42.46,2.73.84,4,1.32.71.27,1,.18,1.24-.59,1.23-3.91,2.54-7.82,3.82-11.79.55-1.69,1.11-3.38,1.67-5.09,1.95.63,3.74,1.24,5.55,1.82.3.09.69.35.87-.19.46-1.43.91-2.85,1.39-4.32l-17.59-5.69c-.51,1.59-1,3.13-1.53,4.72l6.29,2.08ZM247.79,189.6a12.23,12.23,0,0,0-11.09,18,13.14,13.14,0,0,0,13.22,6.51,12.27,12.27,0,0,0,10.55-13.78,13,13,0,0,0-.48-2.16A12.72,12.72,0,0,0,247.79,189.6Z" transform="translate(-3.68 -3.65)"/><path class="cls-3" d="M54.59,229.09l.75-.05Z" transform="translate(-3.68 -3.65)"/><path class="cls-3" d="M147.9,70.56l-2.93-1c.69-1.17.7-1.17,1.59-.45.5.42,1,.86,1.47,1.28Z" transform="translate(-3.68 -3.65)"/><path class="cls-3" d="M148,70.44l.26.22-.36-.1Z" transform="translate(-3.68 -3.65)"/><path class="cls-1" d="M108.7,117.94a9.78,9.78,0,0,1-3.67-7.87c.68.47,1.32.89,2,1.35.15.11.36.36.32.5-.59,2.27.36,4.11,1.55,5.86Z" transform="translate(-3.68 -3.65)"/><path class="cls-1" d="M108.83,117.82l.21.27h0l-.3-.19Z" transform="translate(-3.68 -3.65)"/><path class="cls-1" d="M109,118.09l.15.1-.1.09-.09-.15Z" transform="translate(-3.68 -3.65)"/><path class="cls-1" d="M130.61,128.24H133a.74.74,0,0,1,.53.3c1.08,2.61,3.31,3.57,5.87,4.12a.79.79,0,0,1,.3.12C136,132.7,132.84,131.51,130.61,128.24Z" transform="translate(-3.68 -3.65)"/><path class="cls-1" d="M156.63,121.52c.22-2.38-.33-4.35-2.36-5.76a6,6,0,0,1,.63-.71A.81.81,0,0,1,156,115a1.2,1.2,0,0,1,.17.21A5.31,5.31,0,0,1,156.63,121.52Z" transform="translate(-3.68 -3.65)"/><path class="cls-1" d="M142.47,102.22a7.62,7.62,0,0,0-4.4-.77c-1,.11-1.3-.29-1.55-1.41a7.9,7.9,0,0,1,6.07,2.08Z" transform="translate(-3.68 -3.65)"/><path class="cls-1" d="M142.59,102.11l.11.42-.23-.32Z" transform="translate(-3.68 -3.65)"/><path class="cls-1" d="M147.14,99.42c-1.43-.52-2.84-1.08-4.42-.63a1.3,1.3,0,0,1-1-.4,3.3,3.3,0,0,1-.42-.89,2.45,2.45,0,0,1,.83-.23,8.1,8.1,0,0,1,5.08,2Z" transform="translate(-3.68 -3.65)"/><path class="cls-1" d="M147.28,99.31l.11.42-.24-.31Z" transform="translate(-3.68 -3.65)"/><path class="cls-1" d="M155.1,109.09a5.65,5.65,0,0,0-3.41-.51c-.83.16-1.13-.61-1.41-1.5a6.08,6.08,0,0,1,5,1.81Z" transform="translate(-3.68 -3.65)"/><path class="cls-1" d="M155.68,109.44l-.58-.35.19-.2.46.48Z" transform="translate(-3.68 -3.65)"/><path class="cls-1" d="M155.75,109.37l.12.2-.19-.13Z" transform="translate(-3.68 -3.65)"/><path class="cls-1" d="M162.45,111.81a5.23,5.23,0,0,0-3.14-2c-.12,0-.26-.29-.32-.48-.12-.36-.18-.73-.27-1.1l.12-.13a5.88,5.88,0,0,1,3.76,3.52Z" transform="translate(-3.68 -3.65)"/><path class="cls-1" d="M162.94,112.43l-.11.12-.06-.2s0,0,.07-.07Z" transform="translate(-3.68 -3.65)"/><path class="cls-1" d="M158.72,108.28l-.15-.15h.27Z" transform="translate(-3.68 -3.65)"/><path class="cls-1" d="M162.6,111.67l.07.29-.22-.15Z" transform="translate(-3.68 -3.65)"/><path class="cls-1" d="M198.61,141.14v20.52H168.77V141.14Z" transform="translate(-3.68 -3.65)"/><path class="cls-1" d="M105.88,212.29c-1.64.28-3.19.52-4.71.83a.91.91,0,0,1-1.12-.52c-.54-.9-1.14-1.77-1.67-2.68a.85.85,0,0,0-1-.46c-2.45.46-4.89.88-7.38,1.29a1,1,0,0,0-.88.89c-.17,1-.47,2-.63,2.94a.9.9,0,0,1-.84.89c-3.39.72-6.78,1.48-10.17,2.23a1.12,1.12,0,0,1-1.13-.35c-1.68-1.57-3.41-3.11-5.09-4.68a1.34,1.34,0,0,0-1.53-.41c-1.08.35-2.19.56-3.38.84.58,2.3,1.14,4.55,1.72,6.93l-5,1.3c-.52-2.05-1-4-1.49-6-.16-.74-.39-1-1.16-.73a12.06,12.06,0,0,1-1.7.42l-1.21-4.76,2.62-.74-2.78-11.15c1.79-.45,3.52-.89,5.25-1.31,2.35-.56,4.68-1.24,7.06-1.64A7.68,7.68,0,0,1,78,199.8,7.59,7.59,0,0,1,76,209.15l-.58.53L82.81,216l4.76-19.69-4.83.81-.83-4.64,3.91-.72,5.19-.93a1.11,1.11,0,0,1,1.37.49c4.4,6.84,8.86,13.68,13.3,20.52C105.75,212,105.82,212.15,105.88,212.29ZM59.4,213.8c.6-.14,1.13-.24,1.65-.41.69-.21,1-.06,1.21.73.37,1.71.87,3.4,1.25,5.11.15.66.46.82,1.06.65l2.21-.57c-.51-2.1-1-4.07-1.49-6-.21-.74,0-1,.68-1.12,1.21-.28,2.43-.56,3.62-.92a1.9,1.9,0,0,1,2.16.54c1.52,1.51,3.13,2.93,4.74,4.36a1.55,1.55,0,0,0,1.1.44c1.09-.18,2.14-.5,3.38-.81l-7.16-6.26c.42-.27.75-.48,1-.7,2.11-1.61,3.32-3.69,2.94-6.38a7,7,0,0,0-7.74-6.13,6.41,6.41,0,0,0-1.06.21c-3.23.73-6.43,1.62-9.65,2.38-.74.18-.8.45-.63,1.13.72,2.78,1.4,5.58,2.1,8.38.46,1.8.47,1.82-1.36,2.33-.58.15-.77.43-.61,1s.34,1.36.55,2.09ZM89,195.06l-4.82,20c1-.15,1.75-.29,2.55-.4a1,1,0,0,0,.9-.88c.18-1,.4-2,.6-2.93a1,1,0,0,1,.88-1c2.85-.48,5.68-1,8.52-1.48a1.23,1.23,0,0,1,1.5.74,26.92,26.92,0,0,0,1.55,2.48,1,1,0,0,0,.7.44c.91-.11,1.81-.32,2.82-.51a7.06,7.06,0,0,0-.52-1q-5.87-9-11.63-18a1.14,1.14,0,0,0-1.34-.6c-2,.35-3.85.66-5.76,1s-1.77.35-1.48,2.18c.11.67.32.85,1,.7,1.44-.26,2.89-.48,4.55-.77Z" transform="translate(-3.68 -3.65)"/><path class="cls-1" d="M128.42,195.49l4.73-.29,3.74-.3c.42,0,.74,0,.76.57a34.27,34.27,0,0,0,.23,3.5c.09.76-.25.91-.9,1-2.42.13-4.83.32-7.25.48-1,.06-1,.06-.89,1.09s.13,1.87.15,2.8c0,.67.28.85,1,.79,3.69-.29,7.39-.54,11.09-.8l1.22-.08c.12,1.48.21,2.93.34,4.34.06.69-.42.63-.82.66-2.65.2-5.3.38-7.94.56l-9.54.65c-.23-3.19-.46-6.33-.69-9.5H121c-.12-1.46-.25-2.93-.31-4.4,0-.17.34-.44.56-.49.66-.16,1.58,0,2-.4s.06-1.26,0-2c-.15-2.25-.32-4.5-.48-6.84L141,185.57c.12,1.54.23,2.93.34,4.39.06.59-.3.6-.73.62-3.47.23-6.93.48-10.39.7-2,.13-2,.1-1.88,2.06A20.15,20.15,0,0,0,128.42,195.49ZM140,186.64c-5.21.37-10.31.74-15.4,1.06-.71,0-.85.29-.79.91.18,2.22.36,4.44.47,6.66.09,1.87.2,1.55-1.47,1.63-1.1,0-1.1,0-1.07,1.1,0,1.9,0,2,2,1.76.67,0,.85.16.89.81.16,2.57.38,5.13.59,7.7.09,1.12.1,1.11,1.24,1l13.18-.93c1.9-.13,2-.12,1.82-2,0-1.11,0-1.14-1.22-1.06-3.73.24-7.47.48-11.2.75-.5,0-.86.1-.9-.52-.09-1.8-.2-3.59-.31-5.38,0-.47.12-.7.65-.73,2.1-.13,4.19-.31,6.29-.43,2.48-.15,2,.13,2-2.22,0-.77-.3-.91-1-.85-2.45.2-4.88.3-7.34.56-.78.07-1-.16-1-.84-.07-1.21-.18-2.41-.26-3.62-.11-1.64-.1-1.61,1.59-1.72,3.61-.22,7.23-.49,10.84-.71.53,0,.7-.23.64-.72-.1-.74-.18-1.47-.26-2.29Z" transform="translate(-3.68 -3.65)"/><path class="cls-1" d="M151.05,208.62c-1.55.07-2.93.1-4.35.21-.68.06-.86-.18-.87-.83-.06-2.77-.16-5.54-.26-8.31-.15-4.6-.33-9.2-.48-13.8v-1.78c5,4.61,10,9.1,15,13.75-.16-4.5-.31-8.8-.46-13.22h5.18c.28,8,.57,16.2.86,24.66l-7.54-6.89-7.53-6.9C150.79,200.05,150.93,204.28,151.05,208.62Zm-1.4-15.4,14.76,13.5.22-.17c-.07-1.16-.17-2.32-.21-3.5-.17-5.15-.36-10.3-.5-15.44-.06-2,0-2-2-2-1.12,0-1.15,0-1.11,1.09.14,4.26.3,8.51.45,12.71a2.8,2.8,0,0,1-.2.62l-14.74-13.49a6,6,0,0,0-.06,1.69c.19,5.66.35,11.32.56,17,.1,3.08-.59,2.43,2.65,2.46.44,0,.64-.15.6-.62-.07-.78-.11-1.55-.14-2.33-.08-2.14-.18-4.29-.22-6.43,0-1.6,0-3.23,0-5.07Z" transform="translate(-3.68 -3.65)"/><path class="cls-1" d="M188.18,188.41l-3.84,3.32c-.71-.59-1.34-1.17-2-1.66a7.38,7.38,0,0,0-6.15-1.06,4.36,4.36,0,0,0-1,.39,2.13,2.13,0,0,0-1.24,2.08,1.66,1.66,0,0,0,1.48,1.47c1.51.35,3.05.6,4.57.91a29.07,29.07,0,0,1,3.91.88,6.48,6.48,0,0,1,4.28,8.1,6.66,6.66,0,0,1-1.71,2.77,10.2,10.2,0,0,1-5.95,3,13.79,13.79,0,0,1-12.86-4.36,2.12,2.12,0,0,1-.23-.35l3.91-3.4.78.75a8.33,8.33,0,0,0,7.82,2.42,5.5,5.5,0,0,0,2.21-1,1.75,1.75,0,0,0,.62-2.39,1.68,1.68,0,0,0-1.08-.81c-1.74-.55-3.57-.77-5.35-1.17a33.75,33.75,0,0,1-3.84-1c-5.07-1.85-4.89-8.05-1.65-10.66a11.86,11.86,0,0,1,8.58-2.38A12.29,12.29,0,0,1,188.18,188.41Zm-1.45-.07c-.43-.35-.72-.61-1-.83a11.89,11.89,0,0,0-6.55-2.21,10.92,10.92,0,0,0-7.58,2.08c-2.86,2.15-3.09,7.48,1.41,9a33.23,33.23,0,0,0,3.84,1c1.67.37,3.39.56,5,1a2.64,2.64,0,0,1,2,3.11c0,.11-.06.22-.1.33a3.22,3.22,0,0,1-1.95,2.22,8.51,8.51,0,0,1-5.26.65,10,10,0,0,1-4.78-2.31c-.21-.18-.71-.34-.86-.24-.73.55-1.39,1.19-2.14,1.84a13,13,0,0,0,11.56,3.53,9.49,9.49,0,0,0,4.56-2,6,6,0,0,0,2.3-5.87c-.4-2.47-2.14-3.63-4.35-4.18-1.7-.42-3.46-.59-5.16-1a16.66,16.66,0,0,1-3.64-1.12A2.25,2.25,0,0,1,173,190.5a3.66,3.66,0,0,1,2.78-2.44,8.45,8.45,0,0,1,6.84,1c.61.38,1.24,1.14,1.8,1.08s1.14-.86,1.71-1.34Z" transform="translate(-3.68 -3.65)"/><path class="cls-1" d="M213,190.75l-4.41,2.93a7.09,7.09,0,0,0-5.95-3.8,7,7,0,0,0-5.23,2A7.2,7.2,0,0,0,197,202l.09.11c3.14,3.32,7.32,3.11,11.32-.59l4,3.21a12.47,12.47,0,0,1-7,4.4,12.87,12.87,0,0,1-14-5.79,12.27,12.27,0,0,1,8.26-18.19A12.8,12.8,0,0,1,213,190.75Zm-2.27,14.13c-.63-.53-1.23-1-1.76-1.47s-.72-.32-1.15,0a8.29,8.29,0,0,1-11.09-12.32,8.06,8.06,0,0,1,2.07-1.36,7.73,7.73,0,0,1,8.67,1c.56.43,1.09,1.31,1.6,1.28.68,0,1.31-.76,2-1.2.15-.11.29-.24.44-.36-2.15-3.23-7.22-5.51-12.44-4.12a11.27,11.27,0,0,0-1.33,21.35c4.46,1.81,10.17.64,13-2.77Z" transform="translate(-3.68 -3.65)"/><path class="cls-1" d="M270.8,203.37l8.92,2.08c-.33,1.48-.65,2.93-1,4.34-.11.47-.37.47-.78.36-2.4-.58-4.78-1.12-7.18-1.68-1.11-.26-1.12-.27-1.37.84-.57,2.46-1.16,4.93-1.71,7.41-.13.63-.29,1-1.06.71a23.76,23.76,0,0,0-3.41-.8c-.71-.11-.78-.38-.63-1,.63-2.57,1.21-5.16,1.8-7.74,0-.22.09-.46.15-.8l-2.58-.65c.36-1.6.72-3.17,1.1-4.81.69.15,1.29.26,1.88.43s.83,0,1-.62c.52-2.43,1.09-4.88,1.66-7.29a6.67,6.67,0,0,1,.23-.72l9.34,2.13c2.59.59,5.16,1.22,7.75,1.79.6.12.79.3.62.92a30.45,30.45,0,0,0-.78,3.3c-.12.69-.38.8-1,.64-3.07-.73-6.15-1.43-9.22-2.15-.77-.17-1.52-.39-2.28-.5a.76.76,0,0,0-.65.38C271.3,201,271.07,202.18,270.8,203.37Zm13.62-5a3,3,0,0,0-.52-.22c-4.82-1.12-9.64-2.22-14.46-3.35-.77-.19-1,.1-1.17.81-.43,1.95-.91,3.91-1.37,5.91-.42,1.78-.43,1.81-2.26,1.47-.59-.11-.89,0-1,.61s-.45,1.4-.24,2c.16.36,1.06.44,1.66.58s.73.46.58,1c-.2.79-.38,1.59-.56,2.38-.41,1.75-.83,3.49-1.23,5.24-.09.44-.28,1,.42,1.11l2.47.52c.61-2.7,1.21-5.35,1.83-8,.32-1.38.33-1.36,1.74-1l7.53,1.73c.18-.77.34-1.44.51-2.12s0-.81-.66-1c-2.4-.5-4.78-1.1-7.18-1.63-.7-.15-1-.45-.76-1.19.34-1.28.6-2.58.91-3.91.26-1.13.27-1.12,1.36-.87,3.69.84,7.37,1.66,11,2.54.54.13.8.07.9-.5S284.27,199.13,284.42,198.37Z" transform="translate(-3.68 -3.65)"/><path class="cls-1" d="M229.51,203.07c1.63,2.94,3.21,5.82,4.88,8.87-2.19-.25-4.18-.44-6.16-.71-.26,0-.52-.42-.68-.7-1.06-1.95-2.12-4-3.13-6a1.55,1.55,0,0,0-1.41-1,20.15,20.15,0,0,1-2.45-.26c-.69-.13-1,.06-1,.79-.14,1.79-.39,3.58-.51,5.37-.05.75-.32.9-1,.81-1.35-.19-2.71-.32-4.23-.49l.35-3.91a20.27,20.27,0,0,1,.27-2.33c.17-.8-.21-.91-.84-1-1.72-.18-1.72-.2-1.59-2a1.91,1.91,0,0,1,.06-.58c.13-.84.27-1.68.4-2.52l2.57.14,1.22-11.3a10.84,10.84,0,0,1,1.14,0c3.6.38,7.23.67,10.83,1.19a7.53,7.53,0,0,1,6.5,5,7.72,7.72,0,0,1-1.36,8.12A8.6,8.6,0,0,1,229.51,203.07ZM228,202.4c.59-.16,1-.24,1.41-.38a6.52,6.52,0,0,0,4.66-4.81,7,7,0,0,0-6.21-8.72c-3.1-.41-6.21-.68-9.32-1-1.38-.14-1.38-.1-1.55,1.25v.35c-.31,2.93-.65,5.86-.92,8.79-.06.65-.24.93-.91.81a2.79,2.79,0,0,1-.81-.08c-1.07-.16-1.07-.17-1.15.91,0,.58-.36,1.38-.09,1.68s1.1.31,1.7.36.84.39.76,1c-.15,1.32-.24,2.64-.42,4-.3,2.23-.15,2.41,2,2.53.72,0,1-.14,1-.86.13-1.78.34-3.57.55-5.35,0-.39,0-.88.71-.78,1.44.18,2.87.32,4.31.45a1.59,1.59,0,0,1,1.41,1c1,2,1.95,3.91,3,5.87.18.35.5.81.82.87,1.11.22,2.27.3,3.6.46C231,207.86,229.53,205.2,228,202.4Z" transform="translate(-3.68 -3.65)"/><path class="cls-1" d="M99.36,189.58c1.83-.24,3.45-.42,5.06-.66.6-.08.72.33.92.7q2.8,5.13,5.64,10.21c.18.32.39.63.71,1.16.65-2.43,1.24-4.63,1.81-6.84.51-2,1-3.84,1.5-5.76a1,1,0,0,1,1.09-.93c1.51-.11,3-.34,4.71-.55-2.57,8.69-5.09,17.24-7.67,26C108.49,205.11,104,197.43,99.36,189.58Zm13.25,20.52.3-.07c2.14-7.24,4.28-14.48,6.46-21.89a21.69,21.69,0,0,1-2.41.28c-.71,0-1,.24-1.17,1-.9,3.6-1.88,7.22-2.85,10.82-.31,1.13-.63,2.26-1,3.57-.32-.56-.54-.92-.74-1.3-2.14-3.91-4.29-7.82-6.4-11.73-.31-.56-.61-.84-1.27-.72s-1.61.2-2.54.32Z" transform="translate(-3.68 -3.65)"/><path class="cls-1" d="M285.69,222.41c1.95-5.95,3.83-11.79,5.75-17.73l-6.28-2.07c.51-1.6,1-3.14,1.52-4.73l17.59,5.69c-.48,1.47-1,2.93-1.41,4.32-.17.54-.55.29-.86.2l-5.56-1.83c-.55,1.71-1.1,3.4-1.66,5.09-1.28,3.91-2.58,7.82-3.82,11.79-.23.77-.53.86-1.23.59C288.42,223.28,287.11,222.88,285.69,222.41ZM303,204.27l-1.11-.38-12.71-4.14c-2-.62-1.88-.62-2.53,1.35-.23.69-.06,1,.61,1.17,1.49.44,2.93,1,4.45,1.42,1,.32,1,.33.67,1.36-1.53,4.71-3.07,9.4-4.59,14.11-.27.84-.47,1.7-.71,2.55l2.62,1a.78.78,0,0,0,.29-.05l1.72-5.3c1.25-3.85,2.51-7.69,3.74-11.55.17-.57.4-.75,1-.53,1,.37,1.95.67,3,1,.85.25,1.7.46,2.55.68.37-.88.67-1.71,1-2.65Z" transform="translate(-3.68 -3.65)"/><path class="cls-1" d="M247.79,189.59A12.71,12.71,0,0,1,260,198.13a12.27,12.27,0,0,1-10.07,16,13.09,13.09,0,0,1-13.21-6.52,12.21,12.21,0,0,1,11.09-18Zm.29,23.64c.92-.13,1.86-.2,2.78-.38a11.22,11.22,0,0,0,8.4-13.46,11.4,11.4,0,0,0-1.13-2.94,12.41,12.41,0,0,0-12.39-5.72,11.27,11.27,0,0,0-9.29,13,9.93,9.93,0,0,0,.3,1.31,11.73,11.73,0,0,0,11.36,8.24Z" transform="translate(-3.68 -3.65)"/><path class="cls-2" d="M59.4,213.8c-.19-.73-.37-1.39-.55-2.07s0-.84.61-1c1.83-.5,1.82-.52,1.36-2.32-.7-2.8-1.38-5.6-2.1-8.39-.18-.67-.11-1,.63-1.12,3.22-.76,6.42-1.65,9.65-2.38a7,7,0,0,1,8.59,4.86,9,9,0,0,1,.21,1.06c.42,2.69-.8,4.77-2.94,6.38-.3.22-.63.43-1,.7L81,215.8c-1.24.31-2.29.63-3.38.81a1.59,1.59,0,0,1-1.1-.44c-1.61-1.43-3.22-2.85-4.74-4.36a1.9,1.9,0,0,0-2.16-.54c-1.19.36-2.41.64-3.62.92-.65.15-.89.38-.68,1.12.54,1.95,1,3.9,1.49,6l-2.21.58c-.6.17-.91,0-1.06-.65-.38-1.71-.88-3.4-1.25-5.11-.17-.79-.52-1-1.21-.73C60.53,213.56,60,213.66,59.4,213.8Zm15.31-10c0-2.46-1.72-4.89-4.89-4.37-2.33.4-4.62,1.07-6.94,1.6-.45.11-.58.29-.47.73.61,2.38,1.23,4.75,1.8,7.14.13.51.34.58.83.46,2.08-.55,4.17-1,6.24-1.57a5.55,5.55,0,0,0,1.39-.61,3.92,3.92,0,0,0,2-3.38Z" transform="translate(-3.68 -3.65)"/><path class="cls-2" d="M89,195.06c-1.66.29-3.11.51-4.55.81-.66.15-.87,0-1-.7-.29-1.83-.33-1.84,1.48-2.18s3.83-.67,5.76-1a1.14,1.14,0,0,1,1.34.6q5.79,9,11.63,18a7.06,7.06,0,0,1,.52,1c-1,.19-2,.4-2.82.51a1,1,0,0,1-.7-.45c-.54-.8-1.08-1.62-1.55-2.47a1.23,1.23,0,0,0-1.5-.74c-2.84.52-5.67,1-8.52,1.47a1,1,0,0,0-.88,1c-.2,1-.42,2-.6,2.93a1,1,0,0,1-.9.88c-.8.11-1.59.25-2.55.4C85.77,208.33,87.35,201.78,89,195.06Zm2.31,1.54c-.77,3.58-1.49,6.94-2.28,10.53l8-1.4Z" transform="translate(-3.68 -3.65)"/><path class="cls-2" d="M140,186.64c.08.82.16,1.55.25,2.28.06.49-.11.69-.64.72-3.61.22-7.23.49-10.84.71-1.69.11-1.7.08-1.59,1.72.08,1.21.19,2.41.26,3.62,0,.68.23.92,1,.84,2.44-.26,4.88-.36,7.34-.56.68-.06,1,.08,1,.85,0,2.36.46,2.07-2,2.22-2.1.12-4.19.3-6.29.43-.53,0-.68.26-.65.73.11,1.79.22,3.58.31,5.38,0,.62.4.56.9.52,3.73-.27,7.47-.51,11.2-.75,1.17-.08,1.17,0,1.22,1.06.09,1.84.08,1.83-1.81,2l-13.19.93c-1.14.08-1.15.09-1.24-1-.21-2.57-.43-5.13-.58-7.7,0-.65-.23-.86-.9-.81-2,.17-2,.14-2-1.76,0-1.05,0-1.05,1.07-1.1,1.67-.08,1.56.24,1.47-1.63-.11-2.22-.29-4.44-.47-6.66,0-.62.08-.87.79-.91C129.64,187.38,134.74,187,140,186.64Z" transform="translate(-3.68 -3.65)"/><path class="cls-2" d="M149.68,193.25v5.09c0,2.14.14,4.29.22,6.43,0,.79.07,1.56.14,2.34,0,.47-.16.62-.6.62-3.24,0-2.55.62-2.65-2.46-.21-5.65-.38-11.3-.56-17a6,6,0,0,1,.06-1.69L161,200.11a2.8,2.8,0,0,0,.2-.62c-.15-4.25-.31-8.5-.45-12.71,0-1.07,0-1.07,1.11-1.09,2,0,2,0,2.05,1.95.14,5.14.33,10.29.5,15.44,0,1.18.14,2.34.21,3.5l-.23.17Z" transform="translate(-3.68 -3.65)"/><path class="cls-2" d="M186.72,188.34l-.55.47c-.57.48-1.11,1.27-1.71,1.34s-1.19-.7-1.8-1.08a8.45,8.45,0,0,0-6.84-1,3.66,3.66,0,0,0-2.78,2.44,2.25,2.25,0,0,0,1.07,2.93,17.22,17.22,0,0,0,3.64,1.12c1.7.39,3.46.56,5.16,1,2.21.55,3.91,1.71,4.35,4.18a6,6,0,0,1-2.3,5.87,9.49,9.49,0,0,1-4.56,2,12.94,12.94,0,0,1-11.54-3.56c.74-.65,1.41-1.29,2.14-1.84.15-.1.65.06.86.24a10,10,0,0,0,4.78,2.31,8.51,8.51,0,0,0,5.26-.65,3.24,3.24,0,0,0,1.95-2.22,2.63,2.63,0,0,0-1.62-3.35l-.33-.09c-1.63-.49-3.35-.68-5-1a34.3,34.3,0,0,1-3.84-1c-4.49-1.56-4.26-6.89-1.4-9a10.92,10.92,0,0,1,7.58-2.08,11.89,11.89,0,0,1,6.55,2.21C186,187.73,186.29,188,186.72,188.34Z" transform="translate(-3.68 -3.65)"/><path class="cls-2" d="M210.77,204.88c-2.86,3.41-8.57,4.58-13,2.72a11.1,11.1,0,0,1-7.05-11,11.24,11.24,0,0,1,8.38-10.27c5.22-1.38,10.29.9,12.44,4.13-.15.12-.29.25-.44.36-.65.44-1.28,1.17-2,1.2-.51,0-1-.85-1.6-1.28a8.24,8.24,0,1,0,.3,12.71c.43-.37.71-.48,1.16,0S210.14,204.35,210.77,204.88Z" transform="translate(-3.68 -3.65)"/><path class="cls-2" d="M284.42,198.37c-.15.76-.32,1.43-.44,2.11s-.36.64-.9.51c-3.68-.88-7.36-1.7-11.05-2.54-1.09-.25-1.1-.26-1.36.87-.31,1.29-.57,2.59-.91,3.91-.21.74.06,1,.76,1.19,2.4.53,4.78,1.13,7.18,1.62.62.13.8.37.66,1s-.33,1.35-.51,2.12l-7.53-1.73c-1.41-.33-1.42-.35-1.74,1-.62,2.65-1.22,5.3-1.83,8l-2.47-.53c-.7-.14-.51-.66-.42-1.1.4-1.75.82-3.49,1.23-5.24.18-.79.36-1.59.56-2.38.15-.55,0-.87-.58-1s-1.5-.22-1.66-.59.13-1.27.24-2,.4-.72,1-.62c1.83.35,1.84.32,2.26-1.46.46-2,1-3.91,1.37-5.91.15-.71.4-1,1.17-.81,4.82,1.13,9.64,2.23,14.46,3.35A3.21,3.21,0,0,1,284.42,198.37Z" transform="translate(-3.68 -3.65)"/><path class="cls-2" d="M228,202.4c1.56,2.8,3,5.46,4.58,8.33-1.33-.16-2.49-.24-3.6-.46-.32-.06-.64-.52-.82-.87-1-2-2-3.85-3-5.87a1.59,1.59,0,0,0-1.41-1c-1.43-.13-2.87-.27-4.31-.45-.7-.1-.66.39-.71.78-.21,1.78-.42,3.57-.55,5.35-.06.72-.28.9-1,.86-2.19-.12-2.34-.3-2-2.53.18-1.31.27-2.64.42-4,.08-.61-.08-1-.76-1s-1.39,0-1.7-.36,0-1.1.09-1.68c.08-1.08.08-1.07,1.15-.91a3.17,3.17,0,0,1,.81.07c.67.13.85-.15.91-.8.27-2.93.61-5.86.92-8.79v-.35c.17-1.35.17-1.39,1.55-1.25,3.11.29,6.22.56,9.32,1,4.54.6,7.23,4.4,6.21,8.72a6.52,6.52,0,0,1-4.66,4.81C229,202.16,228.56,202.24,228,202.4Zm-8.79-3.25c.6.07,1.14.16,1.68.21,1.95.19,3.91.47,5.93.53a4,4,0,0,0,4.22-3.55c.25-2.59-.9-4.28-3.33-4.83a24.28,24.28,0,0,0-2.54-.37l-5.13-.51-.89,8.2a1.17,1.17,0,0,0,0,.32Z" transform="translate(-3.68 -3.65)"/><path class="cls-2" d="M112.61,210.1,101,190.39c.93-.12,1.74-.18,2.54-.32s1,.16,1.26.72c2.12,3.91,4.27,7.82,6.41,11.73.2.38.42.74.74,1.3.36-1.31.68-2.44,1-3.57,1-3.61,2-7.22,2.82-10.85.18-.7.46-1,1.17-1a21.69,21.69,0,0,0,2.41-.28c-2.18,7.41-4.32,14.66-6.46,21.89Z" transform="translate(-3.68 -3.65)"/><path class="cls-2" d="M303,204.27l-1,2.61c-.85-.23-1.7-.43-2.55-.69s-2-.59-3-1c-.59-.22-.82,0-1,.53-1.23,3.86-2.49,7.7-3.75,11.55l-1.72,5.3c-.13,0-.22.07-.28,0l-2.62-1c.24-.85.44-1.71.71-2.55,1.52-4.71,3.05-9.4,4.59-14.11.33-1,.32-1-.68-1.36-1.47-.48-2.93-1-4.44-1.42-.67-.2-.84-.47-.61-1.17.65-2,.61-2,2.53-1.35l12.71,4.15Z" transform="translate(-3.68 -3.65)"/><path class="cls-2" d="M248.11,213.23A11.73,11.73,0,0,1,236.78,205a11.25,11.25,0,0,1,7.68-14,9.58,9.58,0,0,1,1.31-.3,12.41,12.41,0,0,1,12.39,5.72,11.21,11.21,0,0,1-4.33,15.26,11.07,11.07,0,0,1-2.94,1.14C250,213,249,213.1,248.11,213.23ZM248,193.59A8.32,8.32,0,1,0,256.2,202v-.24A8.28,8.28,0,0,0,248,193.59Z" transform="translate(-3.68 -3.65)"/><path class="cls-1" d="M74.71,203.83a3.92,3.92,0,0,1-2,3.38,5.55,5.55,0,0,1-1.39.61c-2.07.54-4.16,1-6.24,1.57-.49.12-.7.05-.83-.46-.57-2.39-1.19-4.76-1.8-7.14-.11-.44,0-.62.47-.73,2.32-.53,4.61-1.2,6.94-1.6C73,198.91,74.7,201.37,74.71,203.83Zm-11.2-1.89c.4,1.59.79,3.09,1.16,4.59.45,1.8.44,1.8,2.23,1.35,1.47-.37,2.93-.68,4.39-1.16a3.2,3.2,0,0,0,2.34-3.87,3.23,3.23,0,0,0-.57-1.18,3.33,3.33,0,0,0-3.77-1.16C67.4,200.94,65.52,201.44,63.51,201.94Z" transform="translate(-3.68 -3.65)"/><path class="cls-1" d="M91.28,196.6,97,205.73l-8,1.4C89.79,203.54,90.51,200.18,91.28,196.6Zm4,8.39-3.59-5.7-1.43,6.57Z" transform="translate(-3.68 -3.65)"/><path class="cls-1" d="M219.16,199.15a1.8,1.8,0,0,1-.06-.32l.89-8.2,5.13.51a24.28,24.28,0,0,1,2.54.37c2.43.55,3.58,2.24,3.33,4.83a4,4,0,0,1-4.22,3.55c-2-.06-3.91-.34-5.93-.53C220.3,199.31,219.76,199.22,219.16,199.15Zm1-.87c2.24.21,4.32.49,6.43.58a3.21,3.21,0,0,0,.73-6.38c-2.1-.34-4.23-.52-6.44-.77-.2,2.26-.42,4.33-.68,6.57Z" transform="translate(-3.68 -3.65)"/><path class="cls-1" d="M248,193.59a8.32,8.32,0,1,1-8,7.84A8.31,8.31,0,0,1,248,193.59Zm7.19,8.3a7.23,7.23,0,1,0-7.32,7.31A7.35,7.35,0,0,0,255.18,201.89Z" transform="translate(-3.68 -3.65)"/><path class="cls-4" d="M63.51,201.94c2-.5,3.91-1,5.78-1.43a3.33,3.33,0,0,1,3.77,1.16,3.2,3.2,0,0,1-.59,4.48,3.23,3.23,0,0,1-1.18.57c-1.44.48-2.93.79-4.39,1.16-1.79.45-1.78.45-2.23-1.35C64.3,205,63.91,203.53,63.51,201.94Z" transform="translate(-3.68 -3.65)"/><path class="cls-4" d="M95.35,205l-5,.87,1.43-6.57Z" transform="translate(-3.68 -3.65)"/><path class="cls-4" d="M220.17,198.28c.25-2.24.48-4.35.72-6.57,2.21.25,4.34.43,6.44.77a3.21,3.21,0,0,1-.74,6.38C224.49,198.77,222.38,198.49,220.17,198.28Z" transform="translate(-3.68 -3.65)"/><path class="cls-4" d="M255.18,201.89a7.23,7.23,0,1,1-7.15-7.34A7.39,7.39,0,0,1,255.18,201.89Z" transform="translate(-3.68 -3.65)"/></svg>